<svg width="90" height="56" viewBox="0 0 90 56" fill="none" xmlns="http://www.w3.org/2000/svg">
<mask id="path-1-inside-1_224_7805" fill="white">
<path d="M44.6005 13.5463C44.6892 12.9292 44.9847 12.2239 45.4281 11.7537C45.9305 11.2541 46.5807 11.0777 47.2014 11.0777C47.9403 11.0777 48.4723 11.2835 48.8566 11.6067C49.1817 11.8712 49.5659 12.3414 49.5659 13.1643C49.5659 13.9871 49.1817 14.663 48.6792 15.0451C48.0585 15.4859 47.1719 15.5741 46.433 15.5741H46.1374L45.7236 18.6892H45.9896C46.6399 18.6892 47.5856 18.6892 48.2654 19.2769C48.7088 19.659 49.0339 20.3055 49.0339 21.099C49.0339 21.7749 48.7974 22.539 48.3246 23.0386C47.6743 23.7439 46.8172 23.8614 46.1374 23.8614C45.4576 23.8614 44.5709 23.7439 43.9207 23.0092C43.4478 22.4508 43.1522 21.5104 43.0931 20.8639H38.5415C38.6893 22.921 39.576 24.6843 40.6695 25.7716C42.3247 27.4174 44.4527 27.7406 46.3443 27.7406C48.4132 27.7406 50.2752 27.4174 51.8417 25.801C53.1126 24.508 53.7037 22.6859 53.7037 20.9226C53.7037 19.9529 53.4969 19.1888 52.9944 18.4247C52.4624 17.6018 51.8417 17.161 51.3393 16.8965C52.4033 16.4851 52.9648 15.8092 53.1717 15.5447C53.8515 14.663 54.0289 13.6639 54.0289 12.7528C54.0289 10.9602 53.3491 9.7259 52.492 8.90304C51.9304 8.37406 50.4526 7.25732 47.4674 7.25732C45.9896 7.25732 43.8616 7.49243 42.2656 9.10876C41.1424 10.2255 40.4331 11.9888 40.2262 13.5463H44.6005Z"/>
</mask>
<path d="M44.6005 13.5463C44.6892 12.9292 44.9847 12.2239 45.4281 11.7537C45.9305 11.2541 46.5807 11.0777 47.2014 11.0777C47.9403 11.0777 48.4723 11.2835 48.8566 11.6067C49.1817 11.8712 49.5659 12.3414 49.5659 13.1643C49.5659 13.9871 49.1817 14.663 48.6792 15.0451C48.0585 15.4859 47.1719 15.5741 46.433 15.5741H46.1374L45.7236 18.6892H45.9896C46.6399 18.6892 47.5856 18.6892 48.2654 19.2769C48.7088 19.659 49.0339 20.3055 49.0339 21.099C49.0339 21.7749 48.7974 22.539 48.3246 23.0386C47.6743 23.7439 46.8172 23.8614 46.1374 23.8614C45.4576 23.8614 44.5709 23.7439 43.9207 23.0092C43.4478 22.4508 43.1522 21.5104 43.0931 20.8639H38.5415C38.6893 22.921 39.576 24.6843 40.6695 25.7716C42.3247 27.4174 44.4527 27.7406 46.3443 27.7406C48.4132 27.7406 50.2752 27.4174 51.8417 25.801C53.1126 24.508 53.7037 22.6859 53.7037 20.9226C53.7037 19.9529 53.4969 19.1888 52.9944 18.4247C52.4624 17.6018 51.8417 17.161 51.3393 16.8965C52.4033 16.4851 52.9648 15.8092 53.1717 15.5447C53.8515 14.663 54.0289 13.6639 54.0289 12.7528C54.0289 10.9602 53.3491 9.7259 52.492 8.90304C51.9304 8.37406 50.4526 7.25732 47.4674 7.25732C45.9896 7.25732 43.8616 7.49243 42.2656 9.10876C41.1424 10.2255 40.4331 11.9888 40.2262 13.5463H44.6005Z" fill="#0A0B0D"/>
<path d="M44.6005 13.5463V14.5463H45.4671L45.5903 13.6885L44.6005 13.5463ZM45.4281 11.7537L44.723 11.0445L44.7115 11.0559L44.7005 11.0676L45.4281 11.7537ZM48.8566 11.6067L48.2128 12.3719L48.2191 12.3772L48.2255 12.3824L48.8566 11.6067ZM48.6792 15.0451L49.2583 15.8604L49.2715 15.851L49.2845 15.8411L48.6792 15.0451ZM46.1374 15.5741V14.5741H45.2615L45.1461 15.4424L46.1374 15.5741ZM45.7236 18.6892L44.7323 18.5575L44.582 19.6892H45.7236V18.6892ZM48.2654 19.2769L47.6114 20.0334L47.6126 20.0345L48.2654 19.2769ZM48.3246 23.0386L47.5982 22.3511L47.5893 22.3608L48.3246 23.0386ZM43.9207 23.0092L43.1576 23.6555L43.1646 23.6638L43.1719 23.6719L43.9207 23.0092ZM43.0931 20.8639L44.089 20.7728L44.0059 19.8639H43.0931V20.8639ZM38.5415 20.8639V19.8639H37.4671L37.5441 20.9355L38.5415 20.8639ZM40.6695 25.7716L39.9644 26.4808L40.6695 25.7716ZM51.8417 25.801L51.1285 25.1L51.1236 25.1051L51.8417 25.801ZM52.9944 18.4247L52.1546 18.9676L52.1589 18.9741L52.9944 18.4247ZM51.3393 16.8965L50.9786 15.9638L48.9274 16.757L50.8735 17.7814L51.3393 16.8965ZM53.1717 15.5447L53.9594 16.1608L53.9637 16.1553L53.1717 15.5447ZM52.492 8.90304L53.1845 8.18163L53.1776 8.17513L52.492 8.90304ZM42.2656 9.10876L42.9707 9.81791L42.9771 9.81138L42.2656 9.10876ZM40.2262 13.5463L39.2349 13.4146L39.0846 14.5463H40.2262V13.5463ZM45.5903 13.6885C45.6552 13.2367 45.8783 12.7338 46.1556 12.4397L44.7005 11.0676C44.0911 11.7139 43.7231 12.6217 43.6107 13.4041L45.5903 13.6885ZM46.1331 12.4628C46.3974 12.2 46.7634 12.0777 47.2014 12.0777V10.0777C46.398 10.0777 45.4636 10.3081 44.723 11.0445L46.1331 12.4628ZM47.2014 12.0777C47.7424 12.0777 48.0357 12.2229 48.2128 12.3719L49.5004 10.8415C48.909 10.344 48.1382 10.0777 47.2014 10.0777V12.0777ZM48.2255 12.3824C48.3127 12.4534 48.3932 12.5399 48.453 12.6508C48.51 12.7564 48.5659 12.9163 48.5659 13.1643H50.5659C50.5659 11.9697 49.9851 11.2357 49.4876 10.831L48.2255 12.3824ZM48.5659 13.1643C48.5659 13.6733 48.3288 14.0553 48.074 14.2491L49.2845 15.8411C50.0345 15.2708 50.5659 14.301 50.5659 13.1643H48.5659ZM48.1002 14.2298C47.7555 14.4746 47.1526 14.5741 46.433 14.5741V16.5741C47.1912 16.5741 48.3616 16.4972 49.2583 15.8604L48.1002 14.2298ZM46.433 14.5741H46.1374V16.5741H46.433V14.5741ZM45.1461 15.4424L44.7323 18.5575L46.7149 18.8209L47.1287 15.7057L45.1461 15.4424ZM45.7236 19.6892H45.9896V17.6892H45.7236V19.6892ZM45.9896 19.6892C46.7078 19.6892 47.2571 19.7271 47.6114 20.0334L48.9195 18.5205C47.9142 17.6513 46.5719 17.6892 45.9896 17.6892V19.6892ZM47.6126 20.0345C47.8216 20.2145 48.0339 20.5775 48.0339 21.099H50.0339C50.0339 20.0335 49.596 19.1034 48.9182 18.5194L47.6126 20.0345ZM48.0339 21.099C48.0339 21.5834 47.8558 22.0791 47.5983 22.3511L49.0508 23.726C49.7391 22.9988 50.0339 21.9664 50.0339 21.099H48.0339ZM47.5893 22.3608C47.2256 22.7553 46.7239 22.8614 46.1374 22.8614V24.8614C46.9105 24.8614 48.123 24.7325 49.0598 23.7164L47.5893 22.3608ZM46.1374 22.8614C45.5451 22.8614 45.0292 22.7528 44.6695 22.3464L43.1719 23.6719C44.1126 24.7349 45.3701 24.8614 46.1374 24.8614V22.8614ZM44.6838 22.3629C44.3836 22.0085 44.1359 21.2864 44.089 20.7728L42.0973 20.9549C42.1685 21.7344 42.512 22.8931 43.1576 23.6555L44.6838 22.3629ZM43.0931 19.8639H38.5415V21.8639H43.0931V19.8639ZM37.5441 20.9355C37.7086 23.2256 38.6941 25.2177 39.9644 26.4808L41.3746 25.0625C40.4578 24.1509 39.67 22.6165 39.5389 20.7922L37.5441 20.9355ZM39.9644 26.4808C41.9009 28.4062 44.3599 28.7406 46.3443 28.7406V26.7406C44.5455 26.7406 42.7484 26.4285 41.3746 25.0625L39.9644 26.4808ZM46.3443 28.7406C48.5183 28.7406 50.7146 28.4009 52.5598 26.497L51.1236 25.1051C49.8359 26.4338 48.3082 26.7406 46.3443 26.7406V28.7406ZM52.5549 26.502C54.0457 24.9852 54.7037 22.8918 54.7037 20.9226H52.7037C52.7037 22.48 52.1796 24.0307 51.1285 25.1001L52.5549 26.502ZM54.7037 20.9226C54.7037 19.7819 54.4523 18.8217 53.8299 17.8752L52.1589 18.9741C52.5414 19.5558 52.7037 20.1238 52.7037 20.9226H54.7037ZM53.8342 17.8817C53.1895 16.8846 52.4242 16.3376 51.8051 16.0116L50.8735 17.7814C51.2592 17.9845 51.7353 18.3191 52.1546 18.9676L53.8342 17.8817ZM51.6999 17.8292C53.0059 17.3242 53.703 16.4886 53.9594 16.1608L52.3841 14.9286C52.2267 15.1297 51.8007 15.646 50.9786 15.9638L51.6999 17.8292ZM53.9637 16.1553C54.8268 15.0358 55.0289 13.7895 55.0289 12.7528H53.0289C53.0289 13.5382 52.8762 14.2903 52.3798 14.9341L53.9637 16.1553ZM55.0289 12.7528C55.0289 10.676 54.2293 9.18472 53.1845 8.18166L51.7994 9.62442C52.4688 10.2671 53.0289 11.2443 53.0289 12.7528H55.0289ZM53.1776 8.17513C52.4563 7.49568 50.7408 6.25732 47.4674 6.25732V8.25732C50.1644 8.25732 51.4045 9.25245 51.8063 9.63095L53.1776 8.17513ZM47.4674 6.25732C45.9174 6.25732 43.4409 6.49519 41.554 8.40613L42.9771 9.81138C44.2822 8.48966 46.0619 8.25732 47.4674 8.25732V6.25732ZM41.5605 8.39963C40.2407 9.7119 39.4624 11.7019 39.2349 13.4146L41.2175 13.678C41.4038 12.2756 42.0442 10.7391 42.9706 9.81788L41.5605 8.39963ZM40.2262 14.5463H44.6005V12.5463H40.2262V14.5463Z" fill="#006633" mask="url(#path-1-inside-1_224_7805)"/>
<mask id="path-3-inside-2_224_7805" fill="white">
<path d="M41.6029 10.5488C41.6916 9.93161 41.9872 9.2263 42.4305 8.7561C42.933 8.25651 43.5832 8.08018 44.2039 8.08018C44.9428 8.08018 45.4748 8.28589 45.859 8.60916C46.1841 8.87365 46.5683 9.34385 46.5683 10.1667C46.5683 10.9896 46.1841 11.6655 45.6817 12.0475C45.061 12.4883 44.1743 12.5765 43.4354 12.5765H43.1398L42.7261 15.6916H42.9921C43.6423 15.6916 44.5881 15.6916 45.2679 16.2794C45.7112 16.6614 46.0363 17.3079 46.0363 18.1014C46.0363 18.7773 45.7999 19.5414 45.327 20.041C44.6768 20.7463 43.8196 20.8639 43.1398 20.8639C42.4601 20.8639 41.5734 20.7463 40.9231 20.0116C40.4502 19.4533 40.1547 18.5128 40.0956 17.8663H35.5439C35.6917 19.9235 36.5784 21.6867 37.672 22.7741C39.3271 24.4198 41.4552 24.7431 43.3467 24.7431C45.4157 24.7431 47.2777 24.4198 48.8442 22.8035C50.1151 21.5104 50.7062 19.6884 50.7062 17.9251C50.7062 16.9553 50.4993 16.1912 49.9968 15.4271C49.4648 14.6043 48.8442 14.1635 48.3417 13.899C49.4057 13.4875 49.9673 12.8116 50.1742 12.5471C50.854 11.6655 51.0313 10.6663 51.0313 9.75528C51.0313 7.96263 50.3515 6.72834 49.4944 5.90548C48.9328 5.3765 47.455 4.25977 44.4699 4.25977C42.9921 4.25977 40.864 4.49487 39.268 6.1112C38.1449 7.22793 37.4355 8.9912 37.2286 10.5488H41.6029Z"/>
</mask>
<path d="M41.6029 10.5488C41.6916 9.93161 41.9872 9.2263 42.4305 8.7561C42.933 8.25651 43.5832 8.08018 44.2039 8.08018C44.9428 8.08018 45.4748 8.28589 45.859 8.60916C46.1841 8.87365 46.5683 9.34385 46.5683 10.1667C46.5683 10.9896 46.1841 11.6655 45.6817 12.0475C45.061 12.4883 44.1743 12.5765 43.4354 12.5765H43.1398L42.7261 15.6916H42.9921C43.6423 15.6916 44.5881 15.6916 45.2679 16.2794C45.7112 16.6614 46.0363 17.3079 46.0363 18.1014C46.0363 18.7773 45.7999 19.5414 45.327 20.041C44.6768 20.7463 43.8196 20.8639 43.1398 20.8639C42.4601 20.8639 41.5734 20.7463 40.9231 20.0116C40.4502 19.4533 40.1547 18.5128 40.0956 17.8663H35.5439C35.6917 19.9235 36.5784 21.6867 37.672 22.7741C39.3271 24.4198 41.4552 24.7431 43.3467 24.7431C45.4157 24.7431 47.2777 24.4198 48.8442 22.8035C50.1151 21.5104 50.7062 19.6884 50.7062 17.9251C50.7062 16.9553 50.4993 16.1912 49.9968 15.4271C49.4648 14.6043 48.8442 14.1635 48.3417 13.899C49.4057 13.4875 49.9673 12.8116 50.1742 12.5471C50.854 11.6655 51.0313 10.6663 51.0313 9.75528C51.0313 7.96263 50.3515 6.72834 49.4944 5.90548C48.9328 5.3765 47.455 4.25977 44.4699 4.25977C42.9921 4.25977 40.864 4.49487 39.268 6.1112C38.1449 7.22793 37.4355 8.9912 37.2286 10.5488H41.6029Z" fill="#0A0B0D"/>
<path d="M41.6029 10.5488V11.5488H42.4695L42.5928 10.691L41.6029 10.5488ZM42.4305 8.7561L41.7254 8.04698L41.714 8.05835L41.7029 8.07008L42.4305 8.7561ZM45.859 8.60916L45.2152 9.37436L45.2215 9.37968L45.2279 9.38488L45.859 8.60916ZM45.6817 12.0475L46.2607 12.8628L46.274 12.8534L46.2869 12.8436L45.6817 12.0475ZM43.1398 12.5765V11.5765H42.2639L42.1486 12.4448L43.1398 12.5765ZM42.7261 15.6916L41.7348 15.5599L41.5844 16.6916H42.7261V15.6916ZM45.2679 16.2794L44.6138 17.0358L44.6151 17.0369L45.2679 16.2794ZM45.327 20.041L44.6007 19.3535L44.5918 19.3632L45.327 20.041ZM40.9231 20.0116L40.16 20.6579L40.1671 20.6662L40.1743 20.6744L40.9231 20.0116ZM40.0956 17.8663L41.0914 17.7753L41.0083 16.8663H40.0956V17.8663ZM35.5439 17.8663V16.8663H34.4695L34.5465 17.938L35.5439 17.8663ZM37.672 22.7741L36.9669 23.4832L37.672 22.7741ZM48.8442 22.8035L48.131 22.1025L48.1261 22.1075L48.8442 22.8035ZM49.9968 15.4271L49.1571 15.9701L49.1613 15.9766L49.9968 15.4271ZM48.3417 13.899L47.9811 12.9663L45.9298 13.7594L47.8759 14.7839L48.3417 13.899ZM50.1742 12.5471L50.9619 13.1633L50.9661 13.1577L50.1742 12.5471ZM49.4944 5.90548L50.187 5.18407L50.1801 5.17757L49.4944 5.90548ZM39.268 6.1112L39.9731 6.82035L39.9796 6.81382L39.268 6.1112ZM37.2286 10.5488L36.2373 10.4171L36.087 11.5488H37.2286V10.5488ZM42.5928 10.691C42.6577 10.2391 42.8807 9.73627 43.1581 9.44212L41.7029 8.07008C41.0936 8.71633 40.7255 9.62412 40.6131 10.4065L42.5928 10.691ZM43.1356 9.46522C43.3999 9.20246 43.7659 9.08018 44.2039 9.08018V7.08018C43.4005 7.08018 42.4661 7.31055 41.7254 8.04698L43.1356 9.46522ZM44.2039 9.08018C44.7449 9.08018 45.0381 9.22535 45.2152 9.37436L46.5028 7.84396C45.9114 7.34644 45.1406 7.08018 44.2039 7.08018V9.08018ZM45.2279 9.38488C45.3151 9.4558 45.3956 9.54231 45.4554 9.65322C45.5124 9.75887 45.5683 9.91874 45.5683 10.1667H47.5683C47.5683 8.97216 46.9875 8.23813 46.4901 7.83343L45.2279 9.38488ZM45.5683 10.1667C45.5683 10.6757 45.3313 11.0577 45.0764 11.2515L46.2869 12.8436C47.037 12.2733 47.5683 11.3034 47.5683 10.1667H45.5683ZM45.1026 11.2322C44.7579 11.4771 44.155 11.5765 43.4354 11.5765V13.5765C44.1936 13.5765 45.3641 13.4996 46.2607 12.8628L45.1026 11.2322ZM43.4354 11.5765H43.1398V13.5765H43.4354V11.5765ZM42.1486 12.4448L41.7348 15.5599L43.7174 15.8233L44.1311 12.7082L42.1486 12.4448ZM42.7261 16.6916H42.9921V14.6916H42.7261V16.6916ZM42.9921 16.6916C43.7103 16.6916 44.2595 16.7295 44.6138 17.0358L45.9219 15.5229C44.9166 14.6537 43.5743 14.6916 42.9921 14.6916V16.6916ZM44.6151 17.0369C44.824 17.2169 45.0363 17.58 45.0363 18.1014H47.0363C47.0363 17.0359 46.5984 16.1059 45.9207 15.5218L44.6151 17.0369ZM45.0363 18.1014C45.0363 18.5858 44.8582 19.0816 44.6008 19.3536L46.0532 20.7284C46.7416 20.0013 47.0363 18.9689 47.0363 18.1014H45.0363ZM44.5918 19.3632C44.228 19.7577 43.7264 19.8639 43.1398 19.8639V21.8639C43.9129 21.8639 45.1255 21.7349 46.0622 20.7188L44.5918 19.3632ZM43.1398 19.8639C42.5475 19.8639 42.0317 19.7553 41.672 19.3489L40.1743 20.6744C41.1151 21.7374 42.3726 21.8639 43.1398 21.8639V19.8639ZM41.6862 19.3653C41.3861 19.0109 41.1384 18.2889 41.0914 17.7753L39.0997 17.9574C39.171 18.7368 39.5144 19.8956 40.16 20.6579L41.6862 19.3653ZM40.0956 16.8663H35.5439V18.8663H40.0956V16.8663ZM34.5465 17.938C34.711 20.228 35.6966 22.2201 36.9669 23.4832L38.3771 22.065C37.4603 21.1534 36.6724 19.6189 36.5414 17.7947L34.5465 17.938ZM36.9669 23.4832C38.9034 25.4086 41.3623 25.7431 43.3467 25.7431V23.7431C41.548 23.7431 39.7509 23.431 38.3771 22.065L36.9669 23.4832ZM43.3467 25.7431C45.5207 25.7431 47.717 25.4034 49.5623 23.4994L48.1261 22.1075C46.8384 23.4362 45.3106 23.7431 43.3467 23.7431V25.7431ZM49.5574 23.5044C51.0481 21.9877 51.7062 19.8942 51.7062 17.9251H49.7062C49.7062 19.4825 49.182 21.0331 48.131 22.1025L49.5574 23.5044ZM51.7062 17.9251C51.7062 16.7844 51.4548 15.8242 50.8324 14.8777L49.1613 15.9766C49.5438 16.5583 49.7062 17.1262 49.7062 17.9251H51.7062ZM50.8366 14.8842C50.1919 13.887 49.4267 13.34 48.8075 13.0141L47.8759 14.7839C48.2617 14.9869 48.7378 15.3215 49.1571 15.9701L50.8366 14.8842ZM48.7024 14.8317C50.0084 14.3267 50.7054 13.491 50.9618 13.1632L49.3865 11.931C49.2292 12.1322 48.8031 12.6484 47.9811 12.9663L48.7024 14.8317ZM50.9661 13.1577C51.8293 12.0383 52.0313 10.792 52.0313 9.75528H50.0313C50.0313 10.5406 49.8787 11.2927 49.3823 11.9365L50.9661 13.1577ZM52.0313 9.75528C52.0313 7.67848 51.2318 6.18716 50.1869 5.1841L48.8019 6.62686C49.4713 7.26952 50.0313 8.24678 50.0313 9.75528H52.0313ZM50.1801 5.17757C49.4588 4.49812 47.7433 3.25977 44.4699 3.25977V5.25977C47.1668 5.25977 48.4069 6.25489 48.8087 6.63339L50.1801 5.17757ZM44.4699 3.25977C42.9198 3.25977 40.4434 3.49763 38.5564 5.40857L39.9796 6.81382C41.2847 5.4921 43.0643 5.25977 44.4699 5.25977V3.25977ZM38.5629 5.40207C37.2431 6.71434 36.4648 8.70439 36.2373 10.4171L38.2199 10.6804C38.4062 9.27801 39.0466 7.74152 39.9731 6.82032L38.5629 5.40207ZM37.2286 11.5488H41.6029V9.54875H37.2286V11.5488Z" fill="#6AC687" mask="url(#path-3-inside-2_224_7805)"/>
<path d="M20.3455 36.0275H22.3808C22.2214 36.797 21.8291 37.2562 21.5593 37.5044C21.0321 37.9885 20.4191 38.1622 19.7447 38.1622C18.7271 38.1622 18.1508 37.7278 17.8443 37.4175C17.3907 36.9459 17.0719 36.164 17.0719 35.3448C17.0719 34.4761 17.3784 33.5328 18.0773 32.8378C18.5677 32.3413 19.3279 31.9069 20.4191 31.9069C20.9463 31.9069 21.449 32.031 21.9149 32.3289C22.2337 32.5399 22.577 32.8874 22.8099 33.2101L23.8153 32.453C23.4843 31.9938 23.0306 31.5594 22.5279 31.2491C21.8904 30.8643 21.2773 30.7402 20.5417 30.7402C19.1562 30.7402 18.0405 31.1995 17.1945 32.0434C16.3362 32.8998 15.809 34.1534 15.809 35.469C15.809 36.8342 16.3853 37.7154 16.8757 38.2243C17.6972 39.0931 18.6168 39.3289 19.5976 39.3289C20.5662 39.3289 21.6329 39.1303 22.5157 38.2491C23.5211 37.2438 23.8031 35.7048 23.8644 34.8608H20.4927L20.3455 36.0275Z" fill="white"/>
<path d="M31.0366 30.8892H26.5247L25.5193 39.1675H30.0313L30.1784 37.9761H26.917L27.2358 35.3697H30.3991L30.5462 34.1782H27.3829L27.6281 32.0807H30.8895L31.0366 30.8892Z" fill="white"/>
<path d="M37.2651 32.0807L37.4122 30.8892H32.4098L32.2627 32.0807H34.1386L33.2804 39.1675H34.531L35.3892 32.0807H37.2651Z" fill="white"/>
<path d="M42.6247 30.8892L42.0852 35.2828C41.9749 36.1516 41.9504 36.4246 41.9504 36.6604C41.9504 37.492 42.2324 38.0381 42.4898 38.3608C43.0416 39.0682 43.8017 39.3289 44.709 39.3289C45.739 39.3289 46.4501 38.9814 46.8792 38.6214C47.3451 38.2243 47.8846 37.4424 48.0317 36.2136L48.6815 30.8892H47.4309L46.8302 35.8785C46.7566 36.5115 46.683 37.1073 46.1681 37.6285C45.8983 37.8892 45.4692 38.1622 44.8071 38.1622C44.2309 38.1622 43.8753 37.9388 43.6546 37.7154C43.2745 37.3307 43.2255 36.8839 43.2255 36.4867C43.2255 36.1268 43.2868 35.7917 43.3113 35.5434L43.8753 30.8892H42.6247Z" fill="white"/>
<path d="M51.2594 30.8892L50.254 39.1675H51.5046L51.9092 35.8041H52.3261C53.3927 35.8041 54.2755 35.6303 54.8886 35.0097C55.2319 34.6622 55.5874 34.0789 55.5874 33.148C55.5874 32.3289 55.2809 31.82 54.9867 31.5346C54.3491 30.914 53.3682 30.8892 53.0127 30.8892H51.2594ZM52.3628 32.0558H52.8901C53.1475 32.0558 53.6747 32.0682 54.0058 32.3413C54.2142 32.5151 54.3859 32.8005 54.3859 33.2225C54.3859 33.6693 54.2142 34.0417 53.969 34.2526C53.638 34.5505 53.1108 34.6374 52.5222 34.6374H52.0563L52.3628 32.0558Z" fill="white"/>
<path d="M65.247 32.0807L65.3941 30.8892H60.3917L60.2446 32.0807H62.1205L61.2623 39.1675H62.5129L63.3711 32.0807H65.247Z" fill="white"/>
<path d="M70.7423 30.7402C69.3446 30.7402 68.1185 31.2243 67.3093 32.0434C66.4878 32.8626 65.9729 34.1285 65.9729 35.4441C65.9729 36.5984 66.4143 37.5913 67.0641 38.2615C67.8488 39.0807 68.7806 39.3289 69.8963 39.3289C70.9263 39.3289 72.1891 39.1551 73.2681 38.0505C73.8811 37.4175 74.5554 36.3253 74.5554 34.625C74.5554 33.9175 74.4328 32.7509 73.501 31.82C73.0228 31.336 72.1646 30.7402 70.7423 30.7402ZM69.9086 38.1622C69.222 38.1622 68.5477 37.9885 67.9714 37.3679C67.6526 37.0328 67.2112 36.3874 67.2112 35.3573C67.2112 34.2402 67.6649 33.3839 68.2289 32.8253C68.9155 32.1427 69.7124 31.9069 70.4971 31.9069C71.4044 31.9069 72.1155 32.2792 72.5692 32.7509C72.9125 33.1108 73.3048 33.7314 73.3048 34.6995C73.3048 35.6675 72.937 36.648 72.3117 37.2686C71.7722 37.8147 70.9876 38.1622 69.9086 38.1622Z" fill="white"/>
<path d="M7.89325 43.6232C7.42734 43.3502 6.86335 43.1516 5.93153 43.1516C4.48476 43.1516 3.50389 43.648 2.85407 44.2314C2.41268 44.6285 1.95903 45.2243 1.72608 46.0434H1.19886L0.720694 46.9122H1.48086C1.39504 47.1977 1.35826 47.508 1.34599 47.8307H0.978171L0.5 48.6995H1.33373C1.34599 49.5434 1.6893 50.2633 2.0939 50.7225C2.64564 51.3307 3.57746 51.7402 4.72997 51.7402C5.18362 51.7402 6.01735 51.6285 6.85109 51.219L7.01048 49.8661C6.1277 50.5115 5.29397 50.5736 4.90162 50.5736C3.55294 50.5736 2.75598 49.7917 2.6579 48.6995H5.14684L5.62501 47.8307H2.59659C2.60886 47.508 2.64564 47.1977 2.73146 46.9122H6.09092L6.56909 46.0434H3.02572C3.61424 44.3803 5.30623 44.3182 5.68631 44.3182C6.55683 44.3182 7.01048 44.5665 7.23117 44.7278L7.89325 43.6232Z" fill="white"/>
<path d="M11.1713 51.5789H12.4219L13.4273 43.3005H11.441L10.6073 44.4672H12.0295L11.1713 51.5789Z" fill="white"/>
<path d="M18.081 51.7154C18.878 51.7154 19.442 51.492 20.055 50.8714C20.9255 49.9778 21.5018 48.6126 21.5018 46.4406C21.5018 45.6835 21.3914 44.5417 20.5822 43.7721C20.1408 43.3502 19.6381 43.164 19.0619 43.164C18.2772 43.164 17.6519 43.4246 17.0879 43.9956C15.8986 45.1746 15.5921 47.1108 15.5921 48.4016C15.5921 49.047 15.6902 50.1392 16.3645 50.9459C16.8059 51.4796 17.3086 51.7154 18.081 51.7154ZM18.927 44.281C19.209 44.281 19.442 44.3555 19.6627 44.5541C20.2144 45.0629 20.2634 46.1055 20.2634 46.6019C20.2634 47.6445 19.9692 49.32 19.16 50.1516C18.8534 50.4619 18.5592 50.586 18.1546 50.586C17.8603 50.586 17.6396 50.5239 17.4067 50.2881C16.8917 49.7668 16.8304 48.9104 16.8304 48.3023C16.8304 46.9991 17.235 45.4353 17.9216 44.7278C18.1791 44.4548 18.4979 44.281 18.927 44.281Z" fill="white"/>
<path d="M25.6626 51.7154C26.4595 51.7154 27.0235 51.492 27.6366 50.8714C28.5071 49.9778 29.0833 48.6126 29.0833 46.4406C29.0833 45.6835 28.973 44.5417 28.1638 43.7721C27.7224 43.3502 27.2197 43.164 26.6434 43.164C25.8588 43.164 25.2335 43.4246 24.6695 43.9956C23.4802 45.1746 23.1736 47.1108 23.1736 48.4016C23.1736 49.047 23.2717 50.1392 23.9461 50.9459C24.3875 51.4796 24.8902 51.7154 25.6626 51.7154ZM26.5086 44.281C26.7906 44.281 27.0235 44.3555 27.2442 44.5541C27.796 45.0629 27.845 46.1055 27.845 46.6019C27.845 47.6445 27.5507 49.32 26.7415 50.1516C26.435 50.4619 26.1408 50.586 25.7361 50.586C25.4419 50.586 25.2212 50.5239 24.9882 50.2881C24.4733 49.7668 24.412 48.9104 24.412 48.3023C24.412 46.9991 24.8166 45.4353 25.5032 44.7278C25.7607 44.4548 26.0794 44.281 26.5086 44.281Z" fill="white"/>
<path d="M39.2813 43.3005H35.1862L34.1809 51.5789H35.4315L35.8974 47.781H38.6438L38.7909 46.5895H36.0445L36.2897 44.492H39.1342L39.2813 43.3005Z" fill="white"/>
<path d="M41.319 43.3005L40.3136 51.5789H41.5642L41.9811 48.1906H42.2018L44.1268 51.5789H45.6348L43.5137 48.0417C44.0287 47.9424 44.5559 47.6817 44.9114 47.3466C45.2793 46.9991 45.6226 46.4034 45.6226 45.5594C45.6226 44.6906 45.2302 44.1073 44.8379 43.8094C44.2494 43.3502 43.4156 43.3005 42.7781 43.3005H41.319ZM42.4225 44.4672H42.8516C43.3911 44.4672 43.7467 44.5541 43.9674 44.703C44.2248 44.8768 44.421 45.1995 44.421 45.6339C44.421 46.0807 44.2003 46.4778 43.9183 46.7012C43.5382 47.0115 42.9375 47.0984 42.4961 47.0984H42.1037L42.4225 44.4672Z" fill="white"/>
<path d="M52.9935 43.3005H48.4815L47.4762 51.5789H51.9881L52.1353 50.3874H48.8739L49.1927 47.781H52.3559L52.5031 46.5895H49.3398L49.585 44.492H52.8464L52.9935 43.3005Z" fill="white"/>
<path d="M59.7369 43.3005H55.225L54.2196 51.5789H58.7316L58.8787 50.3874H55.6173L55.9361 47.781H59.0994L59.2465 46.5895H56.0832L56.3284 44.492H59.5898L59.7369 43.3005Z" fill="white"/>
<path d="M65.4431 43.3005L64.4377 51.5789H66.3504C67.1351 51.5789 68.2386 51.5292 68.9742 50.7473C69.3052 50.3998 69.624 49.8165 69.624 48.9353C69.624 48.5505 69.5505 48.1658 69.2685 47.7934C69.1826 47.6817 68.9006 47.3342 68.3734 47.148C68.7658 46.937 68.9865 46.6392 69.0968 46.4282C69.293 46.0558 69.3298 45.6587 69.3298 45.3484C69.3298 44.8271 69.2072 44.3555 68.8148 43.9459C68.3121 43.437 67.5887 43.3005 66.6814 43.3005H65.4431ZM66.5466 44.492H66.8899C67.1719 44.492 67.6133 44.5292 67.883 44.8023C68.0179 44.9388 68.1527 45.1746 68.1527 45.5221C68.1527 45.9441 67.9811 46.3165 67.7481 46.5275C67.5642 46.6888 67.2332 46.8626 66.6447 46.8626H66.2646L66.5466 44.492ZM66.1297 47.9051H66.9144C67.2822 47.9051 67.7236 47.9424 68.0424 48.203C68.2263 48.3519 68.4102 48.6002 68.4102 49.0097C68.4102 49.4069 68.2508 49.7544 68.0301 49.9654C67.6378 50.3378 67.0615 50.3874 66.5956 50.3874H65.8354L66.1297 47.9051Z" fill="white"/>
<path d="M77.0218 43.3005H72.5098L71.5044 51.5789H76.0164L76.1635 50.3874H72.9022L73.2209 47.781H76.3842L76.5313 46.5895H73.3681L73.6133 44.492H76.8746L77.0218 43.3005Z" fill="white"/>
<path d="M83.2503 44.492L83.3974 43.3005H78.395L78.2479 44.492H80.1238L79.2655 51.5789H80.5161L81.3743 44.492H83.2503Z" fill="white"/>
<path d="M89.5 44.5417C89.3897 44.219 89.169 43.8342 88.7276 43.5363C88.2494 43.2136 87.7222 43.1516 87.3176 43.1516C86.4471 43.1516 85.8095 43.4743 85.3681 43.9459C84.7183 44.6409 84.7183 45.4353 84.7183 45.547C84.7183 46.0434 84.9145 46.4654 85.1719 46.7633C85.4539 47.0736 85.8463 47.2846 86.1405 47.4211L86.7658 47.7065C87.0356 47.8307 87.3666 47.9796 87.5996 48.2278C87.7958 48.4388 87.9184 48.6746 87.9184 49.0097C87.9184 49.4317 87.7712 49.9406 87.4524 50.226C87.2318 50.4246 86.9252 50.5736 86.4838 50.5736C85.9566 50.5736 85.6379 50.3998 85.4417 50.1392C85.221 49.8413 85.1474 49.3448 85.1597 49.0221L83.8968 49.2952C83.9213 50.0895 84.2524 50.7597 84.657 51.1569C85.1106 51.6037 85.6624 51.7402 86.2999 51.7402C86.9375 51.7402 87.7712 51.6037 88.4333 50.9087C88.8502 50.4619 89.1812 49.8165 89.1812 48.8608C89.1812 48.3519 89.0831 47.9175 88.7521 47.508C88.5682 47.2721 88.2494 46.9867 87.7222 46.7509L87.0601 46.453C86.7536 46.3165 86.5206 46.2544 86.2632 46.0186C86.0915 45.8573 85.9689 45.6711 85.9689 45.3856C85.9689 45.0878 86.116 44.8147 86.3122 44.6409C86.4716 44.492 86.7658 44.3182 87.244 44.3182C87.4892 44.3182 87.8203 44.3803 88.0532 44.5541C88.2249 44.6906 88.3597 44.9016 88.4211 45.1374L89.5 44.5417Z" fill="white"/>
</svg>
