<svg width="64" height="56" viewBox="0 0 64 56" fill="none" xmlns="http://www.w3.org/2000/svg">
<path d="M23.1163 31.0917H18.6115L17.6077 39.24H22.1125L22.2594 38.0672H19.0032L19.3215 35.5018H22.4797L22.6266 34.329H19.4684L19.7132 32.2644H22.9694L23.1163 31.0917Z" fill="white"/>
<path d="M30.0203 39.24H31.3424L28.5391 30.6152L23.41 39.24H24.7811L25.9195 37.2732H29.4083L30.0203 39.24ZM26.5805 36.1004L28.1719 33.3395L29.0533 36.1004H26.5805Z" fill="white"/>
<path d="M38.1089 32.3133C37.9987 31.9957 37.7784 31.617 37.3377 31.3238C36.8603 31.0062 36.3339 30.9451 35.93 30.9451C35.0608 30.9451 34.4243 31.2627 33.9836 31.7269C33.3348 32.411 33.3348 33.1929 33.3348 33.3028C33.3348 33.7915 33.5307 34.2069 33.7877 34.5001C34.0693 34.8055 34.461 35.0131 34.7548 35.1475L35.3791 35.4285C35.6484 35.5507 35.9789 35.6973 36.2115 35.9416C36.4074 36.1493 36.5298 36.3814 36.5298 36.7112C36.5298 37.1266 36.3829 37.6275 36.0646 37.9084C35.8443 38.1039 35.5382 38.2505 35.0976 38.2505C34.5712 38.2505 34.2529 38.0795 34.0571 37.8229C33.8367 37.5297 33.7633 37.0411 33.7755 36.7234L32.5147 36.9922C32.5391 37.774 32.8697 38.4337 33.2736 38.8247C33.7265 39.2644 34.2774 39.3988 34.9139 39.3988C35.5505 39.3988 36.3829 39.2644 37.0439 38.5803C37.4601 38.1405 37.7906 37.5053 37.7906 36.5646C37.7906 36.0638 37.6927 35.6362 37.3622 35.233C37.1786 35.0009 36.8603 34.7199 36.3339 34.4878L35.6729 34.1946C35.3669 34.0603 35.1343 33.9992 34.8772 33.7671C34.7058 33.6083 34.5834 33.425 34.5834 33.144C34.5834 32.8508 34.7303 32.5821 34.9262 32.411C35.0853 32.2644 35.3791 32.0934 35.8565 32.0934C36.1013 32.0934 36.4319 32.1545 36.6644 32.3255C36.8358 32.4599 36.9705 32.6676 37.0317 32.8997L38.1089 32.3133Z" fill="white"/>
<path d="M40.9657 39.24H42.2143L42.6428 35.7217L45.8989 31.0917H44.4545L42.1653 34.3535L40.6842 31.0917H39.2887L41.3941 35.7217L40.9657 39.24Z" fill="white"/>
<path d="M9.00378 43.3081L8 51.4564H9.51791C10.8522 51.4564 12.517 51.3343 13.6922 50.1615C14.6348 49.2208 14.8429 48.0725 14.8429 46.9852C14.8429 46.1423 14.7204 45.1405 13.8513 44.322C12.8965 43.418 11.6356 43.3081 10.7176 43.3081H9.00378ZM10.1055 44.4809H10.6441C11.2194 44.4809 12.2477 44.5175 12.921 45.2016C13.3127 45.6048 13.5942 46.2644 13.5942 47.1562C13.5942 48.329 13.1291 48.9887 12.9087 49.2453C12.0641 50.2348 10.7543 50.2836 9.93412 50.2836H9.3955L10.1055 44.4809Z" fill="white"/>
<path d="M22.0344 43.3081H17.5296L16.5258 51.4564H21.0306L21.1775 50.2836H17.9213L18.2396 47.7182H21.3978L21.5447 46.5454H18.3865L18.6313 44.4809H21.8875L22.0344 43.3081Z" fill="white"/>
<path d="M24.2623 43.3081L23.2585 51.4564H24.5071L24.9111 48.1458H25.3273C26.3923 48.1458 27.2736 47.9747 27.8857 47.3639C28.2285 47.0219 28.5835 46.4477 28.5835 45.5315C28.5835 44.7252 28.2774 44.2243 27.9836 43.9433C27.3471 43.3325 26.3678 43.3081 26.0128 43.3081H24.2623ZM25.364 44.4564H25.8904C26.1474 44.4564 26.6738 44.4686 27.0043 44.7374C27.2124 44.9084 27.3838 45.1894 27.3838 45.6048C27.3838 46.0446 27.2124 46.411 26.9676 46.6187C26.6371 46.9119 26.1107 46.9974 25.5231 46.9974H25.058L25.364 44.4564Z" fill="white"/>
<path d="M34.6361 43.1615C33.2406 43.1615 32.0164 43.6379 31.2085 44.4442C30.3884 45.2505 29.8742 46.4966 29.8742 47.7915C29.8742 48.9276 30.3149 49.9049 30.9637 50.5646C31.7471 51.3709 32.6775 51.6152 33.7914 51.6152C34.8197 51.6152 36.0805 51.4442 37.1578 50.3569C37.7698 49.7339 38.4431 48.6589 38.4431 46.9852C38.4431 46.2889 38.3207 45.1405 37.3904 44.2243C36.9129 43.7479 36.0561 43.1615 34.6361 43.1615ZM33.8037 50.4669C33.1182 50.4669 32.4449 50.2959 31.8696 49.685C31.5513 49.3552 31.1106 48.7199 31.1106 47.706C31.1106 46.6065 31.5635 45.7636 32.1266 45.2138C32.8121 44.5419 33.6078 44.3098 34.3913 44.3098C35.2971 44.3098 36.0071 44.6763 36.46 45.1405C36.8028 45.4948 37.1945 46.1056 37.1945 47.0585C37.1945 48.0114 36.8273 48.9765 36.203 49.5873C35.6643 50.1248 34.8809 50.4669 33.8037 50.4669Z" fill="white"/>
<path d="M45.5051 44.5297C45.3949 44.2121 45.1745 43.8334 44.7339 43.5402C44.2564 43.2226 43.7301 43.1615 43.3261 43.1615C42.457 43.1615 41.8204 43.4791 41.3798 43.9433C40.731 44.6274 40.731 45.4093 40.731 45.5192C40.731 46.0079 40.9268 46.4233 41.1839 46.7165C41.4654 47.0219 41.8572 47.2295 42.151 47.3639L42.7753 47.6449C43.0446 47.7671 43.3751 47.9137 43.6077 48.158C43.8035 48.3657 43.9259 48.5978 43.9259 48.9276C43.9259 49.343 43.779 49.8439 43.4608 50.1248C43.2404 50.3203 42.9344 50.4669 42.4937 50.4669C41.9673 50.4669 41.6491 50.2959 41.4532 50.0393C41.2329 49.7461 41.1594 49.2575 41.1717 48.9398L39.9108 49.2086C39.9353 49.9905 40.2658 50.6501 40.6698 51.0411C41.1227 51.4809 41.6735 51.6152 42.3101 51.6152C42.9466 51.6152 43.779 51.4809 44.4401 50.7967C44.8563 50.3569 45.1868 49.7217 45.1868 48.781C45.1868 48.2802 45.0889 47.8526 44.7583 47.4494C44.5747 47.2173 44.2564 46.9364 43.7301 46.7042L43.069 46.411C42.763 46.2767 42.5304 46.2156 42.2734 45.9835C42.102 45.8247 41.9796 45.6414 41.9796 45.3604C41.9796 45.0672 42.1265 44.7985 42.3223 44.6275C42.4815 44.4809 42.7753 44.3098 43.2527 44.3098C43.4975 44.3098 43.828 44.3709 44.0606 44.5419C44.232 44.6763 44.3666 44.884 44.4278 45.1161L45.5051 44.5297Z" fill="white"/>
<path d="M48.0466 43.3081L47.0429 51.4564H48.2915L49.2952 43.3081H48.0466Z" fill="white"/>
<path d="M55.8531 44.4809L56 43.3081H51.0056L50.8587 44.4809H52.7316L51.8747 51.4564H53.1233L53.9802 44.4809H55.8531Z" fill="white"/>
<mask id="path-2-inside-1_224_7797" fill="white">
<path d="M25.3813 27.8656H40.3554L40.8696 23.9612H34.4868L37.2396 21.4383C38.3286 20.4472 39.8714 18.7953 40.5369 17.8042C41.4141 16.4827 41.8679 15.041 41.8679 13.4793C41.8679 11.3769 41.0209 9.9953 40.2041 9.21441C39.0848 8.13318 37.2396 7.38232 34.8195 7.38232C32.7927 7.38232 30.7659 7.86287 29.1627 9.57482C27.9526 10.8663 27.2266 12.7284 27.0754 14.4704H31.734C31.7945 13.6294 32.1272 12.5782 32.6112 12.0376C33.1557 11.4369 33.8213 11.2868 34.517 11.2868C35.0615 11.2868 35.7875 11.3769 36.332 11.8574C36.7858 12.2479 37.0883 12.9086 37.0883 13.7195C37.0883 15.2813 35.9388 16.8731 35.243 17.7441C34.3658 18.8554 33.2162 20.0868 31.4315 21.8588L25.3813 27.8656Z"/>
</mask>
<path d="M25.3813 27.8656H40.3554L40.8696 23.9612H34.4868L37.2396 21.4383C38.3286 20.4472 39.8714 18.7953 40.5369 17.8042C41.4141 16.4827 41.8679 15.041 41.8679 13.4793C41.8679 11.3769 41.0209 9.9953 40.2041 9.21441C39.0848 8.13318 37.2396 7.38232 34.8195 7.38232C32.7927 7.38232 30.7659 7.86287 29.1627 9.57482C27.9526 10.8663 27.2266 12.7284 27.0754 14.4704H31.734C31.7945 13.6294 32.1272 12.5782 32.6112 12.0376C33.1557 11.4369 33.8213 11.2868 34.517 11.2868C35.0615 11.2868 35.7875 11.3769 36.332 11.8574C36.7858 12.2479 37.0883 12.9086 37.0883 13.7195C37.0883 15.2813 35.9388 16.8731 35.243 17.7441C34.3658 18.8554 33.2162 20.0868 31.4315 21.8588L25.3813 27.8656Z" fill="#0A0B0D"/>
<path d="M25.3813 27.8656L24.6768 27.156L22.9548 28.8656H25.3813V27.8656ZM40.3554 27.8656V28.8656H41.2323L41.3468 27.9962L40.3554 27.8656ZM40.8696 23.9612L41.8611 24.0918L42.01 22.9612H40.8696V23.9612ZM34.4868 23.9612L33.8111 23.224L31.9156 24.9612H34.4868V23.9612ZM37.2396 21.4383L36.5665 20.6987L36.5639 20.7011L37.2396 21.4383ZM40.5369 17.8042L41.3671 18.3616L41.37 18.3572L40.5369 17.8042ZM40.2041 9.21441L39.5093 9.93364L39.5131 9.93721L40.2041 9.21441ZM29.1627 9.57482L29.8924 10.2585L29.8926 10.2584L29.1627 9.57482ZM27.0754 14.4704L26.0791 14.3839L25.9848 15.4704H27.0754V14.4704ZM31.734 14.4704V15.4704H32.6646L32.7314 14.5421L31.734 14.4704ZM32.6112 12.0376L31.8703 11.366L31.8662 11.3706L32.6112 12.0376ZM36.332 11.8574L35.6703 12.6072L35.6798 12.6154L36.332 11.8574ZM35.243 17.7441L34.4617 17.12L34.4581 17.1245L35.243 17.7441ZM31.4315 21.8588L30.7269 21.1491L30.7269 21.1491L31.4315 21.8588ZM25.3813 28.8656H40.3554V26.8656H25.3813V28.8656ZM41.3468 27.9962L41.8611 24.0918L39.8782 23.8306L39.3639 27.735L41.3468 27.9962ZM40.8696 22.9612H34.4868V24.9612H40.8696V22.9612ZM35.1624 24.6984L37.9152 22.1755L36.5639 20.7011L33.8111 23.224L35.1624 24.6984ZM37.9127 22.1779C39.0283 21.1625 40.6373 19.4485 41.3671 18.3616L39.7067 17.2467C39.1054 18.1421 37.6289 19.7318 36.5665 20.6987L37.9127 22.1779ZM41.37 18.3572C42.3505 16.8802 42.8679 15.2476 42.8679 13.4793H40.8679C40.8679 14.8345 40.4777 16.0852 39.7037 17.2511L41.37 18.3572ZM42.8679 13.4793C42.8679 11.0832 41.8938 9.44639 40.8952 8.4916L39.5131 9.93721C40.1479 10.5442 40.8679 11.6705 40.8679 13.4793H42.8679ZM40.8989 8.49518C39.553 7.19503 37.437 6.38232 34.8195 6.38232V8.38232C37.0422 8.38232 38.6167 9.07132 39.5093 9.93363L40.8989 8.49518ZM34.8195 6.38232C32.6333 6.38232 30.2925 6.90545 28.4328 8.89126L29.8926 10.2584C31.2394 8.82029 32.9522 8.38232 34.8195 8.38232V6.38232ZM28.4329 8.8911C27.0462 10.3712 26.2466 12.4554 26.0791 14.3839L28.0716 14.5569C28.2067 13.0015 28.8591 11.3614 29.8924 10.2585L28.4329 8.8911ZM27.0754 15.4704H31.734V13.4704H27.0754V15.4704ZM32.7314 14.5421C32.755 14.2141 32.8342 13.8271 32.9584 13.4695C33.0869 13.0996 33.2366 12.8383 33.3563 12.7046L31.8662 11.3706C31.5018 11.7776 31.2432 12.3122 31.0691 12.8133C30.8908 13.3267 30.7734 13.8858 30.7365 14.3986L32.7314 14.5421ZM33.3521 12.7092C33.6357 12.3964 33.9761 12.2868 34.517 12.2868V10.2868C33.6664 10.2868 32.6757 10.4775 31.8703 11.366L33.3521 12.7092ZM34.517 12.2868C34.9919 12.2868 35.4066 12.3745 35.6704 12.6072L36.9937 11.1076C36.1684 10.3793 35.1312 10.2868 34.517 10.2868V12.2868ZM35.6798 12.6154C35.8776 12.7857 36.0883 13.1501 36.0883 13.7195H38.0883C38.0883 12.6672 37.694 11.7101 36.9843 11.0994L35.6798 12.6154ZM36.0883 13.7195C36.0883 14.2682 35.8815 14.8879 35.5442 15.5203C35.2123 16.1427 34.7949 16.7028 34.4617 17.12L36.0243 18.3682C36.3869 17.9144 36.8921 17.2431 37.309 16.4614C37.7204 15.6898 38.0883 14.7327 38.0883 13.7195H36.0883ZM34.4581 17.1245C33.6193 18.1871 32.5045 19.3843 30.7269 21.1491L32.136 22.5684C33.928 20.7893 35.1122 19.5237 36.0279 18.3637L34.4581 17.1245ZM30.7269 21.1491L24.6768 27.156L26.0859 28.5753L32.136 22.5684L30.7269 21.1491Z" fill="#006633" mask="url(#path-2-inside-1_224_7797)"/>
<mask id="path-4-inside-2_224_7797" fill="white">
<path d="M22.3838 24.8681H37.3578L37.8721 20.9636H31.4892L34.242 18.4408C35.331 17.4496 36.8738 15.7977 37.5393 14.8066C38.4166 13.4851 38.8703 12.0435 38.8703 10.4817C38.8703 8.37931 38.0233 6.99774 37.2066 6.21685C36.0873 5.13562 34.242 4.38477 31.822 4.38477C29.7952 4.38477 27.7684 4.86531 26.1651 6.57726C24.9551 7.86873 24.2291 9.73085 24.0778 11.4728H28.7364C28.7969 10.6319 29.1297 9.58068 29.6137 9.04006C30.1582 8.43938 30.8237 8.28921 31.5195 8.28921C32.064 8.28921 32.79 8.37931 33.3345 8.85985C33.7882 9.2503 34.0908 9.91105 34.0908 10.722C34.0908 12.2837 32.9412 13.8756 32.2455 14.7465C31.3682 15.8578 30.2187 17.0892 28.4339 18.8612L22.3838 24.8681Z"/>
</mask>
<path d="M22.3838 24.8681H37.3578L37.8721 20.9636H31.4892L34.242 18.4408C35.331 17.4496 36.8738 15.7977 37.5393 14.8066C38.4166 13.4851 38.8703 12.0435 38.8703 10.4817C38.8703 8.37931 38.0233 6.99774 37.2066 6.21685C36.0873 5.13562 34.242 4.38477 31.822 4.38477C29.7952 4.38477 27.7684 4.86531 26.1651 6.57726C24.9551 7.86873 24.2291 9.73085 24.0778 11.4728H28.7364C28.7969 10.6319 29.1297 9.58068 29.6137 9.04006C30.1582 8.43938 30.8237 8.28921 31.5195 8.28921C32.064 8.28921 32.79 8.37931 33.3345 8.85985C33.7882 9.2503 34.0908 9.91105 34.0908 10.722C34.0908 12.2837 32.9412 13.8756 32.2455 14.7465C31.3682 15.8578 30.2187 17.0892 28.4339 18.8612L22.3838 24.8681Z" fill="#0A0B0D"/>
<path d="M22.3838 24.8681L21.6792 24.1584L19.9573 25.8681H22.3838V24.8681ZM37.3578 24.8681V25.8681H38.2347L38.3493 24.9986L37.3578 24.8681ZM37.8721 20.9636L38.8635 21.0942L39.0124 19.9636H37.8721V20.9636ZM31.4892 20.9636L30.8136 20.2264L28.918 21.9636H31.4892V20.9636ZM34.242 18.4408L33.5689 17.7012L33.5664 17.7035L34.242 18.4408ZM37.5393 14.8066L38.3695 15.3641L38.3725 15.3597L37.5393 14.8066ZM37.2066 6.21685L36.5118 6.93608L36.5155 6.93965L37.2066 6.21685ZM26.1651 6.57726L26.8949 7.26098L26.895 7.26082L26.1651 6.57726ZM24.0778 11.4728L23.0816 11.3863L22.9872 12.4728H24.0778V11.4728ZM28.7364 11.4728V12.4728H29.667L29.7338 11.5446L28.7364 11.4728ZM29.6137 9.04006L28.8728 8.36843L28.8686 8.37304L29.6137 9.04006ZM33.3345 8.85985L32.6727 9.60969L32.6822 9.61786L33.3345 8.85985ZM32.2455 14.7465L31.4641 14.1224L31.4606 14.1269L32.2455 14.7465ZM28.4339 18.8612L27.7293 18.1516L27.7293 18.1516L28.4339 18.8612ZM22.3838 25.8681H37.3578V23.8681H22.3838V25.8681ZM38.3493 24.9986L38.8635 21.0942L36.8806 20.833L36.3664 24.7375L38.3493 24.9986ZM37.8721 19.9636H31.4892V21.9636H37.8721V19.9636ZM32.1649 21.7008L34.9177 19.178L33.5664 17.7035L30.8136 20.2264L32.1649 21.7008ZM34.9151 19.1803C36.0307 18.165 37.6398 16.4509 38.3695 15.3641L36.7091 14.2492C36.1079 15.1446 34.6313 16.7343 33.5689 17.7012L34.9151 19.1803ZM38.3725 15.3597C39.353 13.8826 39.8703 12.25 39.8703 10.4817H37.8703C37.8703 11.8369 37.4802 13.0876 36.7062 14.2535L38.3725 15.3597ZM39.8703 10.4817C39.8703 8.08565 38.8963 6.44883 37.8976 5.49405L36.5155 6.93965C37.1504 7.54664 37.8703 8.67297 37.8703 10.4817H39.8703ZM37.9013 5.49763C36.5554 4.19748 34.4394 3.38477 31.822 3.38477V5.38477C34.0446 5.38477 35.6191 6.07377 36.5118 6.93607L37.9013 5.49763ZM31.822 3.38477C29.6357 3.38477 27.295 3.90789 25.4352 5.8937L26.895 7.26082C28.2418 5.82274 29.9547 5.38477 31.822 5.38477V3.38477ZM25.4354 5.89354C24.0486 7.37362 23.249 9.4578 23.0816 11.3863L25.0741 11.5593C25.2091 10.0039 25.8615 8.36383 26.8949 7.26098L25.4354 5.89354ZM24.0778 12.4728H28.7364V10.4728H24.0778V12.4728ZM29.7338 11.5446C29.7574 11.2165 29.8367 10.8295 29.9609 10.4719C30.0893 10.102 30.2391 9.84073 30.3587 9.70709L28.8686 8.37304C28.5043 8.78001 28.2456 9.3146 28.0716 9.81573C27.8933 10.3291 27.7759 10.8882 27.739 11.4011L29.7338 11.5446ZM30.3546 9.71167C30.6382 9.3988 30.9786 9.28921 31.5195 9.28921V7.28921C30.6688 7.28921 29.6782 7.47995 28.8728 8.36845L30.3546 9.71167ZM31.5195 9.28921C31.9943 9.28921 32.4091 9.37689 32.6728 9.60963L33.9962 8.11008C33.1709 7.38173 32.1336 7.28921 31.5195 7.28921V9.28921ZM32.6822 9.61786C32.8801 9.7881 33.0908 10.1525 33.0908 10.722H35.0908C35.0908 9.66959 34.6964 8.7125 33.9867 8.10184L32.6822 9.61786ZM33.0908 10.722C33.0908 11.2706 32.8839 11.8903 32.5466 12.5228C32.2148 13.1451 31.7974 13.7053 31.4642 14.1224L33.0268 15.3707C33.3893 14.9169 33.8946 14.2456 34.3114 13.4638C34.7229 12.6922 35.0908 11.7351 35.0908 10.722H33.0908ZM31.4606 14.1269C30.6217 15.1895 29.5069 16.3867 27.7293 18.1516L29.1385 19.5709C30.9304 17.7917 32.1147 16.5261 33.0304 15.3662L31.4606 14.1269ZM27.7293 18.1516L21.6792 24.1584L23.0884 25.5777L29.1385 19.5709L27.7293 18.1516Z" fill="#6AC687" mask="url(#path-4-inside-2_224_7797)"/>
</svg>
