<svg width="90" height="56" viewBox="0 0 90 56" fill="none" xmlns="http://www.w3.org/2000/svg">
<mask id="path-1-inside-1_224_7789" fill="white">
<path d="M43.343 27.241H47.9883L50.4617 7.25732H42.9509L42.4683 11.1522H45.3338L43.343 27.241Z"/>
</mask>
<path d="M43.343 27.241H47.9883L50.4617 7.25732H42.9509L42.4683 11.1522H45.3338L43.343 27.241Z" fill="#0A0B0D"/>
<path d="M43.343 27.241L42.3506 27.1182L42.2117 28.241H43.343V27.241ZM47.9883 27.241V28.241H48.8721L48.9807 27.3639L47.9883 27.241ZM50.4617 7.25732L51.4542 7.38016L51.5931 6.25732H50.4617V7.25732ZM42.9509 7.25732V6.25732H42.0672L41.9585 7.13435L42.9509 7.25732ZM42.4683 11.1522L41.4759 11.0292L41.3367 12.1522H42.4683V11.1522ZM45.3338 11.1522L46.3263 11.275L46.4652 10.1522H45.3338V11.1522ZM43.343 28.241H47.9883V26.241H43.343V28.241ZM48.9807 27.3639L51.4542 7.38016L49.4693 7.13449L46.9959 27.1182L48.9807 27.3639ZM50.4617 6.25732H42.9509V8.25732H50.4617V6.25732ZM41.9585 7.13435L41.4759 11.0292L43.4607 11.2752L43.9433 7.3803L41.9585 7.13435ZM42.4683 12.1522H45.3338V10.1522H42.4683V12.1522ZM44.3414 11.0294L42.3506 27.1182L44.3355 27.3638L46.3263 11.275L44.3414 11.0294Z" fill="#006633" mask="url(#path-1-inside-1_224_7789)"/>
<mask id="path-3-inside-2_224_7789" fill="white">
<path d="M40.3455 24.2435H44.9907L47.4642 4.25977H39.9533L39.4707 8.15464H42.3363L40.3455 24.2435Z"/>
</mask>
<path d="M40.3455 24.2435H44.9907L47.4642 4.25977H39.9533L39.4707 8.15464H42.3363L40.3455 24.2435Z" fill="#0A0B0D"/>
<path d="M40.3455 24.2435L39.353 24.1207L39.2141 25.2435H40.3455V24.2435ZM44.9907 24.2435V25.2435H45.8746L45.9832 24.3663L44.9907 24.2435ZM47.4642 4.25977L48.4566 4.3826L48.5956 3.25977H47.4642V4.25977ZM39.9533 4.25977V3.25977H39.0696L38.9609 4.13679L39.9533 4.25977ZM39.4707 8.15464L38.4783 8.03167L38.3391 9.15464H39.4707V8.15464ZM42.3363 8.15464L43.3287 8.27744L43.4677 7.15464H42.3363V8.15464ZM40.3455 25.2435H44.9907V23.2435H40.3455V25.2435ZM45.9832 24.3663L48.4566 4.3826L46.4718 4.13693L43.9983 24.1206L45.9832 24.3663ZM47.4642 3.25977H39.9533V5.25977H47.4642V3.25977ZM38.9609 4.13679L38.4783 8.03167L40.4631 8.27761L40.9457 4.38274L38.9609 4.13679ZM39.4707 9.15464H42.3363V7.15464H39.4707V9.15464ZM41.3439 8.03184L39.353 24.1207L41.3379 24.3663L43.3287 8.27744L41.3439 8.03184Z" fill="#6AC687" mask="url(#path-3-inside-2_224_7789)"/>
<path d="M32.3798 31.1356C30.9945 31.1356 29.7794 31.6028 28.9773 32.3934C28.1632 33.184 27.6528 34.406 27.6528 35.6758C27.6528 36.7899 28.0903 37.7482 28.7343 38.3951C29.512 39.1858 30.4356 39.4253 31.5414 39.4253C32.5621 39.4253 33.8137 39.2576 34.8831 38.1915C35.4907 37.5805 36.159 36.5263 36.159 34.8851C36.159 34.2023 36.0375 33.0762 35.114 32.1778C34.64 31.7106 33.7894 31.1356 32.3798 31.1356ZM31.5535 38.2993C30.873 38.2993 30.2047 38.1316 29.6335 37.5326C29.3176 37.2091 28.8801 36.5862 28.8801 35.5919C28.8801 34.5138 29.3297 33.6872 29.8887 33.1481C30.5692 32.4892 31.3591 32.2616 32.1368 32.2616C33.036 32.2616 33.7408 32.621 34.1904 33.0762C34.5307 33.4236 34.9195 34.0226 34.9195 34.957C34.9195 35.8914 34.555 36.8378 33.9352 37.4368C33.4006 37.9639 32.6229 38.2993 31.5535 38.2993Z" fill="white"/>
<path d="M38.819 31.2793L37.8226 39.2696H39.062L39.463 36.0232H39.8762C40.9334 36.0232 41.8083 35.8555 42.4159 35.2565C42.7562 34.9211 43.1086 34.358 43.1086 33.4596C43.1086 32.6689 42.8048 32.1778 42.5131 31.9022C41.8812 31.3033 40.9091 31.2793 40.5567 31.2793H38.819ZM39.9127 32.4054H40.4352C40.6904 32.4054 41.2129 32.4174 41.541 32.6809C41.7476 32.8486 41.9177 33.1241 41.9177 33.5314C41.9177 33.9627 41.7476 34.3221 41.5045 34.5257C41.1764 34.8133 40.6539 34.8971 40.0706 34.8971H39.6089L39.9127 32.4054Z" fill="white"/>
<path d="M49.7488 31.2793H45.277L44.2805 39.2696H48.7524L48.8982 38.1196H45.6658L45.9818 35.6039H49.1169L49.2627 34.4539H46.1276L46.3706 32.4293H49.603L49.7488 31.2793Z" fill="white"/>
<path d="M52.2035 39.2696L52.8961 33.6872L58.0241 39.7608L59.0813 31.2793H57.8418L57.1492 36.8138L52.0212 30.7402L50.964 39.2696H52.2035Z" fill="white"/>
<path d="M11.0619 51.2491H12.3743L9.59157 42.7916L4.5 51.2491H5.86099L6.9911 49.3204H10.4543L11.0619 51.2491ZM7.64729 48.1704L9.22702 45.463L10.1019 48.1704H7.64729Z" fill="white"/>
<path d="M15.2452 51.2491L15.9378 45.6666L21.0658 51.7402L22.123 43.2588H20.8835L20.1909 48.7933L15.0629 42.7197L14.0057 51.2491H15.2452Z" fill="white"/>
<path d="M32.7618 51.2491H34.0741L31.2914 42.7916L26.1998 51.2491H27.5608L28.6909 49.3204H32.1542L32.7618 51.2491ZM29.3471 48.1704L30.9268 45.463L31.8018 48.1704H29.3471Z" fill="white"/>
<path d="M42.4904 43.69C41.6277 43.2708 40.9229 43.115 40.1816 43.115C38.9421 43.115 37.8606 43.4864 36.9736 44.3369C36.1958 45.0916 35.6369 46.1698 35.6369 47.6433C35.6369 48.8292 36.0136 49.7157 36.7184 50.4105C37.5204 51.2012 38.4075 51.4048 39.3796 51.4048C39.9507 51.4048 40.6312 51.3329 41.6155 50.8058L41.7856 49.3563C41.3603 49.7157 40.5705 50.2787 39.489 50.2787C38.6626 50.2787 38.0429 50.0152 37.5811 49.524C37.1923 49.1167 36.8763 48.5058 36.8763 47.6433C36.8763 46.5651 37.3017 45.6187 37.8971 45.0557C38.4682 44.5166 39.2459 44.2411 40.0965 44.2411C40.6312 44.2411 41.5548 44.3729 42.3203 45.1276L42.4904 43.69Z" fill="white"/>
<path d="M50.6572 43.69C49.7945 43.2708 49.0897 43.115 48.3484 43.115C47.1089 43.115 46.0274 43.4864 45.1404 44.3369C44.3627 45.0916 43.8037 46.1698 43.8037 47.6433C43.8037 48.8292 44.1804 49.7157 44.8852 50.4105C45.6872 51.2012 46.5743 51.4048 47.5464 51.4048C48.1175 51.4048 48.798 51.3329 49.7823 50.8058L49.9524 49.3563C49.5271 49.7157 48.7373 50.2787 47.6558 50.2787C46.8294 50.2787 46.2097 50.0152 45.7479 49.524C45.3591 49.1167 45.0432 48.5058 45.0432 47.6433C45.0432 46.5651 45.4685 45.6187 46.0639 45.0557C46.635 44.5166 47.4127 44.2411 48.2634 44.2411C48.798 44.2411 49.7216 44.3729 50.4871 45.1276L50.6572 43.69Z" fill="white"/>
<path d="M56.6975 43.115C55.3122 43.115 54.097 43.5822 53.295 44.3729C52.4809 45.1635 51.9705 46.3854 51.9705 47.6552C51.9705 48.7693 52.4079 49.7277 53.052 50.3746C53.8297 51.1652 54.7532 51.4048 55.859 51.4048C56.8798 51.4048 58.1314 51.2371 59.2007 50.1709C59.8083 49.56 60.4767 48.5058 60.4767 46.8646C60.4767 46.1818 60.3552 45.0557 59.4316 44.1572C58.9577 43.69 58.1071 43.115 56.6975 43.115ZM55.8712 50.2787C55.1907 50.2787 54.5223 50.111 53.9512 49.5121C53.6353 49.1886 53.1978 48.5657 53.1978 47.5714C53.1978 46.4932 53.6474 45.6666 54.2064 45.1276C54.8869 44.4687 55.6768 44.2411 56.4545 44.2411C57.3537 44.2411 58.0585 44.6005 58.5081 45.0557C58.8483 45.4031 59.2372 46.0021 59.2372 46.9365C59.2372 47.8709 58.8726 48.8172 58.2529 49.4162C57.7182 49.9433 56.9405 50.2787 55.8712 50.2787Z" fill="white"/>
<path d="M63.161 43.2588L62.6263 47.4995C62.5169 48.3381 62.4926 48.6016 62.4926 48.8292C62.4926 49.6318 62.7721 50.1589 63.0273 50.4704C63.5741 51.1532 64.3275 51.4048 65.2268 51.4048C66.2475 51.4048 66.9523 51.0694 67.3776 50.722C67.8394 50.3386 68.3741 49.5839 68.5199 48.398L69.1639 43.2588H67.9244L67.329 48.0745C67.2561 48.6855 67.1832 49.2605 66.6728 49.7636C66.4055 50.0152 65.9802 50.2787 65.324 50.2787C64.7528 50.2787 64.4004 50.0631 64.1817 49.8475C63.805 49.4761 63.7564 49.0449 63.7564 48.6615C63.7564 48.3141 63.8172 47.9907 63.8415 47.7511L64.4004 43.2588H63.161Z" fill="white"/>
<path d="M71.9619 51.2491L72.6545 45.6666L77.7825 51.7402L78.8397 43.2588H77.6003L76.9076 48.7933L71.7796 42.7197L70.7224 51.2491H71.9619Z" fill="white"/>
<path d="M85.3542 44.4088L85.5 43.2588H80.5421L80.3963 44.4088H82.2555L81.4049 51.2491H82.6444L83.495 44.4088H85.3542Z" fill="white"/>
</svg>
