<svg width="450" height="216" viewBox="0 0 450 216" fill="none" xmlns="http://www.w3.org/2000/svg">
<mask id="path-1-outside-1_224_7761" maskUnits="userSpaceOnUse" x="104.576" y="168.639" width="241" height="40" fill="black">
<rect fill="white" x="104.576" y="168.639" width="241" height="40"/>
<path d="M130.816 171.411H111.834L107.576 205.714H115.476L117.272 191.417H127.533L128.353 184.731H118.093L118.914 178.097H129.995L130.816 171.411Z"/>
<path d="M138.121 171.411L133.915 205.714H141.815L143.457 192.188L151.717 205.714H160.951L152.127 191.777C154.025 191.417 156.077 190.439 157.565 188.999C159.258 187.302 160.387 184.731 160.387 181.491C160.387 177.942 159.104 175.731 157.924 174.497C155.359 171.719 152.127 171.411 148.844 171.411H138.121ZM145.252 177.582H146.432C148.228 177.582 149.716 177.737 150.742 178.405C152.127 179.279 152.384 180.668 152.384 181.748C152.384 183.188 152.024 184.679 150.639 185.759C149.254 186.839 147.305 186.994 146.022 186.994H144.073L145.252 177.582Z"/>
<path d="M189.702 171.411H170.823L166.616 205.714H185.701L186.522 199.028H175.132L176.056 191.417H186.829L187.65 184.731H176.877L177.698 178.097H188.882L189.702 171.411Z"/>
<path d="M216.993 171.411H198.114L193.907 205.714H212.992L213.812 199.028H202.423L203.347 191.417H214.12L214.941 184.731H204.167L204.988 178.097H216.172L216.993 171.411Z"/>
<path d="M234.711 205.714H247.434C251.025 205.714 255.027 205.199 257.746 202.474C259.08 201.137 260.516 198.771 260.516 195.119C260.516 192.908 259.9 191.211 258.31 189.668C257.438 188.845 256.155 188.022 254.411 187.611C255.54 187.251 256.874 186.531 258.002 184.988C259.028 183.599 259.593 181.851 259.593 179.639C259.593 176.965 258.618 174.959 257.387 173.777C255.232 171.668 252.154 171.411 249.845 171.411H238.918L234.711 205.714ZM246.049 177.582H247.69C248.819 177.582 250.204 177.634 251.179 178.405C251.641 178.817 252.256 179.588 252.256 180.977C252.256 182.108 251.846 183.342 251.076 184.062C249.896 185.194 248.05 185.348 246.716 185.348H245.125L246.049 177.582ZM244.407 191.211H247.485C248.203 191.211 250.563 191.262 251.692 192.394C252.462 193.165 252.615 194.245 252.615 194.965C252.615 196.868 251.846 197.845 251.384 198.257C250.153 199.388 247.742 199.542 246.254 199.542H243.381L244.407 191.211Z"/>
<path d="M289.797 171.411H270.918L266.711 205.714H285.796L286.616 199.028H275.227L276.151 191.417H286.924L287.745 184.731H276.972L277.792 178.097H288.976L289.797 171.411Z"/>
<path d="M316.831 178.097L317.652 171.411H294.874L294.053 178.097H301.492L298.106 205.714H306.007L309.393 178.097H316.831Z"/>
<path d="M342.516 174.034C338.925 171.205 335.539 170.639 332.614 170.639C329.69 170.639 326.15 171.154 323.38 173.879C321.738 175.525 320.302 178.097 320.302 181.645C320.302 183.805 320.917 185.759 322.559 187.457C324.201 189.154 326.817 190.285 327.381 190.491L329.382 191.314C331.178 192.034 331.845 192.599 332.101 192.857C332.512 193.268 333.076 193.988 333.076 195.222C333.076 196.508 332.563 197.691 331.64 198.411C330.665 199.131 329.023 199.491 327.843 199.491C326.355 199.491 324.919 199.028 323.842 198.359C322.815 197.691 321.687 196.611 320.969 195.634L316.557 201.291C317.788 202.628 319.429 204.017 321.122 204.942C323.431 206.177 325.432 206.485 327.946 206.485C331.434 206.485 334.974 205.868 337.745 203.142C339.745 201.137 341.182 197.948 341.182 194.348C341.182 192.137 340.669 190.542 339.438 188.999C338.104 187.354 336.565 186.479 334.923 185.708L332.922 184.782C331.229 184.011 330.306 183.599 329.587 182.982C328.869 182.417 328.408 181.697 328.408 180.668C328.408 179.742 328.869 178.765 329.587 178.199C330.46 177.479 331.845 177.325 332.82 177.325C334.359 177.325 336.411 177.839 338.565 179.794L342.516 174.034Z"/>
</mask>
<path d="M130.816 171.411H111.834L107.576 205.714H115.476L117.272 191.417H127.533L128.353 184.731H118.093L118.914 178.097H129.995L130.816 171.411Z" fill="#0A0B0D"/>
<path d="M138.121 171.411L133.915 205.714H141.815L143.457 192.188L151.717 205.714H160.951L152.127 191.777C154.025 191.417 156.077 190.439 157.565 188.999C159.258 187.302 160.387 184.731 160.387 181.491C160.387 177.942 159.104 175.731 157.924 174.497C155.359 171.719 152.127 171.411 148.844 171.411H138.121ZM145.252 177.582H146.432C148.228 177.582 149.716 177.737 150.742 178.405C152.127 179.279 152.384 180.668 152.384 181.748C152.384 183.188 152.024 184.679 150.639 185.759C149.254 186.839 147.305 186.994 146.022 186.994H144.073L145.252 177.582Z" fill="#0A0B0D"/>
<path d="M189.702 171.411H170.823L166.616 205.714H185.701L186.522 199.028H175.132L176.056 191.417H186.829L187.65 184.731H176.877L177.698 178.097H188.882L189.702 171.411Z" fill="#0A0B0D"/>
<path d="M216.993 171.411H198.114L193.907 205.714H212.992L213.812 199.028H202.423L203.347 191.417H214.12L214.941 184.731H204.167L204.988 178.097H216.172L216.993 171.411Z" fill="#0A0B0D"/>
<path d="M234.711 205.714H247.434C251.025 205.714 255.027 205.199 257.746 202.474C259.08 201.137 260.516 198.771 260.516 195.119C260.516 192.908 259.9 191.211 258.31 189.668C257.438 188.845 256.155 188.022 254.411 187.611C255.54 187.251 256.874 186.531 258.002 184.988C259.028 183.599 259.593 181.851 259.593 179.639C259.593 176.965 258.618 174.959 257.387 173.777C255.232 171.668 252.154 171.411 249.845 171.411H238.918L234.711 205.714ZM246.049 177.582H247.69C248.819 177.582 250.204 177.634 251.179 178.405C251.641 178.817 252.256 179.588 252.256 180.977C252.256 182.108 251.846 183.342 251.076 184.062C249.896 185.194 248.05 185.348 246.716 185.348H245.125L246.049 177.582ZM244.407 191.211H247.485C248.203 191.211 250.563 191.262 251.692 192.394C252.462 193.165 252.615 194.245 252.615 194.965C252.615 196.868 251.846 197.845 251.384 198.257C250.153 199.388 247.742 199.542 246.254 199.542H243.381L244.407 191.211Z" fill="#0A0B0D"/>
<path d="M289.797 171.411H270.918L266.711 205.714H285.796L286.616 199.028H275.227L276.151 191.417H286.924L287.745 184.731H276.972L277.792 178.097H288.976L289.797 171.411Z" fill="#0A0B0D"/>
<path d="M316.831 178.097L317.652 171.411H294.874L294.053 178.097H301.492L298.106 205.714H306.007L309.393 178.097H316.831Z" fill="#0A0B0D"/>
<path d="M342.516 174.034C338.925 171.205 335.539 170.639 332.614 170.639C329.69 170.639 326.15 171.154 323.38 173.879C321.738 175.525 320.302 178.097 320.302 181.645C320.302 183.805 320.917 185.759 322.559 187.457C324.201 189.154 326.817 190.285 327.381 190.491L329.382 191.314C331.178 192.034 331.845 192.599 332.101 192.857C332.512 193.268 333.076 193.988 333.076 195.222C333.076 196.508 332.563 197.691 331.64 198.411C330.665 199.131 329.023 199.491 327.843 199.491C326.355 199.491 324.919 199.028 323.842 198.359C322.815 197.691 321.687 196.611 320.969 195.634L316.557 201.291C317.788 202.628 319.429 204.017 321.122 204.942C323.431 206.177 325.432 206.485 327.946 206.485C331.434 206.485 334.974 205.868 337.745 203.142C339.745 201.137 341.182 197.948 341.182 194.348C341.182 192.137 340.669 190.542 339.438 188.999C338.104 187.354 336.565 186.479 334.923 185.708L332.922 184.782C331.229 184.011 330.306 183.599 329.587 182.982C328.869 182.417 328.408 181.697 328.408 180.668C328.408 179.742 328.869 178.765 329.587 178.199C330.46 177.479 331.845 177.325 332.82 177.325C334.359 177.325 336.411 177.839 338.565 179.794L342.516 174.034Z" fill="#0A0B0D"/>
<path d="M130.816 171.411L132.801 171.655L133.076 169.411H130.816V171.411ZM111.834 171.411V169.411H110.067L109.849 171.164L111.834 171.411ZM107.576 205.714L105.591 205.467L105.312 207.714H107.576V205.714ZM115.476 205.714V207.714H117.241L117.461 205.963L115.476 205.714ZM117.272 191.417V189.417H115.507L115.288 191.167L117.272 191.417ZM127.533 191.417V193.417H129.302L129.518 191.66L127.533 191.417ZM128.353 184.731L130.338 184.975L130.614 182.731H128.353V184.731ZM118.093 184.731L116.108 184.485L115.83 186.731H118.093V184.731ZM118.914 178.097V176.097H117.146L116.929 177.851L118.914 178.097ZM129.995 178.097V180.097H131.765L131.98 178.34L129.995 178.097ZM138.121 171.411V169.411H136.352L136.136 171.167L138.121 171.411ZM133.915 205.714L131.929 205.47L131.654 207.714H133.915V205.714ZM141.815 205.714V207.714H143.587L143.801 205.955L141.815 205.714ZM143.457 192.188L145.164 191.146L142.165 186.235L141.471 191.947L143.457 192.188ZM151.717 205.714L150.01 206.756L150.595 207.714H151.717V205.714ZM160.951 205.714V207.714H164.585L162.641 204.644L160.951 205.714ZM152.127 191.777L151.754 189.812L148.863 190.36L150.437 192.846L152.127 191.777ZM157.565 188.999L158.956 190.436L158.969 190.424L158.981 190.412L157.565 188.999ZM157.924 174.497L156.455 175.854L156.467 175.866L156.479 175.879L157.924 174.497ZM145.252 177.582V175.582H143.488L143.268 177.333L145.252 177.582ZM150.742 178.405L149.65 180.081L149.662 180.089L149.674 180.096L150.742 178.405ZM150.639 185.759L151.869 187.337L151.869 187.337L150.639 185.759ZM144.073 186.994L142.088 186.745L141.806 188.994H144.073V186.994ZM189.702 171.411L191.688 171.655L191.963 169.411H189.702V171.411ZM170.823 171.411V169.411H169.053L168.838 171.167L170.823 171.411ZM166.616 205.714L164.631 205.47L164.356 207.714H166.616V205.714ZM185.701 205.714V207.714H187.47L187.686 205.957L185.701 205.714ZM186.522 199.028L188.507 199.272L188.782 197.028H186.522V199.028ZM175.132 199.028L173.147 198.787L172.875 201.028H175.132V199.028ZM176.056 191.417V189.417H174.284L174.07 191.176L176.056 191.417ZM186.829 191.417V193.417H188.599L188.815 191.66L186.829 191.417ZM187.65 184.731L189.635 184.975L189.911 182.731H187.65V184.731ZM176.877 184.731L174.892 184.485L174.614 186.731H176.877V184.731ZM177.698 178.097V176.097H175.93L175.713 177.851L177.698 178.097ZM188.882 178.097V180.097H190.651L190.867 178.34L188.882 178.097ZM216.993 171.411L218.978 171.655L219.254 169.411H216.993V171.411ZM198.114 171.411V169.411H196.344L196.129 171.167L198.114 171.411ZM193.907 205.714L191.922 205.47L191.647 207.714H193.907V205.714ZM212.992 205.714V207.714H214.761L214.977 205.957L212.992 205.714ZM213.812 199.028L215.798 199.272L216.073 197.028H213.812V199.028ZM202.423 199.028L200.438 198.787L200.166 201.028H202.423V199.028ZM203.347 191.417V189.417H201.575L201.361 191.176L203.347 191.417ZM214.12 191.417V193.417H215.89L216.105 191.66L214.12 191.417ZM214.941 184.731L216.926 184.975L217.202 182.731H214.941V184.731ZM204.167 184.731L202.183 184.485L201.905 186.731H204.167V184.731ZM204.988 178.097V176.097H203.221L203.003 177.851L204.988 178.097ZM216.172 178.097V180.097H217.942L218.157 178.34L216.172 178.097ZM234.711 205.714L232.726 205.47L232.45 207.714H234.711V205.714ZM257.746 202.474L259.162 203.886L259.162 203.886L257.746 202.474ZM258.31 189.668L259.703 188.232L259.693 188.223L259.683 188.213L258.31 189.668ZM254.411 187.611L253.803 185.705L246.924 187.9L253.952 189.557L254.411 187.611ZM258.002 184.988L256.394 183.799L256.388 183.807L258.002 184.988ZM257.387 173.777L255.988 175.206L255.994 175.212L256.001 175.219L257.387 173.777ZM238.918 171.411V169.411H237.148L236.932 171.167L238.918 171.411ZM246.049 177.582V175.582H244.272L244.063 177.346L246.049 177.582ZM251.179 178.405L252.51 176.912L252.466 176.873L252.42 176.837L251.179 178.405ZM251.076 184.062L249.71 182.602L249.701 182.61L249.692 182.619L251.076 184.062ZM245.125 185.348L243.139 185.112L242.873 187.348H245.125V185.348ZM244.407 191.211V189.211H242.638L242.422 190.966L244.407 191.211ZM251.692 192.394L253.108 190.981L251.692 192.394ZM251.384 198.257L250.054 196.763L250.042 196.774L250.031 196.784L251.384 198.257ZM243.381 199.542L241.396 199.298L241.12 201.542H243.381V199.542ZM289.797 171.411L291.782 171.655L292.058 169.411H289.797V171.411ZM270.918 171.411V169.411H269.148L268.933 171.167L270.918 171.411ZM266.711 205.714L264.726 205.47L264.451 207.714H266.711V205.714ZM285.796 205.714V207.714H287.565L287.781 205.957L285.796 205.714ZM286.616 199.028L288.602 199.272L288.877 197.028H286.616V199.028ZM275.227 199.028L273.242 198.787L272.97 201.028H275.227V199.028ZM276.151 191.417V189.417H274.379L274.165 191.176L276.151 191.417ZM286.924 191.417V193.417H288.694L288.909 191.66L286.924 191.417ZM287.745 184.731L289.73 184.975L290.006 182.731H287.745V184.731ZM276.972 184.731L274.987 184.485L274.709 186.731H276.972V184.731ZM277.792 178.097V176.097H276.025L275.808 177.851L277.792 178.097ZM288.976 178.097V180.097H290.746L290.962 178.34L288.976 178.097ZM316.831 178.097V180.097H318.601L318.817 178.34L316.831 178.097ZM317.652 171.411L319.637 171.655L319.913 169.411H317.652V171.411ZM294.874 171.411V169.411H293.104L292.889 171.167L294.874 171.411ZM294.053 178.097L292.068 177.853L291.792 180.097H294.053V178.097ZM301.492 178.097L303.477 178.34L303.752 176.097H301.492V178.097ZM298.106 205.714L296.121 205.47L295.846 207.714H298.106V205.714ZM306.007 205.714V207.714H307.776L307.992 205.957L306.007 205.714ZM309.393 178.097V176.097H307.623L307.407 177.853L309.393 178.097ZM342.516 174.034L344.165 175.165L345.224 173.621L343.753 172.463L342.516 174.034ZM323.38 173.879L321.977 172.454L321.97 172.46L321.964 172.467L323.38 173.879ZM327.381 190.491L328.142 188.641L328.105 188.626L328.066 188.612L327.381 190.491ZM329.382 191.314L328.622 193.163L328.63 193.167L328.638 193.17L329.382 191.314ZM332.101 192.857L330.685 194.269L330.685 194.269L332.101 192.857ZM331.64 198.411L332.828 200.02L332.849 200.004L332.869 199.988L331.64 198.411ZM323.842 198.359L322.75 200.035L322.768 200.047L322.787 200.059L323.842 198.359ZM320.969 195.634L322.58 194.449L321.016 192.321L319.392 194.404L320.969 195.634ZM316.557 201.291L314.979 200.061L313.937 201.398L315.085 202.646L316.557 201.291ZM321.122 204.942L320.163 206.697L320.171 206.702L320.18 206.706L321.122 204.942ZM337.745 203.142L339.147 204.568L339.154 204.561L339.161 204.555L337.745 203.142ZM339.438 188.999L341.001 187.752L340.996 187.746L340.991 187.74L339.438 188.999ZM334.923 185.708L335.774 183.898L335.763 183.893L334.923 185.708ZM332.922 184.782L333.762 182.967L333.751 182.962L332.922 184.782ZM329.587 182.982L330.891 181.465L330.859 181.437L330.825 181.411L329.587 182.982ZM329.587 178.199L330.825 179.771L330.843 179.756L330.861 179.742L329.587 178.199ZM338.565 179.794L337.222 181.275L338.919 182.814L340.215 180.925L338.565 179.794ZM130.816 169.411H111.834V173.411H130.816V169.411ZM109.849 171.164L105.591 205.467L109.56 205.96L113.819 171.657L109.849 171.164ZM107.576 207.714H115.476V203.714H107.576V207.714ZM117.461 205.963L119.256 191.666L115.288 191.167L113.492 205.464L117.461 205.963ZM117.272 193.417H127.533V189.417H117.272V193.417ZM129.518 191.66L130.338 184.975L126.368 184.487L125.547 191.173L129.518 191.66ZM128.353 182.731H118.093V186.731H128.353V182.731ZM120.078 184.976L120.898 178.342L116.929 177.851L116.108 184.485L120.078 184.976ZM118.914 180.097H129.995V176.097H118.914V180.097ZM131.98 178.34L132.801 171.655L128.831 171.167L128.01 177.853L131.98 178.34ZM136.136 171.167L131.929 205.47L135.9 205.957L140.106 171.654L136.136 171.167ZM133.915 207.714H141.815V203.714H133.915V207.714ZM143.801 205.955L145.442 192.429L141.471 191.947L139.83 205.473L143.801 205.955ZM141.75 193.23L150.01 206.756L153.424 204.671L145.164 191.146L141.75 193.23ZM151.717 207.714H160.951V203.714H151.717V207.714ZM162.641 204.644L153.817 190.707L150.437 192.846L159.261 206.784L162.641 204.644ZM152.5 193.742C154.744 193.316 157.161 192.174 158.956 190.436L156.174 187.562C154.994 188.705 153.307 189.517 151.754 189.812L152.5 193.742ZM158.981 190.412C161.085 188.303 162.387 185.206 162.387 181.491H158.387C158.387 184.256 157.431 186.302 156.149 187.587L158.981 190.412ZM162.387 181.491C162.387 177.413 160.896 174.711 159.37 173.114L156.479 175.879C157.313 176.751 158.387 178.471 158.387 181.491H162.387ZM159.393 173.14C156.214 169.697 152.2 169.411 148.844 169.411V173.411C152.054 173.411 154.505 173.742 156.455 175.854L159.393 173.14ZM148.844 169.411H138.121V173.411H148.844V169.411ZM145.252 179.582H146.432V175.582H145.252V179.582ZM146.432 179.582C148.248 179.582 149.174 179.77 149.65 180.081L151.834 176.729C150.258 175.703 148.209 175.582 146.432 175.582V179.582ZM149.674 180.096C149.98 180.289 150.131 180.507 150.226 180.744C150.334 181.013 150.384 181.351 150.384 181.748H154.384C154.384 180.394 154.054 178.131 151.809 176.714L149.674 180.096ZM150.384 181.748C150.384 182.86 150.119 183.629 149.41 184.182L151.869 187.337C153.93 185.73 154.384 183.516 154.384 181.748H150.384ZM149.41 184.182C148.599 184.814 147.266 184.994 146.022 184.994V188.994C147.343 188.994 149.909 188.865 151.869 187.337L149.41 184.182ZM146.022 184.994H144.073V188.994H146.022V184.994ZM146.057 187.242L147.237 177.831L143.268 177.333L142.088 186.745L146.057 187.242ZM189.702 169.411H170.823V173.411H189.702V169.411ZM168.838 171.167L164.631 205.47L168.601 205.957L172.808 171.654L168.838 171.167ZM166.616 207.714H185.701V203.714H166.616V207.714ZM187.686 205.957L188.507 199.272L184.537 198.784L183.716 205.47L187.686 205.957ZM186.522 197.028H175.132V201.028H186.522V197.028ZM177.118 199.269L178.041 191.657L174.07 191.176L173.147 198.787L177.118 199.269ZM176.056 193.417H186.829V189.417H176.056V193.417ZM188.815 191.66L189.635 184.975L185.665 184.487L184.844 191.173L188.815 191.66ZM187.65 182.731H176.877V186.731H187.65V182.731ZM178.862 184.976L179.682 178.342L175.713 177.851L174.892 184.485L178.862 184.976ZM177.698 180.097H188.882V176.097H177.698V180.097ZM190.867 178.34L191.688 171.655L187.717 171.167L186.896 177.853L190.867 178.34ZM216.993 169.411H198.114V173.411H216.993V169.411ZM196.129 171.167L191.922 205.47L195.892 205.957L200.099 171.654L196.129 171.167ZM193.907 207.714H212.992V203.714H193.907V207.714ZM214.977 205.957L215.798 199.272L211.827 198.784L211.006 205.47L214.977 205.957ZM213.812 197.028H202.423V201.028H213.812V197.028ZM204.409 199.269L205.332 191.657L201.361 191.176L200.438 198.787L204.409 199.269ZM203.347 193.417H214.12V189.417H203.347V193.417ZM216.105 191.66L216.926 184.975L212.956 184.487L212.135 191.173L216.105 191.66ZM214.941 182.731H204.167V186.731H214.941V182.731ZM206.152 184.976L206.973 178.342L203.003 177.851L202.183 184.485L206.152 184.976ZM204.988 180.097H216.172V176.097H204.988V180.097ZM218.157 178.34L218.978 171.655L215.008 171.167L214.187 177.853L218.157 178.34ZM234.711 207.714H247.434V203.714H234.711V207.714ZM247.434 207.714C251.098 207.714 255.835 207.221 259.162 203.886L256.33 201.061C254.218 203.178 250.953 203.714 247.434 203.714V207.714ZM259.162 203.886C260.836 202.208 262.516 199.347 262.516 195.119H258.516C258.516 198.195 257.324 200.065 256.33 201.061L259.162 203.886ZM262.516 195.119C262.516 192.44 261.73 190.2 259.703 188.232L256.917 191.103C258.07 192.222 258.516 193.376 258.516 195.119H262.516ZM259.683 188.213C258.582 187.175 256.992 186.165 254.87 185.664L253.952 189.557C255.319 189.88 256.294 190.515 256.938 191.123L259.683 188.213ZM255.019 189.516C256.474 189.052 258.194 188.114 259.616 186.169L256.388 183.807C255.554 184.948 254.605 185.45 253.803 185.705L255.019 189.516ZM259.611 186.177C260.929 184.393 261.593 182.211 261.593 179.639H257.593C257.593 181.491 257.128 182.806 256.394 183.799L259.611 186.177ZM261.593 179.639C261.593 176.476 260.434 173.931 258.772 172.334L256.001 175.219C256.802 175.988 257.593 177.454 257.593 179.639H261.593ZM258.785 172.347C256.012 169.633 252.186 169.411 249.845 169.411V173.411C252.122 173.411 254.451 173.703 255.988 175.206L258.785 172.347ZM249.845 169.411H238.918V173.411H249.845V169.411ZM236.932 171.167L232.726 205.47L236.696 205.957L240.903 171.654L236.932 171.167ZM246.049 179.582H247.69V175.582H246.049V179.582ZM247.69 179.582C248.911 179.582 249.585 179.694 249.938 179.973L252.42 176.837C250.824 175.574 248.727 175.582 247.69 175.582V179.582ZM249.848 179.898C249.943 179.983 250.035 180.087 250.107 180.228C250.174 180.362 250.256 180.591 250.256 180.977H254.256C254.256 178.887 253.288 177.606 252.51 176.912L249.848 179.898ZM250.256 180.977C250.256 181.73 249.963 182.365 249.71 182.602L252.443 185.523C253.729 184.32 254.256 182.486 254.256 180.977H250.256ZM249.692 182.619C249.447 182.853 249.064 183.051 248.502 183.181C247.941 183.311 247.319 183.348 246.716 183.348V187.348C248.039 187.348 250.651 187.241 252.461 185.506L249.692 182.619ZM246.716 183.348H245.125V187.348H246.716V183.348ZM247.111 185.584L248.035 177.818L244.063 177.346L243.139 185.112L247.111 185.584ZM244.407 193.211H247.485V189.211H244.407V193.211ZM247.485 193.211C247.802 193.211 248.427 193.223 249.065 193.344C249.77 193.476 250.147 193.677 250.276 193.806L253.108 190.981C252.108 189.979 250.741 189.589 249.804 189.412C248.801 189.224 247.886 189.211 247.485 189.211V193.211ZM250.276 193.806C250.373 193.903 250.46 194.047 250.524 194.265C250.59 194.487 250.615 194.737 250.615 194.965H254.615C254.615 194.057 254.438 192.315 253.108 190.981L250.276 193.806ZM250.615 194.965C250.615 196.249 250.127 196.698 250.054 196.763L252.715 199.75C253.565 198.992 254.615 197.487 254.615 194.965H250.615ZM250.031 196.784C249.824 196.974 249.352 197.204 248.54 197.359C247.776 197.505 246.943 197.542 246.254 197.542V201.542C247.052 201.542 248.169 201.502 249.29 201.288C250.364 201.083 251.713 200.67 252.737 199.729L250.031 196.784ZM246.254 197.542H243.381V201.542H246.254V197.542ZM245.366 199.787L246.392 191.455L242.422 190.966L241.396 199.298L245.366 199.787ZM289.797 169.411H270.918V173.411H289.797V169.411ZM268.933 171.167L264.726 205.47L268.696 205.957L272.903 171.654L268.933 171.167ZM266.711 207.714H285.796V203.714H266.711V207.714ZM287.781 205.957L288.602 199.272L284.631 198.784L283.811 205.47L287.781 205.957ZM286.616 197.028H275.227V201.028H286.616V197.028ZM277.213 199.269L278.136 191.657L274.165 191.176L273.242 198.787L277.213 199.269ZM276.151 193.417H286.924V189.417H276.151V193.417ZM288.909 191.66L289.73 184.975L285.76 184.487L284.939 191.173L288.909 191.66ZM287.745 182.731H276.972V186.731H287.745V182.731ZM278.956 184.976L279.777 178.342L275.808 177.851L274.987 184.485L278.956 184.976ZM277.792 180.097H288.976V176.097H277.792V180.097ZM290.962 178.34L291.782 171.655L287.812 171.167L286.991 177.853L290.962 178.34ZM318.817 178.34L319.637 171.655L315.667 171.167L314.846 177.853L318.817 178.34ZM317.652 169.411H294.874V173.411H317.652V169.411ZM292.889 171.167L292.068 177.853L296.038 178.34L296.859 171.655L292.889 171.167ZM294.053 180.097H301.492V176.097H294.053V180.097ZM299.507 177.853L296.121 205.47L300.091 205.957L303.477 178.34L299.507 177.853ZM298.106 207.714H306.007V203.714H298.106V207.714ZM307.992 205.957L311.378 178.34L307.407 177.853L304.021 205.47L307.992 205.957ZM309.393 180.097H316.831V176.097H309.393V180.097ZM343.753 172.463C339.718 169.284 335.856 168.639 332.614 168.639V172.639C335.221 172.639 338.131 173.126 341.278 175.605L343.753 172.463ZM332.614 168.639C329.498 168.639 325.306 169.179 321.977 172.454L324.782 175.305C326.994 173.129 329.882 172.639 332.614 172.639V168.639ZM321.964 172.467C319.989 174.446 318.302 177.512 318.302 181.645H322.302C322.302 178.682 323.487 176.604 324.796 175.292L321.964 172.467ZM318.302 181.645C318.302 184.234 319.061 186.717 321.121 188.847L323.996 186.066C322.773 184.802 322.302 183.376 322.302 181.645H318.302ZM321.121 188.847C323.08 190.872 326.039 192.13 326.696 192.37L328.066 188.612C327.595 188.44 325.321 187.435 323.996 186.066L321.121 188.847ZM326.621 192.341L328.622 193.163L330.143 189.464L328.142 188.641L326.621 192.341ZM328.638 193.17C330.255 193.818 330.669 194.252 330.685 194.269L333.517 191.444C333.021 190.946 332.101 190.249 330.127 189.457L328.638 193.17ZM330.685 194.269C330.8 194.384 330.889 194.495 330.953 194.623C331.012 194.742 331.076 194.926 331.076 195.222H335.076C335.076 193.272 334.146 192.074 333.517 191.444L330.685 194.269ZM331.076 195.222C331.076 195.999 330.769 196.554 330.41 196.834L332.869 199.988C334.357 198.828 335.076 197.017 335.076 195.222H331.076ZM330.451 196.802C329.942 197.178 328.777 197.491 327.843 197.491V201.491C329.27 201.491 331.387 201.084 332.828 200.02L330.451 196.802ZM327.843 197.491C326.749 197.491 325.675 197.143 324.896 196.66L322.787 200.059C324.163 200.913 325.962 201.491 327.843 201.491V197.491ZM324.933 196.684C324.116 196.151 323.161 195.24 322.58 194.449L319.357 196.818C320.213 197.982 321.515 199.231 322.75 200.035L324.933 196.684ZM319.392 194.404L314.979 200.061L318.134 202.521L322.546 196.864L319.392 194.404ZM315.085 202.646C316.428 204.104 318.237 205.644 320.163 206.697L322.082 203.187C320.622 202.389 319.147 201.152 318.028 199.936L315.085 202.646ZM320.18 206.706C322.865 208.142 325.217 208.485 327.946 208.485V204.485C325.646 204.485 323.997 204.211 322.065 203.178L320.18 206.706ZM327.946 208.485C331.636 208.485 335.823 207.839 339.147 204.568L336.342 201.717C334.126 203.897 331.233 204.485 327.946 204.485V208.485ZM339.161 204.555C341.547 202.162 343.182 198.461 343.182 194.348H339.182C339.182 197.435 337.944 200.111 336.329 201.73L339.161 204.555ZM343.182 194.348C343.182 191.749 342.553 189.697 341.001 187.752L337.874 190.247C338.785 191.388 339.182 192.524 339.182 194.348H343.182ZM340.991 187.74C339.376 185.747 337.515 184.716 335.774 183.898L334.072 187.518C335.615 188.243 336.832 188.961 337.884 190.259L340.991 187.74ZM335.763 183.893L333.762 182.967L332.082 186.597L334.083 187.523L335.763 183.893ZM333.751 182.962C331.941 182.137 331.341 181.852 330.891 181.465L328.284 184.499C329.27 185.347 330.517 185.884 332.093 186.602L333.751 182.962ZM330.825 181.411C330.625 181.253 330.533 181.131 330.487 181.047C330.448 180.975 330.408 180.867 330.408 180.668H326.408C326.408 182.434 327.258 183.693 328.35 184.553L330.825 181.411ZM330.408 180.668C330.408 180.334 330.605 179.944 330.825 179.771L328.35 176.628C327.134 177.586 326.408 179.151 326.408 180.668H330.408ZM330.861 179.742C330.964 179.656 331.193 179.535 331.6 179.444C331.991 179.357 332.426 179.325 332.82 179.325V175.325C332.239 175.325 331.494 175.37 330.73 175.54C329.982 175.707 329.083 176.023 328.314 176.657L330.861 179.742ZM332.82 179.325C333.87 179.325 335.441 179.66 337.222 181.275L339.909 178.312C337.38 176.019 334.847 175.325 332.82 175.325V179.325ZM340.215 180.925L344.165 175.165L340.866 172.903L336.916 178.663L340.215 180.925Z" fill="white" mask="url(#path-1-outside-1_224_7761)"/>
<mask id="path-3-inside-2_224_7761" fill="white">
<path d="M55.6889 107.237L53.5166 125.161L62.6236 124.491L57.9448 163.102H78.4982L85.3493 107.237H55.6889Z"/>
<path d="M123.351 105.897C107.477 105.897 95.7794 119.13 95.7794 137.138C95.7794 153.219 106.39 164.526 121.513 164.526C137.555 164.526 149.753 150.957 149.753 133.201C149.753 117.539 138.474 105.897 123.351 105.897ZM121.429 147.775C117.92 147.775 115.832 144.089 115.832 138.143C115.832 130.102 119.675 122.899 123.936 122.899C127.362 122.899 129.701 126.417 129.701 131.694C129.701 140.655 126.025 147.775 121.429 147.775Z"/>
<path d="M186.216 105.897C170.342 105.897 158.645 119.13 158.645 137.138C158.645 153.219 169.256 164.526 184.378 164.526C200.42 164.526 212.618 150.957 212.618 133.201C212.618 117.539 201.339 105.897 186.216 105.897ZM184.295 147.775C180.786 147.775 178.697 144.089 178.697 138.143C178.697 130.102 182.54 122.899 186.801 122.899C190.227 122.899 192.566 126.417 192.566 131.694C192.566 140.655 188.89 147.775 184.295 147.775Z"/>
<path d="M247.077 107.237L240.226 163.102H277.489L279.327 148.11H262.283L263.035 141.744H278.074L279.745 127.925H264.706L265.458 121.81H281.918L283.672 107.237H247.077Z"/>
<path d="M326.268 107.237L322.425 138.896C321.59 145.011 319.752 147.44 315.908 147.44C312.733 147.44 310.895 145.597 310.895 142.247C310.895 141.577 311.062 140.153 311.313 138.143L315.073 107.237H294.603L290.592 139.399C290.425 140.907 290.342 142.33 290.342 143.838C290.342 150.538 292.18 154.894 296.608 158.495C301.454 162.432 308.222 164.526 316.326 164.526C324.263 164.526 330.279 162.432 335.208 157.993C340.138 153.47 341.475 150.036 342.979 138.143L346.738 107.237H326.268Z"/>
<path d="M400.195 137.975C403.704 135.128 405.793 130.521 405.793 125.663C405.793 120.387 403.37 115.194 399.276 111.76C395.098 108.41 390.837 107.237 381.73 107.237H359.589L352.738 163.102H372.958L374.044 153.721C374.294 151.627 374.461 148.863 374.461 146.351C374.461 144.843 374.461 144.089 374.378 142.247L374.963 142.163C375.38 144.257 376.3 147.272 377.135 149.617L382.148 163.102H404.038L391.923 141.242C396.101 140.655 397.688 139.985 400.195 137.975ZM379.558 122.229C383.986 122.229 385.991 123.653 385.991 126.752C385.991 130.102 383.067 132.28 378.388 132.28H376.717L377.971 122.229H379.558Z"/>
</mask>
<path d="M55.6889 107.237L53.5166 125.161L62.6236 124.491L57.9448 163.102H78.4982L85.3493 107.237H55.6889Z" fill="#0A0B0D"/>
<path d="M123.351 105.897C107.477 105.897 95.7794 119.13 95.7794 137.138C95.7794 153.219 106.39 164.526 121.513 164.526C137.555 164.526 149.753 150.957 149.753 133.201C149.753 117.539 138.474 105.897 123.351 105.897ZM121.429 147.775C117.92 147.775 115.832 144.089 115.832 138.143C115.832 130.102 119.675 122.899 123.936 122.899C127.362 122.899 129.701 126.417 129.701 131.694C129.701 140.655 126.025 147.775 121.429 147.775Z" fill="#0A0B0D"/>
<path d="M186.216 105.897C170.342 105.897 158.645 119.13 158.645 137.138C158.645 153.219 169.256 164.526 184.378 164.526C200.42 164.526 212.618 150.957 212.618 133.201C212.618 117.539 201.339 105.897 186.216 105.897ZM184.295 147.775C180.786 147.775 178.697 144.089 178.697 138.143C178.697 130.102 182.54 122.899 186.801 122.899C190.227 122.899 192.566 126.417 192.566 131.694C192.566 140.655 188.89 147.775 184.295 147.775Z" fill="#0A0B0D"/>
<path d="M247.077 107.237L240.226 163.102H277.489L279.327 148.11H262.283L263.035 141.744H278.074L279.745 127.925H264.706L265.458 121.81H281.918L283.672 107.237H247.077Z" fill="#0A0B0D"/>
<path d="M326.268 107.237L322.425 138.896C321.59 145.011 319.752 147.44 315.908 147.44C312.733 147.44 310.895 145.597 310.895 142.247C310.895 141.577 311.062 140.153 311.313 138.143L315.073 107.237H294.603L290.592 139.399C290.425 140.907 290.342 142.33 290.342 143.838C290.342 150.538 292.18 154.894 296.608 158.495C301.454 162.432 308.222 164.526 316.326 164.526C324.263 164.526 330.279 162.432 335.208 157.993C340.138 153.47 341.475 150.036 342.979 138.143L346.738 107.237H326.268Z" fill="#0A0B0D"/>
<path d="M400.195 137.975C403.704 135.128 405.793 130.521 405.793 125.663C405.793 120.387 403.37 115.194 399.276 111.76C395.098 108.41 390.837 107.237 381.73 107.237H359.589L352.738 163.102H372.958L374.044 153.721C374.294 151.627 374.461 148.863 374.461 146.351C374.461 144.843 374.461 144.089 374.378 142.247L374.963 142.163C375.38 144.257 376.3 147.272 377.135 149.617L382.148 163.102H404.038L391.923 141.242C396.101 140.655 397.688 139.985 400.195 137.975ZM379.558 122.229C383.986 122.229 385.991 123.653 385.991 126.752C385.991 130.102 383.067 132.28 378.388 132.28H376.717L377.971 122.229H379.558Z" fill="#0A0B0D"/>
<path d="M55.6889 107.237V105.237H53.9167L53.7034 106.996L55.6889 107.237ZM53.5166 125.161L51.5311 124.92L51.2386 127.334L53.6634 127.155L53.5166 125.161ZM62.6236 124.491L64.6091 124.731L64.9016 122.318L62.4769 122.496L62.6236 124.491ZM57.9448 163.102L55.9593 162.861L55.6878 165.102H57.9448V163.102ZM78.4982 163.102V165.102H80.2679L80.4833 163.345L78.4982 163.102ZM85.3493 107.237L87.3345 107.481L87.6096 105.237H85.3493V107.237ZM247.077 107.237V105.237H245.307L245.092 106.994L247.077 107.237ZM240.226 163.102L238.241 162.858L237.966 165.102H240.226V163.102ZM277.489 163.102V165.102H279.259L279.474 163.345L277.489 163.102ZM279.327 148.11L281.313 148.353L281.588 146.11H279.327V148.11ZM262.283 148.11L260.297 147.875L260.033 150.11H262.283V148.11ZM263.035 141.744V139.744H261.257L261.049 141.51L263.035 141.744ZM278.074 141.744V143.744H279.847L280.06 141.984L278.074 141.744ZM279.745 127.925L281.731 128.165L282.002 125.925H279.745V127.925ZM264.706 127.925L262.721 127.68L262.445 129.925H264.706V127.925ZM265.458 121.81V119.81H263.689L263.473 121.566L265.458 121.81ZM281.918 121.81V123.81H283.691L283.903 122.05L281.918 121.81ZM283.672 107.237L285.658 107.476L285.927 105.237H283.672V107.237ZM326.268 107.237V105.237H324.497L324.283 106.996L326.268 107.237ZM322.425 138.896L324.407 139.167L324.409 139.152L324.411 139.138L322.425 138.896ZM311.313 138.143L313.298 138.39L313.298 138.384L311.313 138.143ZM315.073 107.237L317.058 107.479L317.331 105.237H315.073V107.237ZM294.603 107.237V105.237H292.837L292.618 106.99L294.603 107.237ZM290.592 139.399L288.608 139.152L288.606 139.165L288.605 139.179L290.592 139.399ZM296.608 158.495L295.346 160.047L295.347 160.048L296.608 158.495ZM335.208 157.993L336.547 159.479L336.554 159.473L336.56 159.466L335.208 157.993ZM342.979 138.143L344.963 138.394L344.964 138.384L342.979 138.143ZM346.738 107.237L348.724 107.479L348.996 105.237H346.738V107.237ZM400.195 137.975L401.446 139.535L401.455 139.528L400.195 137.975ZM399.276 111.76L400.561 110.228L400.544 110.213L400.527 110.2L399.276 111.76ZM359.589 107.237V105.237H357.82L357.604 106.994L359.589 107.237ZM352.738 163.102L350.753 162.858L350.478 165.102H352.738V163.102ZM372.958 163.102V165.102H374.739L374.944 163.332L372.958 163.102ZM374.044 153.721L372.058 153.483L372.057 153.491L374.044 153.721ZM374.378 142.247L374.094 140.267L372.298 140.524L372.38 142.337L374.378 142.247ZM374.963 142.163L376.924 141.772L376.554 139.915L374.679 140.183L374.963 142.163ZM377.135 149.617L375.251 150.288L375.256 150.301L375.26 150.314L377.135 149.617ZM382.148 163.102L380.273 163.799L380.758 165.102H382.148V163.102ZM404.038 163.102V165.102H407.433L405.788 162.132L404.038 163.102ZM391.923 141.242L391.645 139.261L388.763 139.666L390.174 142.211L391.923 141.242ZM376.717 132.28L374.733 132.032L374.452 134.28H376.717V132.28ZM377.971 122.229V120.229H376.204L375.986 121.982L377.971 122.229ZM53.7034 106.996L51.5311 124.92L55.5021 125.401L57.6744 107.478L53.7034 106.996ZM53.6634 127.155L62.7704 126.485L62.4769 122.496L53.3698 123.166L53.6634 127.155ZM60.6381 124.25L55.9593 162.861L59.9303 163.342L64.6091 124.731L60.6381 124.25ZM57.9448 165.102H78.4982V161.102H57.9448V165.102ZM80.4833 163.345L87.3345 107.481L83.3642 106.994L76.5131 162.858L80.4833 163.345ZM85.3493 105.237H55.6889V109.237H85.3493V105.237ZM123.351 103.897C106.145 103.897 93.7794 118.267 93.7794 137.138H97.7794C97.7794 119.994 108.808 107.897 123.351 107.897V103.897ZM93.7794 137.138C93.7794 145.622 96.5839 152.979 101.517 158.231C106.459 163.493 113.431 166.526 121.513 166.526V162.526C114.473 162.526 108.577 159.905 104.433 155.493C100.28 151.072 97.7794 144.734 97.7794 137.138H93.7794ZM121.513 166.526C138.851 166.526 151.753 151.86 151.753 133.201H147.753C147.753 150.054 136.259 162.526 121.513 162.526V166.526ZM151.753 133.201C151.753 116.497 139.64 103.897 123.351 103.897V107.897C137.307 107.897 147.753 118.581 147.753 133.201H151.753ZM121.429 145.775C120.516 145.775 119.719 145.353 119.047 144.189C118.327 142.942 117.832 140.925 117.832 138.143H113.832C113.832 141.307 114.381 144.106 115.582 146.188C116.832 148.354 118.833 149.775 121.429 149.775V145.775ZM117.832 138.143C117.832 134.415 118.728 130.933 120.051 128.446C121.452 125.815 122.962 124.899 123.936 124.899V120.899C120.649 120.899 118.107 123.585 116.52 126.566C114.857 129.691 113.832 133.83 113.832 138.143H117.832ZM123.936 124.899C124.867 124.899 125.725 125.343 126.432 126.417C127.171 127.539 127.701 129.322 127.701 131.694H131.701C131.701 128.789 131.061 126.174 129.774 124.218C128.455 122.215 126.431 120.899 123.936 120.899V124.899ZM127.701 131.694C127.701 135.928 126.828 139.62 125.51 142.179C124.144 144.832 122.602 145.775 121.429 145.775V149.775C124.853 149.775 127.446 147.157 129.066 144.01C130.736 140.769 131.701 136.421 131.701 131.694H127.701ZM186.216 103.897C169.01 103.897 156.645 118.267 156.645 137.138H160.645C160.645 119.994 171.673 107.897 186.216 107.897V103.897ZM156.645 137.138C156.645 145.622 159.449 152.979 164.383 158.231C169.325 163.493 176.296 166.526 184.378 166.526V162.526C177.338 162.526 171.442 159.905 167.298 155.493C163.146 151.072 160.645 144.734 160.645 137.138H156.645ZM184.378 166.526C201.716 166.526 214.618 151.86 214.618 133.201H210.618C210.618 150.054 199.124 162.526 184.378 162.526V166.526ZM214.618 133.201C214.618 116.497 202.505 103.897 186.216 103.897V107.897C200.173 107.897 210.618 118.581 210.618 133.201H214.618ZM184.295 145.775C183.382 145.775 182.584 145.353 181.912 144.189C181.192 142.942 180.697 140.925 180.697 138.143H176.697C176.697 141.307 177.246 144.106 178.448 146.188C179.697 148.354 181.699 149.775 184.295 149.775V145.775ZM180.697 138.143C180.697 134.415 181.593 130.933 182.917 128.446C184.317 125.815 185.827 124.899 186.801 124.899V120.899C183.514 120.899 180.972 123.585 179.386 126.566C177.722 129.691 176.697 133.83 176.697 138.143H180.697ZM186.801 124.899C187.732 124.899 188.59 125.343 189.298 126.417C190.036 127.539 190.566 129.322 190.566 131.694H194.566C194.566 128.789 193.926 126.174 192.639 124.218C191.32 122.215 189.296 120.899 186.801 120.899V124.899ZM190.566 131.694C190.566 135.928 189.693 139.62 188.376 142.179C187.009 144.832 185.467 145.775 184.295 145.775V149.775C187.718 149.775 190.311 147.157 191.932 144.01C193.601 140.769 194.566 136.421 194.566 131.694H190.566ZM245.092 106.994L238.241 162.858L242.211 163.345L249.062 107.481L245.092 106.994ZM240.226 165.102H277.489V161.102H240.226V165.102ZM279.474 163.345L281.313 148.353L277.342 147.866L275.504 162.858L279.474 163.345ZM279.327 146.11H262.283V150.11H279.327V146.11ZM264.269 148.344L265.021 141.979L261.049 141.51L260.297 147.875L264.269 148.344ZM263.035 143.744H278.074V139.744H263.035V143.744ZM280.06 141.984L281.731 128.165L277.76 127.684L276.089 141.504L280.06 141.984ZM279.745 125.925H264.706V129.925H279.745V125.925ZM266.691 128.169L267.443 122.055L263.473 121.566L262.721 127.68L266.691 128.169ZM265.458 123.81H281.918V119.81H265.458V123.81ZM283.903 122.05L285.658 107.476L281.686 106.998L279.932 121.571L283.903 122.05ZM283.672 105.237H247.077V109.237H283.672V105.237ZM324.283 106.996L320.44 138.655L324.411 139.138L328.254 107.478L324.283 106.996ZM320.444 138.626C320.037 141.6 319.423 143.304 318.703 144.249C318.108 145.031 317.333 145.44 315.908 145.44V149.44C318.327 149.44 320.392 148.634 321.886 146.672C323.255 144.875 323.978 142.308 324.407 139.167L320.444 138.626ZM315.908 145.44C314.706 145.44 314.028 145.099 313.644 144.704C313.253 144.302 312.895 143.567 312.895 142.247H308.895C308.895 144.277 309.457 146.138 310.778 147.495C312.107 148.859 313.936 149.44 315.908 149.44V145.44ZM312.895 142.247C312.895 141.735 313.038 140.473 313.298 138.39L309.328 137.895C309.087 139.832 308.895 141.419 308.895 142.247H312.895ZM313.298 138.384L317.058 107.479L313.087 106.996L309.328 137.901L313.298 138.384ZM315.073 105.237H294.603V109.237H315.073V105.237ZM292.618 106.99L288.608 139.152L292.577 139.646L296.587 107.485L292.618 106.99ZM288.605 139.179C288.43 140.755 288.342 142.252 288.342 143.838H292.342C292.342 142.409 292.421 141.058 292.58 139.619L288.605 139.179ZM288.342 143.838C288.342 147.366 288.825 150.416 289.974 153.113C291.133 155.83 292.917 158.071 295.346 160.047L297.87 156.944C295.871 155.318 294.522 153.581 293.654 151.544C292.778 149.489 292.342 147.011 292.342 143.838H288.342ZM295.347 160.048C300.639 164.346 307.893 166.526 316.326 166.526V162.526C308.55 162.526 302.269 160.517 297.869 156.943L295.347 160.048ZM316.326 166.526C324.659 166.526 331.183 164.309 336.547 159.479L333.87 156.506C329.375 160.554 323.867 162.526 316.326 162.526V166.526ZM336.56 159.466C339.176 157.066 340.96 154.835 342.241 151.56C343.479 148.394 344.211 144.338 344.963 138.394L340.994 137.892C340.242 143.841 339.554 147.448 338.515 150.103C337.52 152.649 336.17 154.396 333.856 156.519L336.56 159.466ZM344.964 138.384L348.724 107.479L344.753 106.996L340.993 137.901L344.964 138.384ZM346.738 105.237H326.268V109.237H346.738V105.237ZM401.455 139.528C405.473 136.268 407.793 131.069 407.793 125.663H403.793C403.793 129.973 401.935 133.987 398.935 136.422L401.455 139.528ZM407.793 125.663C407.793 119.791 405.105 114.039 400.561 110.228L397.991 113.292C401.635 116.349 403.793 120.982 403.793 125.663H407.793ZM400.527 110.2C395.834 106.436 391.032 105.237 381.73 105.237V109.237C390.643 109.237 394.362 110.383 398.025 113.32L400.527 110.2ZM381.73 105.237H359.589V109.237H381.73V105.237ZM357.604 106.994L350.753 162.858L354.723 163.345L361.575 107.481L357.604 106.994ZM352.738 165.102H372.958V161.102H352.738V165.102ZM374.944 163.332L376.03 153.951L372.057 153.491L370.971 162.872L374.944 163.332ZM376.029 153.959C376.29 151.781 376.461 148.938 376.461 146.351H372.461C372.461 148.789 372.298 151.473 372.058 153.483L376.029 153.959ZM376.461 146.351C376.461 144.829 376.461 144.042 376.376 142.156L372.38 142.337C372.462 144.137 372.461 144.857 372.461 146.351H376.461ZM374.661 144.226L375.246 144.143L374.679 140.183L374.094 140.267L374.661 144.226ZM373.001 142.554C373.446 144.784 374.401 147.901 375.251 150.288L379.019 148.946C378.198 146.643 377.315 143.73 376.924 141.772L373.001 142.554ZM375.26 150.314L380.273 163.799L384.023 162.405L379.01 148.92L375.26 150.314ZM382.148 165.102H404.038V161.102H382.148V165.102ZM405.788 162.132L393.673 140.272L390.174 142.211L402.289 164.071L405.788 162.132ZM392.201 143.222C394.34 142.922 395.97 142.582 397.427 142C398.914 141.406 400.112 140.606 401.446 139.535L398.944 136.415C397.772 137.355 396.923 137.894 395.944 138.285C394.937 138.687 393.684 138.975 391.645 139.261L392.201 143.222ZM379.558 124.229C381.633 124.229 382.736 124.577 383.283 124.963C383.68 125.243 383.991 125.682 383.991 126.752H387.991C387.991 124.723 387.3 122.9 385.587 121.694C384.025 120.593 381.911 120.229 379.558 120.229V124.229ZM383.991 126.752C383.991 127.773 383.578 128.562 382.763 129.158C381.889 129.798 380.445 130.28 378.388 130.28V134.28C381.01 134.28 383.368 133.673 385.126 132.386C386.943 131.056 387.991 129.081 387.991 126.752H383.991ZM378.388 130.28H376.717V134.28H378.388V130.28ZM378.702 132.527L379.955 122.477L375.986 121.982L374.733 132.032L378.702 132.527ZM377.971 124.229H379.558V120.229H377.971V124.229Z" fill="#006633" mask="url(#path-3-inside-2_224_7761)"/>
<mask id="path-5-inside-3_224_7761" fill="white">
<path d="M47.6269 100.625L45.4546 118.548L54.5616 117.878L49.8828 156.489H70.4362L77.2873 100.625H47.6269Z"/>
<path d="M115.289 99.2847C99.4145 99.2847 87.7174 112.518 87.7174 130.525C87.7174 146.606 98.3283 157.913 113.451 157.913C129.493 157.913 141.691 144.345 141.691 126.589C141.691 110.927 130.412 99.2847 115.289 99.2847ZM113.367 141.162C109.858 141.162 107.77 137.477 107.77 131.53C107.77 123.49 111.613 116.287 115.874 116.287C119.3 116.287 121.639 119.805 121.639 125.081C121.639 134.043 117.963 141.162 113.367 141.162Z"/>
<path d="M178.154 99.2847C162.28 99.2847 150.583 112.518 150.583 130.525C150.583 146.606 161.194 157.913 176.316 157.913C192.358 157.913 204.556 144.345 204.556 126.589C204.556 110.927 193.277 99.2847 178.154 99.2847ZM176.233 141.162C172.724 141.162 170.635 137.477 170.635 131.53C170.635 123.49 174.478 116.287 178.739 116.287C182.165 116.287 184.504 119.805 184.504 125.081C184.504 134.043 180.828 141.162 176.233 141.162Z"/>
<path d="M239.015 100.625L232.164 156.489H269.427L271.265 141.497H254.221L254.973 135.132H270.012L271.683 121.312H256.644L257.396 115.198H273.856L275.61 100.625H239.015Z"/>
<path d="M318.206 100.625L314.363 132.284C313.528 138.398 311.69 140.827 307.846 140.827C304.671 140.827 302.833 138.985 302.833 135.634C302.833 134.964 303 133.541 303.251 131.53L307.011 100.625H286.541L282.53 132.787C282.363 134.294 282.28 135.718 282.28 137.226C282.28 143.926 284.118 148.281 288.546 151.883C293.392 155.819 300.16 157.913 308.264 157.913C316.201 157.913 322.217 155.819 327.146 151.38C332.076 146.858 333.413 143.424 334.917 131.53L338.676 100.625H318.206Z"/>
<path d="M392.133 131.363C395.642 128.515 397.731 123.909 397.731 119.051C397.731 113.774 395.308 108.581 391.214 105.148C387.036 101.797 382.775 100.625 373.668 100.625H351.527L344.676 156.489H364.896L365.982 147.109C366.232 145.015 366.399 142.251 366.399 139.738C366.399 138.231 366.399 137.477 366.316 135.634L366.901 135.551C367.319 137.645 368.238 140.66 369.073 143.005L374.086 156.489H395.976L383.861 134.629C388.039 134.043 389.626 133.373 392.133 131.363ZM371.496 115.617C375.924 115.617 377.929 117.041 377.929 120.14C377.929 123.49 375.005 125.668 370.326 125.668H368.655L369.909 115.617H371.496Z"/>
</mask>
<path d="M47.6269 100.625L45.4546 118.548L54.5616 117.878L49.8828 156.489H70.4362L77.2873 100.625H47.6269Z" fill="#0A0B0D"/>
<path d="M115.289 99.2847C99.4145 99.2847 87.7174 112.518 87.7174 130.525C87.7174 146.606 98.3283 157.913 113.451 157.913C129.493 157.913 141.691 144.345 141.691 126.589C141.691 110.927 130.412 99.2847 115.289 99.2847ZM113.367 141.162C109.858 141.162 107.77 137.477 107.77 131.53C107.77 123.49 111.613 116.287 115.874 116.287C119.3 116.287 121.639 119.805 121.639 125.081C121.639 134.043 117.963 141.162 113.367 141.162Z" fill="#0A0B0D"/>
<path d="M178.154 99.2847C162.28 99.2847 150.583 112.518 150.583 130.525C150.583 146.606 161.194 157.913 176.316 157.913C192.358 157.913 204.556 144.345 204.556 126.589C204.556 110.927 193.277 99.2847 178.154 99.2847ZM176.233 141.162C172.724 141.162 170.635 137.477 170.635 131.53C170.635 123.49 174.478 116.287 178.739 116.287C182.165 116.287 184.504 119.805 184.504 125.081C184.504 134.043 180.828 141.162 176.233 141.162Z" fill="#0A0B0D"/>
<path d="M239.015 100.625L232.164 156.489H269.427L271.265 141.497H254.221L254.973 135.132H270.012L271.683 121.312H256.644L257.396 115.198H273.856L275.61 100.625H239.015Z" fill="#0A0B0D"/>
<path d="M318.206 100.625L314.363 132.284C313.528 138.398 311.69 140.827 307.846 140.827C304.671 140.827 302.833 138.985 302.833 135.634C302.833 134.964 303 133.541 303.251 131.53L307.011 100.625H286.541L282.53 132.787C282.363 134.294 282.28 135.718 282.28 137.226C282.28 143.926 284.118 148.281 288.546 151.883C293.392 155.819 300.16 157.913 308.264 157.913C316.201 157.913 322.217 155.819 327.146 151.38C332.076 146.858 333.413 143.424 334.917 131.53L338.676 100.625H318.206Z" fill="#0A0B0D"/>
<path d="M392.133 131.363C395.642 128.515 397.731 123.909 397.731 119.051C397.731 113.774 395.308 108.581 391.214 105.148C387.036 101.797 382.775 100.625 373.668 100.625H351.527L344.676 156.489H364.896L365.982 147.109C366.232 145.015 366.399 142.251 366.399 139.738C366.399 138.231 366.399 137.477 366.316 135.634L366.901 135.551C367.319 137.645 368.238 140.66 369.073 143.005L374.086 156.489H395.976L383.861 134.629C388.039 134.043 389.626 133.373 392.133 131.363ZM371.496 115.617C375.924 115.617 377.929 117.041 377.929 120.14C377.929 123.49 375.005 125.668 370.326 125.668H368.655L369.909 115.617H371.496Z" fill="#0A0B0D"/>
<path d="M47.6269 100.625V98.6247H45.8547L45.6414 100.384L47.6269 100.625ZM45.4546 118.548L43.4691 118.308L43.1766 120.721L45.6013 120.543L45.4546 118.548ZM54.5616 117.878L56.5471 118.119L56.8395 115.705L54.4148 115.884L54.5616 117.878ZM49.8828 156.489L47.8973 156.249L47.6258 158.489H49.8828V156.489ZM70.4362 156.489V158.489H72.2059L72.4213 156.733L70.4362 156.489ZM77.2873 100.625L79.2725 100.868L79.5476 98.6247H77.2873V100.625ZM239.015 100.625V98.6247H237.245L237.03 100.381L239.015 100.625ZM232.164 156.489L230.179 156.246L229.904 158.489H232.164V156.489ZM269.427 156.489V158.489H271.197L271.412 156.733L269.427 156.489ZM271.265 141.497L273.251 141.741L273.526 139.497H271.265V141.497ZM254.221 141.497L252.235 141.263L251.971 143.497H254.221V141.497ZM254.973 135.132V133.132H253.195L252.987 134.897L254.973 135.132ZM270.012 135.132V137.132H271.785L271.998 135.372L270.012 135.132ZM271.683 121.312L273.669 121.552L273.94 119.312H271.683V121.312ZM256.644 121.312L254.659 121.068L254.383 123.312H256.644V121.312ZM257.396 115.198V113.198H255.627L255.411 114.954L257.396 115.198ZM273.856 115.198V117.198H275.629L275.841 115.437L273.856 115.198ZM275.61 100.625L277.596 100.864L277.865 98.6247H275.61V100.625ZM318.206 100.625V98.6247H316.435L316.221 100.384L318.206 100.625ZM314.363 132.284L316.345 132.555L316.347 132.54L316.349 132.525L314.363 132.284ZM303.251 131.53L305.236 131.778L305.236 131.772L303.251 131.53ZM307.011 100.625L308.996 100.866L309.269 98.6247H307.011V100.625ZM286.541 100.625V98.6247H284.775L284.556 100.377L286.541 100.625ZM282.53 132.787L280.546 132.539L280.544 132.553L280.543 132.566L282.53 132.787ZM288.546 151.883L287.284 153.434L287.285 153.435L288.546 151.883ZM327.146 151.38L328.485 152.867L328.492 152.86L328.499 152.854L327.146 151.38ZM334.917 131.53L336.901 131.781L336.902 131.772L334.917 131.53ZM338.676 100.625L340.662 100.866L340.934 98.6247H338.676V100.625ZM392.133 131.363L393.384 132.923L393.393 132.916L392.133 131.363ZM391.214 105.148L392.499 103.615L392.482 103.601L392.465 103.587L391.214 105.148ZM351.527 100.625V98.6247H349.758L349.542 100.381L351.527 100.625ZM344.676 156.489L342.691 156.246L342.416 158.489H344.676V156.489ZM364.896 156.489V158.489H366.677L366.882 156.719L364.896 156.489ZM365.982 147.109L363.996 146.871L363.995 146.879L365.982 147.109ZM366.316 135.634L366.032 133.655L364.236 133.912L364.318 135.725L366.316 135.634ZM366.901 135.551L368.862 135.159L368.492 133.302L366.617 133.571L366.901 135.551ZM369.073 143.005L367.189 143.676L367.194 143.689L367.198 143.702L369.073 143.005ZM374.086 156.489L372.211 157.186L372.696 158.489H374.086V156.489ZM395.976 156.489V158.489H399.371L397.726 155.52L395.976 156.489ZM383.861 134.629L383.584 132.649L380.701 133.053L382.112 135.599L383.861 134.629ZM368.655 125.668L366.671 125.42L366.39 127.668H368.655V125.668ZM369.909 115.617V113.617H368.142L367.924 115.369L369.909 115.617ZM45.6414 100.384L43.4691 118.308L47.4401 118.789L49.6124 100.865L45.6414 100.384ZM45.6013 120.543L54.7083 119.873L54.4148 115.884L45.3078 116.554L45.6013 120.543ZM52.5761 117.638L47.8973 156.249L51.8682 156.73L56.5471 118.119L52.5761 117.638ZM49.8828 158.489H70.4362V154.489H49.8828V158.489ZM72.4213 156.733L79.2725 100.868L75.3022 100.381L68.4511 156.246L72.4213 156.733ZM77.2873 98.6247H47.6269V102.625H77.2873V98.6247ZM115.289 97.2847C98.0832 97.2847 85.7174 111.655 85.7174 130.525H89.7174C89.7174 113.381 100.746 101.285 115.289 101.285V97.2847ZM85.7174 130.525C85.7174 139.009 88.5219 146.366 93.4554 151.619C98.3974 156.881 105.369 159.913 113.451 159.913V155.913C106.411 155.913 100.515 153.293 96.371 148.88C92.2184 144.459 89.7174 138.122 89.7174 130.525H85.7174ZM113.451 159.913C130.789 159.913 143.691 145.248 143.691 126.589H139.691C139.691 143.442 128.197 155.913 113.451 155.913V159.913ZM143.691 126.589C143.691 109.885 131.578 97.2847 115.289 97.2847V101.285C129.245 101.285 139.691 111.968 139.691 126.589H143.691ZM113.367 139.162C112.454 139.162 111.657 138.741 110.985 137.576C110.265 136.329 109.77 134.313 109.77 131.53H105.77C105.77 134.695 106.319 137.494 107.52 139.576C108.77 141.741 110.771 143.162 113.367 143.162V139.162ZM109.77 131.53C109.77 127.803 110.666 124.32 111.989 121.833C113.39 119.202 114.9 118.287 115.874 118.287V114.287C112.587 114.287 110.045 116.973 108.458 119.954C106.795 123.078 105.77 127.217 105.77 131.53H109.77ZM115.874 118.287C116.805 118.287 117.663 118.731 118.37 119.805C119.109 120.927 119.639 122.709 119.639 125.081H123.639C123.639 122.177 122.999 119.562 121.712 117.606C120.393 115.602 118.369 114.287 115.874 114.287V118.287ZM119.639 125.081C119.639 129.316 118.766 133.008 117.448 135.567C116.082 138.22 114.54 139.162 113.367 139.162V143.162C116.791 143.162 119.384 140.545 121.004 137.398C122.674 134.157 123.639 129.809 123.639 125.081H119.639ZM178.154 97.2847C160.948 97.2847 148.583 111.655 148.583 130.525H152.583C152.583 113.381 163.611 101.285 178.154 101.285V97.2847ZM148.583 130.525C148.583 139.009 151.387 146.366 156.321 151.619C161.263 156.881 168.234 159.913 176.316 159.913V155.913C169.276 155.913 163.38 153.293 159.236 148.88C155.084 144.459 152.583 138.122 152.583 130.525H148.583ZM176.316 159.913C193.654 159.913 206.556 145.248 206.556 126.589H202.556C202.556 143.442 191.062 155.913 176.316 155.913V159.913ZM206.556 126.589C206.556 109.885 194.443 97.2847 178.154 97.2847V101.285C192.111 101.285 202.556 111.968 202.556 126.589H206.556ZM176.233 139.162C175.32 139.162 174.522 138.741 173.85 137.576C173.13 136.329 172.635 134.313 172.635 131.53H168.635C168.635 134.695 169.184 137.494 170.386 139.576C171.635 141.741 173.637 143.162 176.233 143.162V139.162ZM172.635 131.53C172.635 127.803 173.531 124.32 174.855 121.833C176.255 119.202 177.765 118.287 178.739 118.287V114.287C175.452 114.287 172.91 116.973 171.324 119.954C169.66 123.078 168.635 127.217 168.635 131.53H172.635ZM178.739 118.287C179.67 118.287 180.528 118.731 181.236 119.805C181.974 120.927 182.504 122.709 182.504 125.081H186.504C186.504 122.177 185.864 119.562 184.577 117.606C183.258 115.602 181.234 114.287 178.739 114.287V118.287ZM182.504 125.081C182.504 129.316 181.631 133.008 180.314 135.567C178.947 138.22 177.405 139.162 176.233 139.162V143.162C179.656 143.162 182.249 140.545 183.87 137.398C185.539 134.157 186.504 129.809 186.504 125.081H182.504ZM237.03 100.381L230.179 156.246L234.149 156.733L241 100.868L237.03 100.381ZM232.164 158.489H269.427V154.489H232.164V158.489ZM271.412 156.733L273.251 141.741L269.28 141.254L267.442 156.246L271.412 156.733ZM271.265 139.497H254.221V143.497H271.265V139.497ZM256.207 141.732L256.959 135.366L252.987 134.897L252.235 141.263L256.207 141.732ZM254.973 137.132H270.012V133.132H254.973V137.132ZM271.998 135.372L273.669 121.552L269.698 121.072L268.027 134.892L271.998 135.372ZM271.683 119.312H256.644V123.312H271.683V119.312ZM258.629 121.556L259.381 115.442L255.411 114.954L254.659 121.068L258.629 121.556ZM257.396 117.198H273.856V113.198H257.396V117.198ZM275.841 115.437L277.596 100.864L273.624 100.386L271.87 114.959L275.841 115.437ZM275.61 98.6247H239.015V102.625H275.61V98.6247ZM316.221 100.384L312.378 132.043L316.349 132.525L320.192 100.866L316.221 100.384ZM312.382 132.013C311.975 134.987 311.361 136.692 310.641 137.637C310.046 138.418 309.271 138.827 307.846 138.827V142.827C310.265 142.827 312.33 142.021 313.824 140.06C315.193 138.262 315.916 135.695 316.345 132.555L312.382 132.013ZM307.846 138.827C306.644 138.827 305.966 138.486 305.582 138.092C305.191 137.69 304.833 136.954 304.833 135.634H300.833C300.833 137.665 301.395 139.525 302.716 140.882C304.045 142.247 305.874 142.827 307.846 142.827V138.827ZM304.833 135.634C304.833 135.122 304.976 133.861 305.236 131.778L301.266 131.283C301.025 133.22 300.833 134.806 300.833 135.634H304.833ZM305.236 131.772L308.996 100.866L305.025 100.383L301.266 131.289L305.236 131.772ZM307.011 98.6247H286.541V102.625H307.011V98.6247ZM284.556 100.377L280.546 132.539L284.515 133.034L288.525 100.872L284.556 100.377ZM280.543 132.566C280.368 134.142 280.28 135.64 280.28 137.226H284.28C284.28 135.796 284.359 134.446 284.518 133.007L280.543 132.566ZM280.28 137.226C280.28 140.753 280.763 143.803 281.913 146.501C283.071 149.217 284.855 151.459 287.284 153.434L289.808 150.331C287.809 148.705 286.46 146.969 285.592 144.932C284.716 142.876 284.28 140.399 284.28 137.226H280.28ZM287.285 153.435C292.577 157.734 299.831 159.913 308.264 159.913V155.913C300.488 155.913 294.207 153.905 289.807 150.331L287.285 153.435ZM308.264 159.913C316.597 159.913 323.121 157.697 328.485 152.867L325.808 149.894C321.313 153.942 315.805 155.913 308.264 155.913V159.913ZM328.499 152.854C331.114 150.454 332.898 148.223 334.179 144.948C335.417 141.782 336.149 137.726 336.901 131.781L332.932 131.279C332.18 137.228 331.492 140.836 330.453 143.491C329.458 146.037 328.108 147.784 325.794 149.907L328.499 152.854ZM336.902 131.772L340.662 100.866L336.691 100.383L332.931 131.289L336.902 131.772ZM338.676 98.6247H318.206V102.625H338.676V98.6247ZM393.393 132.916C397.411 129.655 399.731 124.457 399.731 119.051H395.731C395.731 123.36 393.873 127.375 390.873 129.81L393.393 132.916ZM399.731 119.051C399.731 113.179 397.043 107.426 392.499 103.615L389.929 106.68C393.573 109.736 395.731 114.37 395.731 119.051H399.731ZM392.465 103.587C387.772 99.8238 382.97 98.6247 373.668 98.6247V102.625C382.581 102.625 386.3 103.771 389.963 106.708L392.465 103.587ZM373.668 98.6247H351.527V102.625H373.668V98.6247ZM349.542 100.381L342.691 156.246L346.661 156.733L353.513 100.868L349.542 100.381ZM344.676 158.489H364.896V154.489H344.676V158.489ZM366.882 156.719L367.968 147.339L363.995 146.879L362.909 156.259L366.882 156.719ZM367.968 147.347C368.228 145.169 368.399 142.325 368.399 139.738H364.399C364.399 142.177 364.236 144.861 363.996 146.871L367.968 147.347ZM368.399 139.738C368.399 138.217 368.399 137.429 368.314 135.544L364.318 135.725C364.4 137.525 364.399 138.245 364.399 139.738H368.399ZM366.599 137.614L367.184 137.53L366.617 133.571L366.032 133.655L366.599 137.614ZM364.939 135.942C365.384 138.171 366.339 141.289 367.189 143.676L370.957 142.334C370.136 140.03 369.253 137.118 368.862 135.159L364.939 135.942ZM367.198 143.702L372.211 157.186L375.961 155.792L370.948 142.308L367.198 143.702ZM374.086 158.489H395.976V154.489H374.086V158.489ZM397.726 155.52L385.611 133.66L382.112 135.599L394.227 157.459L397.726 155.52ZM384.139 136.61C386.278 136.31 387.908 135.969 389.366 135.387C390.852 134.794 392.05 133.993 393.384 132.923L390.882 129.803C389.71 130.742 388.861 131.282 387.882 131.673C386.875 132.075 385.622 132.363 383.584 132.649L384.139 136.61ZM371.496 117.617C373.571 117.617 374.674 117.965 375.221 118.351C375.618 118.631 375.929 119.07 375.929 120.14H379.929C379.929 118.111 379.238 116.288 377.525 115.081C375.963 113.981 373.849 113.617 371.496 113.617V117.617ZM375.929 120.14C375.929 121.161 375.516 121.95 374.701 122.546C373.827 123.186 372.384 123.668 370.326 123.668V127.668C372.948 127.668 375.306 127.061 377.064 125.774C378.881 124.444 379.929 122.469 379.929 120.14H375.929ZM370.326 123.668H368.655V127.668H370.326V123.668ZM370.64 125.915L371.893 115.864L367.924 115.369L366.671 125.42L370.64 125.915ZM369.909 117.617H371.496V113.617H369.909V117.617Z" fill="#6AC687" mask="url(#path-5-inside-3_224_7761)"/>
<path d="M23.1659 6.74848H6.6832L3.03027 36.2747H19.513L20.1367 31.3168H9.44517L10.4252 23.2601H20.6712L21.2949 18.3022H11.0489L11.8508 11.7064H22.5423L23.1659 6.74848Z" fill="white"/>
<path d="M30.9214 36.2747L33.3716 16.4873L48.9188 36.2747H53.0172L56.6701 6.74848H50.8789L48.4288 26.4474L32.8815 6.74848H28.7831L25.1302 36.2747H30.9214Z" fill="white"/>
<path d="M68.2669 6.74848L65.9058 25.7834C65.6385 27.7754 65.4603 29.7231 64.4357 30.7413C63.8121 31.361 63.0548 31.5824 62.2974 31.5824C61.5401 31.5824 60.3373 31.4053 59.5355 29.9888L55.5262 34.1941C56.2835 34.9467 57.2635 35.6549 58.0654 36.0534C59.6691 36.8502 61.5401 36.9387 62.4756 36.9387C64.3021 36.9387 66.574 36.6731 68.5341 34.8581C70.7615 32.8218 71.1625 29.9887 71.608 26.5359L74.0581 6.74848H68.2669Z" fill="white"/>
<path d="M95.3363 6.08447C90.4361 6.08447 85.8031 7.81089 82.6847 10.7325C79.6109 13.6099 77.5617 18.1694 77.5617 23.0388C77.5617 26.7572 79.0318 30.3429 81.4819 32.8218C83.2193 34.5925 86.5604 36.9387 92.3962 36.9387C98.4101 36.9387 102.419 34.5483 104.78 32.1136C107.765 29.0591 109.547 24.4111 109.547 19.7188C109.547 15.3363 107.854 12.0163 105.627 9.89145C103.266 7.63383 99.5684 6.08447 95.3363 6.08447ZM92.708 31.7152C89.946 31.7152 87.5404 30.697 85.9367 29.0149C84.7785 27.8197 83.5757 25.7391 83.5757 22.5961C83.5757 19.4089 84.7339 16.3102 87.0059 14.1854C88.6987 12.5917 91.1934 11.3523 94.4008 11.3523C97.6528 11.3523 99.8802 12.5917 101.172 13.9198C102.553 15.3363 103.533 17.5054 103.533 20.1614C103.533 23.4815 102.152 26.713 100.014 28.7935C98.2319 30.52 95.6927 31.7152 92.708 31.7152Z" fill="white"/>
<path d="M117.081 36.2747H122.872L124.52 22.7732L136.994 6.74848H129.866L122.204 17.0185L117.125 6.74848H110.532L118.729 22.7732L117.081 36.2747Z" fill="white"/>
<path d="M166.094 11.7064L166.718 6.74848H147.562L146.939 11.7064H153.621L150.592 36.2747H156.383L159.412 11.7064H166.094Z" fill="white"/>
<path d="M176.179 6.74848H170.388L166.735 36.2747H172.526L174.13 23.1273H186.693L185.089 36.2747H190.88L194.533 6.74848H188.742L187.316 18.1694H174.754L176.179 6.74848Z" fill="white"/>
<path d="M217.802 6.74848H201.319L197.666 36.2747H214.149L214.773 31.3168H204.081L205.061 23.2601H215.307L215.931 18.3022H205.685L206.487 11.7064H217.178L217.802 6.74848Z" fill="white"/>
<path d="M249.23 11.7064L249.854 6.74848H230.698L230.075 11.7064H236.757L233.728 36.2747H239.519L242.548 11.7064H249.23Z" fill="white"/>
<path d="M267.089 6.08447C262.189 6.08447 257.556 7.81089 254.438 10.7325C251.364 13.6099 249.315 18.1694 249.315 23.0388C249.315 26.7572 250.785 30.3429 253.235 32.8218C254.972 34.5925 258.313 36.9387 264.149 36.9387C270.163 36.9387 274.173 34.5483 276.534 32.1136C279.518 29.0591 281.3 24.4111 281.3 19.7188C281.3 15.3363 279.607 12.0163 277.38 9.89145C275.019 7.63383 271.321 6.08447 267.089 6.08447ZM264.461 31.7152C261.699 31.7152 259.294 30.697 257.69 29.0149C256.532 27.8197 255.329 25.7391 255.329 22.5961C255.329 19.4089 256.487 16.3102 258.759 14.1854C260.452 12.5917 262.946 11.3523 266.154 11.3523C269.406 11.3523 271.633 12.5917 272.925 13.9198C274.306 15.3363 275.286 17.5054 275.286 20.1614C275.286 23.4815 273.905 26.713 271.767 28.7935C269.985 30.52 267.446 31.7152 264.461 31.7152Z" fill="white"/>
<path d="M288.457 6.74848L284.805 36.2747H290.596L291.932 25.3407H295.897C298.347 25.3407 301.688 24.9866 304.049 22.7732C305.742 21.1796 306.856 18.6121 306.856 15.4248C306.856 12.2819 305.742 10.3341 304.45 9.13891C302 6.88128 298.08 6.74848 296.476 6.74848H288.457ZM293.625 11.7064H295.674C296.788 11.7064 298.347 11.9277 299.283 12.5032C300.708 13.3886 300.886 14.7608 300.886 15.6462C300.886 16.7086 300.664 18.0809 299.461 19.1433C298.124 20.2942 296.387 20.3828 295.006 20.3828H292.556L293.625 11.7064Z" fill="white"/>
<path d="M339.98 9.53731C337.173 6.39434 333.876 6.08447 331.961 6.08447C329.333 6.08447 326.303 6.52714 323.898 8.91757C322.027 10.7768 321.359 12.9902 321.359 15.292C321.359 16.8414 321.626 18.6564 323.185 20.1614C323.853 20.8254 324.922 21.5337 326.793 22.3305L328.486 23.0388C329.644 23.5257 330.535 23.7028 331.515 24.4996C332.495 25.2964 332.852 26.1375 332.852 27.1999C332.852 28.6165 332.362 29.5903 331.738 30.2544C330.58 31.5381 329.021 31.7152 327.863 31.7152C326.526 31.7152 325.279 31.4496 324.12 30.4757C323.319 29.8117 322.472 28.6165 322.027 27.7754L317.795 31.361C318.73 32.7776 320.067 34.2827 321.581 35.2565C323.497 36.496 325.412 36.9387 327.684 36.9387C330.134 36.9387 333.342 36.496 335.792 34.1499C337.708 32.3349 338.955 29.3247 338.955 26.0932C338.955 24.1455 338.465 22.7732 337.128 21.3567C335.97 20.1172 334.589 19.3646 333.431 18.8777L331.426 18.0366C329.956 17.4169 329.199 17.107 328.62 16.7086C327.773 16.1331 327.372 15.4248 327.372 14.451C327.372 13.4328 327.818 12.5917 328.531 11.972C329.11 11.4408 330.09 10.9539 331.694 10.9539C334.144 10.9539 335.658 12.2819 336.46 13.4771L339.98 9.53731Z" fill="white"/>
<path d="M346.492 6.74848L342.839 36.2747H348.63L349.966 25.3407H353.931C356.381 25.3407 359.722 24.9866 362.083 22.7732C363.776 21.1796 364.89 18.6121 364.89 15.4248C364.89 12.2819 363.776 10.3341 362.484 9.13891C360.034 6.88128 356.114 6.74848 354.51 6.74848H346.492ZM351.659 11.7064H353.708C354.822 11.7064 356.381 11.9277 357.317 12.5032C358.742 13.3886 358.92 14.7608 358.92 15.6462C358.92 16.7086 358.698 18.0809 357.495 19.1433C356.158 20.2942 354.421 20.3828 353.04 20.3828H350.59L351.659 11.7064Z" fill="white"/>
<path d="M384.854 6.08447C379.954 6.08447 375.321 7.81089 372.203 10.7325C369.129 13.6099 367.08 18.1694 367.08 23.0388C367.08 26.7572 368.55 30.3429 371 32.8218C372.737 34.5925 376.078 36.9387 381.914 36.9387C387.928 36.9387 391.937 34.5483 394.298 32.1136C397.283 29.0591 399.065 24.4111 399.065 19.7188C399.065 15.3363 397.372 12.0163 395.145 9.89145C392.784 7.63383 389.086 6.08447 384.854 6.08447ZM382.226 31.7152C379.464 31.7152 377.058 30.697 375.455 29.0149C374.296 27.8197 373.094 25.7391 373.094 22.5961C373.094 19.4089 374.252 16.3102 376.524 14.1854C378.217 12.5917 380.711 11.3523 383.919 11.3523C387.171 11.3523 389.398 12.5917 390.69 13.9198C392.071 15.3363 393.051 17.5054 393.051 20.1614C393.051 23.4815 391.67 26.713 389.532 28.7935C387.75 30.52 385.211 31.7152 382.226 31.7152Z" fill="white"/>
<path d="M406.222 6.74848L402.569 36.2747H408.361L409.831 24.4111H410.543L417.003 36.2747H423.952L416.379 23.9241C418.339 23.6143 420.522 22.6404 421.859 21.3567C423.284 19.9844 424.309 17.771 424.309 14.9822C424.309 12.1491 423.24 10.3784 422.215 9.31598C420.032 7.05835 417.092 6.74848 414.82 6.74848H406.222ZM411.434 11.4408H413.261C415.176 11.4408 416.379 11.9277 417.092 12.5475C418.117 13.4328 418.295 14.5838 418.295 15.4248C418.295 17.1955 417.537 18.2579 417.003 18.7892C415.889 19.8958 413.929 20.3385 412.37 20.3385H410.321L411.434 11.4408Z" fill="white"/>
<path d="M446.346 11.7064L446.97 6.74848H427.814L427.19 11.7064H433.873L430.843 36.2747H436.635L439.664 11.7064H446.346Z" fill="white"/>
<path d="M46.7668 47.3872H30.284L26.6311 76.9134H43.1138L43.7375 71.9555H33.046L34.026 63.8989H44.2721L44.8957 58.9409H34.6497L35.4516 52.3451H46.1431L46.7668 47.3872Z" fill="white"/>
<path d="M49.0874 47.3872L57.997 76.9134H61.2935L77.5981 47.3872H71.1832L60.8035 67.2189L55.3241 47.3872H49.0874Z" fill="white"/>
<path d="M97.5357 47.3872H81.053L77.4001 76.9134H93.8828L94.5065 71.9555H83.815L84.795 63.8989H95.041L95.6647 58.9409H85.4187L86.2205 52.3451H96.912L97.5357 47.3872Z" fill="white"/>
<path d="M105.291 76.9134L107.741 57.126L123.289 76.9134H127.387L131.04 47.3872H125.249L122.799 67.0861L107.251 47.3872H103.153L99.5 76.9134H105.291Z" fill="white"/>
<path d="M153.239 52.3451L153.863 47.3872H134.707L134.083 52.3451H140.766L137.736 76.9134H143.528L146.557 52.3451H153.239Z" fill="white"/>
<path d="M173.556 50.176C170.749 47.0331 167.453 46.7232 165.537 46.7232C162.909 46.7232 159.879 47.1659 157.474 49.5563C155.603 51.4155 154.935 53.6289 154.935 55.9308C154.935 57.4801 155.202 59.2951 156.761 60.8002C157.429 61.4642 158.498 62.1724 160.369 62.9692L162.062 63.6775C163.221 64.1645 164.112 64.3415 165.092 65.1383C166.072 65.9351 166.428 66.7762 166.428 67.8386C166.428 69.2552 165.938 70.2291 165.314 70.8931C164.156 72.1768 162.597 72.3539 161.439 72.3539C160.102 72.3539 158.855 72.0883 157.697 71.1144C156.895 70.4504 156.048 69.2552 155.603 68.4141L151.371 71.9998C152.306 73.4163 153.643 74.9214 155.157 75.8953C157.073 77.1347 158.989 77.5774 161.26 77.5774C163.711 77.5774 166.918 77.1347 169.368 74.7886C171.284 72.9736 172.531 69.9635 172.531 66.732C172.531 64.7842 172.041 63.4119 170.705 61.9954C169.546 60.7559 168.165 60.0033 167.007 59.5164L165.002 58.6753C163.532 58.0556 162.775 57.7457 162.196 57.3473C161.35 56.7718 160.949 56.0636 160.949 55.0897C160.949 54.0715 161.394 53.2305 162.107 52.6107C162.686 52.0795 163.666 51.5926 165.27 51.5926C167.72 51.5926 169.235 52.9206 170.036 54.1158L173.556 50.176Z" fill="white"/>
<path d="M207.349 58.1884L211.536 76.9134H215.635L230.558 47.3872H224.322L214.699 67.4845L210.378 47.3872H207.171L197.37 67.4845L193.227 47.3872H187.169L193.94 76.9134H198.038L207.349 58.1884Z" fill="white"/>
<path d="M234.012 47.3872L230.359 76.9134H236.151L239.804 47.3872H234.012Z" fill="white"/>
<path d="M261.999 52.3451L262.622 47.3872H243.467L242.843 52.3451H249.525L246.496 76.9134H252.287L255.316 52.3451H261.999Z" fill="white"/>
<path d="M272.083 47.3872H266.292L262.639 76.9134H268.431L270.034 63.7661H282.597L280.993 76.9134H286.784L290.437 47.3872H284.646L283.22 58.8081H270.658L272.083 47.3872Z" fill="white"/>
<path d="M307.532 47.3872L305.661 62.7922C305.527 63.7661 305.26 66.5992 305.26 67.7944C305.26 70.1848 305.75 72.6195 307.71 74.6115C310.205 77.1347 313.768 77.5774 316.53 77.5774C319.07 77.5774 322.945 77.3118 325.752 74.4787C328.38 71.8227 328.826 68.1485 329.271 64.6957L331.409 47.3872H325.618L323.524 64.0759C323.168 66.9533 322.901 69.5208 320.763 71.1144C319.738 71.867 318.268 72.3539 316.575 72.3539C315.149 72.3539 313.546 71.9112 312.521 70.9816C311.675 70.1848 311.007 68.724 311.007 66.9976C311.007 66.4221 311.229 64.6071 311.318 63.7218L313.323 47.3872H307.532Z" fill="white"/>
<path d="M338.161 47.3872L334.508 76.9134H340.299L341.635 65.9794H345.6C348.05 65.9794 351.391 65.6253 353.752 63.4119C355.445 61.8183 356.559 59.2508 356.559 56.0636C356.559 52.9206 355.445 50.9728 354.153 49.7776C351.703 47.52 347.783 47.3872 346.179 47.3872H338.161ZM343.328 52.3451H345.377C346.491 52.3451 348.05 52.5665 348.986 53.1419C350.411 54.0273 350.589 55.3996 350.589 56.2849C350.589 57.3473 350.367 58.7196 349.164 59.782C347.827 60.933 346.09 61.0215 344.709 61.0215H342.259L343.328 52.3451Z" fill="white"/>
<path d="M387.812 52.3451L388.435 47.3872H369.28L368.656 52.3451H375.338L372.309 76.9134H378.1L381.129 52.3451H387.812Z" fill="white"/>
<path d="M405.671 46.7232C400.771 46.7232 396.138 48.4496 393.019 51.3712C389.945 54.2486 387.896 58.8081 387.896 63.6775C387.896 67.396 389.366 70.9816 391.816 73.4606C393.554 75.2313 396.895 77.5774 402.731 77.5774C408.745 77.5774 412.754 75.187 415.115 72.7523C418.1 69.6979 419.882 65.0498 419.882 60.3575C419.882 55.975 418.189 52.655 415.961 50.5302C413.6 48.2725 409.903 46.7232 405.671 46.7232ZM403.043 72.3539C400.281 72.3539 397.875 71.3357 396.271 69.6536C395.113 68.4584 393.91 66.3778 393.91 63.2348C393.91 60.0476 395.068 56.9489 397.34 54.8241C399.033 53.2305 401.528 51.991 404.735 51.991C407.987 51.991 410.215 53.2305 411.507 54.5585C412.888 55.975 413.868 58.1441 413.868 60.8002C413.868 64.1202 412.487 67.3517 410.348 69.4323C408.566 71.1587 406.027 72.3539 403.043 72.3539Z" fill="white"/>
</svg>
