<?xml version="1.0" encoding="utf-8"?>
<!-- Generator: Adobe Illustrator 26.0.1, SVG Export Plug-In . SVG Version: 6.00 Build 0)  -->
<svg version="1.1" id="Layer_1" xmlns="http://www.w3.org/2000/svg" xmlns:xlink="http://www.w3.org/1999/xlink" x="0px" y="0px"
	 width="56px" height="40px" viewBox="0 0 56 40" style="enable-background:new 0 0 56 40;" xml:space="preserve">
<style type="text/css">
	.st0{fill:#0A0B0D;}
	.st1{fill:#6AC687;}
</style>
<g>
	<path class="st0" d="M4,26.6c0,0.3,0,0.6,0.2,0.8c0.2,0.2,0.5,0.3,0.8,0.3h24.9L29,34.1c-0.1,0.4,0.1,0.8,0.5,1
		c0.3,0.2,0.8,0.2,1.1,0l21-14c0.3-0.2,0.4-0.5,0.4-0.8c0-0.3-0.1-0.6-0.3-0.8L34.6,5c-0.3-0.2-0.7-0.3-1-0.2
		C33.3,5,33.1,5.3,33,5.6l-0.9,7.1H7c-0.5,0-0.9,0.4-1,0.8l-1,6.5L4,26.6z"/>
	<path class="st1" d="M30,36.2c-0.4,0-0.7-0.1-1.1-0.3c-0.7-0.4-1-1.2-0.9-2l0.7-5.2H5c-0.6,0-1.1-0.3-1.5-0.7
		c-0.4-0.4-0.5-1-0.5-1.6l0,0l2-13c0.2-1,1-1.7,2-1.7h24.2L32,5.5c0.1-0.7,0.6-1.4,1.3-1.6c0.7-0.3,1.5-0.1,2,0.3l17,14.5
		c0.5,0.4,0.7,1,0.7,1.6c0,0.6-0.4,1.2-0.9,1.5l-21,14C30.8,36.1,30.4,36.2,30,36.2z M5,26.8h24.9c0.3,0,0.6,0.1,0.8,0.3
		c0.2,0.2,0.3,0.5,0.2,0.8L30,34.2l21-14L34,5.8l-0.9,7.1c-0.1,0.5-0.5,0.9-1,0.9H7L5,26.8l-1-0.2L5,26.8C5,26.8,5,26.8,5,26.8z"/>
</g>
</svg>
