<?xml version="1.0" encoding="UTF-8"?>
<!DOCTYPE svg PUBLIC "-//W3C//DTD SVG 1.1//EN" "http://www.w3.org/Graphics/SVG/1.1/DTD/svg11.dtd">
<!-- Creator: CorelDRAW 2021.5 -->
<svg xmlns="http://www.w3.org/2000/svg" xml:space="preserve" width="0.633335in" height="0.186665in" version="1.1" style="shape-rendering:geometricPrecision; text-rendering:geometricPrecision; image-rendering:optimizeQuality; fill-rule:evenodd; clip-rule:evenodd"
viewBox="0 0 66.04 19.47"
 xmlns:xlink="http://www.w3.org/1999/xlink"
 xmlns:xodm="http://www.corel.com/coreldraw/odm/2003">
 <defs>
  <style type="text/css">
   <![CDATA[
    .fil0 {fill:#1A1A1A}
    .fil3 {fill:#65BB6A;fill-rule:nonzero}
    .fil1 {fill:#869096;fill-rule:nonzero}
    .fil2 {fill:white;fill-rule:nonzero}
   ]]>
  </style>
 </defs>
 <g id="Layer_x0020_1">
  <metadata id="CorelCorpID_0Corel-Layer"/>
  <path class="fil0" d="M2.43 0l61.18 0c1.34,0 2.43,1.09 2.43,2.43l0 14.6c0,1.34 -1.09,2.43 -2.43,2.43l-61.18 0c-1.34,0 -2.43,-1.09 -2.43,-2.43l0 -14.6c0,-1.34 1.09,-2.43 2.43,-2.43z"/>
  <polygon id="Path_30" class="fil1" points="18.79,11.98 19.19,11.98 19.32,13.43 20.02,11.98 20.35,11.98 20.62,13.39 21.13,11.98 21.54,11.98 20.73,14.23 20.38,14.23 20.08,12.75 19.38,14.23 19,14.23 "/>
  <path id="Path_31" class="fil1" d="M22.57 14.23c0,0 -0,0 -0,0 -0.21,0 -0.4,-0.08 -0.56,-0.21 -0.14,-0.14 -0.22,-0.34 -0.22,-0.54 0,-0.01 0,-0.02 0,-0.03 0,-0.01 0,-0.01 0,-0.02 0,-0.25 0.1,-0.49 0.28,-0.67 0.17,-0.18 0.41,-0.28 0.65,-0.28l0.03 0c0.14,0 0.28,0.04 0.41,0.1 0.13,0.07 0.23,0.17 0.3,0.3 0.06,0.12 0.09,0.25 0.09,0.39 0,0.01 0,0.02 -0,0.04 0,0.03 0,0.06 0,0.08 0,0.03 -0,0.06 -0,0.08l-1.35 0c0,0 0,0 0,0 0,0.1 0.04,0.2 0.11,0.27 0.08,0.07 0.18,0.1 0.28,0.1 0,0 0,0 0,0l0.02 0 0.01 0c0,0 0,0 0,0 0.15,0 0.29,-0.05 0.4,-0.15l0.36 0.19c-0.09,0.11 -0.2,0.2 -0.33,0.25 -0.13,0.06 -0.28,0.09 -0.42,0.09l-0.02 0c-0.01,0 -0.02,0 -0.04,0zm0.13 -1.37l0 0c0,0 0,0 0,0 -0.09,0 -0.19,0.03 -0.27,0.08 -0.08,0.06 -0.15,0.14 -0.18,0.23l0.87 0c-0.02,-0.09 -0.08,-0.17 -0.15,-0.23 -0.07,-0.05 -0.16,-0.08 -0.25,-0.08 -0,0 -0,0 -0,0l-0.02 0 0 0z"/>
  <path id="Path_32" class="fil1" d="M25.55 14.23c-0,-0 -0.01,0 -0.01,0 -0.2,0 -0.4,-0.09 -0.53,-0.24 -0.14,-0.15 -0.21,-0.35 -0.21,-0.56 0,-0 0,-0 0,-0 0,-0.17 0.05,-0.33 0.14,-0.47 0.09,-0.15 0.21,-0.27 0.36,-0.35 0.15,-0.08 0.31,-0.12 0.48,-0.13l0.01 0c0,0 0,0 0.01,0 0.21,0 0.41,0.1 0.53,0.28l0.03 -0.24 0.44 0 -0.25 1.67 -0.44 0 0.03 -0.18c-0.08,0.07 -0.17,0.13 -0.27,0.17 -0.08,0.03 -0.17,0.05 -0.27,0.05 -0,0 -0,0 -0,0l-0.02 0 -0.03 0zm0.13 -0.37l0 0 0 0 0.02 0c0,0 0,0 0,0 0.09,0 0.19,-0.02 0.27,-0.07 0.09,-0.05 0.16,-0.12 0.21,-0.21 0.05,-0.09 0.08,-0.19 0.08,-0.3 0,-0.01 0,-0.01 0,-0.02 0,-0.11 -0.05,-0.22 -0.13,-0.3 -0.08,-0.08 -0.2,-0.12 -0.31,-0.12 -0,0 -0,0 -0,0l-0.02 0c-0,0 -0,0 -0,0 -0.14,0 -0.28,0.06 -0.39,0.16 -0.11,0.1 -0.17,0.25 -0.17,0.39 0,0.01 0,0.01 0,0.02 0,0.01 -0,0.01 -0,0.02 0,0.11 0.05,0.22 0.13,0.3 0.08,0.08 0.19,0.13 0.31,0.13 0,0 0,0 0,0l0 -0z"/>
  <path id="Path_33" class="fil1" d="M27.06 12.52l0.42 0 -0.03 0.23c0.1,-0.17 0.27,-0.27 0.47,-0.28 0,0 0,0 0,0 0.05,0 0.09,0.01 0.13,0.03l-0.17 0.38c-0.03,-0.01 -0.05,-0.01 -0.08,-0.02 -0.1,0 -0.19,0.06 -0.25,0.14 -0.1,0.17 -0.16,0.37 -0.17,0.57l-0.11 0.65 -0.47 0 0.26 -1.71z"/>
  <path id="Path_34" class="fil1" d="M28.57 14.23c0,0 0,0 0,0 -0.21,0 -0.4,-0.08 -0.56,-0.21 -0.14,-0.14 -0.22,-0.34 -0.22,-0.54 0,-0.01 0,-0.02 0,-0.03 0,-0.01 0,-0.01 0,-0.02 0,-0.25 0.1,-0.49 0.28,-0.67 0.17,-0.18 0.41,-0.28 0.65,-0.28l0.02 0c0.14,0 0.28,0.04 0.41,0.1 0.13,0.07 0.23,0.17 0.3,0.3 0.06,0.12 0.09,0.26 0.09,0.39 0,0.01 -0,0.02 -0,0.03 -0,0.06 -0.01,0.11 -0.02,0.17l-1.33 0c0,0 0,0 0,0 0,0.1 0.04,0.2 0.11,0.27 0.08,0.07 0.18,0.11 0.28,0.11l0.02 0 0.01 0c0.15,-0 0.29,-0.06 0.4,-0.15l0.36 0.19c-0.08,0.11 -0.2,0.19 -0.32,0.25 -0.13,0.06 -0.28,0.09 -0.43,0.09l-0.02 0c-0.01,0 -0.02,0 -0.04,0zm0.13 -1.37c0,0 0,0 0,0 -0.09,0 -0.19,0.03 -0.27,0.08 -0.08,0.06 -0.15,0.14 -0.18,0.23l0.87 0c-0.02,-0.09 -0.08,-0.18 -0.15,-0.23 -0.07,-0.05 -0.16,-0.08 -0.25,-0.08 -0,0 -0,0 -0,0l-0.02 0z"/>
  <path id="Path_35" class="fil1" d="M33.22 12.23l-0.38 0.24c-0.09,-0.11 -0.2,-0.19 -0.32,-0.26 -0.11,-0.05 -0.22,-0.07 -0.34,-0.07 -0,0 -0.01,0 -0.01,0 -0.01,0 -0.01,-0 -0.02,-0 -0.26,0 -0.51,0.12 -0.67,0.33 -0.13,0.16 -0.21,0.37 -0.21,0.58 0,0 0,0 0,0 0,0.01 0,0.01 0,0.02 0,0.19 0.08,0.38 0.22,0.51 0.14,0.14 0.32,0.21 0.52,0.21 0.01,0 0.01,0 0.02,-0 0.01,0 0.01,0 0.02,0 0.15,0 0.29,-0.04 0.42,-0.11 0.14,-0.08 0.25,-0.19 0.32,-0.33l-0.78 0 0.06 -0.42 1.24 0c0,0 0,0 0,0 0,0.35 -0.14,0.68 -0.38,0.93 -0.23,0.22 -0.54,0.35 -0.86,0.35 -0.01,0 -0.03,0 -0.04,-0 -0.02,0 -0.04,0 -0.06,0 -0.34,0 -0.66,-0.15 -0.88,-0.4 -0.18,-0.21 -0.28,-0.47 -0.28,-0.75 0,-0.01 0,-0.01 0,-0.02 0,-0 0,-0.01 0,-0.01 0,-0.35 0.15,-0.69 0.4,-0.93 0.25,-0.25 0.59,-0.39 0.94,-0.39 0.01,0 0.02,0 0.03,0 0,0 0,0 0,0 0.14,0 0.27,0.02 0.4,0.06 0.13,0.04 0.25,0.09 0.36,0.17 0.11,0.08 0.21,0.17 0.29,0.28l0 0z"/>
  <path id="Path_36" class="fil1" d="M34.31 14.23c-0,0 -0,0 -0,0 -0.21,0 -0.41,-0.09 -0.55,-0.25 -0.14,-0.15 -0.21,-0.35 -0.21,-0.56 0,-0 0,-0 0,-0.01 0,-0.17 0.05,-0.33 0.14,-0.47 0.09,-0.15 0.21,-0.27 0.36,-0.35 0.15,-0.08 0.31,-0.12 0.48,-0.13l0.02 0c0,0 0,0 0.01,0 0.21,0 0.41,0.1 0.53,0.28l0.01 -0.23 0.45 0 -0.25 1.66 -0.44 0 0.03 -0.18c-0.08,0.07 -0.17,0.13 -0.27,0.17 -0.08,0.03 -0.17,0.05 -0.26,0.05 -0,0 -0,0 -0,0l-0.03 0zm0.12 -0.37l0.02 0c0,0 0,0 0,0 0.09,0 0.19,-0.02 0.27,-0.07 0.09,-0.05 0.16,-0.12 0.21,-0.21 0.05,-0.09 0.08,-0.19 0.08,-0.29 0,-0.01 0,-0.01 0,-0.02 0,-0.11 -0.05,-0.22 -0.13,-0.3 -0.08,-0.08 -0.2,-0.12 -0.31,-0.12 -0,0 -0,0 -0,0l-0.02 0c-0,0 -0,0 -0,0 -0.15,0 -0.29,0.06 -0.4,0.16 -0.11,0.1 -0.17,0.25 -0.17,0.4 0,0.01 0,0.01 0,0.02 -0,0.01 -0,0.01 -0,0.02 0,0.11 0.05,0.22 0.13,0.3 0.08,0.08 0.19,0.12 0.31,0.12 0,0 0,0 0,0l0.01 0 0 0z"/>
  <path id="Path_37" class="fil1" d="M36.03 12.52l0.42 0 -0.03 0.18c0.13,-0.14 0.32,-0.23 0.52,-0.23 0,0 0,0 0.01,0 0.07,0 0.14,0.01 0.21,0.04 0.06,0.02 0.12,0.06 0.17,0.1 0.05,0.05 0.08,0.11 0.1,0.17 0.08,-0.1 0.17,-0.17 0.28,-0.23 0.1,-0.05 0.22,-0.08 0.34,-0.08 0,0 0.01,0 0.01,0 0.13,0 0.25,0.05 0.35,0.15 0.09,0.09 0.14,0.22 0.14,0.35 0,0.01 -0,0.01 -0,0.02 0,0 0,0 0,0 0,0.07 -0.01,0.14 -0.02,0.21l-0.14 1.02 -0.42 0 0.12 -0.87c0.01,-0.08 0.02,-0.16 0.02,-0.24 0,-0.01 0,-0.01 0,-0.02 0,-0.06 -0.02,-0.12 -0.06,-0.16 -0.04,-0.04 -0.1,-0.06 -0.16,-0.06 -0,0 -0.01,0 -0.01,0 -0.08,0 -0.15,0.03 -0.22,0.07 -0.07,0.05 -0.13,0.12 -0.17,0.2 -0.05,0.14 -0.09,0.28 -0.1,0.43l-0.09 0.64 -0.42 0 0.13 -0.92c0,-0.03 0,-0.06 0,-0.1 0,-0.03 -0,-0.06 -0,-0.1 0,-0 0,-0.01 0,-0.01 0,-0.06 -0.02,-0.12 -0.06,-0.16 -0.04,-0.04 -0.1,-0.07 -0.16,-0.07 -0,0 -0.01,0 -0.01,0 -0.07,0 -0.15,0.03 -0.21,0.07 -0.07,0.05 -0.13,0.11 -0.17,0.19 -0.05,0.12 -0.08,0.24 -0.09,0.37l-0.08 0.73 -0.42 0 0.23 -1.7z"/>
  <path id="Path_38" class="fil1" d="M39.8 14.23c0,-0 -0,-0 -0,-0 -0.11,0 -0.21,-0.03 -0.31,-0.07 -0.1,-0.05 -0.17,-0.12 -0.23,-0.22l-0.02 0.24 -0.44 0 0.34 -2.45 0.44 0 -0.12 0.88c0.08,-0.08 0.17,-0.14 0.27,-0.18 0.09,-0.04 0.18,-0.05 0.28,-0.05 0,0 0,0 0,0l0.03 0c0,-0 0,-0 0,-0 0.21,0 0.41,0.1 0.54,0.26 0.14,0.17 0.21,0.37 0.21,0.59 0,0 0,0.01 0,0.01 -0,0.17 -0.05,0.35 -0.13,0.5 -0.09,0.15 -0.21,0.28 -0.37,0.37 -0.14,0.09 -0.31,0.13 -0.48,0.13l-0.02 0zm0.07 -1.48c0,0 0,0 -0,0 -0.09,0 -0.19,0.03 -0.27,0.07 -0.09,0.05 -0.16,0.13 -0.2,0.22 -0.05,0.1 -0.08,0.2 -0.08,0.31 -0,0.01 -0,0.02 -0,0.02 0,0.12 0.04,0.23 0.12,0.31 0.08,0.08 0.19,0.12 0.31,0.12 0,0 0,0 0,0l0.02 0 0.01 0c0,0 0,0 0,0 0.15,0 0.29,-0.06 0.39,-0.17 0.11,-0.11 0.17,-0.26 0.17,-0.42 0,-0.01 0,-0.01 0,-0.02 0,-0.01 0,-0.01 0,-0.02 0,-0.12 -0.04,-0.23 -0.12,-0.32 -0.08,-0.08 -0.19,-0.13 -0.3,-0.13l-0.02 0.01 -0.02 -0z"/>
  <polygon id="Path_39" class="fil1" points="41.37,11.73 41.79,11.73 41.47,14.23 41.04,14.23 "/>
  <path id="Path_40" class="fil1" d="M42.2 14.23l-0.41 0 0.23 -1.77 0.4 0 -0.22 1.77 0 0zm0.09 -1.96c-0.07,-0 -0.13,-0.03 -0.17,-0.08 -0.05,-0.05 -0.08,-0.12 -0.08,-0.19 0,-0.07 0.03,-0.14 0.08,-0.19 0.04,-0.05 0.1,-0.08 0.17,-0.08l0.01 0c0.14,0.01 0.24,0.12 0.24,0.26 0,0 0,0.01 0,0.01 0,0 0,0.01 0,0.01 0,0.14 -0.11,0.25 -0.24,0.26l-0.01 0z"/>
  <path id="Path_41" class="fil1" d="M42.79 12.52l0.45 0 -0.03 0.17c0.15,-0.13 0.34,-0.21 0.54,-0.22 0.01,0 0.01,0 0.02,0 0.14,0 0.27,0.05 0.37,0.14 0.1,0.09 0.15,0.21 0.15,0.34 0,0 -0,0.01 -0,0.01 -0,0.1 -0.01,0.2 -0.03,0.3l-0.14 0.95 -0.45 0 0.14 -0.93c0.01,-0.07 0.02,-0.14 0.02,-0.21 0,-0 0,-0.01 0,-0.01 0,-0.06 -0.02,-0.11 -0.07,-0.15 -0.05,-0.04 -0.1,-0.06 -0.16,-0.06 -0.01,0 -0.01,0 -0.02,0 -0.08,0 -0.16,0.03 -0.23,0.07 -0.08,0.05 -0.14,0.12 -0.17,0.2 -0.06,0.16 -0.09,0.32 -0.11,0.48l-0.09 0.6 -0.45 0 0.24 -1.7z"/>
  <path id="Path_42" class="fil1" d="M45.39 14.98l-0.04 0 -0.02 0c-0.16,-0 -0.32,-0.04 -0.47,-0.11 -0.13,-0.06 -0.24,-0.16 -0.31,-0.28l0.38 -0.2c0.11,0.11 0.26,0.17 0.42,0.18l0.02 0 0.02 0c0,-0 0,-0 0,-0 0.09,0 0.18,-0.02 0.26,-0.06 0.07,-0.03 0.14,-0.09 0.18,-0.15 0.05,-0.09 0.08,-0.18 0.09,-0.28 -0.15,0.14 -0.34,0.21 -0.54,0.21l-0 0c-0.28,0 -0.54,-0.15 -0.67,-0.4 -0.07,-0.13 -0.1,-0.27 -0.1,-0.41 0,-0 0,-0.01 0,-0.01 0,-0.17 0.05,-0.34 0.13,-0.49 0.09,-0.15 0.21,-0.28 0.37,-0.36 0.14,-0.09 0.31,-0.13 0.48,-0.14l0.01 0c0.09,0 0.18,0.02 0.27,0.06 0.09,0.05 0.18,0.12 0.24,0.2l0.02 -0.21 0.43 0 -0.2 1.41c-0.02,0.19 -0.06,0.37 -0.12,0.55 -0.07,0.14 -0.18,0.27 -0.31,0.35 -0.16,0.09 -0.34,0.14 -0.53,0.14l0 0zm0.19 -2.09c-0.31,0 -0.56,0.25 -0.56,0.57 0,0 0,0.01 0,0.01 -0,0 -0,0.01 -0,0.01 0,0.11 0.05,0.22 0.13,0.3 0.08,0.08 0.19,0.12 0.31,0.12 0,0 0,0 0,0l0.02 0 0 0c0,0 0,0 0,0 0.1,0 0.2,-0.03 0.28,-0.07 0.09,-0.05 0.16,-0.12 0.21,-0.21 0.05,-0.08 0.08,-0.18 0.08,-0.28 0,-0 -0,-0 -0,-0.01 0,-0 0,-0.01 0,-0.01 0,-0.11 -0.05,-0.22 -0.13,-0.3 -0.08,-0.08 -0.19,-0.12 -0.31,-0.12 0,0 -0,0 -0,0l-0.03 0 -0 -0z"/>
  <path id="Path_43" class="fil1" d="M48.62 11.73l0.42 0 -0.21 1.72c-0.01,0.17 -0.05,0.33 -0.11,0.48 -0.04,0.09 -0.1,0.17 -0.19,0.22 -0.08,0.05 -0.18,0.08 -0.27,0.08 -0.01,0 -0.02,-0 -0.03,-0 -0.14,-0 -0.28,-0.05 -0.39,-0.13 -0.13,-0.09 -0.23,-0.22 -0.3,-0.37l0.34 -0.22c0.04,0.08 0.1,0.16 0.18,0.21 0.04,0.04 0.1,0.06 0.16,0.07 0,0 0,0 0.01,0 0.04,0 0.08,-0.02 0.11,-0.06 0.04,-0.08 0.06,-0.17 0.06,-0.26l0.23 -1.75z"/>
  <path id="Path_44" class="fil1" d="M49.44 12.48l0.45 0 -0.13 0.87c-0.01,0.07 -0.02,0.14 -0.02,0.22 0,0 0,0 0,0 0,0.07 0.03,0.14 0.09,0.19 0.07,0.05 0.15,0.08 0.23,0.08 0.1,0 0.19,-0.04 0.26,-0.1 0.08,-0.12 0.13,-0.26 0.14,-0.4l0.13 -0.86 0.45 0 -0.13 0.91c-0.02,0.17 -0.07,0.33 -0.16,0.48 -0.07,0.11 -0.17,0.2 -0.29,0.26 -0.13,0.06 -0.26,0.09 -0.4,0.09 -0.01,0 -0.01,0 -0.02,0 -0.01,0 -0.03,0 -0.04,0 -0.19,0 -0.37,-0.07 -0.51,-0.18 -0.13,-0.11 -0.2,-0.28 -0.2,-0.45 0,-0.01 0,-0.01 0,-0.02 0,-0.15 0.02,-0.3 0.05,-0.45l0.1 -0.64z"/>
  <path id="Path_45" class="fil1" d="M52.02 14.23c0,-0 0,-0 0,-0 -0.2,0 -0.4,-0.1 -0.52,-0.26 -0.13,-0.17 -0.2,-0.38 -0.2,-0.59 0,-0 0,-0.01 0,-0.01 0,-0 0,-0 0,-0 0,-0.17 0.04,-0.34 0.13,-0.5 0.08,-0.15 0.2,-0.28 0.35,-0.37 0.14,-0.09 0.3,-0.13 0.46,-0.13l0.01 0c0.21,0 0.41,0.11 0.51,0.3l0.12 -0.94 0.42 0 -0.33 2.46 -0.42 0 0.03 -0.19c-0.07,0.08 -0.16,0.14 -0.26,0.19 -0.08,0.03 -0.17,0.05 -0.25,0.05 -0,0 -0,0 -0,0l-0.02 0 -0.02 0zm0.12 -0.39l0 0 0 0 0.02 0c0.09,-0 0.18,-0.03 0.26,-0.07 0.08,-0.05 0.15,-0.13 0.19,-0.22 0.05,-0.09 0.08,-0.2 0.08,-0.31 0,-0 0,-0 0,-0 0,-0.01 0,-0.01 0,-0.02 0,-0.12 -0.04,-0.23 -0.12,-0.32 -0.08,-0.08 -0.18,-0.13 -0.3,-0.13l-0.02 0c-0.14,0 -0.28,0.06 -0.38,0.17 -0.1,0.12 -0.16,0.26 -0.16,0.42 0,0.01 0,0.02 0,0.02 -0,0.01 -0,0.01 -0,0.02 0,0.12 0.04,0.23 0.12,0.31 0.08,0.08 0.18,0.13 0.29,0.13l0.01 0 -0 0z"/>
  <path id="Path_46" class="fil1" d="M54.14 14.98l-0.04 0 -0.02 0c-0.16,-0 -0.32,-0.04 -0.47,-0.11 -0.13,-0.06 -0.24,-0.16 -0.31,-0.28l0.38 -0.2c0.11,0.11 0.26,0.17 0.42,0.18l0.02 0 0.02 0c0,-0 0,-0 0,-0 0.09,0 0.18,-0.02 0.26,-0.06 0.07,-0.03 0.13,-0.09 0.18,-0.15 0.05,-0.09 0.08,-0.18 0.09,-0.28 -0.15,0.13 -0.34,0.21 -0.54,0.21l-0 0c-0.28,-0 -0.54,-0.15 -0.67,-0.4 -0.07,-0.13 -0.1,-0.27 -0.1,-0.41 0,-0 0,-0.01 0,-0.01 0,-0.01 -0,-0.02 -0,-0.03 0,-0.16 0.04,-0.32 0.12,-0.46 0.09,-0.15 0.21,-0.28 0.37,-0.36 0.14,-0.09 0.31,-0.13 0.48,-0.14l0.01 0c0.09,0 0.18,0.02 0.27,0.06 0.09,0.05 0.18,0.12 0.24,0.2l0.04 -0.21 0.43 0 -0.2 1.41c-0.02,0.19 -0.06,0.37 -0.12,0.55 -0.07,0.14 -0.18,0.27 -0.31,0.35 -0.16,0.09 -0.34,0.14 -0.53,0.14l-0 0zm0.21 -2.09l-0.01 0c-0.31,0 -0.56,0.26 -0.56,0.57 0,0 0,0 0,0.01 -0,0.01 -0,0.01 -0,0.02 0,0.11 0.05,0.22 0.13,0.29 0.08,0.08 0.19,0.12 0.31,0.12 0,0 0,0 0,0l0.01 0c0,0 0,0 0,0 0.1,0 0.2,-0.03 0.29,-0.08 0.09,-0.05 0.16,-0.12 0.21,-0.21 0.05,-0.09 0.08,-0.19 0.08,-0.29 0,-0 0,-0.01 0,-0.01 0,-0.11 -0.05,-0.22 -0.13,-0.3 -0.08,-0.08 -0.19,-0.12 -0.31,-0.12l0 0z"/>
  <path id="Path_47" class="fil1" d="M56.57 14.23c-0,0 -0,0 -0,0 -0.2,0 -0.4,-0.08 -0.55,-0.21 -0.14,-0.14 -0.22,-0.34 -0.22,-0.54 0,-0.01 0,-0.02 0,-0.03 -0,-0.01 -0,-0.01 -0,-0.02 0,-0.25 0.1,-0.49 0.28,-0.67 0.17,-0.18 0.4,-0.28 0.65,-0.28 0,0 0,0 0,0l0.02 0c0.14,0 0.28,0.04 0.4,0.1 0.13,0.07 0.23,0.17 0.3,0.3 0.07,0.13 0.1,0.27 0.1,0.42 0,0 0,0 0,0.01 0,0 0,0 0,0 0,0.06 -0,0.11 -0.01,0.17l-1.35 0c0,0 0,0 0,0.01 0,0.1 0.04,0.2 0.11,0.27 0.08,0.07 0.17,0.1 0.28,0.1 0,0 0,0 0,0l0.02 0 0 0c0,0 0,0 0,0 0.15,0 0.3,-0.06 0.41,-0.17l0 0 0.36 0.2c-0.09,0.11 -0.2,0.19 -0.32,0.25 -0.13,0.06 -0.28,0.09 -0.42,0.09l-0.02 0c-0.01,0 -0.02,0 -0.04,0zm0.13 -1.38c0,-0 -0,-0 -0,-0 -0.09,0 -0.19,0.03 -0.26,0.08 -0.08,0.06 -0.15,0.14 -0.18,0.23l0.86 0c-0.02,-0.09 -0.08,-0.17 -0.15,-0.23 -0.07,-0.05 -0.16,-0.08 -0.25,-0.08 -0,0 -0,0 -0,0l-0.02 0 0 0z"/>
  <path id="Path_48" class="fil1" d="M58.04 13.73c0,0 0,0 0.01,0 0.06,0 0.13,0.03 0.17,0.07 0.05,0.04 0.07,0.11 0.07,0.17 0,0 0,0 0,0.01 0,0 0,0 0,0 0,0.07 -0.03,0.13 -0.07,0.18 -0.05,0.05 -0.11,0.07 -0.17,0.07 -0,0 -0,-0 -0.01,-0 -0,0 -0,0 -0,0 -0.06,0 -0.13,-0.03 -0.17,-0.07 -0.05,-0.05 -0.07,-0.11 -0.07,-0.18 0,-0 0,-0 0,-0 0,-0 0,-0 0,-0 0,-0.14 0.11,-0.25 0.25,-0.25 0,0 0,0 0,0l0 0z"/>
  <path id="Path_80" class="fil2" d="M56.47 10.61c-0,0 -0,0 -0,0 -0.26,0 -0.52,-0.05 -0.77,-0.14 -0.41,-0.14 -0.73,-0.47 -0.86,-0.88 0.14,-0.01 0.28,-0.01 0.42,-0.01 0.14,0 0.28,0 0.42,0.01 0.03,0 0.06,0.02 0.08,0.04 0.01,0.01 0.01,0.01 0.02,0.02 0.19,0.14 0.42,0.22 0.65,0.22 0.13,0 0.26,-0.02 0.39,-0.07 0.39,-0.12 0.46,-0.32 0.46,-0.71 -0.01,-0.01 -0.02,-0.01 -0.04,-0.01 -0.03,0 -0.06,0.02 -0.08,0.04l-0 0c-0.22,0.18 -0.5,0.28 -0.79,0.28 -0.02,0 -0.03,0 -0.05,0 -0.76,-0.01 -1.39,-0.6 -1.46,-1.35 -0.01,-0.09 -0.02,-0.19 -0.02,-0.28 0,-0.34 0.1,-0.68 0.29,-0.97 0.27,-0.39 0.71,-0.62 1.18,-0.62 0.27,0 0.53,0.07 0.75,0.22 0.07,0.06 0.14,0.1 0.22,0.14 0.06,-0.28 0.06,-0.28 0.36,-0.28l0.28 0c0.17,0 0.18,0.01 0.2,0.18l0 2.47c-0,0.24 -0.03,0.48 -0.09,0.72 -0.09,0.41 -0.39,0.74 -0.78,0.86 -0.25,0.09 -0.51,0.14 -0.77,0.14 -0,0 -0,0 -0,0l0 0zm-0.01 -3.69c0,0 0,0 0,0 -0.44,0 -0.8,0.36 -0.8,0.8 0,0.01 0,0.03 0,0.05 -0,0.02 -0,0.04 -0,0.06 0,0.45 0.36,0.82 0.81,0.82 0,0 0,0 0,0l0.03 0 0 -0 0.03 0c0.45,0 0.81,-0.36 0.81,-0.81 0,-0.02 -0,-0.04 -0,-0.06 0,-0.01 0,-0.02 0,-0.04 0,-0.45 -0.36,-0.82 -0.82,-0.82 -0,0 -0,0 -0,0 -0.01,0 -0.02,0 -0.04,0l-0.03 0z"/>
  <path id="Path_81" class="fil2" d="M52.68 9.46l0 0c0,0 0,0 0,0 -0.32,0 -0.63,-0.12 -0.87,-0.33 -0.39,-0.31 -0.62,-0.79 -0.62,-1.29 0,-0.05 0,-0.09 0.01,-0.14 0,-0 0,-0.01 0,-0.01 0,-0.58 0.32,-1.1 0.83,-1.37 0.2,-0.11 0.43,-0.17 0.66,-0.17 0.28,0 0.55,0.08 0.77,0.24 0.07,0.06 0.14,0.1 0.22,0.13l0 -1.47c0.12,-0.01 0.25,-0.01 0.37,-0.01 0.12,0 0.25,0 0.37,0.01 0.04,0.05 0.06,0.1 0.06,0.16 0,0.02 -0,0.04 -0.01,0.06l0 3.86c0,0.23 -0,0.23 -0.24,0.23 -0.06,0.01 -0.13,0.01 -0.19,0.01 -0.11,0 -0.22,-0.01 -0.34,-0.03 -0.02,-0.04 -0.03,-0.08 -0.03,-0.13 0,-0 0,-0.01 0,-0.01 0,-0 0,-0 0,-0.01 0,-0.03 -0.01,-0.07 -0.02,-0.1 -0.01,-0 -0.01,-0 -0.02,-0 -0,0 -0,0 -0,0 -0.04,0 -0.09,0.02 -0.12,0.06 -0.01,0.01 -0.02,0.02 -0.03,0.03 -0.23,0.18 -0.51,0.27 -0.8,0.27 -0,0 -0,0 -0,0l0 0zm0.18 -2.55c0,0 0,0 0,0 -0.47,0 -0.84,0.38 -0.84,0.84 0,0.01 0,0.03 0,0.04 -0,0.03 -0,0.05 -0,0.08 0,0.46 0.37,0.84 0.84,0.85l0.01 0c0.47,0 0.84,-0.38 0.84,-0.84 0,-0.02 -0,-0.04 -0,-0.06 0,-0.02 0,-0.04 0,-0.06 0,-0.47 -0.38,-0.84 -0.84,-0.84 0,0 0,0 -0,0l0 0z"/>
  <path id="Path_82" class="fil2" d="M60.2 9.46l0 0c-0.41,-0 -0.82,-0.14 -1.14,-0.41 -0.25,-0.22 -0.43,-0.52 -0.49,-0.85 -0.03,-0.13 -0.05,-0.27 -0.05,-0.41 0,-0.37 0.12,-0.73 0.35,-1.02 0.28,-0.39 0.74,-0.62 1.22,-0.62 0.06,0 0.12,0 0.18,0.01 0.35,0.01 0.69,0.14 0.96,0.36 0.38,0.32 0.6,0.8 0.6,1.3 0,0.03 -0,0.06 -0,0.09 0,0 0,0.01 0,0.01 0,0.06 -0.05,0.11 -0.11,0.11l-0.01 0 -2.14 0c-0.02,-0 -0.04,-0 -0.06,-0 -0.06,0 -0.11,0.01 -0.17,0.03 0.02,0.38 0.33,0.67 0.7,0.67 0.02,0 0.04,-0 0.06,-0 0.3,-0.01 0.6,-0.11 0.85,-0.28l0.62 0.29c-0.09,0.2 -0.25,0.36 -0.45,0.46 -0.28,0.17 -0.6,0.26 -0.93,0.26 0,0 -0,0 -0,0l0 0zm-0.07 -2.6c0,0 0,0 0,0 -0.32,0 -0.61,0.21 -0.71,0.52l1.57 0c-0.12,-0.31 -0.42,-0.52 -0.76,-0.52 -0,0 -0,0 -0,0 -0.02,0 -0.05,0 -0.07,0l-0.02 -0z"/>
  <path id="Path_83" class="fil2" d="M22.84 5.87c-0.08,0.13 -0.2,0.23 -0.33,0.29 -0.21,-0.2 -0.45,-0.36 -0.71,-0.48 -0.27,-0.13 -0.56,-0.2 -0.86,-0.2 -0.48,0 -0.94,0.17 -1.3,0.49 -0.37,0.33 -0.59,0.8 -0.59,1.29 0,0.53 0.24,1.02 0.65,1.35 0.35,0.29 0.8,0.46 1.25,0.46 0.38,0 0.75,-0.11 1.07,-0.32 0.26,-0.18 0.45,-0.44 0.54,-0.75 0.02,-0.06 0.03,-0.13 0.03,-0.2 0,-0.01 -0,-0.02 -0,-0.03l-1.17 0c-0.14,0 -0.16,-0.08 -0.16,-0.19 0.01,-0.11 -0.03,-0.22 0.14,-0.22l1.6 0c0.04,0 0.07,0.01 0.11,0.03 0.01,0.06 0.02,0.12 0.02,0.19 0,0.1 -0.02,0.21 -0.05,0.3 -0.11,0.78 -0.7,1.4 -1.47,1.56 -0.22,0.06 -0.44,0.09 -0.66,0.09 -0.43,0 -0.85,-0.11 -1.22,-0.32 -0.67,-0.35 -1.09,-1.04 -1.11,-1.79 -0.01,-0.07 -0.01,-0.13 -0.01,-0.2 0,-0.4 0.12,-0.79 0.33,-1.13 0.39,-0.6 1.03,-0.98 1.74,-1.03 0.09,-0.01 0.19,-0.02 0.28,-0.02 0.65,0 1.28,0.24 1.77,0.68 0.03,0.03 0.07,0.06 0.1,0.1 0.01,0.02 0.01,0.04 0.01,0.06l0 -0z"/>
  <path id="Path_84" class="fil2" d="M42.47 10.6l0 0c-0.31,-0 -0.61,-0.07 -0.89,-0.2 -0.33,-0.16 -0.58,-0.45 -0.72,-0.79 0.08,-0.01 0.16,-0.02 0.25,-0.02 0,0 0,0 0,0 0.04,0 0.08,0 0.11,0 0.06,0 0.09,0.04 0.12,0.09 0.27,0.34 0.68,0.53 1.11,0.53 0.17,0 0.34,-0.03 0.5,-0.09 0.36,-0.09 0.63,-0.39 0.67,-0.77 0.01,-0.08 0.01,-0.16 0.01,-0.24 0,-0.08 -0,-0.16 -0.01,-0.24 -0.32,0.32 -0.76,0.5 -1.21,0.5 -0.14,0 -0.28,-0.02 -0.41,-0.05 -0.39,-0.09 -0.73,-0.34 -0.94,-0.68 -0.17,-0.26 -0.26,-0.56 -0.26,-0.87 0,-0.43 0.18,-0.84 0.49,-1.14 0.3,-0.31 0.72,-0.49 1.15,-0.49l0.05 0c0.45,0.01 0.88,0.21 1.17,0.56 0.01,-0.05 0.02,-0.1 0.02,-0.15 0,-0.02 -0,-0.03 -0,-0.05 -0,-0.02 -0,-0.03 -0,-0.05 0,-0.06 0.01,-0.11 0.02,-0.17 0.03,-0.03 0.07,-0.04 0.11,-0.04 0.01,0 0.02,0 0.03,0 0.03,-0 0.06,-0 0.09,-0 0.07,0 0.11,0.01 0.13,0.03 0.03,0.03 0.03,0.1 0.03,0.22l0 2.59c-0,0.16 -0.03,0.32 -0.07,0.47 -0.1,0.47 -0.46,0.84 -0.92,0.95 -0.2,0.06 -0.41,0.1 -0.62,0.1l0 0zm0.01 -1.62l0 0c0.02,0 0.05,0 0.08,0 0,0 0,0 0,0 0.63,0 1.13,-0.51 1.13,-1.13 0,-0.02 -0,-0.04 -0,-0.06 0,-0.02 0,-0.04 0,-0.06 0,-0.65 -0.52,-1.17 -1.17,-1.17l-0.02 0c-0.69,0 -1.24,0.56 -1.25,1.24 0,0 0,0.01 0,0.01 0,0.64 0.52,1.17 1.17,1.17 0.02,0 0.04,0 0.06,-0l-0 -0z"/>
  <path id="Path_85" class="fil2" d="M27.28 6.7c0.23,-0.34 0.61,-0.54 1.02,-0.54 0.02,0 0.04,0 0.05,0 0.42,0.01 0.79,0.28 0.92,0.68 0.09,-0.05 0.12,-0.13 0.17,-0.19 0.22,-0.31 0.58,-0.49 0.97,-0.49 0.1,0 0.19,0.01 0.29,0.04 0.37,0.09 0.65,0.39 0.72,0.77 0.05,0.29 0.08,0.58 0.08,0.88 0,0.02 -0,0.05 -0,0.07l-0 1.2c0,0.28 0,0.3 -0.29,0.29 -0,0 -0.01,0 -0.01,0 -0.04,0 -0.07,-0.01 -0.11,-0.03 -0.05,-0.07 -0.03,-0.15 -0.03,-0.22l0 -1.46c-0,-0.18 -0.02,-0.37 -0.05,-0.55 -0.05,-0.31 -0.32,-0.54 -0.64,-0.54 -0,0 -0,0 -0,0 -0,0 -0,0 -0.01,0 -0.52,0 -0.94,0.41 -0.96,0.93 -0.05,0.53 -0.03,1.07 -0.04,1.59 0.01,0.04 0.01,0.07 0.01,0.11 0,0.04 -0,0.08 -0.01,0.11 -0.03,0.03 -0.06,0.04 -0.1,0.04 -0.29,0.03 -0.31,0 -0.31,-0.28l0 -1.49c0,-0.01 0,-0.03 0,-0.04 0,-0.16 -0.02,-0.32 -0.05,-0.48 -0.05,-0.29 -0.3,-0.5 -0.59,-0.5 -0.01,0 -0.03,0 -0.04,0 -0.02,-0 -0.04,-0 -0.06,-0 -0.47,0 -0.87,0.36 -0.92,0.83 -0.03,0.23 -0.05,0.46 -0.05,0.69 0,0.07 0,0.14 0,0.21l0 0.86c0,0.19 0,0.21 -0.22,0.21 -0.22,0 -0.21,0 -0.21,-0.2l0 -2.73c0,-0.2 0,-0.21 0.22,-0.21 0.22,0 0.2,0 0.21,0.2 -0.01,0.03 -0.01,0.07 -0.01,0.1 0,0.05 0.01,0.1 0.03,0.15l0 0z"/>
  <path id="Path_86" class="fil2" d="M49.99 6.25c0.11,-0.01 0.22,-0.01 0.33,-0.01 0.11,0 0.22,0 0.33,0.01 0.12,0 0.11,0.09 0.11,0.17l0 1.2c-0,0.27 -0.02,0.54 -0.07,0.81 -0.06,0.41 -0.33,0.77 -0.72,0.93 -0.19,0.08 -0.4,0.12 -0.61,0.12 -0.24,0 -0.48,-0.06 -0.7,-0.17 -0.31,-0.17 -0.53,-0.47 -0.6,-0.82 -0.03,-0.16 -0.05,-0.33 -0.05,-0.5 0,-0.04 0,-0.09 0,-0.14l-0 -1.43c0,-0.18 0,-0.19 0.19,-0.19l0.5 0c0.01,-0 0.02,-0 0.04,-0 0.01,0 0.02,0 0.04,0 0.06,0.08 0.04,0.16 0.04,0.24l0 1.39c0,0.01 0,0.01 0,0.02 0,0.14 0.02,0.28 0.05,0.41 0.06,0.25 0.28,0.42 0.53,0.42 0.27,0 0.5,-0.2 0.54,-0.47 0.03,-0.16 0.04,-0.31 0.04,-0.47 0,-0.01 0,-0.02 0,-0.03l-0 -1.28c-0.01,-0.04 -0.01,-0.08 -0.01,-0.12 0,-0.03 0,-0.07 0.01,-0.1l0 0z"/>
  <path id="Path_87" class="fil2" d="M33.56 9.44l0 0c-0.03,0 -0.06,0 -0.08,-0 -0.44,-0.02 -0.85,-0.23 -1.14,-0.56l0 0.36c0,0.01 0,0.01 0,0.02 0,0.03 -0.01,0.07 -0.03,0.1 -0.04,0.03 -0.09,0.04 -0.15,0.04 -0.01,0 -0.03,-0 -0.04,-0l-0.04 0c-0.01,0 -0.01,0 -0.02,0 -0.04,0 -0.07,-0.01 -0.1,-0.02 -0.03,-0.03 -0.05,-0.07 -0.05,-0.11 0,-0.01 0,-0.01 0,-0.02l-0 -3.91c-0,-0.02 -0.01,-0.05 -0.01,-0.07 0,-0.06 0.01,-0.13 0.04,-0.19 0.06,-0.01 0.13,-0.02 0.19,-0.02 0.06,0 0.13,0.01 0.19,0.02l0 1.61c0.31,-0.33 0.75,-0.52 1.2,-0.52 0.03,0 0.05,0 0.08,0 0.88,0.04 1.57,0.77 1.57,1.65 0,0.45 -0.18,0.88 -0.5,1.19 -0.3,0.29 -0.69,0.45 -1.1,0.45 -0,0 -0,0 -0,0l0 0zm-0.04 -2.88c-0.68,0 -1.24,0.56 -1.24,1.24 0,0.68 0.56,1.24 1.24,1.24l0.02 0c0,0 0,0 0,0 0.32,0 0.62,-0.13 0.85,-0.35 0.22,-0.23 0.35,-0.53 0.35,-0.85 0,-0.01 -0,-0.02 -0,-0.02 0,-0.01 0,-0.02 0,-0.03 0,-0.68 -0.55,-1.22 -1.22,-1.23l0 0z"/>
  <path id="Path_88" class="fil2" d="M47.33 5.17c0.02,0.06 0.03,0.11 0.03,0.17 0,0.02 -0,0.04 -0,0.06l0 2.63c0,0.24 -0.03,0.48 -0.08,0.72 -0.09,0.42 -0.46,0.72 -0.88,0.72 -0,0 -0.01,0 -0.01,0 -0.04,0 -0.08,0 -0.11,0 -0.28,0 -0.56,-0.09 -0.79,-0.24 -0.13,-0.11 -0.25,-0.23 -0.36,-0.36 0.15,-0.18 0.31,-0.35 0.48,-0.5 0.02,-0.02 0.05,-0.03 0.08,-0.03 0.04,0 0.07,0.02 0.09,0.05 0.08,0.09 0.17,0.17 0.28,0.22 0.05,0.04 0.11,0.06 0.18,0.06 0.16,0 0.28,-0.13 0.28,-0.28 0,-0 0,-0 0,-0 0,-0.05 0,-0.09 0,-0.14 0,-0.05 -0,-0.09 -0,-0.14l0 -2.72c0,-0.26 0,-0.26 0.27,-0.26 0.04,-0 0.09,-0 0.13,-0 0.14,0 0.28,0.01 0.42,0.04l0 0z"/>
  <path id="Path_89" class="fil2" d="M24.95 9.47l0 0c-0,0 -0,0 -0,0 -0.22,0 -0.44,-0.04 -0.64,-0.13 -0.33,-0.15 -0.59,-0.4 -0.76,-0.72 -0.14,-0.25 -0.22,-0.54 -0.22,-0.83 0,-0.44 0.18,-0.87 0.5,-1.18 0.3,-0.3 0.7,-0.46 1.12,-0.46 0,0 0,0 0,0 0.03,0 0.05,0 0.08,0 0.46,0.01 0.89,0.23 1.16,0.6 0.01,-0.07 0.02,-0.15 0.02,-0.22 0,-0.01 0,-0.03 -0,-0.04 -0,-0.01 -0,-0.03 -0,-0.04 0,-0.06 0.01,-0.13 0.02,-0.19 0.07,-0.02 0.14,-0.03 0.21,-0.03 0.05,0 0.1,0 0.14,0.01 0.03,0.06 0.05,0.13 0.05,0.2 0,0.02 -0,0.05 -0.01,0.07 0,0.84 0,1.7 -0.01,2.56l0 0.28 -0.4 0c-0,-0.08 -0.01,-0.15 -0.01,-0.23 0,-0.08 0,-0.15 0.01,-0.23 -0.32,0.36 -0.78,0.57 -1.27,0.57l0 0zm0.04 -0.4l0.03 0c0.66,-0 1.2,-0.54 1.2,-1.2 0,-0.01 0,-0.03 -0,-0.04 0,-0.02 0,-0.03 0,-0.05 0,-0.67 -0.54,-1.21 -1.21,-1.21l-0.01 0c-0.68,0.02 -1.22,0.56 -1.23,1.24 0,0.68 0.54,1.23 1.21,1.26l0 0z"/>
  <path id="Path_90" class="fil2" d="M40.04 9.35c-0.02,-0.05 -0.03,-0.11 -0.03,-0.17 0,-0.02 0,-0.04 0,-0.06l0 -1.28c0,-0.21 -0.02,-0.42 -0.05,-0.63 -0.05,-0.38 -0.38,-0.67 -0.77,-0.67 -0.07,0 -0.14,0.01 -0.2,0.03 -0.45,0.1 -0.79,0.46 -0.85,0.92 -0.03,0.25 -0.04,0.51 -0.04,0.76 0,0.09 0,0.18 0,0.27l0 0.68c0,0.17 0,0.17 -0.19,0.18 -0.19,0.01 -0.24,0 -0.24,-0.23l-0 -2.69c-0,-0.02 -0,-0.03 -0,-0.05 0,-0.05 0.01,-0.1 0.03,-0.14l0.04 -0.02c0.36,-0.04 0.36,-0.04 0.36,0.32 -0,0.02 -0,0.04 -0,0.06 0,0.02 0,0.04 0,0.06 0.11,-0.1 0.23,-0.19 0.36,-0.28 0.22,-0.17 0.49,-0.26 0.77,-0.26 0.19,0 0.38,0.04 0.55,0.12 0.33,0.16 0.55,0.48 0.6,0.84 0.04,0.35 0.07,0.7 0.07,1.05 0,0.12 -0,0.25 -0.01,0.37l0 0.66c0,0.22 0,0.19 -0.2,0.19 -0.01,0 -0.03,0 -0.04,0 -0.06,0 -0.11,-0.01 -0.16,-0.04l0 -0z"/>
  <path id="Path_91" class="fil2" d="M35.63 5.06c0.06,-0.01 0.12,-0.02 0.18,-0.02 0.06,0 0.12,0.01 0.18,0.02 0.03,0.05 0.04,0.11 0.04,0.16 0,0.02 -0,0.04 -0,0.06l0 3.87c0,0.21 -0.15,0.31 -0.36,0.22 -0.04,-0.01 -0.07,-0.05 -0.07,-0.09l0 -3.99c-0,-0.02 -0.01,-0.04 -0.01,-0.07 0,-0.06 0.01,-0.12 0.04,-0.18z"/>
  <path id="Path_92" class="fil2" d="M36.98 6.27c0.02,0.05 0.04,0.11 0.04,0.17 0,0.02 -0,0.03 -0,0.05l-0 2.65c0,0.24 -0.1,0.31 -0.34,0.24 -0.05,-0.01 -0.09,-0.05 -0.09,-0.1 0,-0 0,-0 0,-0l-0 -2.73c-0,-0.34 0.03,-0.36 0.39,-0.28z"/>
  <path id="Path_93" class="fil2" d="M37.11 5.31c0,0.01 0,0.03 0,0.04 0,0.18 -0.14,0.32 -0.32,0.32 -0,0 -0.01,0 -0.01,0 -0.18,-0.01 -0.33,-0.15 -0.36,-0.33 0,0 0,-0 0,-0 0,-0.2 0.16,-0.36 0.36,-0.36 0,0 0,0 0,0 0,-0 0.01,-0 0.01,-0 0.18,0 0.32,0.14 0.32,0.32 0,0 0,0.01 0,0.01l-0 0z"/>
  <g id="Group_3" data-name="Group 3">
   <path id="Path_94" class="fil3" d="M9.63 15.89l0 0c-3.23,-0 -5.94,-2.43 -6.3,-5.64 -0.02,-0.21 -0.03,-0.43 -0.03,-0.65 0,-1.59 0.59,-3.14 1.64,-4.33 1.22,-1.31 2.92,-2.05 4.71,-2.05 0.05,0 0.1,0 0.15,0 0.05,0 0.09,-0 0.14,-0 1.57,0.03 3.06,0.68 4.15,1.81 1.2,1.2 1.88,2.83 1.88,4.53 0,0.01 0,0.03 0,0.04 -0.03,3.35 -2.67,6.11 -6.02,6.28 -0.11,0.01 -0.22,0.01 -0.33,0.01zm-3.16 -2c0.05,0 0.1,0.02 0.14,0.05 0.19,0.13 0.39,0.24 0.59,0.34l0.14 0.08c0.17,0.1 0.21,0.18 0.13,0.39 -0.01,0.02 -0.01,0.03 -0.02,0.05 -0.02,0.03 -0.03,0.06 -0.03,0.09 0,0.01 0,0.03 0.01,0.04 0.46,0.2 0.95,0.34 1.45,0.39 0.03,-0.06 0.05,-0.13 0.05,-0.2 0.04,-0.2 0.08,-0.24 0.28,-0.24 0.1,0 0.19,0 0.29,0.01 0.09,0 0.19,0.01 0.29,0.01 0.11,0 0.2,-0 0.29,-0.01 0.01,-0 0.03,-0 0.04,-0 0.12,0 0.18,0.06 0.22,0.21 0.01,0.03 0.01,0.06 0.01,0.09 0,0 0,0 0,0 -0,0 -0,0.01 -0,0.01 0,0.04 0.01,0.08 0.03,0.12 0.51,-0.04 1.01,-0.17 1.48,-0.39 -0.02,-0.08 -0.04,-0.15 -0.07,-0.22 -0.02,-0.03 -0.03,-0.07 -0.03,-0.11 0,-0.09 0.06,-0.18 0.15,-0.21 0.23,-0.12 0.48,-0.26 0.71,-0.4 0.06,-0.05 0.13,-0.08 0.2,-0.09 0.06,0 0.11,0.05 0.2,0.17 0.05,0.07 0.08,0.1 0.12,0.1 0.05,-0.01 0.09,-0.03 0.12,-0.06 0.26,-0.21 0.5,-0.45 0.71,-0.71 0.09,-0.09 0.17,-0.2 0.24,-0.31 -0.03,-0.03 -0.07,-0.05 -0.1,-0.08 -0.05,-0.03 -0.09,-0.07 -0.13,-0.11 -0.04,-0.04 -0.06,-0.09 -0.06,-0.15 0,-0.04 0.01,-0.08 0.03,-0.11 0.17,-0.25 0.33,-0.52 0.47,-0.79 0.03,-0.09 0.11,-0.15 0.21,-0.15 0.04,0 0.08,0.01 0.11,0.03 0.08,0.03 0.15,0.06 0.2,0.08 0.04,-0.04 0.07,-0.09 0.08,-0.14 0.14,-0.37 0.25,-0.75 0.33,-1.14 0.02,-0.11 0.03,-0.16 0.01,-0.19 -0.02,-0.03 -0.08,-0.04 -0.18,-0.06l-0 -0c-0.21,-0.04 -0.26,-0.09 -0.26,-0.31 0.01,-0.13 0.01,-0.26 0.01,-0.39 0,-0.13 -0,-0.26 -0.01,-0.39 -0.01,-0.24 0.04,-0.31 0.29,-0.34 0.08,-0.01 0.12,-0.02 0.14,-0.04 0.02,-0.03 0.01,-0.07 0,-0.15 -0.07,-0.41 -0.19,-0.82 -0.34,-1.21 -0.02,-0.07 -0.05,-0.1 -0.1,-0.1 -0.03,0 -0.05,0.01 -0.08,0.02 -0.06,0.03 -0.12,0.05 -0.19,0.06 -0.02,0 -0.03,0.01 -0.05,0.01 -0.06,0 -0.11,-0.03 -0.14,-0.09 -0.07,-0.1 -0.12,-0.21 -0.17,-0.32 -0.08,-0.16 -0.17,-0.31 -0.27,-0.46 -0.04,-0.05 -0.06,-0.11 -0.06,-0.17 0,-0.1 0.06,-0.19 0.14,-0.23 0.01,-0.01 0.03,-0.02 0.05,-0.03 0.04,-0.02 0.08,-0.05 0.11,-0.09 -0.31,-0.41 -0.69,-0.78 -1.1,-1.09 -0.02,0.03 -0.04,0.05 -0.06,0.08 -0.03,0.04 -0.06,0.08 -0.09,0.12 -0.04,0.05 -0.09,0.08 -0.15,0.09 -0.01,0 -0.02,0 -0.03,0 -0.05,0 -0.1,-0.02 -0.14,-0.05 -0.16,-0.11 -0.33,-0.2 -0.49,-0.29 -0.09,-0.05 -0.17,-0.1 -0.26,-0.15 -0.15,-0.09 -0.17,-0.16 -0.11,-0.33 0.04,-0.07 0.06,-0.14 0.07,-0.22 -0.47,-0.2 -0.98,-0.33 -1.49,-0.39 -0.02,0.06 -0.03,0.11 -0.03,0.17 -0.03,0.2 -0.11,0.28 -0.28,0.28 -0.03,0 -0.05,-0 -0.08,-0 -0.07,-0.01 -0.14,-0.02 -0.22,-0.02 0,0 0,0 0,0 -0.02,0 -0.04,0 -0.06,0 -0.08,0 -0.15,0.01 -0.23,0.01 -0.07,0.01 -0.15,0.01 -0.22,0.01 -0.02,0 -0.04,0.01 -0.05,0.01 -0.14,0 -0.25,-0.1 -0.26,-0.24 -0.01,-0.03 -0.01,-0.05 -0.01,-0.08 0,-0 0,-0 0,-0 0,-0.05 -0.01,-0.09 -0.03,-0.13 -0.51,0.06 -1.01,0.19 -1.48,0.4 0,0.05 0.02,0.11 0.05,0.15 0.09,0.22 0.06,0.31 -0.15,0.43 -0.25,0.12 -0.49,0.26 -0.72,0.41 -0.04,0.03 -0.08,0.05 -0.13,0.05 -0.07,0 -0.14,-0.04 -0.18,-0.1 -0.05,-0.06 -0.1,-0.12 -0.15,-0.18 -0.07,0.01 -0.13,0.04 -0.18,0.09 -0.29,0.25 -0.56,0.53 -0.81,0.82 -0.08,0.08 -0.1,0.13 -0.1,0.17 0,0.05 0.05,0.08 0.13,0.14 0.15,0.11 0.17,0.21 0.07,0.36 -0.16,0.24 -0.31,0.5 -0.45,0.76 -0.04,0.09 -0.13,0.15 -0.23,0.15 -0.05,0 -0.09,-0.01 -0.13,-0.04l-0.2 -0.08c-0.17,0.41 -0.29,0.85 -0.36,1.29 -0.03,0.2 -0.01,0.2 0.18,0.23l0.01 0c0.19,0.03 0.24,0.09 0.24,0.28l0 0.81c0,0.02 0,0.05 0,0.07 0,0.02 -0,0.05 -0,0.07 -0,0.09 -0.08,0.17 -0.17,0.17 -0.09,0 -0.17,0.02 -0.25,0.06 0.05,0.51 0.19,1.02 0.39,1.49 0.06,-0.03 0.12,-0.05 0.18,-0.07 0.05,-0.02 0.11,-0.04 0.17,-0.04 0.1,0 0.16,0.06 0.23,0.21 0.11,0.23 0.24,0.46 0.39,0.67 0.04,0.04 0.07,0.1 0.07,0.16 0,0.08 -0.04,0.15 -0.11,0.2 -0.02,0.02 -0.04,0.03 -0.06,0.05 -0.04,0.02 -0.07,0.05 -0.1,0.09 0.03,0.08 0.07,0.14 0.13,0.2 0.25,0.31 0.54,0.59 0.86,0.83 0.02,0.03 0.06,0.05 0.09,0.05 0.03,-0 0.06,-0.02 0.08,-0.05l0.06 -0.08c0.04,-0.07 0.11,-0.12 0.19,-0.13l0 0z"/>
   <path id="Path_95" class="fil3" d="M9.61 14.33c-0,0 -0.01,0 -0.01,0 -2.63,0 -4.77,-2.14 -4.77,-4.77 0,-2.63 2.13,-4.77 4.76,-4.77l0.01 0c0,0 0,0 0,0 2.63,0 4.77,2.14 4.77,4.77 0,2.63 -2.13,4.77 -4.77,4.77l0 0 -0 0zm-1.87 -1.63c0,-0 0,-0 -0,-0 -0.01,0 -0.02,0 -0.03,0 -0.06,0.11 -0.1,0.23 -0.12,0.36 0.12,0.05 0.24,0.11 0.36,0.18l0.89 0.55c0.06,0.04 0.13,0.07 0.2,0.09 0.21,0.03 0.42,0.05 0.63,0.05 0.21,0 0.42,-0.02 0.63,-0.05 0.99,-0.13 1.9,-0.62 2.55,-1.38 0.74,-0.79 1.16,-1.83 1.16,-2.91 0,-0.58 -0.12,-1.15 -0.35,-1.68 -0.28,-0.69 -0.74,-1.3 -1.33,-1.76 -0.45,-0.36 -0.97,-0.62 -1.53,-0.77 -0.39,-0.12 -0.8,-0.18 -1.21,-0.18 -0.22,0 -0.44,0.02 -0.66,0.05 -0.54,0.08 -1.07,0.27 -1.54,0.56 -0.1,0.06 -0.16,0.16 -0.17,0.28 -0,0.03 -0,0.06 -0,0.08 0,0.08 0.01,0.17 0.02,0.25 0.02,0.09 0.03,0.18 0.05,0.27 0.02,0.11 0.05,0.23 0.06,0.35 0.01,0.03 0.01,0.06 0.01,0.09 0,0.17 -0.11,0.31 -0.28,0.35 -0.07,0.02 -0.14,0.04 -0.21,0.05 -0.1,0.01 -0.2,0.02 -0.31,0.02 -0.1,0 -0.21,-0.01 -0.31,-0.02 -0.13,-0.02 -0.26,-0.04 -0.39,-0.05 -0.01,-0 -0.02,-0 -0.03,-0 -0.07,0 -0.1,0.03 -0.1,0.09 0.01,0.01 0.02,0.02 0.04,0.02 0.32,0.06 0.66,0.12 0.99,0.17 0.08,0.02 0.16,0.02 0.23,0.02 0.11,0 0.22,-0.02 0.32,-0.05 0.16,-0.04 0.27,-0.18 0.27,-0.35 0,-0 0,-0.01 0,-0.01 0,-0.03 0,-0.07 0,-0.1 0,-0.09 -0.01,-0.17 -0.02,-0.26 -0.01,-0.06 -0.02,-0.12 -0.03,-0.17 -0.02,-0.11 -0.04,-0.22 -0.06,-0.32 -0.02,-0.06 -0.02,-0.12 -0.02,-0.18 0,-0.39 0.29,-0.71 0.68,-0.74 0.16,-0.02 0.32,-0.04 0.49,-0.04 0.52,0 1.03,0.12 1.49,0.35 0.11,0.05 0.21,0.13 0.29,0.22 0.06,0.07 0.1,0.16 0.1,0.25 0,0.04 -0.01,0.09 -0.02,0.13 -0.04,0.12 -0.11,0.23 -0.21,0.31 -0.04,0.04 -0.07,0.06 -0.1,0.06 -0.04,-0.01 -0.07,-0.03 -0.09,-0.06 -0.03,-0.04 -0.07,-0.08 -0.11,-0.11 -0.27,-0.18 -0.57,-0.31 -0.88,-0.39 -0.14,-0.03 -0.28,-0.05 -0.42,-0.06 -0.04,-0 -0.08,-0.01 -0.12,-0.01 -0.09,0 -0.18,0.01 -0.27,0.04 -0.12,0.03 -0.21,0.12 -0.24,0.24 -0.03,0.11 -0.04,0.22 -0.04,0.33 0,0.06 0,0.12 0.01,0.18 0.02,0.14 0.04,0.28 0.06,0.41 0.03,0.19 0.06,0.39 0.09,0.61 0.01,0.05 0.01,0.1 0.01,0.14 0,0.16 -0.04,0.31 -0.11,0.46 -0.09,0.21 -0.28,0.35 -0.5,0.38 -0.07,0.01 -0.15,0.02 -0.23,0.02 -0.14,0 -0.28,-0.02 -0.42,-0.07l-0.49 -0.18c-0.08,-0.03 -0.16,-0.06 -0.23,-0.09 -0.17,-0.07 -0.36,-0.15 -0.54,-0.21 -0.05,-0.02 -0.11,-0.03 -0.16,-0.04 -0,-0 -0.01,-0 -0.01,-0 -0.01,0 -0.02,0 -0.03,0.01 -0.01,0.01 -0.02,0.02 -0.02,0.04 0,0 0,0 0,0 -0,0.01 -0,0.01 -0,0.02 0,0.02 0.01,0.04 0.03,0.05l0.08 0.04c0.31,0.08 0.61,0.21 0.88,0.38 0.18,0.11 0.37,0.2 0.56,0.29 0.2,0.09 0.42,0.14 0.64,0.14l0.03 0c0.22,-0 0.42,-0.15 0.48,-0.36 0.01,-0.01 0.01,-0.03 0.01,-0.04 0,-0.03 0.02,-0.06 0.05,-0.08l0.01 0c0.04,0 0.07,0.02 0.09,0.05 0.16,0.18 0.25,0.41 0.25,0.66 0,0.02 -0,0.04 -0,0.06 -0.04,0.52 -0.47,0.92 -0.99,0.92 -0.05,0 -0.1,-0 -0.15,-0.01 -0.25,-0.03 -0.5,-0.11 -0.72,-0.25l-0.28 -0.18 -0 -0c-0.28,-0.18 -0.58,-0.36 -0.85,-0.54 -0.07,-0.05 -0.15,-0.09 -0.24,-0.12 -0.01,0.02 -0.02,0.04 -0.02,0.06 0,0 0,0.01 0,0.01 0.01,0.03 0.04,0.05 0.08,0.07 0.27,0.14 0.52,0.32 0.74,0.54 0.19,0.18 0.4,0.35 0.61,0.5 0.21,0.16 0.46,0.24 0.72,0.24 0.09,0 0.17,-0.01 0.26,-0.03 0.17,-0.03 0.34,-0.1 0.49,-0.18 0.03,-0.02 0.07,-0.03 0.11,-0.03 0.05,0 0.08,0.04 0.08,0.13 0.01,0.12 0.03,0.24 0.06,0.36 0.06,0.26 0.26,0.46 0.53,0.51 0.11,0.02 0.22,0.04 0.33,0.04 0.03,0 0.07,0 0.1,-0 0.06,-0.01 0.13,-0.01 0.2,-0.01 0,0 0,0 0,0 0.21,0 0.42,0.03 0.63,0.09 0.1,0.03 0.21,0.05 0.32,0.05 0.03,0 0.05,0 0.08,0 -0,0 0,0 0,0 0.22,0 0.43,-0.02 0.64,-0.07l0.01 -0c0.04,-0.02 0.08,-0.03 0.12,-0.03 0,0 0,0 0,0 0.03,0 0.06,0.01 0.08,0.03 -0.01,0.07 -0.07,0.1 -0.12,0.12l-0.01 0.01c-0.13,0.06 -0.27,0.1 -0.42,0.13l-0.63 0.09c-0.43,0.02 -0.79,0.34 -0.86,0.77 -0.02,0.03 -0.03,0.07 -0.03,0.1 0,0.01 0,0.01 0,0.02 -0.02,0.09 -0.04,0.13 -0.11,0.13 -0.03,-0 -0.06,-0.01 -0.08,-0.01l-0.15 -0.05 -1.18 -0.4c-0.04,-0.02 -0.08,-0.03 -0.12,-0.03 -0,0 -0,0 -0,0l-0 0z"/>
   <path id="Path_96" class="fil3" d="M10.09 7.63c-0.04,-0.03 -0.08,-0.05 -0.13,-0.05 -0.11,-0.02 -0.23,-0.03 -0.34,-0.03 -0.04,0 -0.09,0 -0.13,0 -0.02,-0 -0.05,-0 -0.07,-0 -0.25,0 -0.48,0.17 -0.54,0.42 -0.03,0.06 -0.05,0.13 -0.05,0.21 0,0.07 0.02,0.14 0.05,0.21l-0 0c0,0 0.36,-0.66 0.75,-0.39 -0.03,0 -0.27,-0.08 -0.5,0.27l0 0c0.02,0.01 0.04,0.01 0.05,0.01 0.03,0 0.06,-0.01 0.09,-0.03 0.01,-0.01 0.02,-0.01 0.03,-0.01 0.03,0 0.06,0.02 0.07,0.06 0.01,0.05 -0.1,0.02 -0.12,0.08 0.08,0.04 0.17,0.07 0.26,0.07 0.06,0 0.12,-0.01 0.18,-0.03l0.11 -0.04c-0.02,-0.11 -0.07,-0.11 -0.07,-0.11 -0.06,0.07 -0.09,0.04 -0.09,0.04 0.04,-0.09 0.03,-0.13 0.03,-0.13 0.12,0 0.18,0.17 0.18,0.17 0.03,-0.02 0.05,-0.05 0.08,-0.07 0.02,-0.04 0.02,-0.08 0.02,-0.12 0,-0.04 -0.01,-0.08 -0.02,-0.12 -0.01,-0.03 -0.02,-0.06 -0.02,-0.09 0,-0.09 0.05,-0.16 0.12,-0.21 0.03,-0.01 0.05,-0.04 0.05,-0.07 0,-0 -0,-0.01 -0,-0.01l0 0z"/>
   <path id="Path_97" class="fil3" d="M11.41 9.33c-0.03,0.04 -0.07,0.06 -0.11,0.08 -0.11,0.03 -0.21,0.07 -0.23,0.19l-0.06 0c-0.07,-0.04 -0.14,-0.07 -0.22,-0.07 -0.05,0 -0.09,0.01 -0.13,0.02 -0.04,0.01 -0.08,0.01 -0.12,0.01 -0.04,0 -0.08,-0 -0.12,-0.01 -0.09,0 -0.12,-0.06 -0.1,-0.16 0.02,-0.13 0.12,-0.22 0.25,-0.22 0.03,0 0.06,0.01 0.09,0.02 0.16,0.05 0.33,0.07 0.5,0.08 0.02,0 0.03,0 0.05,0 0.08,0 0.17,-0.03 0.23,-0.09 0.01,0.02 0.02,0.04 0.02,0.07 0,0.03 -0.01,0.06 -0.03,0.08l-0 0z"/>
   <path id="Path_98" class="fil3" d="M11.24 10.17c0,0.07 -0.05,0.09 -0.1,0.09l-0.38 0c-0.03,-0 -0.06,-0.01 -0.09,-0.01 -0.15,0 -0.3,0.04 -0.42,0.12 -0.04,0.02 -0.08,0.04 -0.13,0.05 -0.05,-0.03 -0.09,-0.08 -0.11,-0.14 0.02,0 0.03,0 0.05,0 0.16,0 0.31,-0.05 0.45,-0.13 0.08,-0.06 0.18,-0.08 0.28,-0.08 0.06,0 0.12,0.01 0.18,0.03 0.03,0.01 0.06,0.01 0.09,0.01 0.03,0 0.06,-0 0.09,-0.01 0.06,0 0.1,0.01 0.1,0.08z"/>
   <path id="Path_99" class="fil3" d="M11.2 10.65c-0.06,-0.04 -0.14,-0.06 -0.22,-0.06 -0.08,0 -0.15,0.02 -0.22,0.06 -0.07,0.03 -0.15,0.05 -0.23,0.05 -0.01,0 -0.03,-0 -0.04,-0 -0,0 -0,0 -0,0 -0.06,0 -0.12,-0.04 -0.13,-0.1 0,-0.07 0.05,-0.09 0.1,-0.11 0.08,-0.04 0.16,-0.07 0.25,-0.07 0.06,0 0.11,0.01 0.17,0.03 0.03,0.01 0.07,0.01 0.1,0.01 0.03,0 0.07,-0.01 0.1,-0.01 0.17,-0.03 0.2,0.01 0.12,0.2z"/>
   <path id="Path_100" class="fil3" d="M10.88 8.02c-0.04,0.07 -0.02,0.16 -0.08,0.24 -0.15,-0.18 -0.27,-0.39 -0.36,-0.6 0.04,-0.04 0.06,-0.03 0.09,0 0.1,0.06 0.19,0.13 0.29,0.2 0.05,0.02 0.08,0.07 0.08,0.12 0,0.02 -0,0.03 -0.01,0.05l0 -0z"/>
  </g>
 </g>
</svg>
