<svg width="388" height="72" viewBox="0 0 388 72" fill="none" xmlns="http://www.w3.org/2000/svg">
<g clip-path="url(#clip0_224_7675)">
<path d="M175.982 0H220.904C222.279 0 223.598 0.572522 224.569 1.59163C225.542 2.61072 226.088 3.99296 226.088 5.43412V66.5556C226.09 67.2702 225.956 67.978 225.697 68.6387C225.437 69.2994 225.055 69.8998 224.574 70.4055C224.092 70.9113 223.52 71.3125 222.89 71.586C222.26 71.8597 221.586 72.0003 220.904 72H175.982C175.302 72.0003 174.628 71.8601 173.999 71.5872C173.37 71.3145 172.798 70.9144 172.317 70.41C171.836 69.9056 171.454 69.3068 171.193 68.6475C170.932 67.9884 170.798 67.2819 170.798 66.5684V5.43412C170.798 3.99296 171.344 2.61072 172.317 1.59163C173.289 0.572522 174.608 0 175.982 0Z" fill="white"/>
<path d="M222.634 28.2639V35.3145C222.634 36.155 222.315 36.961 221.749 37.5554C221.181 38.1496 220.412 38.4835 219.61 38.4835H177.279C176.882 38.4839 176.489 38.4022 176.122 38.2431C175.754 38.0839 175.421 37.8505 175.139 37.5563C174.859 37.262 174.636 36.9125 174.484 36.5278C174.332 36.1432 174.254 35.7309 174.254 35.3145V6.79284C174.254 5.95211 174.573 5.14606 175.14 4.55181C175.708 3.95756 176.477 3.62378 177.279 3.62378H219.61C220.412 3.62378 221.181 3.95766 221.749 4.55201C222.315 5.14636 222.634 5.95241 222.634 6.79284V13.5779C222.217 13.1248 221.68 12.8127 221.091 12.6817C220.504 12.5507 219.892 12.6069 219.334 12.8428C218.777 13.0788 218.3 13.4839 217.963 14.0062C217.628 14.5284 217.448 15.1441 217.448 15.774C217.448 16.404 217.628 17.0196 217.963 17.5418C218.3 18.0641 218.777 18.4693 219.334 18.7052C219.892 18.9412 220.504 18.9973 221.091 18.8664C221.68 18.7354 222.217 18.4233 222.634 17.9701V28.2639ZM186.255 28.2639L186.841 30.0515C185.829 29.5075 182.557 31.0371 181.389 31.4482C181.071 31.1369 180.72 30.8644 180.344 30.6362C180.185 30.5892 180.017 30.582 179.855 30.6152C179.694 30.6485 179.542 30.7213 179.411 30.8277C179.34 30.7818 179.252 30.6592 179.104 30.8864C179.009 31.0346 179.058 31.0652 179.157 31.1418C179.097 31.2418 179.042 31.3449 178.992 31.4509C178.909 31.4279 178.844 31.3334 178.729 31.5581C178.614 31.7828 178.729 31.8135 178.836 31.8671C178.51 32.5668 177.964 32.9932 177.637 33.7159C177.532 33.6699 177.457 33.6215 177.35 33.9049C177.277 34.1091 177.35 34.1424 177.464 34.2063C177.413 34.3945 177.371 34.5854 177.34 34.7782C177.316 34.7701 177.292 34.7677 177.266 34.771C177.241 34.7744 177.217 34.7835 177.197 34.7976C177.176 34.8118 177.158 34.8307 177.144 34.853C177.132 34.8752 177.124 34.9003 177.121 34.9263C177.082 35.2124 177.121 35.2558 177.287 35.2736C177.287 35.3987 177.287 35.529 177.287 35.6822C177.381 36.1061 177.74 36.1929 177.947 36.0219C179.068 35.1256 179.93 34.5357 180.565 34.0607C182.23 33.8972 186.781 33.5729 188.118 33.4503C188.778 33.4963 190.749 31.7139 190.769 31.1061C190.801 30.16 190.781 29.2127 190.709 28.2691C190.654 27.5285 190.584 26.6985 190.518 25.5137L190.827 25.4089L190.852 22.9243L191.481 22.9599C191.481 22.9599 191.468 22.9599 191.551 22.6791C193.164 22.8604 196.2 23.3635 198.222 23.2179C198.403 23.2041 198.586 23.2342 198.755 23.306C198.924 23.3777 199.075 23.4891 199.196 23.6316C199.713 24.0861 203.482 24.5024 206.629 24.5253C206.721 24.8317 206.882 25.1106 207.098 25.339C207.314 25.5672 207.578 25.7382 207.869 25.8379C207.938 25.8788 207.989 25.8379 208.17 25.7486C208.269 25.8584 208.326 25.9171 208.51 25.8175C208.659 25.7333 208.656 25.6617 208.605 25.5366L208.756 25.437C208.852 25.5391 208.937 25.5954 209.078 25.4983C209.219 25.4012 209.232 25.3655 209.129 25.2021C209.451 24.9825 211.292 23.5371 211.292 23.5371C211.36 23.606 211.4 23.6443 211.441 23.6367C211.546 23.5891 211.639 23.5144 211.709 23.4196C211.731 23.3635 211.68 23.2996 211.621 23.2256L211.938 22.9702C211.992 23.0442 212.038 23.0851 212.079 23.0724C212.163 23.0339 212.231 22.9661 212.272 22.8809C212.291 22.8348 212.238 22.7608 212.189 22.6919L212.399 22.4365C212.316 22.0534 211.956 22.0968 211.636 22.1198C210.844 22.1837 208.578 22.5387 207.716 22.4952C206.098 21.9334 199.952 19.5228 199.588 19.3823C199.219 19.2373 198.825 19.1746 198.431 19.1985C196.774 18.2689 193.642 17.5564 193.356 17.4722C193.274 17.4492 193.305 17.3062 193.279 17.1989C192.463 17.047 191.637 16.9616 190.808 16.9436C191.074 15.5795 191.244 14.1969 191.317 12.8067C191.467 12.9166 191.642 12.9843 191.824 13.0033C192.211 13.0467 192.618 12.748 193.111 12.5412C193.368 12.4314 193.405 12.5896 193.551 12.4951C193.88 12.2806 194.039 11.6575 194.525 11.2797C194.832 11.0243 195.152 11.1008 195.284 10.8047C195.503 10.3093 195.395 9.9619 195.303 9.43588C195.166 8.64423 195.003 8.1029 194.402 7.60234C193.996 7.23622 193.475 7.04216 192.94 7.05848C192.226 7.05848 191.029 7.41345 190.377 9.14479C189.814 8.7587 189.213 8.4384 188.584 8.18969C187.156 7.64837 182.695 8.66978 182.195 8.92518C182.219 9.07716 182.232 9.23087 182.232 9.38478C182.232 9.38478 181.687 9.40273 181.475 9.72698C180.424 11.3231 179.221 13.5575 179.221 13.5575C179.01 13.6132 178.816 13.7216 178.655 13.8731C178.493 14.0248 178.369 14.2153 178.293 14.4282C178.078 14.8981 177.883 14.9594 177.438 15.2582C177.131 15.368 177.242 15.723 177.418 15.7102C177.766 15.6503 178.091 15.4863 178.354 15.2377C178.178 15.8047 177.539 16.2056 177.523 16.4328C177.586 16.7444 178.273 17.1709 179.164 16.4584C179.461 16.265 179.725 16.0227 179.947 15.7408C180.062 15.6004 180.12 14.9747 180.246 14.5355C180.444 14.441 181.952 13.0033 183.036 11.8516C183.036 11.8516 185.256 11.3818 186.315 11.2081C186.315 11.2081 185.492 11.6192 184.673 11.9155C183.299 17.2576 183.407 19.6096 184.127 19.8522C183.568 20.9094 184.859 25.243 185.538 27.0637L185.875 27.1224L186.255 28.2716" fill="#E31018"/>
<path d="M174.254 49.7839H178.602C180.339 49.7839 181.282 49.4979 181.282 47.3911C181.282 46.3161 181.075 45.55 179.861 45.4682V45.3763C180.943 45.195 181.151 44.4825 181.151 43.3947C181.151 41.5178 180.188 41.196 178.56 41.196H174.254V49.7839ZM176.445 43.0755H178.281C178.892 43.0959 178.968 43.2926 178.968 43.8084C178.968 44.4953 178.782 44.6332 178.017 44.6332H176.445V43.0755ZM176.445 46.2241H178.14C178.848 46.2241 179.099 46.3263 179.099 47.0361C179.099 47.7461 178.804 47.907 178.095 47.907H176.445V46.2241Z" fill="black"/>
<path d="M187.217 41.2029V46.7826C187.217 47.7862 186.9 47.8679 185.972 47.8679C185.044 47.8679 184.53 47.8551 184.53 46.8822V41.2029H182.337V46.9282C182.337 48.989 182.686 49.8597 185.962 49.8597C188.367 49.8597 189.393 49.2188 189.393 46.9282V41.2029H187.2" fill="black"/>
<path d="M192.797 43.1972H192.883L195.2 49.7882H198.923V41.2029H196.74L196.871 47.7989H196.784L194.435 41.2029H190.744V49.7882H192.927L192.797 43.1972Z" fill="black"/>
<path d="M200.149 49.7831H204.595C206.877 49.7831 207.599 48.6748 207.599 46.3255V44.5379C207.599 42.0966 206.583 41.2029 204.301 41.2029H200.149V49.7831ZM202.341 43.1896H204.254C205.018 43.1896 205.358 43.4168 205.358 44.5303V46.3178C205.358 47.2244 205.063 47.7862 204.254 47.7862H202.341V43.1896Z" fill="black"/>
<path d="M210.937 43.0824H214.662V41.2029H208.751V49.7882H214.738V47.9113H210.937V46.2412H214.433V44.6503H210.937V43.0824Z" fill="black"/>
<path d="M218.953 44.502C218.372 44.456 218.055 44.433 218.055 43.7359C218.055 43.2532 218.156 43.003 219.335 43.003C220.21 43.003 220.553 43.003 220.553 43.884H222.651V43.529C222.651 41.1592 221.121 41.1235 219.33 41.1235C217.189 41.1235 215.868 41.2843 215.868 43.7461C215.868 46.2077 217.047 46.1976 219.067 46.3457L219.554 46.3814C220.58 46.4504 220.701 46.4376 220.701 47.1833C220.701 47.929 220.371 47.9954 219.335 47.9954C218.266 47.9954 217.959 47.9034 217.959 47.0096H215.861C215.861 49.8187 217.25 49.8723 219.335 49.8723C222.94 49.8723 222.885 48.4754 222.885 47.0633C222.885 45.0944 222.285 44.765 219.859 44.5914L218.953 44.5224" fill="black"/>
<path d="M178.515 51.6187H174.254V68.3655H184.581V64.4788H178.515V51.6187Z" fill="black"/>
<path d="M190.723 51.6187H186.462V68.3655H190.723V51.6187Z" fill="black"/>
<path d="M207.314 56.9333C207.314 51.6191 204.374 51.5962 200.249 51.5962C195.562 51.5962 192.665 52.4235 192.665 57.9599V62.301C192.665 67.7275 195.221 68.6213 200.249 68.6213C205.958 68.6213 207.314 67.5999 207.314 61.9435V59.0094H200.05V62.1146H202.988C202.988 64.4359 202.413 64.9491 200.242 64.9491C198.025 64.9491 197.046 64.6376 197.046 61.6652V58.9429C197.089 56.2412 197.175 55.2581 200.242 55.2581C201.519 55.2581 202.905 55.2351 202.988 56.9333H207.314Z" fill="black"/>
<path d="M218.573 65.485L219.397 68.3655H223.743L218.887 51.6187H212.417L207.624 68.3655H212.056L212.843 65.485H218.573ZM217.723 62.224H213.761L215.698 54.9691H215.742L217.723 62.224Z" fill="black"/>
<path d="M338.157 0H382.843C384.211 0 385.523 0.572522 386.489 1.59163C387.457 2.61072 388 3.99296 388 5.43412V66.5556C388.002 67.2702 387.869 67.978 387.611 68.6387C387.353 69.2994 386.973 69.8998 386.494 70.4055C386.015 70.9113 385.446 71.3125 384.819 71.586C384.192 71.8597 383.522 72.0003 382.843 72H338.157C337.48 72.0003 336.81 71.8601 336.184 71.5872C335.558 71.3145 334.99 70.9144 334.51 70.41C334.032 69.9056 333.652 69.3068 333.393 68.6475C333.134 67.9884 333 67.2819 333 66.5684V5.43412C333 3.99296 333.543 2.61072 334.51 1.59163C335.478 0.572522 336.79 0 338.157 0Z" fill="white"/>
<path d="M344.961 6.85122C344.961 6.85122 348.36 5.80913 351.932 6.90239C351.932 6.90239 352.695 4.05505 353.041 3.57183L351.858 4.79212L351.759 3.16558L350.035 4.91955L348.459 2.91113L346.961 4.91955L345.162 3.16558L345.064 4.76704L343.931 3.57183C343.931 3.57183 344.715 5.83472 344.961 6.85122Z" fill="#2F083B"/>
<path d="M345.601 6.29213L346.808 6.08844L345.601 5.14819V6.29213Z" fill="white"/>
<path d="M351.291 6.29213L350.085 6.08844L351.291 5.14819V6.29213Z" fill="white"/>
<path d="M348.438 4.91919L349.419 6.01195H347.522L348.438 4.91919Z" fill="white"/>
<path d="M359.765 41.2494C359.765 44.1713 357.47 46.5402 354.638 46.5402C351.807 46.5402 349.512 44.1713 349.512 41.2494C349.512 38.327 351.807 35.9587 354.638 35.9587C357.47 35.9587 359.765 38.327 359.765 41.2494Z" fill="white"/>
<path d="M353.836 38.6279C353.891 39.1617 353.613 41.4686 353.613 41.4686L356.016 42.4792C356.514 42.1551 357.568 40.6679 357.568 40.6679C357.53 39.7146 356.478 38.1703 356.478 38.1703C355.517 38.0559 353.836 38.6279 353.836 38.6279ZM357.465 45.2133L357.678 44.2331L356.016 43.89C356.016 43.89 355.055 44.9195 354.298 45.3008L354.722 46.0748C353.505 46.0641 352.397 45.5844 351.559 44.8016L352.634 44.7861L352.542 42.2694C351.748 42.1169 350.38 41.2208 350.38 41.2208L350.123 42.3153C350.034 41.9399 349.986 41.5479 349.986 41.1439C349.986 40.2586 350.213 39.428 350.61 38.7094L350.823 39.1045L353.022 37.9987L353.115 36.7976L352.782 36.6576C353.386 36.3727 354.057 36.2125 354.766 36.2125C355.59 36.2125 356.366 36.4282 357.043 36.8077L356.514 37.0263L358.191 37.7074C358.617 38.1596 358.96 38.6952 359.193 39.2886L358.454 40.687L359.257 42.833C358.912 43.8066 358.279 44.6365 357.465 45.2133ZM354.457 35.8062C351.43 35.8062 348.976 38.3383 348.976 41.4621C348.976 44.5859 351.43 47.118 354.457 47.118C357.484 47.118 359.938 44.5859 359.938 41.4621C359.938 38.3383 357.484 35.8062 354.457 35.8062Z" fill="#EB2D2E"/>
<path d="M354.651 38.836L356.452 38.637L357.339 40.4285L356.258 39.088L354.651 38.836Z" fill="white"/>
<path d="M356.4 44.2505L357.456 44.5954L357.095 45.684L357.018 44.9404L356.4 44.2505Z" fill="white"/>
<path d="M349 6.92757L348.902 8.45278L350.01 7.08008C350.01 7.08008 351.464 6.74937 352.424 8.0715C352.424 8.0715 353.804 7.18192 353.952 9.11409C353.952 9.11409 353.188 8.35093 352.744 9.13917C352.301 9.92742 352.498 9.92742 352.744 9.82547C352.99 9.72424 353.286 9.41922 353.705 9.72424C353.705 9.72424 353.213 10.5632 353.828 11.3257C354.444 12.0884 355.183 13.156 355.084 14.1219C355.084 14.1219 354.691 13.6386 354.123 13.9187C354.123 13.9187 354.962 14.7063 355.331 15.5708C355.7 16.4353 356.316 17.7062 356.858 18.0876L355.282 18.1131C355.282 18.1131 356.366 19.7146 358.583 20.8842C360.799 22.0531 361.908 22.8414 362.77 23.5534C363.633 24.2647 365.307 25.1549 367.13 25.3581C368.953 25.5613 371.023 26.0444 371.934 27.4428C371.934 27.4428 373.585 27.4172 374.521 26.197C375.457 24.9767 374.298 23.4009 371.12 23.3497C367.943 23.299 367.549 23.299 367.549 23.299C367.549 23.299 365.948 23.1721 364.765 22.3839C363.583 21.5956 363.608 19.8166 366.047 18.9521C366.367 18.8251 366.441 18.7232 366.49 18.4944C366.539 18.2657 366.687 17.4518 368.189 17.3249C368.189 17.3249 367.746 18.0876 368.362 17.7062C368.978 17.3249 370.382 16.9435 371.909 17.9349C371.909 17.9349 371.047 17.8331 370.653 18.3926C370.259 18.9521 369.125 20.9092 367.278 20.1978C366.687 19.8415 366.219 19.5621 365.455 20.2741C364.691 20.9855 365.283 22.1294 367.106 22.1294C368.929 22.1294 365.899 22.1294 371.712 22.1294C377.526 22.1294 378.093 27.4428 372.796 28.8662C372.796 28.8662 373.56 30.544 373.535 32.4249C373.511 34.3065 373.461 36.5687 373.461 36.5687C373.461 36.5687 373.437 37.3313 373.806 37.8902C374.175 38.4497 374.644 39.3142 374.619 39.6192C374.594 39.9243 374.594 42.9747 375.333 43.9406C376.072 44.907 376.491 45.3133 376.491 45.5421C376.491 45.7709 376.491 46.5336 376.491 46.5336H372.353V45.1864C372.353 45.1864 372.87 44.22 372.944 44.1188C373.018 44.0168 373.166 43.6099 372.845 42.8985C372.525 42.1865 371.515 40.0262 371.343 39.8736C371.171 39.7211 368.387 36.5687 367.721 35.6279C367.057 34.6878 366.342 34.7384 366.095 36.0605C365.849 37.382 366.465 38.4246 366.465 38.4246L367.327 39.5429C367.327 39.5429 368.337 40.6106 367.771 41.4495C367.204 42.2884 366.293 43.6355 366.293 43.6355C366.293 43.6355 365.726 44.6781 365.751 44.9576L364.297 46.5336H360.331C360.331 46.5336 360.307 44.4745 361.809 44.4745C363.312 44.4745 363.755 43.9662 364.052 43.3054C364.347 42.6441 364.691 41.322 364.495 41.1188C364.297 40.9157 362.845 39.7717 362.598 39.5429C362.351 39.3142 360.406 37.6363 359.888 35.6792L357.45 35.8567L357.031 36.6193H355.454C355.454 36.6193 355.011 35.9329 354.37 36.5944H353.385L353.016 36.1618H352.646C352.646 36.1618 352.128 36.8481 351.611 36.0093C351.611 36.0093 349.419 37.1281 348.607 40.2037C347.793 43.2799 350.133 46.0759 350.133 46.0759L349.813 46.5336H344.763C344.763 46.5336 344.69 44.3731 346.439 44.3731C347.719 44.3731 347.768 43.8393 347.768 43.8393C347.768 43.8393 347.818 42.7204 347.646 42.2884C347.473 41.8565 346.832 40.0511 346.758 37.1026C346.758 37.1026 345.28 35.6536 345.182 31.256C345.182 31.256 344.32 32.4762 342.941 32.0185C342.941 32.0185 344.763 29.9083 344.099 26.7815C344.099 26.7815 343.507 28.0017 342.25 28.0273C342.25 28.0273 342.867 27.214 342.99 26.4514C343.112 25.6887 342.891 23.1971 342.226 25.1799C342.226 25.1799 340.674 23.0446 342.325 19.0283C342.325 19.0283 341.167 19.6128 340.699 21.2399C340.699 21.2399 339.812 17.7313 342.079 16.0028C342.079 16.0028 340.576 16.0285 340.281 15.469C340.281 15.469 341.857 14.7063 342.152 12.6472C342.448 10.5881 343.112 9.01225 344.468 10.2069C344.468 10.2069 344.074 8.02083 342.817 9.29169C342.817 9.29169 342.916 6.95315 344.789 8.60529C344.789 8.60529 344.763 7.94458 344.419 7.69012C344.419 7.69012 345.773 6.8769 349 6.92757Z" fill="#2F083B"/>
<path d="M348.359 21.2139C348.359 21.2139 347.842 22.2566 347.275 22.7903C346.71 23.3242 345.97 24.6207 346.069 25.3576C346.069 25.3576 345.059 23.7055 346.216 22.8154C347.374 21.9259 348.359 21.2139 348.359 21.2139Z" fill="white"/>
<path d="M350.232 20.7822C350.232 20.7822 349.986 22.1293 349.296 23.2483C348.607 24.3666 347.745 26.1463 348.164 27.7984C348.164 27.7984 348.78 25.7137 349.863 25.3074C349.863 25.3074 350.749 27.4678 349.444 29.5781C349.444 29.5781 350.996 29.2731 351.563 26.6038C352.129 23.9347 352.646 23.172 353.189 23.0445C353.189 23.0445 352.646 25.2311 353.435 25.8156C353.435 25.8156 353.46 24.7223 354.051 23.8584C354.642 22.9939 355.479 20.9854 354.469 18.8757C354.469 18.8757 354.519 21.1892 353.509 21.8499C352.499 22.5107 350.898 23.5533 350.651 25.4087C350.651 25.4087 349.789 24.7479 350.207 23.1464C350.627 21.5449 350.356 21.0367 350.232 20.7822Z" fill="white"/>
<path d="M348.236 18.8495V17.5787C348.236 17.5787 348.827 17.6293 348.827 18.8752L349.813 18.1888C349.813 18.1888 350.404 17.4768 350.281 16.7398C350.281 16.7398 349.443 16.4091 349.295 16.0278H347.669C347.669 16.0278 347.063 16.6379 346.541 16.7398V17.7562L348.236 18.8495Z" fill="white"/>
<path d="M348.238 14.6301V15.342L347.153 16.054C347.153 16.054 345.626 16.079 345.971 14.9864C346.315 13.893 346.709 13.5373 347.227 13.893C347.744 14.2487 348.238 14.6301 348.238 14.6301Z" fill="white"/>
<path d="M351.884 11.6056C351.711 11.1737 351.415 11.4787 351.169 11.7838C350.923 12.0889 350.504 11.8851 350.184 11.8088C349.863 11.7326 349.716 12.4701 349.716 12.4701H349.568V11.5551C349.568 11.5551 349.691 11.4531 350.085 11.0974C350.479 10.7411 351.095 11.1481 351.095 11.1481H351.81C352.056 9.11459 349.469 9.03833 349.469 9.03833L348.484 10.4361C348.484 10.4361 347.646 9.2671 347.548 9.06341C347.449 8.86023 345.996 9.44469 345.996 9.44469V10.2836L344.863 10.8431V11.1225H345.898C346.267 10.7924 346.76 11.0974 346.76 11.0974L347.498 11.6819V13.4866C348.459 13.029 349.814 13.5122 349.814 13.5122L349.801 13.8554C349.78 13.8673 349.76 13.8787 349.738 13.8935C349.221 14.2493 348.728 14.6306 348.728 14.6306V15.3426L349.812 16.0545C349.812 16.0545 351.34 16.0795 350.995 14.9869C350.855 14.5448 350.707 14.2254 350.547 14.0229L350.578 13.5378C350.578 13.5378 351.563 12.9022 351.884 12.699C352.204 12.4952 352.056 12.0376 351.884 11.6056Z" fill="white"/>
<path d="M346.907 12.6979C346.907 12.6979 346.341 12.3673 345.921 12.6467C345.503 12.9267 344.714 13.0793 344.714 12.5198C344.714 11.9603 344.837 11.2739 344.837 11.2739H345.109L345.798 11.8334C345.798 11.8334 345.946 12.0116 346.216 11.859C346.488 11.7065 346.907 11.6809 346.907 12.0622C346.907 12.4435 346.907 12.6979 346.907 12.6979Z" fill="white"/>
<path d="M360.406 31.9424C360.406 31.9424 359.594 27.6967 361.269 27.7986C361.269 27.7986 360.678 31.6117 363.929 30.7222C367.181 29.8321 367.575 31.1798 367.821 31.7899C368.067 32.4 368.412 32.4 368.461 31.6624C368.511 30.9254 368.387 29.7051 368.043 29.0951C367.698 28.4849 367.969 28.3324 368.609 28.6631C369.25 28.9931 370.949 30.6966 371.368 32.2725C371.787 33.849 372.477 33.6708 372.551 32.2725C372.625 30.8748 371.935 27.1378 367.748 26.5278C363.56 25.9176 361.342 24.2399 360.283 23.4773C359.223 22.7146 356.737 21.4944 356.194 23.426C355.824 25.2819 356.588 26.5784 356.588 26.5784C356.588 26.5784 356.933 27.773 356.613 28.358C356.292 28.9426 356.022 29.4764 356.416 29.7308C356.81 29.9846 357.106 30.3409 356.49 30.7472C355.874 31.1542 354.814 31.8405 355.628 32.0187C356.44 32.1963 356.736 32.5525 355.603 33.0351C355.603 33.0351 353.829 33.0351 353.435 33.0351C353.041 33.0351 352.13 33.4165 351.883 34.5353C351.637 35.6537 352.573 35.4756 353.165 34.891C353.165 34.891 352.942 35.7299 353.509 35.7299C354.076 35.7299 354.224 35.7299 354.224 35.7299C354.224 35.7299 354.913 35.5774 355.16 34.9417C355.16 34.9417 355.11 35.7299 355.603 35.7299C356.096 35.7299 356.416 35.7299 356.416 35.7299C356.416 35.7299 356.737 35.6537 356.835 35.1961C356.933 34.7385 357.426 34.4079 357.968 34.4079L360.406 31.9424Z" fill="white"/>
<path d="M342.825 50.6196C342.761 50.4206 342.675 50.2615 342.566 50.1429C342.458 50.0244 342.331 49.938 342.185 49.8844C342.038 49.8308 341.887 49.804 341.73 49.804H341.472C341.434 49.804 341.396 49.804 341.359 49.804C341.321 49.804 341.288 49.8075 341.258 49.8153C341.251 50.367 341.247 50.9091 341.244 51.4418C341.241 51.9745 341.239 52.5089 341.239 53.0451C341.426 53.0451 341.619 53.026 341.817 52.9873C342.015 52.9492 342.195 52.8706 342.36 52.752C342.525 52.6335 342.659 52.4625 342.764 52.2402C342.869 52.0179 342.921 51.7231 342.921 51.3554C342.921 51.0641 342.888 50.8192 342.825 50.6196ZM339.572 50.6399C339.556 50.1471 339.533 49.6526 339.503 49.1558C339.629 49.1712 339.766 49.1843 339.916 49.1957C340.064 49.2069 340.23 49.2129 340.417 49.2129C340.677 49.2129 340.946 49.2034 341.226 49.1843C341.504 49.1652 341.777 49.1558 342.045 49.1558C342.572 49.1558 342.985 49.1957 343.282 49.2761C343.579 49.3565 343.813 49.4733 343.985 49.6264C344.222 49.826 344.397 50.0482 344.508 50.2931C344.62 50.538 344.676 50.8329 344.676 51.1773C344.676 51.614 344.605 51.9894 344.464 52.3034C344.322 52.6173 344.123 52.8724 343.867 53.0671C343.61 53.2626 343.307 53.4062 342.957 53.498C342.608 53.5903 342.225 53.6362 341.808 53.6362H341.239C341.239 54.2075 341.245 54.7771 341.257 55.3443C341.268 55.9121 341.293 56.474 341.332 57.0299C341.205 57.0168 341.068 57.0108 340.919 57.0108C340.771 57.0108 340.604 57.0108 340.417 57.0108C340.231 57.0108 340.064 57.0108 339.916 57.0108C339.766 57.0108 339.629 57.0168 339.503 57.0299C339.533 56.5562 339.556 56.073 339.572 55.5797C339.587 55.0869 339.596 54.5233 339.596 53.8894V52.3302C339.596 51.6963 339.587 51.1326 339.572 50.6399Z" fill="#2F083B"/>
<path d="M349.19 50.504C349.124 50.305 349.022 50.1543 348.886 50.0506C348.749 49.9476 348.572 49.8809 348.354 49.8498C348.136 49.8194 347.875 49.804 347.572 49.804C347.547 50.8449 347.536 51.8851 347.536 52.926C347.58 52.9337 347.623 52.9397 347.663 52.9433C347.704 52.9468 347.743 52.9486 347.78 52.9486C348.269 52.9486 348.643 52.8134 348.902 52.5417C349.162 52.27 349.291 51.8589 349.291 51.3078C349.291 50.9712 349.257 50.703 349.19 50.504ZM347.536 53.4145V53.8846C347.536 54.5197 347.544 55.0846 347.558 55.5779C347.574 56.0713 347.597 56.5556 347.627 57.0299C347.501 57.0168 347.364 57.0108 347.215 57.0108C347.067 57.0108 346.899 57.0108 346.713 57.0108C346.528 57.0108 346.36 57.0108 346.212 57.0108C346.063 57.0108 345.925 57.0168 345.799 57.0299C345.83 56.5562 345.852 56.073 345.868 55.5797C345.884 55.0869 345.891 54.5233 345.891 53.8894V52.3302C345.891 51.6963 345.884 51.1326 345.868 50.6399C345.852 50.1471 345.83 49.6526 345.799 49.1558C345.924 49.1712 346.063 49.1843 346.211 49.1957C346.359 49.2069 346.526 49.2129 346.71 49.2129C346.911 49.2129 347.139 49.2034 347.394 49.1843C347.65 49.1652 347.967 49.1558 348.345 49.1558C348.627 49.1558 348.866 49.1635 349.067 49.1784C349.267 49.1938 349.44 49.2171 349.584 49.2475C349.728 49.2778 349.855 49.3183 349.962 49.3678C350.07 49.4172 350.172 49.4768 350.268 49.5454C350.491 49.7134 350.666 49.9219 350.796 50.1697C350.926 50.4182 350.99 50.7144 350.99 51.0581C350.99 51.6157 350.842 52.0704 350.546 52.422C350.249 52.7735 349.823 53.0218 349.267 53.1672C349.623 53.8167 350.005 54.4643 350.413 55.1102C350.82 55.756 351.228 56.3959 351.637 57.0299C351.466 57.0168 351.299 57.0108 351.136 57.0108C350.972 57.0108 350.806 57.0108 350.636 57.0108C350.465 57.0108 350.296 57.0108 350.129 57.0108C349.962 57.0108 349.794 57.0168 349.623 57.0299L347.635 53.4145H347.536Z" fill="#2F083B"/>
<path d="M352.54 50.6399C352.528 50.1471 352.51 49.6526 352.484 49.1558C352.818 49.1635 353.149 49.1748 353.474 49.1897C353.801 49.2052 354.132 49.2129 354.466 49.2129C355.014 49.2129 355.501 49.2069 355.929 49.1957C356.354 49.1843 356.642 49.1712 356.791 49.1558C356.76 49.2773 356.746 49.4369 356.746 49.6341C356.746 49.7557 356.749 49.851 356.757 49.9189C356.764 49.9875 356.775 50.0637 356.791 50.1471C356.575 50.1316 356.34 50.1167 356.084 50.1013C355.828 50.0858 355.579 50.0708 355.339 50.0554C355.097 50.0399 354.881 50.0286 354.688 50.0209C354.495 50.0131 354.358 50.0095 354.277 50.0095C354.247 50.4302 354.231 50.8472 354.227 51.26C354.223 51.6736 354.221 52.0906 354.221 52.5113C354.703 52.5035 355.139 52.4916 355.528 52.4756C355.917 52.4594 356.324 52.4398 356.746 52.416C356.723 52.5464 356.709 52.6466 356.702 52.7156C356.694 52.7848 356.69 52.8575 356.69 52.9343C356.69 52.9963 356.696 53.0594 356.707 53.1249C356.719 53.1905 356.73 53.2846 356.746 53.4074C355.901 53.3436 355.059 53.312 354.221 53.312C354.221 53.5563 354.218 53.8006 354.212 54.0448C354.206 54.2891 354.203 54.5341 354.203 54.7784C354.203 55.2746 354.215 55.7518 354.239 56.2101C354.662 56.2101 355.086 56.1981 355.508 56.1743C355.931 56.1504 356.356 56.1112 356.787 56.0557C356.772 56.1397 356.761 56.2159 356.753 56.2851C356.746 56.3536 356.742 56.449 356.742 56.5711C356.742 56.6938 356.746 56.7891 356.753 56.8577C356.761 56.9268 356.772 56.984 356.787 57.0299C356.586 57.0233 356.34 57.0185 356.047 57.0156C355.754 57.012 355.352 57.0108 354.841 57.0108C354.388 57.0108 354.02 57.0108 353.74 57.0108C353.465 57.0108 353.245 57.0108 353.078 57.0108C352.912 57.0108 352.786 57.012 352.701 57.0156C352.615 57.0185 352.543 57.0233 352.484 57.0299C352.51 56.5562 352.528 56.073 352.54 55.5797C352.552 55.0869 352.558 54.5233 352.558 53.8894V52.3302C352.558 51.6963 352.552 51.1326 352.54 50.6399Z" fill="#2F083B"/>
<path d="M358.866 54.4626C358.805 55.3181 358.747 56.1743 358.688 57.0299C358.598 57.0168 358.509 57.0108 358.42 57.0108C358.332 57.0108 358.247 57.0108 358.165 57.0108C358.076 57.0108 357.989 57.0108 357.903 57.0108C357.818 57.0108 357.731 57.0168 357.642 57.0299C357.879 55.7155 358.091 54.409 358.276 53.1101C358.461 51.8112 358.632 50.4927 358.788 49.1558C358.87 49.1712 358.946 49.1843 359.016 49.1957C359.087 49.2069 359.162 49.2129 359.244 49.2129C359.311 49.2129 359.381 49.2069 359.455 49.1957C359.529 49.1843 359.607 49.1712 359.689 49.1558C359.889 49.6139 360.098 50.0804 360.317 50.5541C360.535 51.0277 360.754 51.4996 360.974 51.9697C361.192 52.4398 361.41 52.8997 361.629 53.3507C361.848 53.8018 362.058 54.2295 362.258 54.6342C362.702 53.7785 363.146 52.8824 363.587 51.9464C364.028 51.0105 364.449 50.0804 364.85 49.1558C365.035 49.1938 365.194 49.2129 365.327 49.2129C365.454 49.2129 365.609 49.1938 365.794 49.1558C365.868 49.8129 365.948 50.5195 366.033 51.2762C366.119 52.0329 366.202 52.7717 366.284 53.4938C366.366 54.2158 366.447 54.8904 366.528 55.5165C366.61 56.1433 366.684 56.648 366.751 57.0299C366.603 57.0168 366.452 57.0108 366.3 57.0108C366.149 57.0108 365.999 57.0108 365.85 57.0108C365.702 57.0108 365.55 57.0108 365.394 57.0108C365.238 57.0108 365.083 57.0168 364.927 57.0299C364.89 56.2427 364.829 55.3908 364.744 54.4738C364.658 53.5569 364.571 52.6477 364.482 51.7457H364.46C364.037 52.6477 363.622 53.5337 363.215 54.4047C362.806 55.2758 362.402 56.1511 362.002 57.0299C361.965 57.0233 361.93 57.0185 361.897 57.0156C361.863 57.012 361.828 57.0108 361.791 57.0108C361.753 57.0108 361.719 57.012 361.685 57.0156C361.652 57.0185 361.616 57.0233 361.58 57.0299C361.179 56.1743 360.78 55.3181 360.384 54.4626C359.987 53.607 359.578 52.7395 359.155 51.8606H359.132C359.014 52.7395 358.925 53.607 358.866 54.4626Z" fill="#2F083B"/>
<path d="M368.154 50.6399C368.139 50.1471 368.115 49.6526 368.085 49.1558C368.211 49.1712 368.348 49.1843 368.497 49.1957C368.646 49.2069 368.813 49.2129 368.999 49.2129C369.186 49.2129 369.352 49.2069 369.501 49.1957C369.65 49.1843 369.788 49.1712 369.914 49.1558C369.883 49.6526 369.86 50.1471 369.845 50.6399C369.829 51.1326 369.821 51.6963 369.821 52.3302V53.8894C369.821 54.5233 369.829 55.0869 369.845 55.5797C369.86 56.073 369.883 56.5562 369.914 57.0299C369.788 57.0168 369.65 57.0108 369.501 57.0108C369.352 57.0108 369.186 57.0108 368.999 57.0108C368.813 57.0108 368.646 57.0108 368.497 57.0108C368.348 57.0108 368.211 57.0168 368.085 57.0299C368.115 56.5562 368.139 56.073 368.154 55.5797C368.17 55.0869 368.178 54.5233 368.178 53.8894V52.3302C368.178 51.6963 368.17 51.1326 368.154 50.6399Z" fill="#2F083B"/>
<path d="M371.696 50.6399C371.683 50.1471 371.666 49.6526 371.641 49.1558C371.975 49.1635 372.305 49.1748 372.631 49.1897C372.958 49.2052 373.289 49.2129 373.622 49.2129C374.17 49.2129 374.658 49.2069 375.085 49.1957C375.511 49.1843 375.798 49.1712 375.947 49.1558C375.917 49.2773 375.902 49.4369 375.902 49.6341C375.902 49.7557 375.905 49.851 375.913 49.9189C375.921 49.9875 375.932 50.0637 375.947 50.1471C375.731 50.1316 375.496 50.1167 375.241 50.1013C374.985 50.0858 374.736 50.0708 374.495 50.0554C374.254 50.0399 374.037 50.0286 373.845 50.0209C373.651 50.0131 373.515 50.0095 373.433 50.0095C373.403 50.4302 373.386 50.8472 373.383 51.26C373.38 51.6736 373.378 52.0906 373.378 52.5113C373.86 52.5035 374.295 52.4916 374.685 52.4756C375.074 52.4594 375.48 52.4398 375.902 52.416C375.88 52.5464 375.866 52.6466 375.858 52.7156C375.851 52.7848 375.847 52.8575 375.847 52.9343C375.847 52.9963 375.853 53.0594 375.864 53.1249C375.874 53.1905 375.887 53.2846 375.902 53.4074C375.057 53.3436 374.216 53.312 373.378 53.312C373.378 53.5563 373.375 53.8006 373.369 54.0448C373.362 54.2891 373.36 54.5341 373.36 54.7784C373.36 55.2746 373.372 55.7518 373.396 56.2101C373.819 56.2101 374.241 56.1981 374.664 56.1743C375.087 56.1504 375.513 56.1112 375.943 56.0557C375.928 56.1397 375.917 56.2159 375.909 56.2851C375.902 56.3536 375.898 56.449 375.898 56.5711C375.898 56.6938 375.902 56.7891 375.909 56.8577C375.917 56.9268 375.928 56.984 375.943 57.0299C375.742 57.0233 375.496 57.0185 375.203 57.0156C374.911 57.012 374.508 57.0108 373.997 57.0108C373.544 57.0108 373.177 57.0108 372.897 57.0108C372.622 57.0108 372.402 57.0108 372.235 57.0108C372.068 57.0108 371.942 57.012 371.857 57.0156C371.773 57.0185 371.7 57.0233 371.641 57.0299C371.666 56.5562 371.683 56.073 371.696 55.5797C371.709 55.0869 371.715 54.5233 371.715 53.8894V52.3302C371.715 51.6963 371.709 51.1326 371.696 50.6399Z" fill="#2F083B"/>
<path d="M380.705 50.504C380.639 50.305 380.538 50.1543 380.4 50.0506C380.264 49.9476 380.086 49.8809 379.868 49.8498C379.65 49.8194 379.389 49.804 379.087 49.804C379.063 50.8449 379.05 51.8851 379.05 52.926C379.094 52.9337 379.137 52.9397 379.178 52.9433C379.218 52.9468 379.257 52.9486 379.295 52.9486C379.782 52.9486 380.157 52.8134 380.416 52.5417C380.675 52.27 380.805 51.8589 380.805 51.3078C380.805 50.9712 380.772 50.703 380.705 50.504ZM379.05 53.4145V53.8846C379.05 54.5197 379.058 55.0846 379.074 55.5779C379.088 56.0713 379.111 56.5556 379.143 57.0299C379.016 57.0168 378.878 57.0108 378.73 57.0108C378.581 57.0108 378.414 57.0108 378.228 57.0108C378.042 57.0108 377.875 57.0108 377.726 57.0108C377.578 57.0108 377.44 57.0168 377.313 57.0299C377.344 56.5562 377.368 56.073 377.382 55.5797C377.398 55.0869 377.406 54.5233 377.406 53.8894V52.3302C377.406 51.6963 377.398 51.1326 377.382 50.6399C377.368 50.1471 377.344 49.6526 377.313 49.1558C377.44 49.1712 377.576 49.1843 377.725 49.1957C377.873 49.2069 378.04 49.2129 378.225 49.2129C378.425 49.2129 378.653 49.2034 378.909 49.1843C379.164 49.1652 379.481 49.1558 379.859 49.1558C380.141 49.1558 380.382 49.1635 380.582 49.1784C380.782 49.1938 380.954 49.2171 381.098 49.2475C381.243 49.2778 381.369 49.3183 381.477 49.3678C381.583 49.4172 381.686 49.4768 381.782 49.5454C382.005 49.7134 382.18 49.9219 382.311 50.1697C382.44 50.4182 382.505 50.7144 382.505 51.0581C382.505 51.6157 382.356 52.0704 382.06 52.422C381.764 52.7735 381.337 53.0218 380.781 53.1672C381.137 53.8167 381.519 54.4643 381.927 55.1102C382.334 55.756 382.743 56.3959 383.15 57.0299C382.98 57.0168 382.813 57.0108 382.649 57.0108C382.487 57.0108 382.321 57.0108 382.149 57.0108C381.979 57.0108 381.81 57.0108 381.643 57.0108C381.477 57.0108 381.308 57.0168 381.137 57.0299L379.15 53.4145H379.05Z" fill="#2F083B"/>
<path d="M341.222 60.4506C341.207 59.958 341.184 59.4634 341.153 58.9666C341.279 58.982 341.418 58.9951 341.566 59.0065C341.715 59.0177 341.882 59.0237 342.068 59.0237C342.254 59.0237 342.421 59.0177 342.57 59.0065C342.719 58.9951 342.856 58.982 342.983 58.9666C342.952 59.4634 342.929 59.9585 342.913 60.4519C342.898 60.9451 342.89 61.5094 342.89 62.1439V63.7037C342.89 64.1398 342.892 64.5605 342.895 64.9656C342.898 65.3708 342.903 65.7223 342.908 66.0208C343.331 66.0208 343.754 66.0089 344.176 65.9851C344.599 65.9612 345.025 65.9219 345.456 65.8665C345.441 65.9505 345.43 66.0268 345.422 66.0959C345.415 66.1644 345.411 66.2597 345.411 66.3819C345.411 66.5047 345.415 66.5999 345.422 66.6684C345.43 66.7376 345.441 66.7948 345.456 66.8406C345.255 66.834 345.008 66.8293 344.716 66.8263C344.423 66.8228 344.021 66.8216 343.51 66.8216C343.057 66.8216 342.69 66.8216 342.409 66.8216C342.134 66.8216 341.914 66.8216 341.748 66.8216C341.582 66.8216 341.455 66.8228 341.37 66.8263C341.285 66.8293 341.213 66.834 341.153 66.8406C341.184 66.367 341.207 65.8838 341.222 65.3905C341.238 64.8977 341.246 64.3341 341.246 63.7002V62.1409C341.246 61.507 341.238 60.9434 341.222 60.4506Z" fill="#2F083B"/>
<path d="M346.66 60.4506C346.648 59.958 346.63 59.4634 346.605 58.9666C346.939 58.9743 347.268 58.9855 347.595 59.0005C347.922 59.016 348.253 59.0237 348.586 59.0237C349.134 59.0237 349.622 59.0177 350.048 59.0065C350.475 58.9951 350.762 58.982 350.91 58.9666C350.881 59.0881 350.866 59.2477 350.866 59.4449C350.866 59.5664 350.87 59.6618 350.877 59.7297C350.885 59.7983 350.896 59.8745 350.91 59.958C350.695 59.9424 350.46 59.9275 350.204 59.9121C349.949 59.8965 349.7 59.8817 349.459 59.8662C349.218 59.8506 349.001 59.8394 348.808 59.8317C348.616 59.8238 348.478 59.8203 348.397 59.8203C348.367 60.241 348.35 60.658 348.347 61.0709C348.343 61.4844 348.341 61.9014 348.341 62.3221C348.824 62.3144 349.26 62.3024 349.649 62.2864C350.038 62.2702 350.444 62.2506 350.867 62.2267C350.844 62.3572 350.829 62.4573 350.822 62.5264C350.814 62.5955 350.812 62.6682 350.812 62.7451C350.812 62.807 350.817 62.8702 350.827 62.9358C350.838 63.0013 350.851 63.0954 350.867 63.2182C350.021 63.1544 349.179 63.1228 348.341 63.1228C348.341 63.3671 348.339 63.6114 348.332 63.8556C348.327 64.0999 348.323 64.3448 348.323 64.5891C348.323 65.0855 348.336 65.5627 348.36 66.0208C348.783 66.0208 349.205 66.0089 349.628 65.9851C350.05 65.9612 350.477 65.9219 350.907 65.8665C350.892 65.9505 350.881 66.0268 350.874 66.0959C350.866 66.1644 350.863 66.2597 350.863 66.3819C350.863 66.5047 350.866 66.5999 350.874 66.6684C350.881 66.7376 350.892 66.7948 350.907 66.8406C350.707 66.834 350.46 66.8293 350.167 66.8263C349.874 66.8228 349.472 66.8216 348.961 66.8216C348.508 66.8216 348.141 66.8216 347.86 66.8216C347.586 66.8216 347.366 66.8216 347.199 66.8216C347.032 66.8216 346.907 66.8228 346.822 66.8263C346.736 66.8293 346.664 66.834 346.605 66.8406C346.63 66.367 346.648 65.8838 346.66 65.3905C346.673 64.8977 346.679 64.3341 346.679 63.7002V62.1409C346.679 61.507 346.673 60.9434 346.66 60.4506Z" fill="#2F083B"/>
<path d="M354.699 61.1205C354.506 61.5788 354.325 62.0315 354.154 62.4784C353.983 62.9253 353.816 63.3811 353.653 63.8469H355.688C355.525 63.3811 355.364 62.9253 355.204 62.4784C355.045 62.0315 354.877 61.5788 354.699 61.1205ZM358.636 66.8403C358.458 66.8272 358.289 66.8212 358.13 66.8212C357.97 66.8212 357.813 66.8212 357.658 66.8212C357.502 66.8212 357.344 66.8212 357.185 66.8212C357.025 66.8212 356.868 66.8272 356.712 66.8403C356.593 66.4674 356.471 66.0866 356.345 65.6981C356.218 65.3096 356.085 64.9218 355.945 64.5334C355.707 64.5268 355.47 64.522 355.232 64.519C354.995 64.5161 354.758 64.5143 354.52 64.5143C354.328 64.5143 354.135 64.5161 353.943 64.519C353.75 64.522 353.557 64.5268 353.364 64.5334C353.216 64.9218 353.079 65.3096 352.952 65.6981C352.827 66.0866 352.711 66.4674 352.608 66.8403C352.519 66.8272 352.432 66.8212 352.346 66.8212C352.261 66.8212 352.174 66.8212 352.086 66.8212C351.996 66.8212 351.907 66.8212 351.818 66.8212C351.729 66.8212 351.632 66.8272 351.529 66.8403C351.618 66.6419 351.737 66.3666 351.885 66.0151C352.033 65.6636 352.196 65.2662 352.374 64.8229C352.551 64.3796 352.743 63.9041 352.946 63.3959C353.151 62.8877 353.355 62.3741 353.559 61.8546C353.763 61.3351 353.963 60.8232 354.159 60.3186C354.355 59.8146 354.536 59.3445 354.699 58.9089C354.773 58.9245 354.843 58.9376 354.91 58.9488C354.976 58.9602 355.047 58.9662 355.121 58.9662C355.195 58.9662 355.266 58.9602 355.333 58.9488C355.399 58.9376 355.47 58.9245 355.544 58.9089C355.782 59.5584 356.035 60.2537 356.306 60.9948C356.577 61.7361 356.849 62.4641 357.124 63.1785C357.397 63.8928 357.665 64.5708 357.924 65.2125C358.183 65.8548 358.421 66.397 358.636 66.8403Z" fill="#2F083B"/>
<path d="M365.25 59.8351C364.893 59.6249 364.459 59.5193 363.947 59.5193C363.605 59.5193 363.265 59.5939 362.928 59.7428C362.59 59.8917 362.289 60.1158 362.025 60.4137C361.762 60.7116 361.548 61.0846 361.385 61.5314C361.222 61.9788 361.141 62.5044 361.141 63.1079C361.141 63.5667 361.202 63.9909 361.323 64.3805C361.446 64.7702 361.622 65.1086 361.852 65.3952C362.082 65.6817 362.364 65.9058 362.698 66.066C363.031 66.2264 363.413 66.3068 363.844 66.3068C363.941 66.3068 364.05 66.3008 364.173 66.2894C364.295 66.2782 364.413 66.2651 364.528 66.2495C364.643 66.2341 364.749 66.2132 364.846 66.1864C364.942 66.1602 365.013 66.1316 365.057 66.1006C365.073 66.0095 365.084 65.8951 365.088 65.758C365.092 65.621 365.094 65.4685 365.094 65.3004C365.094 64.6832 365.083 64.2274 365.062 63.9336C365.04 63.6405 365.027 63.4404 365.02 63.3337C365.094 63.3492 365.191 63.3629 365.313 63.3743C365.434 63.3855 365.609 63.3909 365.838 63.3909C366.104 63.3909 366.3 63.3855 366.43 63.3743C366.559 63.3629 366.661 63.3492 366.735 63.3337C366.72 63.3951 366.706 63.494 366.695 63.6316C366.684 63.7692 366.675 63.9284 366.667 64.1077C366.661 64.2876 366.655 64.4788 366.651 64.6814C366.648 64.8839 366.646 65.0771 366.646 65.2605V65.6395C366.646 65.8307 366.648 66.0083 366.652 66.1727C366.656 66.3372 366.666 66.4539 366.682 66.5225C366.193 66.6679 365.697 66.7828 365.196 66.8668C364.695 66.9509 364.199 66.9931 363.71 66.9931C363.071 66.9931 362.482 66.9067 361.944 66.7352C361.406 66.563 360.942 66.3103 360.552 65.9779C360.162 65.6454 359.858 65.2439 359.64 64.7732C359.42 64.303 359.311 63.7734 359.311 63.1842C359.311 62.4579 359.428 61.8215 359.662 61.2746C359.896 60.7277 360.22 60.2731 360.631 59.9097C361.044 59.5462 361.532 59.2727 362.096 59.0892C362.661 58.9056 363.27 58.814 363.924 58.814C364.489 58.814 364.976 58.873 365.389 58.9903C365.801 59.1077 366.207 59.2769 366.609 59.4967C366.549 59.6957 366.492 59.8906 366.436 60.0818C366.38 60.2731 366.334 60.4679 366.297 60.6668H366.141C365.903 60.3225 365.606 60.0454 365.25 59.8351Z" fill="#2F083B"/>
<path d="M370.5 66.8382C370.088 66.7351 369.73 66.563 369.425 66.3223C369.121 66.0816 368.882 65.7718 368.707 65.3934C368.533 65.0151 368.446 64.5545 368.446 64.0118C368.446 63.7062 368.446 63.4326 368.446 63.192C368.446 62.9512 368.446 62.7278 368.446 62.5211C368.446 62.3149 368.448 62.116 368.455 61.9247C368.461 61.734 368.464 61.5351 368.464 61.3282C368.464 60.7093 368.461 60.2088 368.455 59.8263C368.448 59.4444 368.439 59.1577 368.427 58.9666C368.575 58.982 368.727 58.9951 368.882 59.0065C369.037 59.0177 369.189 59.0237 369.337 59.0237C369.485 59.0237 369.636 59.0177 369.791 59.0065C369.946 58.9951 370.098 58.982 370.246 58.9666C370.171 59.7077 370.126 60.397 370.113 61.0346C370.098 61.6726 370.09 62.3197 370.09 62.9763C370.09 63.6715 370.138 64.2328 370.235 64.6606C370.332 65.0884 370.475 65.419 370.665 65.652C370.854 65.885 371.086 66.0399 371.362 66.1162C371.637 66.1924 371.957 66.2305 372.321 66.2305C372.767 66.2305 373.116 66.1162 373.37 65.8868C373.622 65.6574 373.814 65.3517 373.943 64.9698C374.075 64.5879 374.154 64.1512 374.184 63.6584C374.214 63.1658 374.229 62.6522 374.229 62.1171C374.229 61.5904 374.221 61.0649 374.205 60.5418C374.19 60.0187 374.166 59.4938 374.136 58.9666C374.239 58.982 374.34 58.9951 374.437 59.0065C374.534 59.0177 374.624 59.0237 374.705 59.0237C374.801 59.0237 374.895 59.0177 374.984 59.0065C375.074 58.9951 375.167 58.982 375.263 58.9666C375.247 59.1345 375.233 59.3603 375.217 59.6428C375.202 59.9258 375.187 60.2528 375.172 60.6235C375.157 60.9941 375.144 61.4034 375.132 61.8502C375.121 62.2976 375.115 62.7696 375.115 63.2664C375.115 64.5969 374.837 65.5501 374.28 66.1274C373.723 66.7048 372.907 66.9932 371.831 66.9932C371.356 66.9932 370.912 66.9414 370.5 66.8382Z" fill="#2F083B"/>
<path d="M376.953 60.4506C376.941 59.958 376.923 59.4634 376.897 58.9666C377.231 58.9743 377.562 58.9855 377.888 59.0005C378.214 59.016 378.545 59.0237 378.879 59.0237C379.427 59.0237 379.914 59.0177 380.342 59.0065C380.767 58.9951 381.055 58.982 381.204 58.9666C381.173 59.0881 381.159 59.2477 381.159 59.4449C381.159 59.5664 381.162 59.6618 381.17 59.7297C381.177 59.7983 381.189 59.8745 381.204 59.958C380.988 59.9424 380.753 59.9275 380.498 59.9121C380.241 59.8965 379.992 59.8817 379.752 59.8662C379.51 59.8506 379.294 59.8394 379.101 59.8317C378.908 59.8238 378.771 59.8203 378.69 59.8203C378.66 60.241 378.644 60.658 378.64 61.0709C378.636 61.4844 378.634 61.9014 378.634 62.3221C379.116 62.3144 379.552 62.3024 379.941 62.2864C380.331 62.2702 380.737 62.2506 381.159 62.2267C381.136 62.3572 381.122 62.4573 381.115 62.5264C381.107 62.5955 381.104 62.6682 381.104 62.7451C381.104 62.807 381.109 62.8702 381.12 62.9358C381.132 63.0013 381.143 63.0954 381.159 63.2182C380.314 63.1544 379.472 63.1228 378.634 63.1228C378.634 63.3671 378.632 63.6114 378.625 63.8556C378.619 64.0999 378.616 64.3448 378.616 64.5891C378.616 65.0855 378.628 65.5627 378.652 66.0208C379.075 66.0208 379.499 66.0089 379.921 65.9851C380.344 65.9612 380.77 65.9219 381.2 65.8665C381.185 65.9505 381.174 66.0268 381.166 66.0959C381.159 66.1644 381.155 66.2597 381.155 66.3819C381.155 66.5047 381.159 66.5999 381.166 66.6684C381.174 66.7376 381.185 66.7948 381.2 66.8406C380.999 66.834 380.753 66.8293 380.46 66.8263C380.167 66.8228 379.765 66.8216 379.254 66.8216C378.801 66.8216 378.434 66.8216 378.153 66.8216C377.879 66.8216 377.658 66.8216 377.492 66.8216C377.326 66.8216 377.199 66.8228 377.114 66.8263C377.029 66.8293 376.957 66.834 376.897 66.8406C376.923 66.367 376.941 65.8838 376.953 65.3905C376.965 64.8977 376.971 64.3341 376.971 63.7002V62.1409C376.971 61.507 376.965 60.9434 376.953 60.4506Z" fill="#2F083B"/>
<path d="M257.157 0H301.843C303.211 0 304.523 0.572522 305.489 1.59163C306.457 2.61072 307 3.99296 307 5.43412V66.5556C307.002 67.2702 306.869 67.978 306.611 68.6387C306.353 69.2994 305.973 69.8998 305.494 70.4055C305.015 70.9113 304.446 71.3125 303.819 71.586C303.192 71.8597 302.522 72.0003 301.843 72H257.157C256.48 72.0003 255.81 71.8601 255.184 71.5872C254.558 71.3145 253.99 70.9144 253.51 70.41C253.032 69.9056 252.652 69.3068 252.393 68.6475C252.134 67.9884 252 67.2819 252 66.5684V5.43412C252 3.99296 252.543 2.61072 253.51 1.59163C254.478 0.572522 255.79 0 257.157 0Z" fill="white"/>
<path fill-rule="evenodd" clip-rule="evenodd" d="M278.234 19.8265C274.318 20.3329 270.963 23.8424 271.498 28.4457C271.958 32.414 275.522 35.7791 280.023 35.2569C282.049 35.0181 283.898 33.9764 285.165 32.3605C286.432 30.7447 287.011 28.6869 286.777 26.6393C286.363 22.7138 282.715 19.2487 278.236 19.8265H278.234Z" fill="#010101"/>
<path fill-rule="evenodd" clip-rule="evenodd" d="M257.105 24.09C257.105 26.8282 257.591 29.8044 258.601 31.9838C259.176 31.998 262.416 30.6075 263.194 30.3076C263.971 30.0075 267.349 28.7901 267.708 28.4742C267.689 28.0488 267.237 26.8725 267.113 26.2139C266.802 24.4965 266.913 22.7283 267.436 21.0645C267.602 20.5392 268.25 19.2122 268.253 18.9058C267.939 18.5661 264.726 16.9454 264.05 16.5677C263.373 16.1899 260.142 14.3184 259.633 14.3311C258.832 16.1185 258.471 16.5026 257.871 18.6883C257.374 20.4437 257.116 22.2594 257.105 24.0852V24.09Z" fill="#004AD1"/>
<path fill-rule="evenodd" clip-rule="evenodd" d="M263.11 14.2505C263.399 14.5679 268.532 17.5124 269.348 17.9791C269.819 18.2505 271.054 19.1171 271.597 19.1077C272.323 17.2537 274.775 15.2569 276.683 14.4219C277.299 14.152 278.824 13.8315 279.186 13.6283C279.236 13.0076 278.697 10.6123 278.558 9.82657L277.497 4.12813C277.274 3.75193 276.146 4.1789 275.701 4.28684C271.584 5.34081 267.431 8.02183 264.848 11.4139C264.506 11.8631 263.12 13.6362 263.12 14.2505H263.11Z" fill="#980184"/>
<path fill-rule="evenodd" clip-rule="evenodd" d="M256.691 34.6012C256.741 35.5377 258.369 38.0646 258.83 38.7091C260.548 41.1552 262.771 43.1948 265.345 44.687C265.974 45.052 269.026 46.6219 269.781 46.452C270.018 46.0251 270.355 44.7441 270.515 44.206C270.9 42.9092 272.639 37.6535 272.608 37.0631C270.057 36.1106 268.367 35.1074 266.822 32.9106C266.333 32.2138 266.073 31.5423 265.656 30.7709C265.099 30.7518 261.87 32.2979 261.141 32.6185L256.691 34.6012Z" fill="#0091FC"/>
<path fill-rule="evenodd" clip-rule="evenodd" d="M292.6 30.7806C292.914 30.9139 302.151 31.4282 302.338 31.2061C302.652 30.3807 302.228 26.9409 302.035 25.9679C301.471 23.0519 300.285 20.2949 298.56 17.8884C298.023 17.1233 296.451 15.1678 295.81 14.8359C295.407 14.9725 293.132 17.5201 292.592 18.1169C292.336 18.4027 292.067 18.6217 291.806 18.9107L290.201 20.6249C289.919 20.9424 289.7 21.1979 289.416 21.4996C288.762 22.1884 289.251 21.9884 290.269 23.2837C290.751 23.9029 291.167 24.5724 291.508 25.2806C292.721 27.7473 292.362 28.6885 292.608 30.787L292.6 30.7806Z" fill="#FE7D02"/>
<path fill-rule="evenodd" clip-rule="evenodd" d="M273.026 40.1738C272.807 40.5674 270.441 49.2214 270.468 49.6294C271.33 50.2342 275.022 50.5215 276.343 50.5215C278.539 50.501 280.718 50.1259 282.796 49.4104C283.952 49.0056 287.35 47.4866 287.764 46.7531C287.652 46.3723 282.547 38.6785 282.342 38.6467C282.052 38.7166 280.954 39.4405 280.457 39.6611C276.696 41.369 274.378 40.1675 273.031 40.1721L273.026 40.1738Z" fill="#01AB02"/>
<path fill-rule="evenodd" clip-rule="evenodd" d="M279.545 6.60708C279.475 7.03253 280.725 15.6389 280.914 16.2898C282.434 16.4183 283.527 15.8136 286.21 16.7453C287.256 17.0972 288.239 17.616 289.124 18.2819C290.355 19.1945 289.707 19.3596 291.685 17.1009L294.842 13.4501C295.169 13.0358 296.221 11.9484 296.358 11.5294C296.044 10.9579 293.949 9.5516 293.178 9.09762C290.609 7.57089 287.741 6.63095 284.775 6.34359C283.763 6.24997 280.268 6.12935 279.545 6.61023V6.60708Z" fill="#FE0000"/>
<path fill-rule="evenodd" clip-rule="evenodd" d="M285.157 40.3407C285.23 40.7455 290.689 48.19 290.857 48.2314C291.472 48.1488 293.617 46.0091 294.074 45.5329C295.9 43.6138 297.591 40.6963 298.471 38.0201C298.786 37.0677 299.539 34.0804 299.451 33.0501C299.409 32.5533 298.944 32.6597 298.426 32.6248L290.145 31.966C288.915 31.9359 290.406 33.4263 287.989 37.2788C286.665 39.3899 285.727 39.5947 285.153 40.3471L285.157 40.3407Z" fill="#FFE500"/>
<path fill-rule="evenodd" clip-rule="evenodd" d="M273.397 23.4355L274.096 23.0816C273.877 23.9991 273.625 24.2959 273.712 25.407C274.183 25.8229 275.051 25.9927 275.563 26.3594L273.562 25.9864C272.913 26.7515 272.822 27.0975 272.48 28.18L272.104 27.4833C272.009 29.0102 272.7 30.9324 273.465 31.7324L273.372 31.0008C274.013 31.3785 274.571 31.9976 275.581 32.0992L276.942 30.5865L275.958 32.4214C276.281 33.069 277.019 33.8087 277.662 34.0849C277.641 34.0992 277.608 34.0849 277.596 34.1198C277.583 34.1547 277.547 34.1468 277.529 34.1516C277.463 34.1813 277.394 34.2052 277.324 34.223C277.192 34.2595 277.075 34.2675 276.909 34.3182C279.034 34.7801 279.185 34.7531 281.317 34.3452L280.599 34.1421C283.524 32.2991 281.681 31.8674 281.323 30.5435C281.432 30.7023 281.836 31.1087 281.992 31.288C282.192 31.5182 282.574 31.9087 282.777 32.0816C283.834 31.9483 284.43 31.2404 284.89 31.0197L284.805 31.7674C285.563 30.6119 286.238 29.3864 286.192 27.5658C286.174 27.5832 286.152 27.5864 286.144 27.6213L285.987 27.8483C285.915 27.961 285.852 28.0785 285.786 28.1658C285.301 26.4514 285.336 27.0547 284.787 26.0038L282.745 26.3705L284.569 25.4562C284.657 24.4229 284.428 23.9261 284.172 23.0895L284.855 23.3943C284.507 22.5419 282.598 21.0323 281.267 20.7466L281.798 21.3276C279.198 21.4657 279.443 21.3848 279.297 22.6768C279.254 23.0593 279.21 23.4133 279.174 23.799L278.951 22.2403C278.943 22.1385 278.928 22.0372 278.909 21.9371C278.909 21.9371 278.97 21.207 276.498 21.353C276.655 21.0356 276.812 20.9768 277.033 20.7466C275.659 20.9942 273.832 22.5656 273.404 23.426L273.397 23.4355ZM276.054 26.4514L277.215 30.2149C281.351 30.1785 280.948 30.569 281.299 29.4626L282.223 26.488L279.117 24.2657C278.702 24.4832 278.026 25.0499 277.599 25.3673C277.264 25.6149 276.389 26.3086 276.052 26.4514H276.054Z" fill="white"/>
<path fill-rule="evenodd" clip-rule="evenodd" d="M290.023 64.9729C290.04 66.0332 289.902 66.5062 289.002 66.7554C287.83 67.0729 287.475 66.6443 287.032 66.1872L284.259 66.1649C284.59 69.2332 289.315 69.892 291.423 67.9729C292.545 66.9523 292.523 65.3745 292.523 63.4458V57.7919H290.129V58.6585C289.699 58.295 289.253 57.8649 288.474 57.7061C284.219 56.7871 282.524 63.0665 285.804 65.3252C287.712 66.6443 289.292 65.3252 290.044 64.9792L290.023 64.9729ZM297.443 60.0681C295.166 60.8141 296.041 64.819 298.666 63.9586C301.072 63.1649 300.038 59.2173 297.443 60.0681ZM287.643 59.9094C285.589 60.6776 286.484 64.6443 289.002 63.5935C291.102 62.7189 290.102 58.9902 287.643 59.9094ZM267.033 60.0808C264.677 60.9126 265.732 64.8269 268.315 63.9491C270.671 63.1554 269.606 59.1728 267.033 60.0808ZM299.894 65.3936L299.921 66.1396L302.403 66.1506L302.426 57.7903H299.953V58.5839C299.568 58.4125 299.192 57.8013 298.068 57.6553C295.711 57.3379 293.629 59.2791 293.588 61.957C293.542 64.8332 295.458 66.6079 297.869 66.3253C298.949 66.1999 299.262 65.7919 299.891 65.3951L299.894 65.3936ZM269.513 65.4221L269.521 66.1173L271.992 66.1523L272.022 57.7919H269.551L269.541 58.5855C268.968 58.1935 268.621 57.7665 267.647 57.6458C265.291 57.3554 263.271 59.3188 263.194 61.8601C263.108 64.7015 264.902 66.5507 267.383 66.3269C268.472 66.2284 268.797 65.7951 269.513 65.4173V65.4221ZM273.489 66.1379L279.385 66.1506L279.416 63.7697H276.197L276.173 55.7204H273.497V66.1348L273.489 66.1379ZM259.446 55.7235H256.909L256.889 66.1189H262.728V63.8316H259.494L259.446 55.7283V55.7235ZM280.525 66.1396L280.86 66.1523H282.685H282.999L283.018 57.8125L280.52 57.7998V66.1475L280.525 66.1396ZM281.429 54.1711C279.507 54.6712 280.192 57.6632 282.178 57.1331C284.087 56.6157 283.33 53.6775 281.429 54.1711ZM259.441 55.7235L259.489 63.8268H262.723V66.1173H256.884L256.904 55.722C256.73 55.8331 256.793 55.949 256.794 56.2331C256.794 58.8062 256.687 64.338 256.813 66.13C257.226 66.2887 262.123 66.265 262.782 66.1761C262.846 65.6666 262.915 64.1618 262.725 63.7538L259.55 63.7395L259.541 55.8934C259.488 55.6791 259.541 55.8458 259.439 55.7156L259.441 55.7235Z" fill="#010101"/>
<path d="M33.8432 44.6692L35.3077 45.0628L35.5391 44.1365L34.0333 43.7317C33.2079 43.5099 32.6428 43.8304 32.442 44.634L31.8271 47.0957C31.7986 47.2098 31.8102 47.3172 31.8606 47.4063C31.9112 47.4954 31.996 47.558 32.1059 47.5876L32.6651 47.7379L33.0613 46.1457L34.7561 46.6013L34.9849 45.6855L33.2899 45.23L33.3557 44.9669C33.4428 44.6178 33.5434 44.5886 33.8432 44.6692ZM29.0914 43.3111L26.6477 43.8256C26.5361 43.849 26.4479 43.907 26.3927 43.9934C26.3375 44.0796 26.3202 44.1865 26.343 44.3022L26.8301 46.7912C26.9093 47.1961 27.0843 47.4876 27.3502 47.6579C27.5261 47.7703 27.7369 47.8268 27.98 47.8264C28.1038 47.8263 28.2359 47.8115 28.376 47.782L29.9034 47.4605L29.7195 46.5209L28.2337 46.8339C27.9296 46.8979 27.831 46.8629 27.7615 46.5087L27.7091 46.2416L29.428 45.8796L29.2461 44.9509L27.5274 45.3127L27.397 44.646L29.2753 44.2507L29.0914 43.3111ZM39.4465 46.8381C39.4924 46.6931 39.526 46.4789 39.2913 46.2916L39.1427 46.173C38.9106 45.9873 38.7271 46.0669 38.5932 46.1571L35.1148 48.4919L36.0241 49.0254L38.2412 47.538L37.8591 48.8748L37.5228 48.6124L36.9418 49.0442L37.6632 49.6034L37.4955 50.2036L38.2921 50.9598L39.4465 46.8381ZM20.5878 46.1222C23.3325 43.6647 26.8903 42.3113 30.6055 42.3113C34.3206 42.3113 37.8784 43.6647 40.6231 46.1222C40.9084 46.3777 41.1813 46.6431 41.4421 46.9173L41.9592 46.2552C41.7024 45.9889 41.4354 45.7303 41.1569 45.4811C38.264 42.8905 34.5166 41.4641 30.6055 41.4641C26.6943 41.4641 22.9472 42.8905 20.0542 45.4811C19.7759 45.7301 19.5085 45.9887 19.2519 46.255L19.7689 46.9173C20.0299 46.6431 20.3027 46.3775 20.5879 46.1222H20.5878ZM30.6055 49.3165C33.2519 49.3165 35.6911 50.589 37.1251 52.4398L37.6258 51.7984C36.0468 49.8402 33.4586 48.5163 30.6055 48.5163C27.7526 48.5163 25.1642 49.8402 23.5854 51.7984L24.0861 52.4398C25.5199 50.589 27.9591 49.3165 30.6055 49.3165ZM23.9322 48.9321C23.7445 49.0904 23.5263 49.1676 23.3336 49.1439C23.0897 49.1149 22.9413 49.0113 22.6985 48.7002L21.2993 46.9158L20.5449 47.5517L22.0686 49.4964C22.3925 49.9082 22.7616 50.1286 23.1969 50.1701C23.2482 50.1751 23.2992 50.1777 23.3496 50.1782C23.7713 50.1821 24.1629 50.0279 24.5425 49.7092C24.9656 49.3509 25.1976 48.9348 25.252 48.4374C25.3019 47.9866 25.169 47.5668 24.8461 47.1537L23.3227 45.2098L22.5683 45.8458L23.967 47.631C24.2107 47.9411 24.2781 48.113 24.2554 48.3671C24.2384 48.5672 24.1206 48.7733 23.9322 48.9321ZM24.8458 55.9522H26.2614C27.0403 55.9522 27.3351 56.3681 27.3351 56.9308C27.3351 57.4938 27.0403 57.9098 26.2614 57.9098H24.8458V55.9522ZM27.512 62.7551H29.6353L27.7949 59.317C28.6325 58.8275 29.2223 58.0565 29.2223 56.9308C29.2223 55.2545 27.9127 54.1901 26.2379 54.1901H22.9585V62.7551H24.8458V59.6719H25.8607L27.512 62.7551ZM22.3405 67.7705H24.3954V66.7404H22.3405V65.8035H24.5746V64.7736H21.2373V69.7799H24.6299V68.7498H22.3405V67.7705ZM27.1193 67.7987L27.685 66.2614L28.2505 67.7987H27.1193ZM27.0986 64.7736L25.1403 69.7799H26.3885L26.74 68.8286H28.6295L28.981 69.7799H30.2292L28.2709 64.7736H27.0986ZM47.9925 59.3657L48.9597 56.7353L49.9271 59.3657H47.9925ZM49.9623 54.1901H47.957L44.6068 62.7551H46.7421L47.3437 61.1276H50.5759L51.1775 62.7551H53.3126L49.9623 54.1901ZM32.4014 67.987H33.8919V68.3447C33.6505 68.6239 33.2641 68.8386 32.7878 68.8386C31.9529 68.8386 31.3249 68.3305 31.3249 67.2784C31.3249 66.2265 32.0081 65.7181 32.6637 65.7181C33.2641 65.7181 33.6505 66.0187 33.809 66.577L34.865 66.2549C34.6165 65.3174 33.9127 64.6875 32.6774 64.6875C31.3527 64.6875 30.221 65.6754 30.221 67.2784C30.221 68.8815 31.3388 69.8692 32.691 69.8692C33.7401 69.8692 34.3887 69.4399 34.9201 68.7672V67.0924H32.4014V67.987ZM38.4111 67.7492C38.4111 68.4216 38.0799 68.8365 37.4733 68.8365C36.8664 68.8365 36.5356 68.4216 36.5356 67.7492V64.7742H35.4323V67.8135C35.4323 69.2084 36.363 69.8661 37.4733 69.8661C38.5836 69.8661 39.5145 69.201 39.5145 67.8135V64.7742H38.4111V67.7492ZM41.2413 67.7703H43.2958V66.7405H41.2413V65.8035H43.4752V64.7736H40.1379V69.7799H43.5303V68.7501H41.2413V67.7703ZM18.4291 64.7736H17.3258V69.7799H20.7182V68.7498H18.4291V64.7736ZM21.7652 54.1901H19.878V59.2799C19.878 60.4304 19.3117 61.1399 18.2736 61.1399C17.2356 61.1399 16.6692 60.4304 16.6692 59.2799V54.1901H14.7819V59.3905C14.7819 61.7763 16.3742 62.9019 18.2736 62.9019C20.1728 62.9019 21.7652 61.764 21.7652 59.3905V54.1901ZM41.1134 55.9522H42.364C43.2013 55.9522 43.5318 56.4048 43.5318 57.0287C43.5318 57.6528 43.2013 58.1055 42.364 58.1055H41.1134V55.9522ZM39.226 62.7551H41.1134V59.8676H42.4579C44.0862 59.8676 45.419 58.8887 45.419 57.0287C45.419 55.169 44.0862 54.1901 42.4579 54.1901H39.226V62.7551ZM34.1082 55.7551C35.287 55.7551 36.2182 56.6355 36.2182 58.4695C36.2182 60.3036 35.287 61.184 34.1082 61.184C32.9293 61.184 31.9982 60.3036 31.9982 58.4695C31.9982 56.6355 32.9293 55.7551 34.1082 55.7551ZM34.1082 62.9446C36.5363 62.9446 38.1042 61.245 38.1042 58.4695C38.1042 55.6938 36.5363 53.9944 34.1082 53.9944C31.6797 53.9944 30.1122 55.6938 30.1122 58.4695C30.1122 61.245 31.6797 62.9446 34.1082 62.9446ZM9.78587 59.317H13.301V57.5549H9.78587V55.9522H13.6078V54.1901H7.89862V62.7551H13.7021V60.9931H9.78587V59.317Z" fill="white"/>
<path d="M47.1132 64.8118L46.6743 66.0052L46.2355 64.8118H45.966V66.3051H46.2192V65.4094L46.5493 66.3051H46.7992L47.1295 65.4094V66.3051H47.3827V64.8118H47.1132ZM44.6578 65.0483H45.1006V66.3051H45.3504V65.0483H45.7932V64.8127H44.6578V65.0483Z" fill="white"/>
<path d="M38.6449 9.41699L37.8356 12.2738C40.8853 14.5898 42.8711 18.3281 42.8711 22.54C42.8711 27.1429 40.5017 31.1824 36.9618 33.4154L37.8961 36.1259C42.489 33.4696 45.5958 28.3817 45.5958 22.5402C45.5958 17.0219 42.8235 12.1757 38.6449 9.41699ZM18.3469 22.54C18.3469 18.3281 20.3325 14.5897 23.3825 12.2738L22.573 9.41699C18.3944 12.1757 15.6219 17.0219 15.6219 22.5402C15.6219 28.3817 18.7289 33.4696 23.3218 36.1259L24.2561 33.4154C20.7162 31.1824 18.347 27.1429 18.347 22.54H18.3469Z" fill="white"/>
<path d="M32.3652 33.7757L30.594 25.5321L28.8231 33.7757H32.3652ZM25.5584 35.1888L24.5541 38.1023H36.6344L35.6298 35.1888H25.5584ZM35.1426 33.7757L32.2292 25.3245L37.7156 5.95976L31.0484 3.00854V23.5309L33.2493 33.7753H35.1426V33.7757ZM26.0457 33.7757H27.9389L30.1401 23.5313V3.00885L23.4727 5.96017L28.9591 25.3248L26.0457 33.776V33.7757Z" fill="white"/>
<path fill-rule="evenodd" clip-rule="evenodd" d="M109.516 9.36256C107.683 9.74739 105.734 10.5915 105.734 10.5915C106.699 9.23959 108.658 7.5834 108.658 7.5834C108.119 6.54192 107.642 4.99985 107.642 4.99985C107.642 4.99985 109.908 5.12769 111.681 5.71966C111.681 5.71966 114.693 4.02143 117.815 3.96924C117.815 3.96924 115.539 5.32031 114.572 6.57827C114.829 6.71707 116.649 7.27706 118.065 8.13617C118.065 8.13617 115.503 8.2106 113.153 8.54162C113.153 8.54162 112.324 9.74251 111.624 12.4758C111.624 12.4758 110.419 11.1102 109.516 9.36256Z" fill="white"/>
<path fill-rule="evenodd" clip-rule="evenodd" d="M121.686 11.6262C120.135 9.85147 118.065 8.13668 118.065 8.13668C119.969 8.16461 122.795 9.32022 122.795 9.32022C123.348 8.24635 123.734 6.76855 123.734 6.76855C123.734 6.76855 124.815 8.65057 125.306 10.7316C125.306 10.7316 127.55 12.1137 129.245 14.4271C129.245 14.4271 127.477 14.0479 126.176 14.0544C126.172 14.353 126.653 16.8084 126.548 18.4965C126.548 18.4965 125.108 16.0885 123.756 14.0828C123.756 14.0828 121.583 14.1232 119.3 14.7649C119.301 14.7649 120.579 13.2459 121.686 11.6262ZM124.172 23.1942C125.316 21.2104 126.549 18.4969 126.549 18.4969C126.928 20.3117 126.961 22.6269 126.961 22.6269C128.096 22.3809 130.106 21.3896 130.106 21.3896C130.106 21.3896 129.21 23.8416 127.204 25.7219C127.204 25.7219 127.406 27.1912 127.43 29.1298C127.43 29.1298 126.011 28.4795 124.834 27.7524C124.584 27.9026 123.162 28.8975 120.759 29.409C120.759 29.409 121.776 27.7742 122.618 26.1776C122.618 26.1776 120.943 25.0426 119.616 23.1826C119.616 23.1821 122.195 23.5171 124.172 23.1942Z" fill="white"/>
<path fill-rule="evenodd" clip-rule="evenodd" d="M116.078 19.1452C117.832 21.3812 119.613 23.1819 119.613 23.1819C116.704 22.7371 114.341 21.8979 114.341 21.8979C113.159 23.8467 111.87 26.1122 111.87 26.1122C111.87 26.1122 111.148 23.6544 111.027 20.865C111.027 20.865 109.565 20.3389 106.871 19.248C106.871 19.248 108.729 18.0616 110.978 17.4146C110.847 17.148 111.192 13.8316 111.622 12.4761C111.622 12.4761 112.934 14.6623 114.002 16.2696C114.002 16.2696 116.092 15.5404 119.299 14.7643C119.299 14.7643 117.544 17.055 116.078 19.1452ZM100.101 27.6029C99.9239 27.261 99.7591 26.9126 99.607 26.5585C99.6376 25.3726 99.7403 23.845 100.036 22.6603C100.036 22.6603 99.1904 22.0569 98.316 21.2728C98.3061 21.1365 98.2946 20.9989 98.2872 20.8609C98.7896 20.6683 99.8548 20.281 100.786 20.0593C100.892 19.7806 101.472 17.8597 102.593 16.5346C102.593 16.5346 102.668 17.8404 102.973 19.5786C102.973 19.5786 104.74 19.1666 106.87 19.2473C106.87 19.2473 104.897 20.8463 103.653 22.4709C104.104 24.344 105.011 26.1417 105.011 26.1417C103.656 25.3527 102.221 24.3075 102.221 24.3075C101.718 24.9234 100.706 26.5848 100.101 27.6029ZM111.379 36.1078C111.159 36.0672 110.941 36.0209 110.724 35.969C109.984 35.1529 108.855 33.8205 107.993 32.4201C107.993 32.4201 104.814 32.1562 102.573 31.1471C102.573 31.1471 104.426 30.7889 106.461 29.7098C106.329 29.4432 105.553 27.9719 105.011 26.1425C105.011 26.1425 106.954 27.7574 108.395 28.7026C108.395 28.7026 110.224 27.6198 111.869 26.1122C111.869 26.1122 111.452 28.1961 111.221 30.5761C112.284 31.2004 113.356 31.8086 114.436 32.4006C112.776 32.649 111.143 32.5968 111.143 32.5968C111.079 33.9184 111.252 35.3075 111.379 36.1078ZM125.212 31.8583C125.212 31.8583 123.019 32.4544 120.879 32.5369C120.879 32.5369 120.863 31.0354 120.756 29.4083C120.756 29.4083 119.62 31.0674 118.136 32.6628C116.385 32.6369 114.436 32.401 114.436 32.401C115.104 33.1007 115.791 33.7806 116.497 34.44C115.178 35.5935 113.958 36.3644 113.958 36.3644C114.132 36.3668 114.308 36.368 114.482 36.3656C118.648 36.2956 122.411 34.5904 125.212 31.8583Z" fill="white"/>
<path fill-rule="evenodd" clip-rule="evenodd" d="M98.4813 17.2326C98.4813 17.2326 99.6527 15.7298 101.02 14.5095C101.02 14.5095 101.477 15.3778 102.594 16.5346C102.594 16.5346 102.602 15.1208 102.762 12.9026C104.011 11.7664 105.733 10.591 105.733 10.591C104.305 10.4975 103.24 10.5692 103.24 10.5692C103.57 8.88586 104.319 7.07959 104.319 7.07959C101.282 9.55591 99.1453 13.1454 98.4813 17.2326ZM129.148 60.7553C127.1 60.7553 125.857 58.9915 125.857 57.0573C125.857 55.0476 127.306 53.5913 129.198 53.5913C131.294 53.5913 132.558 55.3028 132.558 57.184C132.558 59.4127 130.986 60.7553 129.148 60.7553ZM129.033 54.6045C127.759 54.6045 127.378 55.8516 127.378 56.6965C127.378 57.9318 127.914 59.7393 129.383 59.7393C130.431 59.7393 131.037 58.7798 131.037 57.6275C131.037 56.4023 130.575 54.6045 129.033 54.6045ZM116.621 59.7519C116.621 60.1317 116.692 60.2685 117.288 60.3871V60.6501C116.641 60.6185 116.239 60.587 115.86 60.587C115.479 60.587 115.079 60.6185 114.627 60.6501V60.3846C115.027 60.3118 115.1 60.1317 115.1 59.6345V54.4673C115.1 54.1703 114.976 54.0319 114.627 54.0214V53.7273H117.668C119.57 53.7273 120.259 54.6575 120.259 55.8848C120.259 57.1957 119.293 57.9997 117.967 57.9997C117.463 57.9997 116.725 57.7343 116.725 57.5121C116.725 57.4175 116.786 57.4175 116.878 57.4175C116.971 57.4175 117.103 57.4491 117.237 57.4491C118.316 57.4491 118.739 56.8255 118.739 55.9482C118.739 54.9958 118.162 54.6579 117.257 54.6579L116.621 54.7282V59.7519ZM122.246 54.4022C122.246 54.1072 122.122 53.9684 121.773 53.9587V53.6835C122.225 53.7151 122.625 53.7467 123.006 53.7467C123.387 53.7467 123.787 53.7151 124.238 53.6835V53.9587C123.889 53.968 123.766 54.1072 123.766 54.4022V59.9411C123.766 60.2381 123.889 60.3749 124.238 60.3871V60.6501C123.787 60.6185 123.386 60.587 123.006 60.587C122.625 60.587 122.225 60.6185 121.773 60.6501V60.3871C122.122 60.3753 122.246 60.2385 122.246 59.9411V54.4022ZM134.618 54.3973C134.618 54.1024 134.494 53.9636 134.144 53.9538V53.6762C134.596 53.707 134.998 53.7418 135.378 53.7418C135.656 53.7418 135.964 53.7418 136.284 53.6762L139.12 58.4047H139.14V54.5458C139.14 53.9951 138.801 53.9538 138.524 53.9538V53.6762C138.862 53.707 139.191 53.7418 139.511 53.7418C139.85 53.7418 140.188 53.707 140.519 53.6762V53.9538C140.168 53.9632 140.044 54.1024 140.044 54.3973V60.6501H138.955L135.543 55.1916H135.522V59.7878C135.522 60.3385 135.86 60.3798 136.139 60.3798V60.6452C135.8 60.6137 135.47 60.5797 135.152 60.5797C134.814 60.5797 134.474 60.6137 134.144 60.6452V60.3798C134.494 60.3705 134.618 60.2313 134.618 59.9364V54.3973ZM142.619 58.2461C142.829 59.4325 143.587 59.9881 144.72 59.9881C145.343 59.9881 146.243 59.8032 146.243 58.9867C146.243 58.334 145.587 58.1608 145.1 58.0074L144.349 57.7785C143.27 57.4519 142.191 56.9841 142.191 55.7006C142.191 54.0149 143.777 53.5035 145.354 53.5035C146.022 53.5035 146.708 53.6228 147.322 53.8519C147.322 54.636 147.364 55.298 147.406 55.8641H147.142C146.92 54.8627 146.128 54.3949 145.175 54.3949C144.644 54.3949 143.757 54.5705 143.757 55.3203C143.757 55.9199 144.264 56.0923 144.698 56.2222L145.808 56.5508C146.876 56.8643 147.871 57.2689 147.871 58.6824C147.871 60.1168 146.464 60.8795 144.74 60.8795C143.968 60.8795 143.153 60.7509 142.445 60.4874C142.445 59.6276 142.414 58.879 142.359 58.2461H142.619ZM89.1841 54.4022C89.1841 54.1072 89.0613 53.9684 88.7104 53.9587V53.6835C89.1628 53.7151 89.5641 53.7467 89.9446 53.7467C90.325 53.7467 90.7248 53.7151 91.1777 53.6835V53.9587C90.8283 53.968 90.7063 54.1072 90.7063 54.4022L90.7051 56.4949L93.192 56.4973V54.4022C93.192 54.1072 93.0701 53.9684 92.7207 53.9587V53.6835C93.172 53.7151 93.5736 53.7467 93.9533 53.7467C94.3334 53.7467 94.735 53.7151 95.1851 53.6835V53.9587C94.8369 53.968 94.7134 54.1072 94.7134 54.4022V59.9411C94.7134 60.2381 94.8365 60.3749 95.1851 60.3846V60.6549C94.7346 60.6242 94.3334 60.5918 93.9521 60.5918C93.5736 60.5918 93.172 60.6242 92.7195 60.6549V60.3846C93.0701 60.3753 93.192 60.2385 93.192 59.9411V57.5101H90.7051V59.9411C90.7051 60.2381 90.8283 60.3749 91.1781 60.3846V60.6549C90.7256 60.6242 90.3254 60.5918 89.945 60.5918C89.5649 60.5918 89.1632 60.6242 88.7108 60.6549V60.3846C89.0601 60.3753 89.1845 60.2385 89.1845 59.9411V54.4022H89.1841ZM98.9903 57.625C99.2568 56.8773 99.5856 56.0413 99.8216 55.1964H99.8423C100.049 56.2635 100.223 56.9409 100.439 57.625H98.9903ZM96.5015 60.6505C96.8619 60.6189 97.2121 60.5874 97.5709 60.5874C97.9203 60.5874 98.2806 60.6189 98.6296 60.6505V60.3851C98.2897 60.3628 98.1461 60.2389 98.1461 60.0468C98.1461 59.9415 98.1768 59.8247 98.2291 59.6761L98.68 58.429H100.683L101.013 59.4572C101.066 59.594 101.116 59.8372 101.116 59.9837C101.116 60.2273 100.983 60.3123 100.602 60.3851V60.6505C101.044 60.6189 101.485 60.5874 101.928 60.5874C102.358 60.5874 102.801 60.6189 103.234 60.6505V60.3851C102.926 60.3021 102.771 60.1637 102.617 59.6985L100.725 53.6843C100.406 53.7159 100.077 53.7475 99.7584 53.7475C99.4405 53.7475 99.1206 53.7159 98.7928 53.6843V53.9595C99.0702 53.9595 99.1838 54.1278 99.1838 54.2355C99.1838 54.3399 99.1107 54.4883 99.0505 54.6466L97.0355 59.8987C96.9328 60.1763 96.799 60.3446 96.5004 60.3855V60.6505H96.5015ZM105.308 55.3964C105.319 55.1014 105.337 54.8044 105.337 54.3831C105.337 54.0538 105.266 54.0125 104.875 53.9587V53.6835C105.183 53.7151 105.554 53.7467 105.925 53.7467C106.294 53.7467 106.665 53.7151 107.035 53.6835L108.833 58.5841L110.445 53.6835C110.807 53.7151 111.156 53.7467 111.516 53.7467C111.874 53.7467 112.235 53.7151 112.584 53.6835V53.9587C112.225 53.9903 112.172 54.1072 112.172 54.3925C112.172 54.6895 112.214 55.1645 112.243 55.5226L112.574 60.0367C112.595 60.3118 112.892 60.3527 113.098 60.3842V60.6497C112.655 60.6181 112.204 60.5866 111.762 60.5866C111.31 60.5866 110.868 60.6181 110.445 60.6497V60.3842C110.949 60.3211 111.083 60.226 111.083 59.7409C111.083 59.4855 111.052 59.0105 111.022 58.6621L110.784 55.5128H110.765L109.049 60.7084H108.185L106.222 55.4498H106.2L106.118 58.5452C106.11 59.0959 106.088 59.3811 106.088 59.6661C106.088 60.1949 106.138 60.3118 106.756 60.3842V60.6497C106.345 60.6181 105.964 60.5866 105.573 60.5866C105.194 60.5866 104.813 60.6181 104.495 60.6497V60.3842C104.896 60.3527 105.061 60.258 105.081 59.8145L105.308 55.3964ZM87.1623 60.2633C86.4588 60.8188 85.4501 61.041 84.7914 61.041C82.3411 61.041 80.9567 59.0866 80.9567 57.0824C80.9567 55.0334 82.3411 53.0503 84.9964 53.0536C85.9261 53.0536 86.5929 53.2352 86.8542 53.3404C86.8542 54.1416 86.8959 54.9141 86.9538 55.6787H86.6563C86.4754 54.7019 85.812 54.1837 84.8591 54.1837C83.5671 54.1837 82.5686 55.2309 82.5686 56.9995C82.5686 58.3319 83.634 59.84 85.1322 59.84C85.7672 59.84 86.6803 59.4819 87.2937 58.951L87.1623 60.2633ZM98.2885 64.4723C98.2885 64.244 98.1926 64.1364 97.9238 64.1291V63.9046C98.2731 63.9313 98.582 63.9535 98.8748 63.9535C99.2085 63.9535 99.6932 63.9313 99.9233 63.9046V64.1291C99.5185 64.1457 99.4622 64.3504 99.4622 64.5771V68.5744H100.929C101.455 68.5744 101.669 68.3288 101.803 67.7073H102.061C101.965 68.2381 101.877 68.7622 101.869 69.2934H97.9238V69.0689C98.1926 69.0616 98.2885 68.9544 98.2885 68.7249V64.4723ZM103.338 64.499C103.338 64.2707 103.242 64.1631 102.974 64.1558V63.9337H106.981C106.986 64.352 107.007 64.7699 107.044 65.1864H106.827C106.748 64.7377 106.638 64.5819 106.209 64.5819H104.511V66.16H105.567C105.923 66.16 105.978 66.0358 106.026 65.7436H106.243C106.214 66.0019 106.198 66.2614 106.194 66.5213C106.194 66.7402 106.218 67.0983 106.243 67.2958H106.026C105.978 67.0008 105.923 66.8795 105.567 66.8795H104.511V68.5744H106.296C106.725 68.5744 106.859 68.4259 106.994 67.7413H107.259C107.202 68.2567 107.171 68.7748 107.164 69.2934H102.974V69.0689C103.242 69.0616 103.338 68.9544 103.338 68.7249V64.499ZM108.21 69.0717C108.44 69.0378 108.543 68.9083 108.623 68.6962L110.179 64.6531C110.226 64.5281 110.282 64.4168 110.282 64.3363C110.282 64.2534 110.194 64.1223 109.98 64.1223V63.9001C110.233 63.9248 110.48 63.949 110.726 63.949C110.972 63.949 111.226 63.9244 111.472 63.9001L112.932 68.5433C113.052 68.899 113.17 69.0066 113.407 69.0721V69.2942C113.074 69.2696 112.734 69.2453 112.4 69.2453C112.059 69.2453 111.718 69.27 111.377 69.2942V69.0721C111.671 69.0135 111.774 68.9479 111.774 68.763C111.774 68.6485 111.733 68.4603 111.694 68.3559L111.44 67.5665H109.893L109.543 68.5259C109.503 68.6379 109.479 68.7282 109.479 68.8111C109.479 68.9548 109.591 69.0547 109.852 69.0721V69.2942C109.583 69.2696 109.305 69.2453 109.035 69.2453C108.756 69.2453 108.488 69.27 108.209 69.2942V69.0717H108.21ZM111.249 66.9474C111.083 66.4186 110.947 65.8978 110.788 65.0743H110.772C110.591 65.7246 110.336 66.3703 110.13 66.9474H111.249ZM117.653 67.3836C117.653 67.057 117.509 67.0421 117.153 67.0352V66.76C117.478 66.7867 117.804 66.8114 118.137 66.8114C118.494 66.8114 118.843 66.7867 119.2 66.76V67.0177C118.921 67.0259 118.779 67.0984 118.779 67.4665V69.2938H118.318L118.137 68.7455C117.637 69.2275 117.112 69.3982 116.574 69.3982C115.081 69.3982 114.129 68.1338 114.129 66.6654C114.129 64.8943 115.28 63.822 116.994 63.822C117.542 63.822 118.132 63.9272 118.558 64.202C118.558 64.6017 118.575 65.0626 118.606 65.6246H118.377C118.276 64.8991 117.604 64.541 116.947 64.541C115.843 64.541 115.304 65.4082 115.304 66.4606C115.304 67.4739 115.86 68.6157 116.779 68.6157C117.344 68.6157 117.653 68.3462 117.653 67.9707V67.3836ZM120.795 64.4723C120.795 64.244 120.7 64.1364 120.431 64.1291V63.9046C120.734 63.9364 121.038 63.9527 121.342 63.9535C121.756 63.9535 122.082 63.9313 122.4 63.9046V64.1291C122.056 64.1457 121.97 64.2096 121.97 64.5281V67.5778C121.97 68.5016 122.343 68.6788 122.986 68.6788C123.629 68.6788 124.002 68.4846 124.002 67.5778V64.5281C124.002 64.2096 123.915 64.1457 123.572 64.1291V63.9046C123.891 63.9313 124.215 63.9535 124.629 63.9535C124.962 63.9535 125.287 63.9313 125.541 63.9046V64.1291C125.272 64.1364 125.176 64.2436 125.176 64.4723V67.4083C125.176 68.9183 124.415 69.3982 122.986 69.3982C121.556 69.3982 120.795 68.9183 120.795 67.5228V64.4723ZM127.22 64.499C127.22 64.2707 127.127 64.1631 126.856 64.1558V63.9337H130.866C130.873 64.3816 130.888 64.7454 130.928 65.1864H130.711C130.632 64.7377 130.52 64.5819 130.091 64.5819H128.396V66.1365H129.45C129.806 66.1365 129.862 66.0139 129.911 65.7202H130.126C130.098 65.9774 130.083 66.2358 130.079 66.4946C130.079 66.716 130.103 67.074 130.126 67.2715H129.911C129.862 66.9765 129.806 66.8551 129.45 66.8551H128.396V68.5748H130.179C130.608 68.5748 130.743 68.4263 130.878 67.7417H131.142C131.085 68.2571 131.053 68.7752 131.046 69.2938H126.855V69.0693C127.127 69.062 127.219 68.9548 127.219 68.7253V64.499H127.22ZM106.881 51.7478C108.626 49.6914 111.193 48.393 114.057 48.393C117 48.393 119.632 49.7667 121.381 51.925L121.843 51.4791C119.981 49.2022 117.19 47.7577 114.07 47.7577C111.031 47.7577 108.305 49.129 106.445 51.3067L106.881 51.7478ZM113.244 46.5539L110.456 47.1503L109.754 43.677L112.503 43.0898L112.632 43.7251L110.825 44.1124L110.972 44.8411L112.697 44.4712L112.825 45.109L111.1 45.4768L111.269 46.3127L113.114 45.9174L113.244 46.5539ZM118.563 44.3126L116.9 43.9521L116.743 44.7242L118.404 45.0871L118.274 45.7232L116.613 45.3602L116.32 46.7878L115.378 46.5806L116.089 43.1121L118.694 43.677L118.563 44.3126ZM122.583 50.249L121.756 49.4454L121.886 48.6826L120.468 47.6687L119.84 48.0757L118.901 47.5352L122.251 45.482L123.167 46.1347L122.583 50.249ZM122.299 46.4564L121.032 47.2765L122.038 47.9956L122.299 46.4564ZM107.261 48.8267C106.643 49.3309 105.594 49.7428 104.828 48.8166L103.721 47.3579L104.461 46.7567L105.547 48.1911C105.939 48.6661 106.431 48.5734 106.824 48.2566C107.216 47.9406 107.418 47.4671 107.06 46.9638L105.973 45.531L106.713 44.9321L107.82 46.3908C108.482 47.3235 108.072 48.1636 107.261 48.8267Z" fill="white"/>
<path fill-rule="evenodd" clip-rule="evenodd" d="M125.977 46.7855C123.005 43.5723 118.808 41.5674 114.156 41.5674C109.449 41.5674 105.207 43.6189 102.231 46.8997L101.727 46.374C104.854 43.0075 109.261 40.9099 114.145 40.9099C118.99 40.9099 123.365 42.9755 126.486 46.2935L125.977 46.7855ZM132.46 71.9998C132.291 72.0002 132.123 71.9663 131.966 71.8998C131.81 71.8334 131.667 71.736 131.547 71.6129C131.427 71.4897 131.332 71.3435 131.267 71.1826C131.202 71.0215 131.168 70.8489 131.168 70.6746C131.169 70.3226 131.305 69.9851 131.547 69.7364C131.79 69.4876 132.118 69.3476 132.46 69.3471V69.4741C132.151 69.4752 131.856 69.6023 131.638 69.8273C131.421 70.0525 131.298 70.3571 131.298 70.6746C131.297 70.9927 131.42 71.2981 131.637 71.5238C131.855 71.7496 132.151 71.8771 132.46 71.8784V71.9998Z" fill="white"/>
<path fill-rule="evenodd" clip-rule="evenodd" d="M131.928 69.8828H132.45C132.648 69.8828 132.765 69.912 132.862 69.9904C132.91 70.0268 132.948 70.0739 132.974 70.1279C133.001 70.182 133.014 70.2416 133.014 70.3021C133.014 70.4878 132.884 70.6339 132.676 70.6775C132.778 70.7091 132.824 70.7362 132.867 70.7896C132.923 70.8576 132.945 70.9289 132.987 71.1502L133.01 71.2695C133.025 71.3573 133.03 71.3723 133.059 71.4229H132.904C132.872 71.3549 132.865 71.3282 132.848 71.2238C132.792 70.907 132.786 70.8847 132.709 70.8099C132.651 70.7512 132.57 70.7318 132.399 70.7318H132.072V71.4233H131.928V69.8828ZM132.454 70.6115C132.709 70.6115 132.865 70.4947 132.865 70.3017C132.865 70.0993 132.714 69.9925 132.43 69.9925H132.07V70.6112H132.454V70.6115Z" fill="white"/>
<path fill-rule="evenodd" clip-rule="evenodd" d="M132.461 72.0002C133.175 72.0002 133.757 71.4107 133.757 70.675C133.757 69.9394 133.175 69.3474 132.461 69.3474V69.4744C133.102 69.4744 133.617 70.0118 133.621 70.675C133.621 71.3418 133.102 71.8788 132.461 71.8788V72.0002Z" fill="white"/>
</g>
<defs>
<clipPath id="clip0_224_7675">
<rect width="388" height="72" fill="white"/>
</clipPath>
</defs>
</svg>
