<svg width="224" height="124" viewBox="0 0 224 124" fill="none" xmlns="http://www.w3.org/2000/svg">
<mask id="path-1-inside-1_224_7779" fill="white">
<path d="M111.51 26.551C111.72 25.081 112.42 23.401 113.47 22.281C114.66 21.091 116.2 20.671 117.67 20.671C119.42 20.671 120.68 21.161 121.59 21.931C122.36 22.561 123.27 23.681 123.27 25.641C123.27 27.601 122.36 29.211 121.17 30.121C119.7 31.171 117.6 31.381 115.85 31.381H115.15L114.17 38.801H114.8C116.34 38.801 118.58 38.801 120.19 40.201C121.24 41.111 122.01 42.651 122.01 44.541C122.01 46.1511 121.45 47.971 120.33 49.161C118.79 50.841 116.76 51.121 115.15 51.121C113.54 51.121 111.44 50.841 109.9 49.091C108.78 47.761 108.08 45.521 107.94 43.981H97.16C97.51 48.881 99.61 53.081 102.2 55.671C106.12 59.591 111.16 60.361 115.64 60.361C120.54 60.361 124.95 59.591 128.66 55.741C131.67 52.661 133.07 48.321 133.07 44.121C133.07 41.811 132.58 39.991 131.39 38.171C130.13 36.211 128.66 35.161 127.47 34.531C129.99 33.551 131.32 31.941 131.81 31.311C133.42 29.211 133.84 26.831 133.84 24.661C133.84 20.391 132.23 17.451 130.2 15.491C128.87 14.231 125.37 11.571 118.3 11.571C114.8 11.571 109.76 12.131 105.98 15.981C103.32 18.641 101.64 22.841 101.15 26.551H111.51Z"/>
</mask>
<path d="M111.51 26.551C111.72 25.081 112.42 23.401 113.47 22.281C114.66 21.091 116.2 20.671 117.67 20.671C119.42 20.671 120.68 21.161 121.59 21.931C122.36 22.561 123.27 23.681 123.27 25.641C123.27 27.601 122.36 29.211 121.17 30.121C119.7 31.171 117.6 31.381 115.85 31.381H115.15L114.17 38.801H114.8C116.34 38.801 118.58 38.801 120.19 40.201C121.24 41.111 122.01 42.651 122.01 44.541C122.01 46.1511 121.45 47.971 120.33 49.161C118.79 50.841 116.76 51.121 115.15 51.121C113.54 51.121 111.44 50.841 109.9 49.091C108.78 47.761 108.08 45.521 107.94 43.981H97.16C97.51 48.881 99.61 53.081 102.2 55.671C106.12 59.591 111.16 60.361 115.64 60.361C120.54 60.361 124.95 59.591 128.66 55.741C131.67 52.661 133.07 48.321 133.07 44.121C133.07 41.811 132.58 39.991 131.39 38.171C130.13 36.211 128.66 35.161 127.47 34.531C129.99 33.551 131.32 31.941 131.81 31.311C133.42 29.211 133.84 26.831 133.84 24.661C133.84 20.391 132.23 17.451 130.2 15.491C128.87 14.231 125.37 11.571 118.3 11.571C114.8 11.571 109.76 12.131 105.98 15.981C103.32 18.641 101.64 22.841 101.15 26.551H111.51Z" fill="#0A0B0D"/>
<path d="M111.51 26.551V28.551H113.245L113.49 26.8339L111.51 26.551ZM113.47 22.281L112.056 20.8668L112.033 20.8896L112.011 20.9132L113.47 22.281ZM121.59 21.931L120.298 23.4578L120.311 23.4685L120.324 23.479L121.59 21.931ZM121.17 30.121L122.332 31.7485L122.359 31.7296L122.385 31.7098L121.17 30.121ZM115.15 31.381V29.381H113.397L113.167 31.1192L115.15 31.381ZM114.17 38.801L112.187 38.5392L111.888 40.801H114.17V38.801ZM120.19 40.201L118.878 41.7103L118.88 41.7124L120.19 40.201ZM120.33 49.161L118.874 47.7903L118.865 47.7999L118.856 47.8096L120.33 49.161ZM109.9 49.091L108.37 50.3793L108.384 50.396L108.399 50.4123L109.9 49.091ZM107.94 43.981L109.932 43.8L109.766 41.981H107.94V43.981ZM97.16 43.981V41.981H95.012L95.1651 44.1235L97.16 43.981ZM102.2 55.671L100.786 57.0853L102.2 55.671ZM128.66 55.741L127.23 54.3431L127.22 54.3533L128.66 55.741ZM131.39 38.171L129.708 39.2526L129.712 39.2591L129.716 39.2655L131.39 38.171ZM127.47 34.531L126.745 32.667L122.669 34.2522L126.534 36.2986L127.47 34.531ZM131.81 31.311L133.389 32.539L133.397 32.5279L131.81 31.311ZM130.2 15.491L131.589 14.0522L131.582 14.0457L131.575 14.0391L130.2 15.491ZM105.98 15.981L107.394 17.3953L107.401 17.3888L107.407 17.3822L105.98 15.981ZM101.15 26.551L99.1672 26.2892L98.8685 28.551H101.15V26.551ZM113.49 26.8339C113.653 25.6922 114.21 24.4164 114.929 23.6489L112.011 20.9132C110.63 22.3857 109.787 24.4699 109.53 26.2682L113.49 26.8339ZM114.884 23.6953C115.598 22.9811 116.568 22.671 117.67 22.671V18.671C115.831 18.671 113.722 19.201 112.056 20.8668L114.884 23.6953ZM117.67 22.671C119.021 22.671 119.802 23.0382 120.298 23.4578L122.882 20.4043C121.558 19.2839 119.819 18.671 117.67 18.671V22.671ZM120.324 23.479C120.558 23.6706 120.785 23.9134 120.956 24.2324C121.122 24.5412 121.27 24.9859 121.27 25.641H125.27C125.27 22.9423 123.971 21.2953 122.856 20.3831L120.324 23.479ZM121.27 25.641C121.27 26.9779 120.65 28.0006 119.955 28.5323L122.385 31.7098C124.07 30.4215 125.27 28.2242 125.27 25.641H121.27ZM120.007 28.4936C119.091 29.1485 117.56 29.381 115.85 29.381V33.381C117.64 33.381 120.309 33.1935 122.332 31.7485L120.007 28.4936ZM115.85 29.381H115.15V33.381H115.85V29.381ZM113.167 31.1192L112.187 38.5392L116.153 39.0629L117.133 31.6429L113.167 31.1192ZM114.17 40.801H114.8V36.801H114.17V40.801ZM114.8 40.801C116.475 40.801 117.919 40.8771 118.878 41.7103L121.502 38.6918C119.24 36.725 116.205 36.801 114.8 36.801V40.801ZM118.88 41.7124C119.462 42.2171 120.01 43.1911 120.01 44.541H124.01C124.01 42.111 123.018 40.005 121.5 38.6897L118.88 41.7124ZM120.01 44.541C120.01 45.771 119.565 47.0559 118.874 47.7903L121.786 50.5318C123.335 48.8862 124.01 46.5311 124.01 44.541H120.01ZM118.856 47.8096C117.888 48.865 116.571 49.121 115.15 49.121V53.121C116.949 53.121 119.692 52.8171 121.804 50.5125L118.856 47.8096ZM115.15 49.121C113.718 49.121 112.361 48.8602 111.401 47.7698L108.399 50.4123C110.519 52.8219 113.362 53.121 115.15 53.121V49.121ZM111.43 47.8028C110.653 46.8807 110.048 45.0762 109.932 43.8L105.948 44.1621C106.112 45.9659 106.907 48.6414 108.37 50.3793L111.43 47.8028ZM107.94 41.981H97.16V45.981H107.94V41.981ZM95.1651 44.1235C95.5481 49.4862 97.8434 54.1429 100.786 57.0853L103.614 54.2568C101.377 52.0192 99.4718 48.2759 99.1549 43.8386L95.1651 44.1235ZM100.786 57.0853C105.268 61.5677 110.972 62.361 115.64 62.361V58.361C111.348 58.361 106.972 57.6144 103.614 54.2568L100.786 57.0853ZM115.64 62.361C120.753 62.361 125.833 61.5571 130.1 57.1288L127.22 54.3533C124.067 57.625 120.327 58.361 115.64 58.361V62.361ZM130.09 57.1389C133.538 53.611 135.07 48.7296 135.07 44.121H131.07C131.07 47.9125 129.802 51.7111 127.23 54.3432L130.09 57.1389ZM135.07 44.121C135.07 41.4715 134.492 39.2608 133.064 37.0765L129.716 39.2655C130.668 40.7213 131.07 42.1506 131.07 44.121H135.07ZM133.072 37.0895C131.588 34.7809 129.83 33.5175 128.406 32.7635L126.534 36.2986C127.49 36.8046 128.672 37.6412 129.708 39.2526L133.072 37.0895ZM128.195 36.3951C131.2 35.2264 132.801 33.295 133.389 32.5389L130.231 30.0832C129.839 30.5871 128.78 31.8757 126.745 32.667L128.195 36.3951ZM133.397 32.5279C135.371 29.9527 135.84 27.0803 135.84 24.661H131.84C131.84 26.5818 131.468 28.4693 130.223 30.0942L133.397 32.5279ZM135.84 24.661C135.84 19.8266 133.994 16.3737 131.589 14.0522L128.811 16.9299C130.466 18.5284 131.84 20.9555 131.84 24.661H135.84ZM131.575 14.0391C129.927 12.4773 125.95 9.57104 118.3 9.57104V13.571C124.79 13.571 127.813 15.9848 128.824 16.943L131.575 14.0391ZM118.3 9.57104C114.653 9.57104 108.915 10.1374 104.553 14.5799L107.407 17.3822C110.605 14.1247 114.947 13.571 118.3 13.571V9.57104ZM104.566 14.5668C101.514 17.6185 99.6979 22.2713 99.1672 26.2892L103.133 26.8129C103.582 23.4108 105.126 19.6636 107.394 17.3953L104.566 14.5668ZM101.15 28.551H111.51V24.551H101.15V28.551Z" fill="#006633" mask="url(#path-1-inside-1_224_7779)"/>
<mask id="path-3-inside-2_224_7779" fill="white">
<path d="M104.51 19.551C104.72 18.081 105.42 16.401 106.47 15.281C107.66 14.091 109.2 13.671 110.67 13.671C112.42 13.671 113.68 14.161 114.59 14.931C115.36 15.561 116.27 16.681 116.27 18.641C116.27 20.601 115.36 22.211 114.17 23.121C112.7 24.171 110.6 24.381 108.85 24.381H108.15L107.17 31.801H107.8C109.34 31.801 111.58 31.801 113.19 33.201C114.24 34.111 115.01 35.651 115.01 37.541C115.01 39.1511 114.45 40.971 113.33 42.161C111.79 43.841 109.76 44.121 108.15 44.121C106.54 44.121 104.44 43.841 102.9 42.091C101.78 40.761 101.08 38.521 100.94 36.981H90.16C90.51 41.881 92.61 46.081 95.2 48.671C99.12 52.591 104.16 53.361 108.64 53.361C113.54 53.361 117.95 52.591 121.66 48.741C124.67 45.661 126.07 41.321 126.07 37.121C126.07 34.811 125.58 32.991 124.39 31.171C123.13 29.211 121.66 28.161 120.47 27.531C122.99 26.551 124.32 24.941 124.81 24.311C126.42 22.211 126.84 19.831 126.84 17.661C126.84 13.391 125.23 10.451 123.2 8.49105C121.87 7.23105 118.37 4.57104 111.3 4.57104C107.8 4.57104 102.76 5.13105 98.98 8.98105C96.32 11.641 94.64 15.841 94.15 19.551H104.51Z"/>
</mask>
<path d="M104.51 19.551C104.72 18.081 105.42 16.401 106.47 15.281C107.66 14.091 109.2 13.671 110.67 13.671C112.42 13.671 113.68 14.161 114.59 14.931C115.36 15.561 116.27 16.681 116.27 18.641C116.27 20.601 115.36 22.211 114.17 23.121C112.7 24.171 110.6 24.381 108.85 24.381H108.15L107.17 31.801H107.8C109.34 31.801 111.58 31.801 113.19 33.201C114.24 34.111 115.01 35.651 115.01 37.541C115.01 39.1511 114.45 40.971 113.33 42.161C111.79 43.841 109.76 44.121 108.15 44.121C106.54 44.121 104.44 43.841 102.9 42.091C101.78 40.761 101.08 38.521 100.94 36.981H90.16C90.51 41.881 92.61 46.081 95.2 48.671C99.12 52.591 104.16 53.361 108.64 53.361C113.54 53.361 117.95 52.591 121.66 48.741C124.67 45.661 126.07 41.321 126.07 37.121C126.07 34.811 125.58 32.991 124.39 31.171C123.13 29.211 121.66 28.161 120.47 27.531C122.99 26.551 124.32 24.941 124.81 24.311C126.42 22.211 126.84 19.831 126.84 17.661C126.84 13.391 125.23 10.451 123.2 8.49105C121.87 7.23105 118.37 4.57104 111.3 4.57104C107.8 4.57104 102.76 5.13105 98.98 8.98105C96.32 11.641 94.64 15.841 94.15 19.551H104.51Z" fill="#0A0B0D"/>
<path d="M104.51 19.551V21.551H106.245L106.49 19.8339L104.51 19.551ZM106.47 15.281L105.056 13.8668L105.033 13.8896L105.011 13.9132L106.47 15.281ZM114.59 14.931L113.298 16.4578L113.311 16.4685L113.324 16.479L114.59 14.931ZM114.17 23.121L115.332 24.7485L115.359 24.7296L115.385 24.7098L114.17 23.121ZM108.15 24.381V22.381H106.397L106.167 24.1192L108.15 24.381ZM107.17 31.801L105.187 31.5392L104.888 33.801H107.17V31.801ZM113.19 33.201L111.878 34.7103L111.88 34.7124L113.19 33.201ZM113.33 42.161L111.874 40.7903L111.865 40.7999L111.856 40.8096L113.33 42.161ZM102.9 42.091L101.37 43.3793L101.384 43.396L101.399 43.4123L102.9 42.091ZM100.94 36.981L102.932 36.8L102.766 34.981H100.94V36.981ZM90.16 36.981V34.981H88.012L88.1651 37.1235L90.16 36.981ZM95.2 48.671L93.7858 50.0853L95.2 48.671ZM121.66 48.741L120.23 47.3431L120.22 47.3533L121.66 48.741ZM124.39 31.171L122.708 32.2526L122.712 32.2591L122.716 32.2655L124.39 31.171ZM120.47 27.531L119.745 25.667L115.669 27.2522L119.534 29.2986L120.47 27.531ZM124.81 24.311L126.389 25.539L126.397 25.5279L124.81 24.311ZM123.2 8.49105L124.589 7.05225L124.582 7.04566L124.575 7.03914L123.2 8.49105ZM98.98 8.98105L100.394 10.3953L100.401 10.3888L100.407 10.3822L98.98 8.98105ZM94.15 19.551L92.1672 19.2892L91.8685 21.551H94.15V19.551ZM106.49 19.8339C106.653 18.6922 107.21 17.4164 107.929 16.6489L105.011 13.9132C103.63 15.3857 102.787 17.4699 102.53 19.2682L106.49 19.8339ZM107.884 16.6953C108.598 15.9811 109.568 15.671 110.67 15.671V11.671C108.831 11.671 106.722 12.201 105.056 13.8668L107.884 16.6953ZM110.67 15.671C112.021 15.671 112.802 16.0382 113.298 16.4578L115.882 13.4043C114.558 12.2839 112.819 11.671 110.67 11.671V15.671ZM113.324 16.479C113.558 16.6706 113.785 16.9134 113.956 17.2324C114.122 17.5412 114.27 17.9859 114.27 18.641H118.27C118.27 15.9423 116.971 14.2953 115.856 13.3831L113.324 16.479ZM114.27 18.641C114.27 19.9779 113.65 21.0006 112.955 21.5323L115.385 24.7098C117.07 23.4215 118.27 21.2242 118.27 18.641H114.27ZM113.007 21.4936C112.091 22.1485 110.56 22.381 108.85 22.381V26.381C110.64 26.381 113.309 26.1935 115.332 24.7485L113.007 21.4936ZM108.85 22.381H108.15V26.381H108.85V22.381ZM106.167 24.1192L105.187 31.5392L109.153 32.0629L110.133 24.6429L106.167 24.1192ZM107.17 33.801H107.8V29.801H107.17V33.801ZM107.8 33.801C109.475 33.801 110.919 33.8771 111.878 34.7103L114.502 31.6918C112.24 29.725 109.205 29.801 107.8 29.801V33.801ZM111.88 34.7124C112.462 35.2171 113.01 36.1911 113.01 37.541H117.01C117.01 35.111 116.018 33.005 114.5 31.6897L111.88 34.7124ZM113.01 37.541C113.01 38.771 112.565 40.0559 111.874 40.7903L114.786 43.5318C116.335 41.8862 117.01 39.5311 117.01 37.541H113.01ZM111.856 40.8096C110.888 41.865 109.571 42.121 108.15 42.121V46.121C109.949 46.121 112.692 45.8171 114.804 43.5125L111.856 40.8096ZM108.15 42.121C106.718 42.121 105.361 41.8602 104.401 40.7698L101.399 43.4123C103.519 45.8219 106.362 46.121 108.15 46.121V42.121ZM104.43 40.8028C103.653 39.8807 103.048 38.0762 102.932 36.8L98.9482 37.1621C99.1122 38.9659 99.9066 41.6414 101.37 43.3793L104.43 40.8028ZM100.94 34.981H90.16V38.981H100.94V34.981ZM88.1651 37.1235C88.5481 42.4862 90.8434 47.1429 93.7858 50.0853L96.6142 47.2568C94.3765 45.0192 92.4718 41.2759 92.1549 36.8386L88.1651 37.1235ZM93.7858 50.0853C98.2682 54.5677 103.972 55.361 108.64 55.361V51.361C104.348 51.361 99.9717 50.6144 96.6142 47.2568L93.7858 50.0853ZM108.64 55.361C113.753 55.361 118.833 54.5571 123.1 50.1288L120.22 47.3533C117.067 50.625 113.327 51.361 108.64 51.361V55.361ZM123.09 50.1389C126.538 46.611 128.07 41.7296 128.07 37.121H124.07C124.07 40.9125 122.802 44.7111 120.23 47.3432L123.09 50.1389ZM128.07 37.121C128.07 34.4715 127.492 32.2608 126.064 30.0765L122.716 32.2655C123.668 33.7213 124.07 35.1506 124.07 37.121H128.07ZM126.072 30.0895C124.588 27.7809 122.83 26.5175 121.406 25.7635L119.534 29.2986C120.49 29.8046 121.672 30.6412 122.708 32.2526L126.072 30.0895ZM121.195 29.3951C124.2 28.2264 125.801 26.295 126.389 25.5389L123.231 23.0832C122.839 23.5871 121.78 24.8757 119.745 25.667L121.195 29.3951ZM126.397 25.5279C128.371 22.9527 128.84 20.0803 128.84 17.661H124.84C124.84 19.5818 124.468 21.4693 123.223 23.0942L126.397 25.5279ZM128.84 17.661C128.84 12.8266 126.994 9.3737 124.589 7.05225L121.811 9.92985C123.466 11.5284 124.84 13.9555 124.84 17.661H128.84ZM124.575 7.03914C122.927 5.47727 118.95 2.57104 111.3 2.57104V6.57104C117.79 6.57104 120.813 8.98482 121.824 9.94296L124.575 7.03914ZM111.3 2.57104C107.653 2.57104 101.915 3.13743 97.5528 7.57987L100.407 10.3822C103.605 7.12467 107.947 6.57104 111.3 6.57104V2.57104ZM97.5658 7.56683C94.5141 10.6185 92.6979 15.2713 92.1672 19.2892L96.1328 19.8129C96.5821 16.4108 98.1258 12.6636 100.394 10.3953L97.5658 7.56683ZM94.15 21.551H104.51V17.551H94.15V21.551Z" fill="#6AC687" mask="url(#path-3-inside-2_224_7779)"/>
<path d="M53.6856 79.7151H58.4996C58.1226 81.5131 57.1946 82.5861 56.5566 83.1661C55.3096 84.2971 53.8596 84.7031 52.2646 84.7031C49.8576 84.7031 48.4946 83.6881 47.7696 82.9631C46.6966 81.8611 45.9426 80.0341 45.9426 78.1201C45.9426 76.0901 46.6676 73.8861 48.3206 72.2621C49.4806 71.1021 51.2786 70.0871 53.8596 70.0871C55.1066 70.0871 56.2956 70.3771 57.3976 71.0731C58.1516 71.5661 58.9636 72.3781 59.5146 73.1321L61.8926 71.3631C61.1096 70.2901 60.0366 69.2751 58.8476 68.5501C57.3396 67.6511 55.8896 67.3611 54.1496 67.3611C50.8726 67.3611 48.2336 68.4341 46.2326 70.4061C44.2026 72.4071 42.9556 75.3361 42.9556 78.4101C42.9556 81.6001 44.3186 83.6591 45.4786 84.8481C47.4216 86.8781 49.5966 87.4291 51.9166 87.4291C54.2076 87.4291 56.7306 86.9651 58.8186 84.9061C61.1966 82.5571 61.8636 78.9611 62.0086 76.9891H54.0336L53.6856 79.7151Z" fill="white"/>
<path d="M78.9729 67.7091H68.3009L65.9229 87.0521H76.5949L76.9429 84.2681H69.229L69.9829 78.1781H77.465L77.813 75.3941H70.3309L70.9109 70.4931H78.6249L78.9729 67.7091Z" fill="white"/>
<path d="M93.7049 70.4931L94.0529 67.7091H82.2209L81.8729 70.4931H86.31L84.28 87.0521H87.238L89.268 70.4931H93.7049Z" fill="white"/>
<path d="M106.382 67.7091L105.106 77.9751C104.845 80.0051 104.787 80.6431 104.787 81.1941C104.787 83.1371 105.454 84.4131 106.063 85.1671C107.368 86.8201 109.166 87.4291 111.312 87.4291C113.748 87.4291 115.43 86.6171 116.445 85.7761C117.547 84.8481 118.823 83.0211 119.171 80.1501L120.708 67.7091H117.75L116.329 79.3671C116.155 80.8461 115.981 82.2381 114.763 83.4561C114.125 84.0651 113.11 84.7031 111.544 84.7031C110.181 84.7031 109.34 84.1811 108.818 83.6591C107.919 82.7601 107.803 81.7161 107.803 80.7881C107.803 79.9471 107.948 79.1641 108.006 78.5841L109.34 67.7091H106.382Z" fill="white"/>
<path d="M126.805 67.7091L124.427 87.0521H127.385L128.342 79.1931H129.328C131.851 79.1931 133.939 78.7871 135.389 77.3371C136.201 76.5251 137.042 75.1621 137.042 72.9871C137.042 71.0731 136.317 69.8841 135.621 69.2171C134.113 67.7671 131.793 67.7091 130.952 67.7091H126.805ZM129.415 70.4351H130.662C131.271 70.4351 132.518 70.4641 133.301 71.1021C133.794 71.5081 134.2 72.1751 134.2 73.1611C134.2 74.2051 133.794 75.0751 133.214 75.5681C132.431 76.2641 131.184 76.4671 129.792 76.4671H128.69L129.415 70.4351Z" fill="white"/>
<path d="M159.89 70.4931L160.238 67.7091H148.406L148.058 70.4931H152.495L150.465 87.0521H153.423L155.453 70.4931H159.89Z" fill="white"/>
<path d="M172.887 67.3611C169.581 67.3611 166.681 68.4921 164.767 70.4061C162.824 72.3201 161.606 75.2781 161.606 78.3521C161.606 81.0491 162.65 83.3691 164.187 84.9351C166.043 86.8491 168.247 87.4291 170.886 87.4291C173.322 87.4291 176.309 87.0231 178.861 84.4421C180.311 82.9631 181.906 80.4111 181.906 76.4381C181.906 74.7851 181.616 72.0591 179.412 69.8841C178.281 68.7531 176.251 67.3611 172.887 67.3611ZM170.915 84.7031C169.291 84.7031 167.696 84.2971 166.333 82.8471C165.579 82.0641 164.535 80.5561 164.535 78.1491C164.535 75.5391 165.608 73.5381 166.942 72.2331C168.566 70.6381 170.451 70.0871 172.307 70.0871C174.453 70.0871 176.135 70.9571 177.208 72.0591C178.02 72.9001 178.948 74.3501 178.948 76.6121C178.948 78.8741 178.078 81.1651 176.599 82.6151C175.323 83.8911 173.467 84.7031 170.915 84.7031Z" fill="white"/>
<path d="M24.2327 97.4631C23.1307 96.8251 21.7967 96.3611 19.5927 96.3611C16.1707 96.3611 13.8507 97.5211 12.3137 98.8841C11.2697 99.8121 10.1967 101.204 9.64573 103.118H8.39873L7.26773 105.148H9.06573C8.86273 105.815 8.77573 106.54 8.74673 107.294H7.87673L6.74573 109.324H8.71773C8.74673 111.296 9.55873 112.978 10.5157 114.051C11.8207 115.472 14.0247 116.429 16.7507 116.429C17.8237 116.429 19.7957 116.168 21.7677 115.211L22.1447 112.05C20.0567 113.558 18.0847 113.703 17.1567 113.703C13.9667 113.703 12.0817 111.876 11.8497 109.324H17.7367L18.8677 107.294H11.7047C11.7337 106.54 11.8207 105.815 12.0237 105.148H19.9697L21.1007 103.118H12.7197C14.1117 99.2321 18.1137 99.0871 19.0127 99.0871C21.0717 99.0871 22.1447 99.6671 22.6667 100.044L24.2327 97.4631Z" fill="white"/>
<path d="M31.9862 116.052H34.9442L37.3222 96.7091H32.6242L30.6522 99.4351H34.0162L31.9862 116.052Z" fill="white"/>
<path d="M48.3295 116.371C50.2145 116.371 51.5485 115.849 52.9985 114.399C55.0575 112.311 56.4205 109.121 56.4205 104.046C56.4205 102.277 56.1595 99.6091 54.2455 97.8111C53.2015 96.8251 52.0125 96.3901 50.6495 96.3901C48.7935 96.3901 47.3145 96.9991 45.9805 98.3331C43.1675 101.088 42.4425 105.612 42.4425 108.628C42.4425 110.136 42.6745 112.688 44.2695 114.573C45.3135 115.82 46.5025 116.371 48.3295 116.371ZM50.3305 99.0001C50.9975 99.0001 51.5485 99.1741 52.0705 99.6381C53.3755 100.827 53.4915 103.263 53.4915 104.423C53.4915 106.859 52.7955 110.774 50.8815 112.717C50.1565 113.442 49.4605 113.732 48.5035 113.732C47.8075 113.732 47.2855 113.587 46.7345 113.036C45.5165 111.818 45.3715 109.817 45.3715 108.396C45.3715 105.351 46.3285 101.697 47.9525 100.044C48.5615 99.4061 49.3155 99.0001 50.3305 99.0001Z" fill="white"/>
<path d="M66.2619 116.371C68.1469 116.371 69.4809 115.849 70.9309 114.399C72.9899 112.311 74.3529 109.121 74.3529 104.046C74.3529 102.277 74.0919 99.6091 72.1779 97.8111C71.1339 96.8251 69.9449 96.3901 68.5819 96.3901C66.7259 96.3901 65.2469 96.9991 63.9129 98.3331C61.0999 101.088 60.3749 105.612 60.3749 108.628C60.3749 110.136 60.6069 112.688 62.2019 114.573C63.2459 115.82 64.4349 116.371 66.2619 116.371ZM68.2629 99.0001C68.9299 99.0001 69.4809 99.1741 70.0029 99.6381C71.3079 100.827 71.4239 103.263 71.4239 104.423C71.4239 106.859 70.7279 110.774 68.8139 112.717C68.0889 113.442 67.3929 113.732 66.4359 113.732C65.7399 113.732 65.2179 113.587 64.6669 113.036C63.4489 111.818 63.3039 109.817 63.3039 108.396C63.3039 105.351 64.2609 101.697 65.8849 100.044C66.4939 99.4061 67.2479 99.0001 68.2629 99.0001Z" fill="white"/>
<path d="M98.4739 96.7091H88.7879L86.4099 116.052H89.3679L90.4699 107.178H96.9659L97.3139 104.394H90.8179L91.3979 99.4931H98.1259L98.4739 96.7091Z" fill="white"/>
<path d="M103.294 96.7091L100.916 116.052H103.874L104.86 108.135H105.382L109.935 116.052H113.502L108.485 107.787C109.703 107.555 110.95 106.946 111.791 106.163C112.661 105.351 113.473 103.959 113.473 101.987C113.473 99.9571 112.545 98.5941 111.617 97.8981C110.225 96.8251 108.253 96.7091 106.745 96.7091H103.294ZM105.904 99.4351H106.919C108.195 99.4351 109.036 99.6381 109.558 99.9861C110.167 100.392 110.631 101.146 110.631 102.161C110.631 103.205 110.109 104.133 109.442 104.655C108.543 105.38 107.122 105.583 106.078 105.583H105.15L105.904 99.4351Z" fill="white"/>
<path d="M130.907 96.7091H120.235L117.857 116.052H128.529L128.877 113.268H121.163L121.917 107.178H129.399L129.747 104.394H122.265L122.845 99.4931H130.559L130.907 96.7091Z" fill="white"/>
<path d="M146.857 96.7091H136.185L133.807 116.052H144.479L144.827 113.268H137.113L137.867 107.178H145.349L145.697 104.394H138.215L138.795 99.4931H146.509L146.857 96.7091Z" fill="white"/>
<path d="M160.353 96.7091L157.975 116.052H162.499C164.355 116.052 166.965 115.936 168.705 114.109C169.488 113.297 170.242 111.934 170.242 109.875C170.242 108.976 170.068 108.077 169.401 107.207C169.198 106.946 168.531 106.134 167.284 105.699C168.212 105.206 168.734 104.51 168.995 104.017C169.459 103.147 169.546 102.219 169.546 101.494C169.546 100.276 169.256 99.1741 168.328 98.2171C167.139 97.0281 165.428 96.7091 163.282 96.7091H160.353ZM162.963 99.4931H163.775C164.442 99.4931 165.486 99.5801 166.124 100.218C166.443 100.537 166.762 101.088 166.762 101.9C166.762 102.886 166.356 103.756 165.805 104.249C165.37 104.626 164.587 105.032 163.195 105.032H162.296L162.963 99.4931ZM161.977 107.468H163.833C164.703 107.468 165.747 107.555 166.501 108.164C166.936 108.512 167.371 109.092 167.371 110.049C167.371 110.977 166.994 111.789 166.472 112.282C165.544 113.152 164.181 113.268 163.079 113.268H161.281L161.977 107.468Z" fill="white"/>
<path d="M187.74 96.7091H177.068L174.69 116.052H185.362L185.71 113.268H177.996L178.75 107.178H186.232L186.58 104.394H179.098L179.678 99.4931H187.392L187.74 96.7091Z" fill="white"/>
<path d="M202.472 99.4931L202.82 96.7091H190.988L190.64 99.4931H195.077L193.047 116.052H196.005L198.035 99.4931H202.472Z" fill="white"/>
<path d="M217.254 99.6091C216.993 98.8551 216.471 97.9561 215.427 97.2601C214.296 96.5061 213.049 96.3611 212.092 96.3611C210.033 96.3611 208.525 97.1151 207.481 98.2171C205.944 99.8411 205.944 101.697 205.944 101.958C205.944 103.118 206.408 104.104 207.017 104.8C207.684 105.525 208.612 106.018 209.308 106.337L210.787 107.004C211.425 107.294 212.208 107.642 212.759 108.222C213.223 108.715 213.513 109.266 213.513 110.049C213.513 111.035 213.165 112.224 212.411 112.891C211.889 113.355 211.164 113.703 210.12 113.703C208.873 113.703 208.119 113.297 207.655 112.688C207.133 111.992 206.959 110.832 206.988 110.078L204.001 110.716C204.059 112.572 204.842 114.138 205.799 115.066C206.872 116.11 208.177 116.429 209.685 116.429C211.193 116.429 213.165 116.11 214.731 114.486C215.717 113.442 216.5 111.934 216.5 109.701C216.5 108.512 216.268 107.497 215.485 106.54C215.05 105.989 214.296 105.322 213.049 104.771L211.483 104.075C210.758 103.756 210.207 103.611 209.598 103.06C209.192 102.683 208.902 102.248 208.902 101.581C208.902 100.885 209.25 100.247 209.714 99.8411C210.091 99.4931 210.787 99.0871 211.918 99.0871C212.498 99.0871 213.281 99.2321 213.832 99.6381C214.238 99.9571 214.557 100.45 214.702 101.001L217.254 99.6091Z" fill="white"/>
</svg>
