<svg width="224" height="124" viewBox="0 0 224 124" fill="none" xmlns="http://www.w3.org/2000/svg">
<path d="M90.954 67.5756H80.282L77.904 86.9186H88.576L88.924 84.1346H81.21L81.964 78.0446H89.446L89.794 75.2606H82.312L82.892 70.3596H90.606L90.954 67.5756Z" fill="white"/>
<path d="M107.31 86.9186H110.442L103.801 66.4446L91.65 86.9186H94.898L97.595 82.2496H105.86L107.31 86.9186ZM99.161 79.4656L102.931 72.9116L105.019 79.4656H99.161Z" fill="white"/>
<path d="M126.472 70.4756C126.211 69.7216 125.689 68.8226 124.645 68.1266C123.514 67.3726 122.267 67.2276 121.31 67.2276C119.251 67.2276 117.743 67.9816 116.699 69.0836C115.162 70.7076 115.162 72.5636 115.162 72.8246C115.162 73.9846 115.626 74.9706 116.235 75.6666C116.902 76.3916 117.83 76.8846 118.526 77.2036L120.005 77.8706C120.643 78.1606 121.426 78.5086 121.977 79.0886C122.441 79.5816 122.731 80.1326 122.731 80.9156C122.731 81.9016 122.383 83.0906 121.629 83.7576C121.107 84.2216 120.382 84.5696 119.338 84.5696C118.091 84.5696 117.337 84.1636 116.873 83.5546C116.351 82.8586 116.177 81.6986 116.206 80.9446L113.219 81.5826C113.277 83.4386 114.06 85.0046 115.017 85.9326C116.09 86.9766 117.395 87.2956 118.903 87.2956C120.411 87.2956 122.383 86.9766 123.949 85.3526C124.935 84.3086 125.718 82.8006 125.718 80.5676C125.718 79.3786 125.486 78.3636 124.703 77.4066C124.268 76.8556 123.514 76.1886 122.267 75.6376L120.701 74.9416C119.976 74.6226 119.425 74.4776 118.816 73.9266C118.41 73.5496 118.12 73.1146 118.12 72.4476C118.12 71.7516 118.468 71.1136 118.932 70.7076C119.309 70.3596 120.005 69.9536 121.136 69.9536C121.716 69.9536 122.499 70.0986 123.05 70.5046C123.456 70.8236 123.775 71.3166 123.92 71.8676L126.472 70.4756Z" fill="white"/>
<path d="M133.24 86.9186H136.198L137.213 78.5666L144.927 67.5756H141.505L136.082 75.3186L132.573 67.5756H129.267L134.255 78.5666L133.24 86.9186Z" fill="white"/>
<path d="M57.521 96.5756L55.143 115.919H58.739C61.9 115.919 65.844 115.629 68.628 112.845C70.861 110.612 71.354 107.886 71.354 105.305C71.354 103.304 71.064 100.926 69.005 98.9826C66.743 96.8366 63.756 96.5756 61.581 96.5756H57.521ZM60.131 99.3596H61.407C62.77 99.3596 65.206 99.4466 66.801 101.071C67.729 102.028 68.396 103.594 68.396 105.711C68.396 108.495 67.294 110.061 66.772 110.67C64.771 113.019 61.668 113.135 59.725 113.135H58.449L60.131 99.3596Z" fill="white"/>
<path d="M88.3911 96.5756H77.7191L75.3411 115.919H86.0131L86.3611 113.135H78.6471L79.4011 107.045H86.8831L87.2311 104.261H79.7491L80.3291 99.3596H88.0431L88.3911 96.5756Z" fill="white"/>
<path d="M93.6691 96.5756L91.2911 115.919H94.2491L95.2061 108.06H96.1921C98.7151 108.06 100.803 107.654 102.253 106.204C103.065 105.392 103.906 104.029 103.906 101.854C103.906 99.9396 103.181 98.7506 102.485 98.0836C100.977 96.6336 98.6571 96.5756 97.8161 96.5756H93.6691ZM96.2791 99.3016H97.5261C98.1351 99.3016 99.3821 99.3306 100.165 99.9686C100.658 100.375 101.064 101.042 101.064 102.028C101.064 103.072 100.658 103.942 100.078 104.435C99.2951 105.131 98.0481 105.334 96.6561 105.334H95.5541L96.2791 99.3016Z" fill="white"/>
<path d="M118.245 96.2276C114.939 96.2276 112.039 97.3586 110.125 99.2726C108.182 101.187 106.964 104.145 106.964 107.219C106.964 109.916 108.008 112.236 109.545 113.802C111.401 115.716 113.605 116.296 116.244 116.296C118.68 116.296 121.667 115.89 124.219 113.309C125.669 111.83 127.264 109.278 127.264 105.305C127.264 103.652 126.974 100.926 124.77 98.7506C123.639 97.6196 121.609 96.2276 118.245 96.2276ZM116.273 113.57C114.649 113.57 113.054 113.164 111.691 111.714C110.937 110.931 109.893 109.423 109.893 107.016C109.893 104.406 110.966 102.405 112.3 101.1C113.924 99.5046 115.809 98.9536 117.665 98.9536C119.811 98.9536 121.493 99.8236 122.566 100.926C123.378 101.767 124.306 103.217 124.306 105.479C124.306 107.741 123.436 110.032 121.957 111.482C120.681 112.758 118.825 113.57 116.273 113.57Z" fill="white"/>
<path d="M143.994 99.4756C143.733 98.7216 143.211 97.8226 142.167 97.1266C141.036 96.3726 139.789 96.2276 138.832 96.2276C136.773 96.2276 135.265 96.9816 134.221 98.0836C132.684 99.7076 132.684 101.564 132.684 101.825C132.684 102.985 133.148 103.971 133.757 104.667C134.424 105.392 135.352 105.885 136.048 106.204L137.527 106.871C138.165 107.161 138.948 107.509 139.499 108.089C139.963 108.582 140.253 109.133 140.253 109.916C140.253 110.902 139.905 112.091 139.151 112.758C138.629 113.222 137.904 113.57 136.86 113.57C135.613 113.57 134.859 113.164 134.395 112.555C133.873 111.859 133.699 110.699 133.728 109.945L130.741 110.583C130.799 112.439 131.582 114.005 132.539 114.933C133.612 115.977 134.917 116.296 136.425 116.296C137.933 116.296 139.905 115.977 141.471 114.353C142.457 113.309 143.24 111.801 143.24 109.568C143.24 108.379 143.008 107.364 142.225 106.407C141.79 105.856 141.036 105.189 139.789 104.638L138.223 103.942C137.498 103.623 136.947 103.478 136.338 102.927C135.932 102.55 135.642 102.115 135.642 101.448C135.642 100.752 135.99 100.114 136.454 99.7076C136.831 99.3596 137.527 98.9536 138.658 98.9536C139.238 98.9536 140.021 99.0986 140.572 99.5046C140.978 99.8236 141.297 100.317 141.442 100.868L143.994 99.4756Z" fill="white"/>
<path d="M150.015 96.5756L147.637 115.919H150.595L152.973 96.5756H150.015Z" fill="white"/>
<path d="M168.509 99.3596L168.857 96.5756H157.025L156.677 99.3596H161.114L159.084 115.919H162.042L164.072 99.3596H168.509Z" fill="white"/>
<mask id="path-2-inside-1_224_7773" fill="white">
<path d="M96.4521 59.4446H131.102L132.292 50.3446H117.522L123.892 44.4646C126.412 42.1546 129.982 38.3046 131.522 35.9946C133.552 32.9146 134.602 29.5546 134.602 25.9146C134.602 21.0146 132.642 17.7946 130.752 15.9746C128.162 13.4546 123.892 11.7046 118.292 11.7046C113.602 11.7046 108.912 12.8246 105.202 16.8146C102.402 19.8246 100.722 24.1646 100.372 28.2246H111.152C111.292 26.2646 112.062 23.8146 113.182 22.5546C114.442 21.1546 115.982 20.8046 117.592 20.8046C118.852 20.8046 120.532 21.0146 121.792 22.1346C122.842 23.0446 123.542 24.5846 123.542 26.4746C123.542 30.1146 120.882 33.8246 119.272 35.8546C117.242 38.4446 114.582 41.3146 110.452 45.4446L96.4521 59.4446Z"/>
</mask>
<path d="M96.4521 59.4446H131.102L132.292 50.3446H117.522L123.892 44.4646C126.412 42.1546 129.982 38.3046 131.522 35.9946C133.552 32.9146 134.602 29.5546 134.602 25.9146C134.602 21.0146 132.642 17.7946 130.752 15.9746C128.162 13.4546 123.892 11.7046 118.292 11.7046C113.602 11.7046 108.912 12.8246 105.202 16.8146C102.402 19.8246 100.722 24.1646 100.372 28.2246H111.152C111.292 26.2646 112.062 23.8146 113.182 22.5546C114.442 21.1546 115.982 20.8046 117.592 20.8046C118.852 20.8046 120.532 21.0146 121.792 22.1346C122.842 23.0446 123.542 24.5846 123.542 26.4746C123.542 30.1146 120.882 33.8246 119.272 35.8546C117.242 38.4446 114.582 41.3146 110.452 45.4446L96.4521 59.4446Z" fill="#0A0B0D"/>
<path d="M96.4521 59.4446L95.0379 58.0304L91.6237 61.4446H96.4521V59.4446ZM131.102 59.4446V61.4446H132.858L133.085 59.7039L131.102 59.4446ZM132.292 50.3446L134.275 50.6039L134.571 48.3446H132.292V50.3446ZM117.522 50.3446L116.166 48.875L112.407 52.3446H117.522V50.3446ZM123.892 44.4646L122.541 42.9903L122.536 42.995L123.892 44.4646ZM131.522 35.9946L133.186 37.104L133.192 37.0952L131.522 35.9946ZM130.752 15.9746L129.357 17.4081L129.365 17.4152L130.752 15.9746ZM105.202 16.8146L106.666 18.1768L106.667 18.1765L105.202 16.8146ZM100.372 28.2246L98.3795 28.0528L98.1923 30.2246H100.372V28.2246ZM111.152 28.2246V30.2246H113.014L113.147 28.3671L111.152 28.2246ZM113.182 22.5546L111.695 21.2166L111.687 21.2259L113.182 22.5546ZM121.792 22.1346L120.463 23.6294L120.473 23.6377L120.482 23.646L121.792 22.1346ZM119.272 35.8546L117.705 34.6118L117.698 34.6208L119.272 35.8546ZM110.452 45.4446L109.038 44.0304L109.038 44.0304L110.452 45.4446ZM96.4521 61.4446H131.102V57.4446H96.4521V61.4446ZM133.085 59.7039L134.275 50.6039L130.309 50.0853L129.119 59.1853L133.085 59.7039ZM132.292 48.3446H117.522V52.3446H132.292V48.3446ZM118.879 51.8142L125.249 45.9342L122.536 42.995L116.166 48.875L118.879 51.8142ZM125.244 45.9389C127.817 43.5801 131.519 39.6055 133.186 37.104L129.858 34.8852C128.446 37.0037 125.007 40.7291 122.541 42.9903L125.244 45.9389ZM133.192 37.0952C135.427 33.7044 136.602 29.9645 136.602 25.9146H132.602C132.602 29.1447 131.677 32.1248 129.852 34.894L133.192 37.0952ZM136.602 25.9146C136.602 20.4322 134.392 16.7031 132.139 14.5339L129.365 17.4152C130.892 18.886 132.602 21.597 132.602 25.9146H136.602ZM132.147 14.5411C129.104 11.5807 124.291 9.70459 118.292 9.70459V13.7046C123.493 13.7046 127.22 15.3284 129.357 17.408L132.147 14.5411ZM118.292 9.70459C113.279 9.70459 107.96 10.9119 103.737 15.4527L106.667 18.1765C109.865 14.7373 113.925 13.7046 118.292 13.7046V9.70459ZM103.738 15.4524C100.586 18.8402 98.7614 23.623 98.3795 28.0528L102.365 28.3964C102.683 24.7061 104.218 20.809 106.666 18.1768L103.738 15.4524ZM100.372 30.2246H111.152V26.2246H100.372V30.2246ZM113.147 28.3671C113.204 27.5705 113.394 26.6391 113.69 25.7791C113.995 24.8943 114.36 24.2397 114.677 23.8833L111.687 21.2259C110.884 22.1295 110.304 23.3299 109.909 24.4751C109.505 25.6451 109.24 26.9186 109.157 28.0821L113.147 28.3671ZM114.669 23.8925C115.408 23.0712 116.296 22.8046 117.592 22.8046V18.8046C115.668 18.8046 113.476 19.238 111.695 21.2167L114.669 23.8925ZM117.592 22.8046C118.71 22.8046 119.765 23.009 120.463 23.6294L123.121 20.6398C121.299 19.0202 118.994 18.8046 117.592 18.8046V22.8046ZM120.482 23.646C121.022 24.114 121.542 25.0626 121.542 26.4746H125.542C125.542 24.1065 124.662 21.9752 123.102 20.6232L120.482 23.646ZM121.542 26.4746C121.542 27.8334 121.036 29.3354 120.243 30.8326C119.461 32.3097 118.481 33.6336 117.705 34.6118L120.839 37.0974C121.673 36.0456 122.828 34.4995 123.778 32.7041C124.718 30.9288 125.542 28.7558 125.542 26.4746H121.542ZM117.698 34.6208C115.744 37.1133 113.154 39.9147 109.038 44.0304L111.866 46.8588C116.011 42.7145 118.74 39.7759 120.846 37.0884L117.698 34.6208ZM109.038 44.0304L95.0379 58.0304L97.8663 60.8588L111.866 46.8588L109.038 44.0304Z" fill="#006633" mask="url(#path-2-inside-1_224_7773)"/>
<mask id="path-4-inside-2_224_7773" fill="white">
<path d="M89.4521 52.4446H124.102L125.292 43.3446H110.522L116.892 37.4646C119.412 35.1546 122.982 31.3046 124.522 28.9946C126.552 25.9146 127.602 22.5546 127.602 18.9146C127.602 14.0146 125.642 10.7946 123.752 8.97459C121.162 6.45459 116.892 4.70459 111.292 4.70459C106.602 4.70459 101.912 5.82459 98.2021 9.81459C95.4021 12.8246 93.7221 17.1646 93.3721 21.2246H104.152C104.292 19.2646 105.062 16.8146 106.182 15.5546C107.442 14.1546 108.982 13.8046 110.592 13.8046C111.852 13.8046 113.532 14.0146 114.792 15.1346C115.842 16.0446 116.542 17.5846 116.542 19.4746C116.542 23.1146 113.882 26.8246 112.272 28.8546C110.242 31.4446 107.582 34.3146 103.452 38.4446L89.4521 52.4446Z"/>
</mask>
<path d="M89.4521 52.4446H124.102L125.292 43.3446H110.522L116.892 37.4646C119.412 35.1546 122.982 31.3046 124.522 28.9946C126.552 25.9146 127.602 22.5546 127.602 18.9146C127.602 14.0146 125.642 10.7946 123.752 8.97459C121.162 6.45459 116.892 4.70459 111.292 4.70459C106.602 4.70459 101.912 5.82459 98.2021 9.81459C95.4021 12.8246 93.7221 17.1646 93.3721 21.2246H104.152C104.292 19.2646 105.062 16.8146 106.182 15.5546C107.442 14.1546 108.982 13.8046 110.592 13.8046C111.852 13.8046 113.532 14.0146 114.792 15.1346C115.842 16.0446 116.542 17.5846 116.542 19.4746C116.542 23.1146 113.882 26.8246 112.272 28.8546C110.242 31.4446 107.582 34.3146 103.452 38.4446L89.4521 52.4446Z" fill="#0A0B0D"/>
<path d="M89.4521 52.4446L88.0379 51.0304L84.6237 54.4446H89.4521V52.4446ZM124.102 52.4446V54.4446H125.858L126.085 52.7039L124.102 52.4446ZM125.292 43.3446L127.275 43.6039L127.571 41.3446H125.292V43.3446ZM110.522 43.3446L109.166 41.875L105.407 45.3446H110.522V43.3446ZM116.892 37.4646L115.541 35.9903L115.536 35.995L116.892 37.4646ZM124.522 28.9946L126.186 30.104L126.192 30.0952L124.522 28.9946ZM123.752 8.97459L122.357 10.4081L122.365 10.4152L123.752 8.97459ZM98.2021 9.81459L99.6665 11.1768L99.6668 11.1765L98.2021 9.81459ZM93.3721 21.2246L91.3795 21.0528L91.1923 23.2246H93.3721V21.2246ZM104.152 21.2246V23.2246H106.014L106.147 21.3671L104.152 21.2246ZM106.182 15.5546L104.695 14.2166L104.687 14.2259L106.182 15.5546ZM114.792 15.1346L113.463 16.6294L113.473 16.6377L113.482 16.646L114.792 15.1346ZM112.272 28.8546L110.705 27.6118L110.698 27.6208L112.272 28.8546ZM103.452 38.4446L102.038 37.0304L102.038 37.0304L103.452 38.4446ZM89.4521 54.4446H124.102V50.4446H89.4521V54.4446ZM126.085 52.7039L127.275 43.6039L123.309 43.0853L122.119 52.1853L126.085 52.7039ZM125.292 41.3446H110.522V45.3446H125.292V41.3446ZM111.879 44.8142L118.249 38.9342L115.536 35.995L109.166 41.875L111.879 44.8142ZM118.244 38.9389C120.817 36.5801 124.519 32.6055 126.186 30.104L122.858 27.8852C121.446 30.0037 118.007 33.7291 115.541 35.9903L118.244 38.9389ZM126.192 30.0952C128.427 26.7044 129.602 22.9645 129.602 18.9146H125.602C125.602 22.1447 124.677 25.1248 122.852 27.894L126.192 30.0952ZM129.602 18.9146C129.602 13.4322 127.392 9.70314 125.139 7.53395L122.365 10.4152C123.892 11.886 125.602 14.597 125.602 18.9146H129.602ZM125.147 7.54114C122.104 4.58074 117.291 2.70459 111.292 2.70459V6.70459C116.493 6.70459 120.22 8.32844 122.357 10.408L125.147 7.54114ZM111.292 2.70459C106.279 2.70459 100.96 3.91193 96.7374 8.4527L99.6668 11.1765C102.865 7.73726 106.925 6.70459 111.292 6.70459V2.70459ZM96.7377 8.45238C93.5863 11.8402 91.7614 16.623 91.3795 21.0528L95.3647 21.3964C95.6828 17.7061 97.2179 13.809 99.6665 11.1768L96.7377 8.45238ZM93.3721 23.2246H104.152V19.2246H93.3721V23.2246ZM106.147 21.3671C106.204 20.5705 106.394 19.6391 106.69 18.7791C106.995 17.8943 107.36 17.2397 107.677 16.8833L104.687 14.2259C103.884 15.1295 103.304 16.3299 102.909 17.4751C102.505 18.6451 102.24 19.9186 102.157 21.0821L106.147 21.3671ZM107.669 16.8925C108.408 16.0712 109.296 15.8046 110.592 15.8046V11.8046C108.668 11.8046 106.476 12.238 104.695 14.2167L107.669 16.8925ZM110.592 15.8046C111.71 15.8046 112.765 16.009 113.463 16.6294L116.121 13.6398C114.299 12.0202 111.994 11.8046 110.592 11.8046V15.8046ZM113.482 16.646C114.022 17.114 114.542 18.0626 114.542 19.4746H118.542C118.542 17.1065 117.662 14.9752 116.102 13.6232L113.482 16.646ZM114.542 19.4746C114.542 20.8334 114.036 22.3354 113.243 23.8326C112.461 25.3097 111.481 26.6336 110.705 27.6118L113.839 30.0974C114.673 29.0456 115.828 27.4995 116.778 25.7041C117.718 23.9288 118.542 21.7558 118.542 19.4746H114.542ZM110.698 27.6208C108.744 30.1133 106.154 32.9147 102.038 37.0304L104.866 39.8588C109.011 35.7145 111.74 32.7759 113.846 30.0884L110.698 27.6208ZM102.038 37.0304L88.0379 51.0304L90.8663 53.8588L104.866 39.8588L102.038 37.0304Z" fill="#6AC687" mask="url(#path-4-inside-2_224_7773)"/>
</svg>
