<svg width="224" height="124" viewBox="0 0 224 124" fill="none" xmlns="http://www.w3.org/2000/svg">
<mask id="path-1-inside-1_224_7768" fill="white">
<path d="M108.255 58.4266H119.035L124.775 11.7366H107.345L106.225 20.8366H112.875L108.255 58.4266Z"/>
</mask>
<path d="M108.255 58.4266H119.035L124.775 11.7366H107.345L106.225 20.8366H112.875L108.255 58.4266Z" fill="#0A0B0D"/>
<path d="M108.255 58.4266L106.27 58.1826L105.994 60.4266H108.255V58.4266ZM119.035 58.4266V60.4266H120.804L121.02 58.6706L119.035 58.4266ZM124.775 11.7366L126.76 11.9806L127.036 9.73657H124.775V11.7366ZM107.345 11.7366V9.73657H105.576L105.36 11.4923L107.345 11.7366ZM106.225 20.8366L104.24 20.5923L103.964 22.8366H106.225V20.8366ZM112.875 20.8366L114.86 21.0806L115.136 18.8366H112.875V20.8366ZM108.255 60.4266H119.035V56.4266H108.255V60.4266ZM121.02 58.6706L126.76 11.9806L122.79 11.4925L117.05 58.1825L121.02 58.6706ZM124.775 9.73657H107.345V13.7366H124.775V9.73657ZM105.36 11.4923L104.24 20.5923L108.21 21.0809L109.33 11.9809L105.36 11.4923ZM106.225 22.8366H112.875V18.8366H106.225V22.8366ZM110.89 20.5926L106.27 58.1826L110.24 58.6705L114.86 21.0806L110.89 20.5926Z" fill="#006633" mask="url(#path-1-inside-1_224_7768)"/>
<mask id="path-3-inside-2_224_7768" fill="white">
<path d="M101.255 51.4266H112.035L117.775 4.73657H100.345L99.225 13.8366H105.875L101.255 51.4266Z"/>
</mask>
<path d="M101.255 51.4266H112.035L117.775 4.73657H100.345L99.225 13.8366H105.875L101.255 51.4266Z" fill="#0A0B0D"/>
<path d="M101.255 51.4266L99.2699 51.1826L98.9941 53.4266H101.255V51.4266ZM112.035 51.4266V53.4266H113.804L114.02 51.6706L112.035 51.4266ZM117.775 4.73657L119.76 4.98061L120.036 2.73657H117.775V4.73657ZM100.345 4.73657V2.73657H98.5761L98.36 4.49226L100.345 4.73657ZM99.225 13.8366L97.24 13.5923L96.9638 15.8366H99.225V13.8366ZM105.875 13.8366L107.86 14.0806L108.136 11.8366H105.875V13.8366ZM101.255 53.4266H112.035V49.4266H101.255V53.4266ZM114.02 51.6706L119.76 4.98061L115.79 4.49253L110.05 51.1825L114.02 51.6706ZM117.775 2.73657H100.345V6.73657H117.775V2.73657ZM98.36 4.49226L97.24 13.5923L101.21 14.0809L102.33 4.98088L98.36 4.49226ZM99.225 15.8366H105.875V11.8366H99.225V15.8366ZM103.89 13.5926L99.2699 51.1826L103.24 51.6705L107.86 14.0806L103.89 13.5926Z" fill="#6AC687" mask="url(#path-3-inside-2_224_7768)"/>
<path d="M81.882 66.3835C78.576 66.3835 75.676 67.5145 73.762 69.4285C71.819 71.3425 70.601 74.3005 70.601 77.3745C70.601 80.0715 71.645 82.3915 73.182 83.9575C75.038 85.8715 77.2421 86.4515 79.8811 86.4515C82.3171 86.4515 85.304 86.0455 87.856 83.4645C89.306 81.9855 90.901 79.4335 90.901 75.4605C90.901 73.8075 90.6111 71.0815 88.4071 68.9065C87.2761 67.7755 85.2461 66.3835 81.882 66.3835ZM79.91 83.7255C78.286 83.7255 76.691 83.3195 75.328 81.8695C74.574 81.0865 73.53 79.5785 73.53 77.1715C73.53 74.5615 74.603 72.5605 75.937 71.2555C77.561 69.6605 79.446 69.1095 81.302 69.1095C83.448 69.1095 85.13 69.9795 86.203 71.0815C87.015 71.9225 87.943 73.3725 87.943 75.6345C87.943 77.8965 87.073 80.1875 85.594 81.6375C84.318 82.9135 82.462 83.7255 79.91 83.7255Z" fill="white"/>
<path d="M97.2491 66.7315L94.8711 86.0745H97.8291L98.7861 78.2155H99.7721C102.295 78.2155 104.383 77.8095 105.833 76.3595C106.645 75.5475 107.486 74.1845 107.486 72.0095C107.486 70.0955 106.761 68.9065 106.065 68.2395C104.557 66.7895 102.237 66.7315 101.396 66.7315H97.2491ZM99.8591 69.4575H101.106C101.715 69.4575 102.962 69.4865 103.745 70.1245C104.238 70.5305 104.644 71.1975 104.644 72.1835C104.644 73.2275 104.238 74.0975 103.658 74.5905C102.875 75.2865 101.628 75.4895 100.236 75.4895H99.1341L99.8591 69.4575Z" fill="white"/>
<path d="M123.333 66.7315H112.661L110.283 86.0745H120.955L121.303 83.2905H113.589L114.343 77.2005H121.825L122.173 74.4165H114.691L115.271 69.5155H122.985L123.333 66.7315Z" fill="white"/>
<path d="M129.191 86.0745L130.844 72.5605L143.082 87.2635L145.605 66.7315H142.647L140.994 80.1295L128.756 65.4265L126.233 86.0745H129.191Z" fill="white"/>
<path d="M31.007 115.075H34.139L27.498 94.6005L15.347 115.075H18.595L21.292 110.406H29.557L31.007 115.075ZM22.858 107.622L26.628 101.068L28.716 107.622H22.858Z" fill="white"/>
<path d="M40.9902 115.075L42.6432 101.561L54.8812 116.264L57.4042 95.7315H54.4462L52.7932 109.13L40.5552 94.4265L38.0322 115.075H40.9902Z" fill="white"/>
<path d="M82.7935 115.075H85.9255L79.2845 94.6005L67.1335 115.075H70.3815L73.0785 110.406H81.3435L82.7935 115.075ZM74.6445 107.622L78.4145 101.068L80.5025 107.622H74.6445Z" fill="white"/>
<path d="M106.011 96.7755C103.952 95.7605 102.27 95.3835 100.501 95.3835C97.543 95.3835 94.962 96.2825 92.845 98.3415C90.989 100.169 89.655 102.779 89.655 106.346C89.655 109.217 90.554 111.363 92.236 113.045C94.15 114.959 96.267 115.452 98.587 115.452C99.95 115.452 101.574 115.278 103.923 114.002L104.329 110.493C103.314 111.363 101.429 112.726 98.848 112.726C96.876 112.726 95.397 112.088 94.295 110.899C93.367 109.913 92.613 108.434 92.613 106.346C92.613 103.736 93.628 101.445 95.049 100.082C96.412 98.7765 98.268 98.1095 100.298 98.1095C101.574 98.1095 103.778 98.4285 105.605 100.256L106.011 96.7755Z" fill="white"/>
<path d="M125.501 96.7755C123.442 95.7605 121.76 95.3835 119.991 95.3835C117.033 95.3835 114.452 96.2825 112.335 98.3415C110.479 100.169 109.145 102.779 109.145 106.346C109.145 109.217 110.044 111.363 111.726 113.045C113.64 114.959 115.757 115.452 118.077 115.452C119.44 115.452 121.064 115.278 123.413 114.002L123.819 110.493C122.804 111.363 120.919 112.726 118.338 112.726C116.366 112.726 114.887 112.088 113.785 110.899C112.857 109.913 112.103 108.434 112.103 106.346C112.103 103.736 113.118 101.445 114.539 100.082C115.902 98.7765 117.758 98.1095 119.788 98.1095C121.064 98.1095 123.268 98.4285 125.095 100.256L125.501 96.7755Z" fill="white"/>
<path d="M139.916 95.3835C136.61 95.3835 133.71 96.5145 131.796 98.4285C129.853 100.343 128.635 103.301 128.635 106.375C128.635 109.072 129.679 111.392 131.216 112.958C133.072 114.872 135.276 115.452 137.915 115.452C140.351 115.452 143.338 115.046 145.89 112.465C147.34 110.986 148.935 108.434 148.935 104.461C148.935 102.808 148.645 100.082 146.441 97.9065C145.31 96.7755 143.28 95.3835 139.916 95.3835ZM137.944 112.726C136.32 112.726 134.725 112.32 133.362 110.87C132.608 110.087 131.564 108.579 131.564 106.172C131.564 103.562 132.637 101.561 133.971 100.256C135.595 98.6605 137.48 98.1095 139.336 98.1095C141.482 98.1095 143.164 98.9795 144.237 100.082C145.049 100.923 145.977 102.373 145.977 104.635C145.977 106.897 145.107 109.188 143.628 110.638C142.352 111.914 140.496 112.726 137.944 112.726Z" fill="white"/>
<path d="M155.341 95.7315L154.065 105.998C153.804 108.028 153.746 108.666 153.746 109.217C153.746 111.16 154.413 112.436 155.022 113.19C156.327 114.843 158.125 115.452 160.271 115.452C162.707 115.452 164.389 114.64 165.404 113.799C166.506 112.871 167.782 111.044 168.13 108.173L169.667 95.7315H166.709L165.288 107.39C165.114 108.869 164.94 110.261 163.722 111.479C163.084 112.088 162.069 112.726 160.503 112.726C159.14 112.726 158.299 112.204 157.777 111.682C156.878 110.783 156.762 109.739 156.762 108.811C156.762 107.97 156.907 107.187 156.965 106.607L158.299 95.7315H155.341Z" fill="white"/>
<path d="M176.344 115.075L177.997 101.561L190.235 116.264L192.758 95.7315H189.8L188.147 109.13L175.909 94.4265L173.386 115.075H176.344Z" fill="white"/>
<path d="M208.305 98.5155L208.653 95.7315H196.821L196.473 98.5155H200.91L198.88 115.075H201.838L203.868 98.5155H208.305Z" fill="white"/>
</svg>
