<svg width="614" height="294" viewBox="0 0 614 294" fill="none" xmlns="http://www.w3.org/2000/svg">
<g clip-path="url(#clip0_224_7748)">
<path d="M31.2077 9.31295H8.63774L3.63574 50H26.2057L27.0597 43.1679H12.4197L13.7617 32.066H27.7917L28.6457 25.234H14.6157L15.7137 16.145H30.3537L31.2077 9.31295Z" fill="white"/>
<path d="M41.8275 50L45.1825 22.733L66.4715 50H72.0835L77.0855 9.31295H69.1555L65.8005 36.458L44.5115 9.31295H38.8995L33.8975 50H41.8275Z" fill="white"/>
<path d="M92.965 9.31295L89.732 35.5429C89.366 38.288 89.122 40.972 87.719 42.375C86.865 43.2289 85.828 43.534 84.791 43.534C83.754 43.534 82.107 43.29 81.009 41.338L75.519 47.1329C76.556 48.1699 77.898 49.146 78.996 49.695C81.192 50.793 83.754 50.915 85.035 50.915C87.536 50.915 90.647 50.549 93.331 48.048C96.381 45.242 96.93 41.338 97.54 36.58L100.895 9.31295H92.965Z" fill="white"/>
<path d="M130.032 8.39795C123.322 8.39795 116.978 10.777 112.708 14.803C108.499 18.768 105.693 25.051 105.693 31.761C105.693 36.885 107.706 41.826 111.061 45.242C113.44 47.682 118.015 50.915 126.006 50.915C134.241 50.915 139.731 47.621 142.964 44.266C147.051 40.057 149.491 33.652 149.491 27.186C149.491 21.147 147.173 16.5719 144.123 13.644C140.89 10.533 135.827 8.39795 130.032 8.39795ZM126.433 43.7169C122.651 43.7169 119.357 42.314 117.161 39.996C115.575 38.349 113.928 35.482 113.928 31.151C113.928 26.759 115.514 22.4889 118.625 19.561C120.943 17.365 124.359 15.657 128.751 15.657C133.204 15.657 136.254 17.365 138.023 19.195C139.914 21.147 141.256 24.1359 141.256 27.7959C141.256 32.371 139.365 36.824 136.437 39.691C133.997 42.07 130.52 43.7169 126.433 43.7169Z" fill="white"/>
<path d="M159.807 50H167.737L169.994 31.395L187.074 9.31295H177.314L166.822 23.4649L159.868 9.31295H150.84L162.064 31.395L159.807 50Z" fill="white"/>
<path d="M226.921 16.145L227.775 9.31295H201.545L200.691 16.145H209.841L205.693 50H213.623L217.771 16.145H226.921Z" fill="white"/>
<path d="M240.731 9.31295H232.801L227.799 50H235.729L237.925 31.8829H255.127L252.931 50H260.861L265.863 9.31295H257.933L255.981 25.051H238.779L240.731 9.31295Z" fill="white"/>
<path d="M297.725 9.31295H275.155L270.153 50H292.723L293.577 43.1679H278.937L280.279 32.066H294.309L295.163 25.234H281.133L282.231 16.145H296.871L297.725 9.31295Z" fill="white"/>
<path d="M340.76 16.145L341.614 9.31295H315.384L314.53 16.145H323.68L319.532 50H327.462L331.61 16.145H340.76Z" fill="white"/>
<path d="M365.215 8.39795C358.505 8.39795 352.161 10.777 347.891 14.803C343.682 18.768 340.876 25.051 340.876 31.761C340.876 36.885 342.889 41.826 346.244 45.242C348.623 47.682 353.198 50.915 361.189 50.915C369.424 50.915 374.914 47.621 378.147 44.266C382.234 40.057 384.674 33.652 384.674 27.186C384.674 21.147 382.356 16.5719 379.306 13.644C376.073 10.533 371.01 8.39795 365.215 8.39795ZM361.616 43.7169C357.834 43.7169 354.54 42.314 352.344 39.996C350.758 38.349 349.111 35.482 349.111 31.151C349.111 26.759 350.697 22.4889 353.808 19.561C356.126 17.365 359.542 15.657 363.934 15.657C368.387 15.657 371.437 17.365 373.206 19.195C375.097 21.147 376.439 24.1359 376.439 27.7959C376.439 32.371 374.548 36.824 371.62 39.691C369.18 42.07 365.703 43.7169 361.616 43.7169Z" fill="white"/>
<path d="M394.475 9.31295L389.473 50H397.403L399.233 34.933H404.662C408.017 34.933 412.592 34.4449 415.825 31.395C418.143 29.199 419.668 25.661 419.668 21.269C419.668 16.9379 418.143 14.254 416.374 12.6069C413.019 9.49595 407.651 9.31295 405.455 9.31295H394.475ZM401.551 16.145H404.357C405.882 16.145 408.017 16.45 409.298 17.243C411.25 18.463 411.494 20.354 411.494 21.574C411.494 23.038 411.189 24.929 409.542 26.393C407.712 27.9789 405.333 28.101 403.442 28.101H400.087L401.551 16.145Z" fill="white"/>
<path d="M465.025 13.1559C461.182 8.82495 456.667 8.39795 454.044 8.39795C450.445 8.39795 446.297 9.00795 443.003 12.3019C440.441 14.8639 439.526 17.914 439.526 21.0859C439.526 23.221 439.892 25.7219 442.027 27.7959C442.942 28.711 444.407 29.687 446.969 30.785L449.286 31.761C450.872 32.432 452.092 32.676 453.434 33.774C454.776 34.872 455.264 36.031 455.264 37.495C455.264 39.447 454.594 40.789 453.74 41.704C452.154 43.473 450.018 43.7169 448.432 43.7169C446.602 43.7169 444.895 43.3509 443.309 42.0089C442.211 41.0939 441.051 39.447 440.441 38.288L434.646 43.229C435.927 45.181 437.757 47.255 439.831 48.597C442.454 50.305 445.078 50.915 448.189 50.915C451.544 50.915 455.935 50.305 459.29 47.072C461.913 44.571 463.621 40.423 463.621 35.97C463.621 33.286 462.95 31.395 461.12 29.443C459.534 27.735 457.643 26.6979 456.057 26.027L453.312 24.868C451.3 24.014 450.262 23.5869 449.469 23.0379C448.31 22.245 447.762 21.269 447.762 19.9269C447.762 18.5239 448.372 17.365 449.348 16.511C450.141 15.7789 451.482 15.108 453.678 15.108C457.033 15.108 459.108 16.9379 460.206 18.5849L465.025 13.1559Z" fill="white"/>
<path d="M473.941 9.31295L468.939 50H476.869L478.699 34.933H484.128C487.483 34.933 492.058 34.4449 495.291 31.395C497.609 29.199 499.134 25.661 499.134 21.269C499.134 16.9379 497.609 14.254 495.84 12.6069C492.485 9.49595 487.117 9.31295 484.921 9.31295H473.941ZM481.017 16.145H483.823C485.348 16.145 487.483 16.45 488.764 17.243C490.716 18.463 490.96 20.354 490.96 21.574C490.96 23.038 490.655 24.929 489.008 26.393C487.178 27.9789 484.799 28.101 482.908 28.101H479.553L481.017 16.145Z" fill="white"/>
<path d="M526.472 8.39795C519.762 8.39795 513.418 10.777 509.148 14.803C504.939 18.768 502.133 25.051 502.133 31.761C502.133 36.885 504.146 41.826 507.501 45.242C509.88 47.682 514.455 50.915 522.446 50.915C530.681 50.915 536.171 47.621 539.404 44.266C543.491 40.057 545.931 33.652 545.931 27.186C545.931 21.147 543.613 16.5719 540.563 13.644C537.33 10.533 532.267 8.39795 526.472 8.39795ZM522.873 43.7169C519.091 43.7169 515.797 42.314 513.601 39.996C512.015 38.349 510.368 35.482 510.368 31.151C510.368 26.759 511.954 22.4889 515.065 19.561C517.383 17.365 520.799 15.657 525.191 15.657C529.644 15.657 532.694 17.365 534.463 19.195C536.354 21.147 537.696 24.1359 537.696 27.7959C537.696 32.371 535.805 36.824 532.877 39.691C530.437 42.07 526.96 43.7169 522.873 43.7169Z" fill="white"/>
<path d="M555.732 9.31295L550.729 50H558.659L560.672 33.652H561.648L570.493 50H580.01L569.639 32.981C572.323 32.554 575.313 31.212 577.143 29.443C579.095 27.552 580.497 24.502 580.497 20.6589C580.497 16.755 579.033 14.3149 577.63 12.851C574.641 9.73995 570.616 9.31295 567.505 9.31295H555.732ZM562.868 15.7789H565.37C567.993 15.7789 569.639 16.45 570.615 17.304C572.018 18.524 572.263 20.11 572.263 21.269C572.263 23.709 571.225 25.173 570.493 25.905C568.968 27.43 566.284 28.04 564.149 28.04H561.344L562.868 15.7789Z" fill="white"/>
<path d="M610.673 16.145L611.527 9.31295H585.297L584.443 16.145H593.593L589.445 50H597.375L601.523 16.145H610.673Z" fill="white"/>
<path d="M31.2077 65.313H8.63774L3.63574 106H26.2057L27.0597 99.168H12.4197L13.7617 88.0659H27.7917L28.6457 81.2339H14.6157L15.7137 72.145H30.3537L31.2077 65.313Z" fill="white"/>
<path d="M34.3855 65.313L46.5855 106H51.0995L73.4255 65.313H64.6415L50.4285 92.641L42.9255 65.313H34.3855Z" fill="white"/>
<path d="M100.726 65.313H78.1563L73.1543 106H95.7243L96.5783 99.168H81.9383L83.2803 88.0659H97.3103L98.1643 81.2339H84.1343L85.2323 72.145H99.8723L100.726 65.313Z" fill="white"/>
<path d="M111.346 106L114.701 78.7329L135.99 106H141.602L146.604 65.313H138.674L135.319 92.458L114.03 65.313H108.418L103.416 106H111.346Z" fill="white"/>
<path d="M177.002 72.145L177.856 65.313H151.626L150.772 72.145H159.922L155.774 106H163.704L167.852 72.145H177.002Z" fill="white"/>
<path d="M204.821 69.1559C200.978 64.8249 196.464 64.3979 193.841 64.3979C190.242 64.3979 186.094 65.0079 182.8 68.3019C180.238 70.8639 179.323 73.914 179.323 77.086C179.323 79.221 179.689 81.722 181.824 83.796C182.739 84.711 184.203 85.687 186.765 86.785L189.083 87.7609C190.669 88.4319 191.889 88.6759 193.231 89.7739C194.573 90.8719 195.061 92.0309 195.061 93.4949C195.061 95.4469 194.39 96.7889 193.536 97.7039C191.95 99.4729 189.815 99.7169 188.229 99.7169C186.399 99.7169 184.691 99.3509 183.105 98.0089C182.007 97.0939 180.848 95.4469 180.238 94.2879L174.443 99.229C175.724 101.181 177.554 103.255 179.628 104.597C182.251 106.305 184.874 106.915 187.985 106.915C191.34 106.915 195.732 106.305 199.087 103.072C201.71 100.571 203.418 96.4229 203.418 91.9699C203.418 89.2859 202.747 87.3949 200.917 85.4429C199.331 83.7349 197.44 82.698 195.854 82.027L193.109 80.868C191.096 80.014 190.059 79.5869 189.266 79.0379C188.107 78.2449 187.558 77.2689 187.558 75.9269C187.558 74.5239 188.168 73.3649 189.144 72.5109C189.937 71.7789 191.279 71.1079 193.475 71.1079C196.83 71.1079 198.904 72.9379 200.002 74.5849L204.821 69.1559Z" fill="white"/>
<path d="M251.095 80.197L256.829 106H262.441L282.876 65.313H274.336L261.16 93.007L255.243 65.313H250.851L237.431 93.007L231.758 65.313H223.462L232.734 106H238.346L251.095 80.197Z" fill="white"/>
<path d="M287.606 65.313L282.604 106H290.534L295.536 65.313H287.606Z" fill="white"/>
<path d="M325.927 72.145L326.781 65.313H300.551L299.697 72.145H308.847L304.699 106H312.629L316.777 72.145H325.927Z" fill="white"/>
<path d="M339.737 65.313H331.807L326.805 106H334.735L336.931 87.8829H354.133L351.937 106H359.867L364.869 65.313H356.939L354.987 81.0509H337.785L339.737 65.313Z" fill="white"/>
<path d="M388.276 65.313L385.714 86.541C385.531 87.883 385.165 91.787 385.165 93.434C385.165 96.728 385.836 100.083 388.52 102.828C391.936 106.305 396.816 106.915 400.598 106.915C404.075 106.915 409.382 106.549 413.225 102.645C416.824 98.985 417.434 93.9219 418.044 89.1639L420.972 65.313H413.042L410.175 88.31C409.687 92.275 409.321 95.8129 406.393 98.0089C404.99 99.0459 402.977 99.7169 400.659 99.7169C398.707 99.7169 396.511 99.107 395.108 97.826C393.949 96.728 393.034 94.715 393.034 92.336C393.034 91.543 393.339 89.042 393.461 87.822L396.206 65.313H388.276Z" fill="white"/>
<path d="M430.217 65.313L425.215 106H433.145L434.975 90.933H440.404C443.759 90.933 448.334 90.4449 451.567 87.395C453.885 85.199 455.41 81.661 455.41 77.269C455.41 72.9379 453.885 70.2539 452.116 68.6069C448.761 65.4959 443.393 65.313 441.197 65.313H430.217ZM437.293 72.145H440.099C441.624 72.145 443.759 72.4499 445.04 73.243C446.992 74.4629 447.236 76.354 447.236 77.574C447.236 79.038 446.931 80.929 445.284 82.393C443.454 83.979 441.075 84.101 439.184 84.101H435.829L437.293 72.145Z" fill="white"/>
<path d="M498.205 72.145L499.059 65.313H472.829L471.975 72.145H481.125L476.977 106H484.907L489.055 72.145H498.205Z" fill="white"/>
<path d="M522.659 64.3979C515.949 64.3979 509.605 66.777 505.335 70.803C501.126 74.768 498.32 81.0509 498.32 87.7609C498.32 92.8849 500.333 97.826 503.688 101.242C506.067 103.682 510.642 106.915 518.633 106.915C526.868 106.915 532.358 103.621 535.591 100.266C539.678 96.057 542.118 89.652 542.118 83.186C542.118 77.147 539.8 72.5719 536.75 69.644C533.517 66.533 528.454 64.3979 522.659 64.3979ZM519.06 99.7169C515.278 99.7169 511.984 98.3139 509.788 95.9959C508.202 94.3489 506.555 91.4819 506.555 87.1509C506.555 82.7589 508.141 78.4889 511.252 75.561C513.57 73.365 516.986 71.657 521.378 71.657C525.831 71.657 528.882 73.365 530.651 75.195C532.542 77.147 533.883 80.136 533.883 83.796C533.883 88.371 531.993 92.8239 529.065 95.6909C526.625 98.0699 523.147 99.7169 519.06 99.7169Z" fill="white"/>
<mask id="path-2-outside-1_224_7748" maskUnits="userSpaceOnUse" x="242.9" y="230.26" width="327" height="53" fill="black">
<rect fill="white" x="242.9" y="230.26" width="327" height="53"/>
<path d="M277.61 233.31H251.71L245.9 280H256.68L259.13 260.54H273.13L274.25 251.44H260.25L261.37 242.41H276.49L277.61 233.31Z"/>
<path d="M287.578 233.31L281.838 280H292.618L294.858 261.59L306.128 280H318.728L306.688 261.03C309.278 260.54 312.078 259.21 314.108 257.25C316.418 254.94 317.958 251.44 317.958 247.03C317.958 242.2 316.208 239.19 314.598 237.51C311.098 233.73 306.688 233.31 302.208 233.31H287.578ZM297.308 241.71H298.918C301.368 241.71 303.398 241.92 304.798 242.83C306.688 244.02 307.038 245.91 307.038 247.38C307.038 249.34 306.548 251.37 304.658 252.84C302.768 254.31 300.108 254.52 298.358 254.52H295.698L297.308 241.71Z"/>
<path d="M357.957 233.31H332.197L326.457 280H352.497L353.617 270.9H338.077L339.337 260.54H354.037L355.157 251.44H340.457L341.577 242.41H356.837L357.957 233.31Z"/>
<path d="M395.194 233.31H369.434L363.694 280H389.734L390.854 270.9H375.314L376.574 260.54H391.274L392.394 251.44H377.694L378.814 242.41H394.074L395.194 233.31Z"/>
<path d="M419.369 280H436.729C441.629 280 447.089 279.3 450.799 275.59C452.619 273.77 454.579 270.55 454.579 265.58C454.579 262.57 453.739 260.26 451.569 258.16C450.379 257.04 448.629 255.92 446.249 255.36C447.789 254.87 449.609 253.89 451.149 251.79C452.549 249.9 453.319 247.52 453.319 244.51C453.319 240.87 451.989 238.14 450.309 236.53C447.369 233.66 443.169 233.31 440.019 233.31H425.109L419.369 280ZM434.839 241.71H437.079C438.619 241.71 440.509 241.78 441.839 242.83C442.469 243.39 443.309 244.44 443.309 246.33C443.309 247.87 442.749 249.55 441.699 250.53C440.089 252.07 437.569 252.28 435.749 252.28H433.579L434.839 241.71ZM432.599 260.26H436.799C437.779 260.26 440.999 260.33 442.539 261.87C443.589 262.92 443.799 264.39 443.799 265.37C443.799 267.96 442.749 269.29 442.119 269.85C440.439 271.39 437.149 271.6 435.119 271.6H431.199L432.599 260.26Z"/>
<path d="M494.531 233.31H468.771L463.031 280H489.071L490.191 270.9H474.651L475.911 260.54H490.611L491.731 251.44H477.031L478.151 242.41H493.411L494.531 233.31Z"/>
<path d="M531.418 242.41L532.538 233.31H501.458L500.338 242.41H510.488L505.868 280H516.648L521.268 242.41H531.418Z"/>
<path d="M566.463 236.88C561.563 233.03 556.943 232.26 552.953 232.26C548.963 232.26 544.133 232.96 540.353 236.67C538.113 238.91 536.153 242.41 536.153 247.24C536.153 250.18 536.993 252.84 539.233 255.15C541.473 257.46 545.043 259 545.813 259.28L548.543 260.4C550.993 261.38 551.903 262.15 552.253 262.5C552.813 263.06 553.583 264.04 553.583 265.72C553.583 267.47 552.883 269.08 551.623 270.06C550.293 271.04 548.053 271.53 546.443 271.53C544.413 271.53 542.453 270.9 540.983 269.99C539.583 269.08 538.043 267.61 537.063 266.28L531.043 273.98C532.723 275.8 534.963 277.69 537.273 278.95C540.423 280.63 543.153 281.05 546.583 281.05C551.343 281.05 556.173 280.21 559.953 276.5C562.683 273.77 564.643 269.43 564.643 264.53C564.643 261.52 563.943 259.35 562.263 257.25C560.443 255.01 558.343 253.82 556.103 252.77L553.373 251.51C551.063 250.46 549.803 249.9 548.823 249.06C547.843 248.29 547.213 247.31 547.213 245.91C547.213 244.65 547.843 243.32 548.823 242.55C550.013 241.57 551.903 241.36 553.233 241.36C555.333 241.36 558.133 242.06 561.073 244.72L566.463 236.88Z"/>
</mask>
<path d="M277.61 233.31H251.71L245.9 280H256.68L259.13 260.54H273.13L274.25 251.44H260.25L261.37 242.41H276.49L277.61 233.31Z" fill="#0A0B0D"/>
<path d="M287.578 233.31L281.838 280H292.618L294.858 261.59L306.128 280H318.728L306.688 261.03C309.278 260.54 312.078 259.21 314.108 257.25C316.418 254.94 317.958 251.44 317.958 247.03C317.958 242.2 316.208 239.19 314.598 237.51C311.098 233.73 306.688 233.31 302.208 233.31H287.578ZM297.308 241.71H298.918C301.368 241.71 303.398 241.92 304.798 242.83C306.688 244.02 307.038 245.91 307.038 247.38C307.038 249.34 306.548 251.37 304.658 252.84C302.768 254.31 300.108 254.52 298.358 254.52H295.698L297.308 241.71Z" fill="#0A0B0D"/>
<path d="M357.957 233.31H332.197L326.457 280H352.497L353.617 270.9H338.077L339.337 260.54H354.037L355.157 251.44H340.457L341.577 242.41H356.837L357.957 233.31Z" fill="#0A0B0D"/>
<path d="M395.194 233.31H369.434L363.694 280H389.734L390.854 270.9H375.314L376.574 260.54H391.274L392.394 251.44H377.694L378.814 242.41H394.074L395.194 233.31Z" fill="#0A0B0D"/>
<path d="M419.369 280H436.729C441.629 280 447.089 279.3 450.799 275.59C452.619 273.77 454.579 270.55 454.579 265.58C454.579 262.57 453.739 260.26 451.569 258.16C450.379 257.04 448.629 255.92 446.249 255.36C447.789 254.87 449.609 253.89 451.149 251.79C452.549 249.9 453.319 247.52 453.319 244.51C453.319 240.87 451.989 238.14 450.309 236.53C447.369 233.66 443.169 233.31 440.019 233.31H425.109L419.369 280ZM434.839 241.71H437.079C438.619 241.71 440.509 241.78 441.839 242.83C442.469 243.39 443.309 244.44 443.309 246.33C443.309 247.87 442.749 249.55 441.699 250.53C440.089 252.07 437.569 252.28 435.749 252.28H433.579L434.839 241.71ZM432.599 260.26H436.799C437.779 260.26 440.999 260.33 442.539 261.87C443.589 262.92 443.799 264.39 443.799 265.37C443.799 267.96 442.749 269.29 442.119 269.85C440.439 271.39 437.149 271.6 435.119 271.6H431.199L432.599 260.26Z" fill="#0A0B0D"/>
<path d="M494.531 233.31H468.771L463.031 280H489.071L490.191 270.9H474.651L475.911 260.54H490.611L491.731 251.44H477.031L478.151 242.41H493.411L494.531 233.31Z" fill="#0A0B0D"/>
<path d="M531.418 242.41L532.538 233.31H501.458L500.338 242.41H510.488L505.868 280H516.648L521.268 242.41H531.418Z" fill="#0A0B0D"/>
<path d="M566.463 236.88C561.563 233.03 556.943 232.26 552.953 232.26C548.963 232.26 544.133 232.96 540.353 236.67C538.113 238.91 536.153 242.41 536.153 247.24C536.153 250.18 536.993 252.84 539.233 255.15C541.473 257.46 545.043 259 545.813 259.28L548.543 260.4C550.993 261.38 551.903 262.15 552.253 262.5C552.813 263.06 553.583 264.04 553.583 265.72C553.583 267.47 552.883 269.08 551.623 270.06C550.293 271.04 548.053 271.53 546.443 271.53C544.413 271.53 542.453 270.9 540.983 269.99C539.583 269.08 538.043 267.61 537.063 266.28L531.043 273.98C532.723 275.8 534.963 277.69 537.273 278.95C540.423 280.63 543.153 281.05 546.583 281.05C551.343 281.05 556.173 280.21 559.953 276.5C562.683 273.77 564.643 269.43 564.643 264.53C564.643 261.52 563.943 259.35 562.263 257.25C560.443 255.01 558.343 253.82 556.103 252.77L553.373 251.51C551.063 250.46 549.803 249.9 548.823 249.06C547.843 248.29 547.213 247.31 547.213 245.91C547.213 244.65 547.843 243.32 548.823 242.55C550.013 241.57 551.903 241.36 553.233 241.36C555.333 241.36 558.133 242.06 561.073 244.72L566.463 236.88Z" fill="#0A0B0D"/>
<path d="M277.61 233.31L279.595 233.554L279.871 231.31H277.61V233.31ZM251.71 233.31V231.31H249.943L249.725 233.063L251.71 233.31ZM245.9 280L243.915 279.753L243.636 282H245.9V280ZM256.68 280V282H258.444L258.664 280.25L256.68 280ZM259.13 260.54V258.54H257.366L257.146 260.29L259.13 260.54ZM273.13 260.54V262.54H274.899L275.115 260.784L273.13 260.54ZM274.25 251.44L276.235 251.684L276.511 249.44H274.25V251.44ZM260.25 251.44L258.265 251.194L257.987 253.44H260.25V251.44ZM261.37 242.41V240.41H259.603L259.385 242.164L261.37 242.41ZM276.49 242.41V244.41H278.259L278.475 242.654L276.49 242.41ZM287.578 233.31V231.31H285.809L285.593 233.066L287.578 233.31ZM281.838 280L279.853 279.756L279.577 282H281.838V280ZM292.618 280V282H294.389L294.603 280.242L292.618 280ZM294.858 261.59L296.564 260.546L293.566 255.649L292.872 261.348L294.858 261.59ZM306.128 280L304.422 281.044L305.007 282H306.128V280ZM318.728 280V282H322.366L320.416 278.928L318.728 280ZM306.688 261.03L306.316 259.065L303.42 259.613L304.999 262.102L306.688 261.03ZM314.108 257.25L315.497 258.689L315.51 258.677L315.522 258.664L314.108 257.25ZM314.598 237.51L313.13 238.869L313.142 238.881L313.154 238.894L314.598 237.51ZM297.308 241.71V239.71H295.543L295.323 241.461L297.308 241.71ZM304.798 242.83L303.708 244.507L303.72 244.515L303.732 244.522L304.798 242.83ZM304.658 252.84L305.886 254.419L305.886 254.419L304.658 252.84ZM295.698 254.52L293.713 254.271L293.431 256.52H295.698V254.52ZM357.957 233.31L359.942 233.554L360.219 231.31H357.957V233.31ZM332.197 233.31V231.31H330.428L330.212 233.066L332.197 233.31ZM326.457 280L324.472 279.756L324.196 282H326.457V280ZM352.497 280V282H354.266L354.482 280.244L352.497 280ZM353.617 270.9L355.602 271.144L355.879 268.9H353.617V270.9ZM338.077 270.9L336.092 270.659L335.819 272.9H338.077V270.9ZM339.337 260.54V258.54H337.566L337.352 260.299L339.337 260.54ZM354.037 260.54V262.54H355.806L356.022 260.784L354.037 260.54ZM355.157 251.44L357.142 251.684L357.419 249.44H355.157V251.44ZM340.457 251.44L338.473 251.194L338.194 253.44H340.457V251.44ZM341.577 242.41V240.41H339.81L339.593 242.164L341.577 242.41ZM356.837 242.41V244.41H358.606L358.822 242.654L356.837 242.41ZM395.194 233.31L397.179 233.554L397.455 231.31H395.194V233.31ZM369.434 233.31V231.31H367.665L367.449 233.066L369.434 233.31ZM363.694 280L361.709 279.756L361.433 282H363.694V280ZM389.734 280V282H391.503L391.719 280.244L389.734 280ZM390.854 270.9L392.839 271.144L393.115 268.9H390.854V270.9ZM375.314 270.9L373.329 270.659L373.056 272.9H375.314V270.9ZM376.574 260.54V258.54H374.803L374.589 260.299L376.574 260.54ZM391.274 260.54V262.54H393.043L393.259 260.784L391.274 260.54ZM392.394 251.44L394.379 251.684L394.655 249.44H392.394V251.44ZM377.694 251.44L375.709 251.194L375.431 253.44H377.694V251.44ZM378.814 242.41V240.41H377.047L376.829 242.164L378.814 242.41ZM394.074 242.41V244.41H395.843L396.059 242.654L394.074 242.41ZM419.369 280L417.384 279.756L417.108 282H419.369V280ZM450.799 275.59L452.213 277.004L452.213 277.004L450.799 275.59ZM451.569 258.16L452.959 256.723L452.95 256.713L452.939 256.704L451.569 258.16ZM446.249 255.36L445.642 253.454L438.744 255.649L445.791 257.307L446.249 255.36ZM451.149 251.79L449.542 250.6L449.536 250.607L451.149 251.79ZM450.309 236.53L448.912 237.961L448.918 237.968L448.925 237.974L450.309 236.53ZM425.109 233.31V231.31H423.339L423.124 233.066L425.109 233.31ZM434.839 241.71V239.71H433.063L432.853 241.473L434.839 241.71ZM441.839 242.83L443.167 241.335L443.124 241.296L443.078 241.26L441.839 242.83ZM441.699 250.53L440.334 249.068L440.325 249.076L440.316 249.085L441.699 250.53ZM433.579 252.28L431.593 252.043L431.326 254.28H433.579V252.28ZM432.599 260.26V258.26H430.83L430.614 260.015L432.599 260.26ZM442.119 269.85L440.79 268.355L440.778 268.365L440.767 268.376L442.119 269.85ZM431.199 271.6L429.214 271.355L428.937 273.6H431.199V271.6ZM494.531 233.31L496.516 233.554L496.792 231.31H494.531V233.31ZM468.771 233.31V231.31H467.002L466.786 233.066L468.771 233.31ZM463.031 280L461.046 279.756L460.77 282H463.031V280ZM489.071 280V282H490.84L491.056 280.244L489.071 280ZM490.191 270.9L492.176 271.144L492.452 268.9H490.191V270.9ZM474.651 270.9L472.666 270.659L472.393 272.9H474.651V270.9ZM475.911 260.54V258.54H474.14L473.926 260.299L475.911 260.54ZM490.611 260.54V262.54H492.38L492.596 260.784L490.611 260.54ZM491.731 251.44L493.716 251.684L493.992 249.44H491.731V251.44ZM477.031 251.44L475.046 251.194L474.768 253.44H477.031V251.44ZM478.151 242.41V240.41H476.384L476.166 242.164L478.151 242.41ZM493.411 242.41V244.41H495.18L495.396 242.654L493.411 242.41ZM531.418 242.41V244.41H533.187L533.403 242.654L531.418 242.41ZM532.538 233.31L534.523 233.554L534.799 231.31H532.538V233.31ZM501.458 233.31V231.31H499.689L499.473 233.066L501.458 233.31ZM500.338 242.41L498.353 242.166L498.077 244.41H500.338V242.41ZM510.488 242.41L512.473 242.654L512.749 240.41H510.488V242.41ZM505.868 280L503.883 279.756L503.607 282H505.868V280ZM516.648 280V282H518.417L518.633 280.244L516.648 280ZM521.268 242.41V240.41H519.499L519.283 242.166L521.268 242.41ZM566.463 236.88L568.111 238.013L569.174 236.467L567.698 235.307L566.463 236.88ZM540.353 236.67L538.952 235.243L538.945 235.249L538.938 235.256L540.353 236.67ZM545.813 259.28L546.572 257.43L546.534 257.414L546.496 257.4L545.813 259.28ZM548.543 260.4L547.784 262.25L547.792 262.254L547.8 262.257L548.543 260.4ZM552.253 262.5L550.838 263.914L550.839 263.914L552.253 262.5ZM551.623 270.06L552.809 271.67L552.83 271.655L552.851 271.639L551.623 270.06ZM540.983 269.99L539.893 271.667L539.911 271.679L539.93 271.691L540.983 269.99ZM537.063 266.28L538.673 265.094L537.11 262.972L535.487 265.048L537.063 266.28ZM531.043 273.98L529.467 272.748L528.42 274.087L529.573 275.337L531.043 273.98ZM537.273 278.95L536.315 280.706L536.323 280.71L536.332 280.715L537.273 278.95ZM559.953 276.5L561.354 277.927L561.36 277.921L561.367 277.914L559.953 276.5ZM562.263 257.25L563.824 256.001L563.82 255.995L563.815 255.989L562.263 257.25ZM556.103 252.77L556.952 250.959L556.941 250.954L556.103 252.77ZM553.373 251.51L554.211 249.694L554.2 249.689L553.373 251.51ZM548.823 249.06L550.124 247.541L550.092 247.514L550.058 247.487L548.823 249.06ZM548.823 242.55L550.058 244.123L550.076 244.108L550.094 244.094L548.823 242.55ZM561.073 244.72L559.731 246.203L561.426 247.737L562.721 245.853L561.073 244.72ZM277.61 231.31H251.71V235.31H277.61V231.31ZM249.725 233.063L243.915 279.753L247.885 280.247L253.695 233.557L249.725 233.063ZM245.9 282H256.68V278H245.9V282ZM258.664 280.25L261.114 260.79L257.146 260.29L254.696 279.75L258.664 280.25ZM259.13 262.54H273.13V258.54H259.13V262.54ZM275.115 260.784L276.235 251.684L272.265 251.196L271.145 260.296L275.115 260.784ZM274.25 249.44H260.25V253.44H274.25V249.44ZM262.235 251.686L263.355 242.656L259.385 242.164L258.265 251.194L262.235 251.686ZM261.37 244.41H276.49V240.41H261.37V244.41ZM278.475 242.654L279.595 233.554L275.625 233.066L274.505 242.166L278.475 242.654ZM285.593 233.066L279.853 279.756L283.823 280.244L289.563 233.554L285.593 233.066ZM281.838 282H292.618V278H281.838V282ZM294.603 280.242L296.843 261.832L292.872 261.348L290.632 279.758L294.603 280.242ZM293.152 262.634L304.422 281.044L307.834 278.956L296.564 260.546L293.152 262.634ZM306.128 282H318.728V278H306.128V282ZM320.416 278.928L308.376 259.958L304.999 262.102L317.039 281.072L320.416 278.928ZM307.06 262.995C309.994 262.44 313.159 260.946 315.497 258.689L312.719 255.811C310.996 257.474 308.561 258.64 306.316 259.065L307.06 262.995ZM315.522 258.664C318.244 255.943 319.958 251.916 319.958 247.03H315.958C315.958 250.964 314.592 253.938 312.694 255.836L315.522 258.664ZM319.958 247.03C319.958 241.67 317.998 238.168 316.042 236.126L313.154 238.894C314.417 240.212 315.958 242.73 315.958 247.03H319.958ZM316.065 236.151C311.95 231.707 306.76 231.31 302.208 231.31V235.31C306.615 235.31 310.245 235.753 313.13 238.869L316.065 236.151ZM302.208 231.31H287.578V235.31H302.208V231.31ZM297.308 243.71H298.918V239.71H297.308V243.71ZM298.918 243.71C301.388 243.71 302.857 243.954 303.708 244.507L305.888 241.153C303.939 239.886 301.348 239.71 298.918 239.71V243.71ZM303.732 244.522C304.762 245.171 305.038 246.185 305.038 247.38H309.038C309.038 245.635 308.614 242.869 305.863 241.138L303.732 244.522ZM305.038 247.38C305.038 249.011 304.644 250.317 303.43 251.261L305.886 254.419C308.452 252.423 309.038 249.669 309.038 247.38H305.038ZM303.43 251.261C302.114 252.284 300.07 252.52 298.358 252.52V256.52C300.146 256.52 303.421 256.336 305.886 254.419L303.43 251.261ZM298.358 252.52H295.698V256.52H298.358V252.52ZM297.682 254.769L299.292 241.959L295.323 241.461L293.713 254.271L297.682 254.769ZM357.957 231.31H332.197V235.31H357.957V231.31ZM330.212 233.066L324.472 279.756L328.442 280.244L334.182 233.554L330.212 233.066ZM326.457 282H352.497V278H326.457V282ZM354.482 280.244L355.602 271.144L351.632 270.656L350.512 279.756L354.482 280.244ZM353.617 268.9H338.077V272.9H353.617V268.9ZM340.063 271.141L341.323 260.781L337.352 260.299L336.092 270.659L340.063 271.141ZM339.337 262.54H354.037V258.54H339.337V262.54ZM356.022 260.784L357.142 251.684L353.172 251.196L352.052 260.296L356.022 260.784ZM355.157 249.44H340.457V253.44H355.157V249.44ZM342.442 251.686L343.562 242.656L339.593 242.164L338.473 251.194L342.442 251.686ZM341.577 244.41H356.837V240.41H341.577V244.41ZM358.822 242.654L359.942 233.554L355.972 233.066L354.852 242.166L358.822 242.654ZM395.194 231.31H369.434V235.31H395.194V231.31ZM367.449 233.066L361.709 279.756L365.679 280.244L371.419 233.554L367.449 233.066ZM363.694 282H389.734V278H363.694V282ZM391.719 280.244L392.839 271.144L388.869 270.656L387.749 279.756L391.719 280.244ZM390.854 268.9H375.314V272.9H390.854V268.9ZM377.299 271.141L378.559 260.781L374.589 260.299L373.329 270.659L377.299 271.141ZM376.574 262.54H391.274V258.54H376.574V262.54ZM393.259 260.784L394.379 251.684L390.409 251.196L389.289 260.296L393.259 260.784ZM392.394 249.44H377.694V253.44H392.394V249.44ZM379.679 251.686L380.799 242.656L376.829 242.164L375.709 251.194L379.679 251.686ZM378.814 244.41H394.074V240.41H378.814V244.41ZM396.059 242.654L397.179 233.554L393.209 233.066L392.089 242.166L396.059 242.654ZM419.369 282H436.729V278H419.369V282ZM436.729 282C441.7 282 447.896 281.322 452.213 277.004L449.384 274.176C446.282 277.278 441.557 278 436.729 278V282ZM452.213 277.004C454.373 274.844 456.579 271.128 456.579 265.58H452.579C452.579 269.972 450.864 272.696 449.384 274.176L452.213 277.004ZM456.579 265.58C456.579 262.1 455.568 259.247 452.959 256.723L450.178 259.597C451.91 261.273 452.579 263.04 452.579 265.58H456.579ZM452.939 256.704C451.521 255.368 449.463 254.062 446.707 253.413L445.791 257.307C447.794 257.778 449.237 258.712 450.198 259.616L452.939 256.704ZM446.855 257.266C448.721 256.672 450.927 255.475 452.761 252.973L449.536 250.607C448.291 252.305 446.856 253.068 445.642 253.454L446.855 257.266ZM452.756 252.98C454.449 250.695 455.319 247.881 455.319 244.51H451.319C451.319 247.159 450.649 249.105 449.542 250.6L452.756 252.98ZM455.319 244.51C455.319 240.379 453.804 237.109 451.692 235.086L448.925 237.974C450.174 239.171 451.319 241.361 451.319 244.51H455.319ZM451.706 235.099C448.147 231.625 443.2 231.31 440.019 231.31V235.31C443.137 235.31 446.59 235.695 448.912 237.961L451.706 235.099ZM440.019 231.31H425.109V235.31H440.019V231.31ZM423.124 233.066L417.384 279.756L421.354 280.244L427.094 233.554L423.124 233.066ZM434.839 243.71H437.079V239.71H434.839V243.71ZM437.079 243.71C438.711 243.71 439.89 243.84 440.599 244.4L443.078 241.26C441.127 239.72 438.527 239.71 437.079 239.71V243.71ZM440.51 244.325C440.689 244.484 440.878 244.695 441.027 244.987C441.171 245.271 441.309 245.695 441.309 246.33H445.309C445.309 243.737 444.115 242.177 443.167 241.335L440.51 244.325ZM441.309 246.33C441.309 247.49 440.867 248.571 440.334 249.068L443.063 251.992C444.631 250.529 445.309 248.25 445.309 246.33H441.309ZM440.316 249.085C439.336 250.022 437.58 250.28 435.749 250.28V254.28C437.557 254.28 440.841 254.118 443.081 251.975L440.316 249.085ZM435.749 250.28H433.579V254.28H435.749V250.28ZM435.565 252.517L436.825 241.947L432.853 241.473L431.593 252.043L435.565 252.517ZM432.599 262.26H436.799V258.26H432.599V262.26ZM436.799 262.26C437.247 262.26 438.152 262.277 439.09 262.453C440.094 262.642 440.79 262.95 441.124 263.284L443.953 260.456C442.747 259.25 441.063 258.753 439.827 258.522C438.525 258.278 437.33 258.26 436.799 258.26V262.26ZM441.124 263.284C441.612 263.772 441.799 264.579 441.799 265.37H445.799C445.799 264.201 445.565 262.068 443.953 260.456L441.124 263.284ZM441.799 265.37C441.799 267.339 441.031 268.141 440.79 268.355L443.447 271.345C444.466 270.439 445.799 268.581 445.799 265.37H441.799ZM440.767 268.376C440.336 268.771 439.532 269.118 438.376 269.338C437.267 269.549 436.079 269.6 435.119 269.6V273.6C436.188 273.6 437.66 273.546 439.124 273.267C440.541 272.997 442.222 272.469 443.47 271.324L440.767 268.376ZM435.119 269.6H431.199V273.6H435.119V269.6ZM433.184 271.845L434.584 260.505L430.614 260.015L429.214 271.355L433.184 271.845ZM494.531 231.31H468.771V235.31H494.531V231.31ZM466.786 233.066L461.046 279.756L465.016 280.244L470.756 233.554L466.786 233.066ZM463.031 282H489.071V278H463.031V282ZM491.056 280.244L492.176 271.144L488.206 270.656L487.086 279.756L491.056 280.244ZM490.191 268.9H474.651V272.9H490.191V268.9ZM476.637 271.141L477.897 260.781L473.926 260.299L472.666 270.659L476.637 271.141ZM475.911 262.54H490.611V258.54H475.911V262.54ZM492.596 260.784L493.716 251.684L489.746 251.196L488.626 260.296L492.596 260.784ZM491.731 249.44H477.031V253.44H491.731V249.44ZM479.016 251.686L480.136 242.656L476.166 242.164L475.046 251.194L479.016 251.686ZM478.151 244.41H493.411V240.41H478.151V244.41ZM495.396 242.654L496.516 233.554L492.546 233.066L491.426 242.166L495.396 242.654ZM533.403 242.654L534.523 233.554L530.553 233.066L529.433 242.166L533.403 242.654ZM532.538 231.31H501.458V235.31H532.538V231.31ZM499.473 233.066L498.353 242.166L502.323 242.654L503.443 233.554L499.473 233.066ZM500.338 244.41H510.488V240.41H500.338V244.41ZM508.503 242.166L503.883 279.756L507.853 280.244L512.473 242.654L508.503 242.166ZM505.868 282H516.648V278H505.868V282ZM518.633 280.244L523.253 242.654L519.283 242.166L514.663 279.756L518.633 280.244ZM521.268 244.41H531.418V240.41H521.268V244.41ZM567.698 235.307C562.355 231.109 557.259 230.26 552.953 230.26V234.26C556.627 234.26 560.771 234.951 565.227 238.453L567.698 235.307ZM552.953 230.26C548.772 230.26 543.29 230.985 538.952 235.243L541.754 238.097C544.975 234.935 549.154 234.26 552.953 234.26V230.26ZM538.938 235.256C536.365 237.829 534.153 241.823 534.153 247.24H538.153C538.153 242.997 539.86 239.991 541.767 238.084L538.938 235.256ZM534.153 247.24C534.153 250.611 535.137 253.8 537.797 256.542L540.668 253.758C538.848 251.88 538.153 249.749 538.153 247.24H534.153ZM537.797 256.542C540.354 259.18 544.267 260.846 545.129 261.16L546.496 257.4C545.819 257.154 542.591 255.74 540.668 253.758L537.797 256.542ZM545.054 261.13L547.784 262.25L549.302 258.55L546.572 257.43L545.054 261.13ZM547.8 262.257C550.071 263.166 550.729 263.804 550.838 263.914L553.667 261.086C553.077 260.496 551.914 259.594 549.285 258.543L547.8 262.257ZM550.839 263.914C551.028 264.104 551.205 264.317 551.339 264.584C551.467 264.842 551.583 265.201 551.583 265.72H555.583C555.583 263.323 554.445 261.864 553.667 261.086L550.839 263.914ZM551.583 265.72C551.583 266.959 551.09 267.941 550.395 268.481L552.851 271.639C554.676 270.219 555.583 267.981 555.583 265.72H551.583ZM550.436 268.45C549.572 269.087 547.807 269.53 546.443 269.53V273.53C548.298 273.53 551.014 272.993 552.809 271.67L550.436 268.45ZM546.443 269.53C544.805 269.53 543.207 269.015 542.035 268.289L539.93 271.691C541.699 272.785 544.021 273.53 546.443 273.53V269.53ZM542.073 268.313C540.881 267.538 539.515 266.237 538.673 265.094L535.453 267.466C536.57 268.983 538.284 270.622 539.893 271.667L542.073 268.313ZM535.487 265.048L529.467 272.748L532.618 275.212L538.638 267.512L535.487 265.048ZM529.573 275.337C531.365 277.278 533.773 279.319 536.315 280.706L538.23 277.194C536.153 276.061 534.08 274.322 532.512 272.623L529.573 275.337ZM536.332 280.715C539.858 282.595 542.939 283.05 546.583 283.05V279.05C543.367 279.05 540.988 278.665 538.214 277.185L536.332 280.715ZM546.583 283.05C551.543 283.05 557.019 282.181 561.354 277.927L558.552 275.073C555.326 278.239 551.142 279.05 546.583 279.05V283.05ZM561.367 277.914C564.483 274.798 566.643 269.944 566.643 264.53H562.643C562.643 268.916 560.882 272.742 558.538 275.086L561.367 277.914ZM566.643 264.53C566.643 261.131 565.826 258.503 563.824 256.001L560.701 258.499C562.059 260.197 562.643 261.909 562.643 264.53H566.643ZM563.815 255.989C561.713 253.401 559.291 252.056 556.952 250.959L555.254 254.581C557.395 255.584 559.173 256.619 560.71 258.511L563.815 255.989ZM556.941 250.954L554.211 249.694L552.535 253.326L555.265 254.586L556.941 250.954ZM554.2 249.689C551.773 248.586 550.836 248.152 550.124 247.541L547.521 250.579C548.769 251.648 550.352 252.334 552.545 253.331L554.2 249.689ZM550.058 247.487C549.452 247.011 549.213 246.57 549.213 245.91H545.213C545.213 248.05 546.233 249.569 547.587 250.633L550.058 247.487ZM549.213 245.91C549.213 245.243 549.577 244.501 550.058 244.123L547.587 240.977C546.109 242.139 545.213 244.057 545.213 245.91H549.213ZM550.094 244.094C550.357 243.878 550.792 243.677 551.409 243.54C552.01 243.406 552.661 243.36 553.233 243.36V239.36C552.475 239.36 551.515 239.419 550.541 239.635C549.584 239.848 548.479 240.242 547.551 241.006L550.094 244.094ZM553.233 243.36C554.846 243.36 557.165 243.882 559.731 246.203L562.415 243.237C559.1 240.238 555.819 239.36 553.233 239.36V243.36ZM562.721 245.853L568.111 238.013L564.815 235.747L559.425 243.587L562.721 245.853Z" fill="white" mask="url(#path-2-outside-1_224_7748)"/>
<mask id="path-4-inside-2_224_7748" fill="white">
<path d="M13.5099 145.962L10.5459 170.358L22.9719 169.446L16.5879 222H44.6319L53.9799 145.962H13.5099Z"/>
<path d="M105.831 144.138C84.1712 144.138 68.2112 162.15 68.2112 186.66C68.2112 208.548 82.6892 223.938 103.323 223.938C125.211 223.938 141.855 205.47 141.855 181.302C141.855 159.984 126.465 144.138 105.831 144.138ZM103.209 201.138C98.4212 201.138 95.5712 196.122 95.5712 188.028C95.5712 177.084 100.815 167.28 106.629 167.28C111.303 167.28 114.495 172.068 114.495 179.25C114.495 191.448 109.479 201.138 103.209 201.138Z"/>
<path d="M191.607 144.138C169.947 144.138 153.987 162.15 153.987 186.66C153.987 208.548 168.465 223.938 189.099 223.938C210.987 223.938 227.631 205.47 227.631 181.302C227.631 159.984 212.241 144.138 191.607 144.138ZM188.985 201.138C184.197 201.138 181.347 196.122 181.347 188.028C181.347 177.084 186.591 167.28 192.405 167.28C197.079 167.28 200.271 172.068 200.271 179.25C200.271 191.448 195.255 201.138 188.985 201.138Z"/>
<path d="M274.648 145.962L265.3 222H316.144L318.652 201.594H295.396L296.422 192.93H316.942L319.222 174.12H298.702L299.728 165.798H322.186L324.58 145.962H274.648Z"/>
<path d="M382.701 145.962L377.457 189.054C376.317 197.376 373.809 200.682 368.565 200.682C364.233 200.682 361.725 198.174 361.725 193.614C361.725 192.702 361.953 190.764 362.295 188.028L367.425 145.962H339.495L334.023 189.738C333.795 191.79 333.681 193.728 333.681 195.78C333.681 204.9 336.189 210.828 342.231 215.73C348.843 221.088 358.077 223.938 369.135 223.938C379.965 223.938 388.173 221.088 394.899 215.046C401.625 208.89 403.449 204.216 405.501 188.028L410.631 145.962H382.701Z"/>
<path d="M483.569 187.8C488.357 183.924 491.207 177.654 491.207 171.042C491.207 163.86 487.901 156.792 482.315 152.118C476.615 147.558 470.801 145.962 458.375 145.962H428.165L418.817 222H446.405L447.887 209.232C448.229 206.382 448.457 202.62 448.457 199.2C448.457 197.148 448.457 196.122 448.343 193.614L449.141 193.5C449.711 196.35 450.965 200.454 452.105 203.646L458.945 222H488.813L472.283 192.246C477.983 191.448 480.149 190.536 483.569 187.8ZM455.411 166.368C461.453 166.368 464.189 168.306 464.189 172.524C464.189 177.084 460.199 180.048 453.815 180.048H451.535L453.245 166.368H455.411Z"/>
</mask>
<path d="M13.5099 145.962L10.5459 170.358L22.9719 169.446L16.5879 222H44.6319L53.9799 145.962H13.5099Z" fill="#0A0B0D"/>
<path d="M105.831 144.138C84.1712 144.138 68.2112 162.15 68.2112 186.66C68.2112 208.548 82.6892 223.938 103.323 223.938C125.211 223.938 141.855 205.47 141.855 181.302C141.855 159.984 126.465 144.138 105.831 144.138ZM103.209 201.138C98.4212 201.138 95.5712 196.122 95.5712 188.028C95.5712 177.084 100.815 167.28 106.629 167.28C111.303 167.28 114.495 172.068 114.495 179.25C114.495 191.448 109.479 201.138 103.209 201.138Z" fill="#0A0B0D"/>
<path d="M191.607 144.138C169.947 144.138 153.987 162.15 153.987 186.66C153.987 208.548 168.465 223.938 189.099 223.938C210.987 223.938 227.631 205.47 227.631 181.302C227.631 159.984 212.241 144.138 191.607 144.138ZM188.985 201.138C184.197 201.138 181.347 196.122 181.347 188.028C181.347 177.084 186.591 167.28 192.405 167.28C197.079 167.28 200.271 172.068 200.271 179.25C200.271 191.448 195.255 201.138 188.985 201.138Z" fill="#0A0B0D"/>
<path d="M274.648 145.962L265.3 222H316.144L318.652 201.594H295.396L296.422 192.93H316.942L319.222 174.12H298.702L299.728 165.798H322.186L324.58 145.962H274.648Z" fill="#0A0B0D"/>
<path d="M382.701 145.962L377.457 189.054C376.317 197.376 373.809 200.682 368.565 200.682C364.233 200.682 361.725 198.174 361.725 193.614C361.725 192.702 361.953 190.764 362.295 188.028L367.425 145.962H339.495L334.023 189.738C333.795 191.79 333.681 193.728 333.681 195.78C333.681 204.9 336.189 210.828 342.231 215.73C348.843 221.088 358.077 223.938 369.135 223.938C379.965 223.938 388.173 221.088 394.899 215.046C401.625 208.89 403.449 204.216 405.501 188.028L410.631 145.962H382.701Z" fill="#0A0B0D"/>
<path d="M483.569 187.8C488.357 183.924 491.207 177.654 491.207 171.042C491.207 163.86 487.901 156.792 482.315 152.118C476.615 147.558 470.801 145.962 458.375 145.962H428.165L418.817 222H446.405L447.887 209.232C448.229 206.382 448.457 202.62 448.457 199.2C448.457 197.148 448.457 196.122 448.343 193.614L449.141 193.5C449.711 196.35 450.965 200.454 452.105 203.646L458.945 222H488.813L472.283 192.246C477.983 191.448 480.149 190.536 483.569 187.8ZM455.411 166.368C461.453 166.368 464.189 168.306 464.189 172.524C464.189 177.084 460.199 180.048 453.815 180.048H451.535L453.245 166.368H455.411Z" fill="#0A0B0D"/>
<path d="M13.5099 145.962V143.962H11.7382L11.5245 145.721L13.5099 145.962ZM10.5459 170.358L8.5605 170.117L8.26723 172.531L10.6923 172.353L10.5459 170.358ZM22.9719 169.446L24.9573 169.687L25.2505 167.273L22.8255 167.451L22.9719 169.446ZM16.5879 222L14.6025 221.759L14.3302 224H16.5879V222ZM44.6319 222V224H46.4011L46.617 222.244L44.6319 222ZM53.9799 145.962L55.965 146.206L56.2408 143.962H53.9799V145.962ZM274.648 145.962V143.962H272.879L272.663 145.718L274.648 145.962ZM265.3 222L263.315 221.756L263.039 224H265.3V222ZM316.144 222V224H317.913L318.129 222.244L316.144 222ZM318.652 201.594L320.637 201.838L320.913 199.594H318.652V201.594ZM295.396 201.594L293.41 201.359L293.145 203.594H295.396V201.594ZM296.422 192.93V190.93H294.645L294.436 192.695L296.422 192.93ZM316.942 192.93V194.93H318.714L318.928 193.171L316.942 192.93ZM319.222 174.12L321.208 174.361L321.479 172.12H319.222V174.12ZM298.702 174.12L296.717 173.875L296.441 176.12H298.702V174.12ZM299.728 165.798V163.798H297.96L297.743 165.553L299.728 165.798ZM322.186 165.798V167.798H323.959L324.172 166.038L322.186 165.798ZM324.58 145.962L326.566 146.202L326.836 143.962H324.58V145.962ZM382.701 145.962V143.962H380.929L380.715 145.72L382.701 145.962ZM377.457 189.054L379.438 189.325L379.44 189.31L379.442 189.296L377.457 189.054ZM362.295 188.028L364.279 188.276L364.28 188.27L362.295 188.028ZM367.425 145.962L369.41 146.204L369.683 143.962H367.425V145.962ZM339.495 145.962V143.962H337.729L337.51 145.714L339.495 145.962ZM334.023 189.738L332.038 189.49L332.036 189.503L332.035 189.517L334.023 189.738ZM342.231 215.73L340.971 217.283L340.972 217.284L342.231 215.73ZM394.899 215.046L396.235 216.534L396.242 216.528L396.249 216.521L394.899 215.046ZM405.501 188.028L407.485 188.279L407.486 188.27L405.501 188.028ZM410.631 145.962L412.616 146.204L412.889 143.962H410.631V145.962ZM483.569 187.8L484.819 189.362L484.828 189.354L483.569 187.8ZM482.315 152.118L483.599 150.584L483.582 150.57L483.565 150.556L482.315 152.118ZM428.165 145.962V143.962H426.396L426.18 145.718L428.165 145.962ZM418.817 222L416.832 221.756L416.556 224H418.817V222ZM446.405 222V224H448.187L448.392 222.231L446.405 222ZM447.887 209.232L445.902 208.994L445.901 209.001L447.887 209.232ZM448.343 193.614L448.06 191.634L446.263 191.891L446.345 193.705L448.343 193.614ZM449.141 193.5L451.102 193.108L450.731 191.252L448.858 191.52L449.141 193.5ZM452.105 203.646L450.222 204.319L450.226 204.332L450.231 204.344L452.105 203.646ZM458.945 222L457.071 222.698L457.556 224H458.945V222ZM488.813 222V224H492.212L490.562 221.029L488.813 222ZM472.283 192.246L472.006 190.265L469.12 190.669L470.535 193.217L472.283 192.246ZM451.535 180.048L449.551 179.8L449.27 182.048H451.535V180.048ZM453.245 166.368V164.368H451.48L451.261 166.12L453.245 166.368ZM11.5245 145.721L8.5605 170.117L12.5313 170.599L15.4953 146.203L11.5245 145.721ZM10.6923 172.353L23.1183 171.441L22.8255 167.451L10.3995 168.363L10.6923 172.353ZM20.9865 169.205L14.6025 221.759L18.5733 222.241L24.9573 169.687L20.9865 169.205ZM16.5879 224H44.6319V220H16.5879V224ZM46.617 222.244L55.965 146.206L51.9948 145.718L42.6468 221.756L46.617 222.244ZM53.9799 143.962H13.5099V147.962H53.9799V143.962ZM105.831 142.138C82.8442 142.138 66.2112 161.282 66.2112 186.66H70.2112C70.2112 163.018 85.4982 146.138 105.831 146.138V142.138ZM66.2112 186.66C66.2112 198.049 69.9833 207.879 76.5733 214.878C83.1715 221.886 92.487 225.938 103.323 225.938V221.938C93.5254 221.938 85.2849 218.295 79.4856 212.136C73.6781 205.968 70.2112 197.159 70.2112 186.66H66.2112ZM103.323 225.938C126.503 225.938 143.855 206.378 143.855 181.302H139.855C139.855 204.562 123.92 221.938 103.323 221.938V225.938ZM143.855 181.302C143.855 158.937 127.627 142.138 105.831 142.138V146.138C125.303 146.138 139.855 161.03 139.855 181.302H143.855ZM103.209 199.138C101.654 199.138 100.347 198.381 99.3258 196.617C98.2567 194.769 97.5712 191.883 97.5712 188.028H93.5712C93.5712 192.267 94.3107 195.936 95.8636 198.62C97.4646 201.387 99.9761 203.138 103.209 203.138V199.138ZM97.5712 188.028C97.5712 182.849 98.817 177.991 100.684 174.491C102.628 170.849 104.876 169.28 106.629 169.28V165.28C102.568 165.28 99.2874 168.613 97.1554 172.608C94.9474 176.747 93.5712 182.262 93.5712 188.028H97.5712ZM106.629 169.28C108.187 169.28 109.57 170.043 110.646 171.673C111.753 173.351 112.495 175.926 112.495 179.25H116.495C116.495 175.392 115.642 171.982 113.984 169.47C112.295 166.91 109.746 165.28 106.629 165.28V169.28ZM112.495 179.25C112.495 185.102 111.288 190.245 109.426 193.851C107.517 197.549 105.221 199.138 103.209 199.138V203.138C107.467 203.138 110.815 199.881 112.981 195.686C115.195 191.397 116.495 185.596 116.495 179.25H112.495ZM191.607 142.138C168.62 142.138 151.987 161.282 151.987 186.66H155.987C155.987 163.018 171.274 146.138 191.607 146.138V142.138ZM151.987 186.66C151.987 198.049 155.759 207.879 162.349 214.878C168.948 221.886 178.263 225.938 189.099 225.938V221.938C179.302 221.938 171.061 218.295 165.262 212.136C159.454 205.968 155.987 197.159 155.987 186.66H151.987ZM189.099 225.938C212.279 225.938 229.631 206.378 229.631 181.302H225.631C225.631 204.562 209.696 221.938 189.099 221.938V225.938ZM229.631 181.302C229.631 158.937 213.403 142.138 191.607 142.138V146.138C211.08 146.138 225.631 161.03 225.631 181.302H229.631ZM188.985 199.138C187.43 199.138 186.123 198.381 185.102 196.617C184.033 194.769 183.347 191.883 183.347 188.028H179.347C179.347 192.267 180.087 195.936 181.64 198.62C183.241 201.387 185.752 203.138 188.985 203.138V199.138ZM183.347 188.028C183.347 182.849 184.593 177.991 186.461 174.491C188.404 170.849 190.652 169.28 192.405 169.28V165.28C188.344 165.28 185.063 168.613 182.932 172.608C180.724 176.747 179.347 182.262 179.347 188.028H183.347ZM192.405 169.28C193.963 169.28 195.346 170.043 196.422 171.673C197.529 173.351 198.271 175.926 198.271 179.25H202.271C202.271 175.392 201.418 171.982 199.76 169.47C198.071 166.91 195.522 165.28 192.405 165.28V169.28ZM198.271 179.25C198.271 185.102 197.064 190.245 195.202 193.851C193.293 197.549 190.997 199.138 188.985 199.138V203.138C193.243 203.138 196.591 199.881 198.757 195.686C200.971 191.397 202.271 185.596 202.271 179.25H198.271ZM272.663 145.718L263.315 221.756L267.285 222.244L276.633 146.206L272.663 145.718ZM265.3 224H316.144V220H265.3V224ZM318.129 222.244L320.637 201.838L316.667 201.35L314.159 221.756L318.129 222.244ZM318.652 199.594H295.396V203.594H318.652V199.594ZM297.382 201.829L298.408 193.165L294.436 192.695L293.41 201.359L297.382 201.829ZM296.422 194.93H316.942V190.93H296.422V194.93ZM318.928 193.171L321.208 174.361L317.237 173.879L314.957 192.689L318.928 193.171ZM319.222 172.12H298.702V176.12H319.222V172.12ZM300.687 174.365L301.713 166.043L297.743 165.553L296.717 173.875L300.687 174.365ZM299.728 167.798H322.186V163.798H299.728V167.798ZM324.172 166.038L326.566 146.202L322.595 145.722L320.201 165.558L324.172 166.038ZM324.58 143.962H274.648V147.962H324.58V143.962ZM380.715 145.72L375.471 188.812L379.442 189.296L384.686 146.204L380.715 145.72ZM375.475 188.783C374.917 192.86 374.059 195.335 372.96 196.775C371.985 198.053 370.691 198.682 368.565 198.682V202.682C371.682 202.682 374.265 201.658 376.139 199.202C377.89 196.909 378.857 193.57 379.438 189.325L375.475 188.783ZM368.565 198.682C366.782 198.682 365.647 198.174 364.951 197.461C364.249 196.741 363.725 195.538 363.725 193.614H359.725C359.725 196.25 360.454 198.581 362.089 200.255C363.73 201.936 366.015 202.682 368.565 202.682V198.682ZM363.725 193.614C363.725 192.86 363.928 191.085 364.279 188.276L360.31 187.78C359.977 190.443 359.725 192.543 359.725 193.614H363.725ZM364.28 188.27L369.41 146.204L365.439 145.72L360.309 187.786L364.28 188.27ZM367.425 143.962H339.495V147.962H367.425V143.962ZM337.51 145.714L332.038 189.49L336.007 189.986L341.479 146.21L337.51 145.714ZM332.035 189.517C331.799 191.638 331.681 193.65 331.681 195.78H335.681C335.681 193.806 335.79 191.942 336.01 189.959L332.035 189.517ZM331.681 195.78C331.681 200.518 332.331 204.567 333.851 208.123C335.379 211.698 337.735 214.658 340.971 217.283L343.491 214.177C340.685 211.9 338.766 209.445 337.529 206.551C336.284 203.637 335.681 200.162 335.681 195.78H331.681ZM340.972 217.284C348.03 223.003 357.749 225.938 369.135 225.938V221.938C358.404 221.938 349.656 219.173 343.49 214.176L340.972 217.284ZM369.135 225.938C380.359 225.938 389.075 222.966 396.235 216.534L393.562 213.558C387.271 219.21 379.57 221.938 369.135 221.938V225.938ZM396.249 216.521C399.763 213.305 402.118 210.355 403.814 206.029C405.468 201.811 406.459 196.371 407.485 188.279L403.517 187.776C402.49 195.873 401.543 200.864 400.09 204.569C398.68 208.166 396.76 210.631 393.548 213.571L396.249 216.521ZM407.486 188.27L412.616 146.204L408.645 145.72L403.515 187.786L407.486 188.27ZM410.631 143.962H382.701V147.962H410.631V143.962ZM484.828 189.354C490.125 185.066 493.207 178.204 493.207 171.042H489.207C489.207 177.104 486.59 182.782 482.311 186.245L484.828 189.354ZM493.207 171.042C493.207 163.263 489.635 155.635 483.599 150.584L481.032 153.652C486.168 157.949 489.207 164.457 489.207 171.042H493.207ZM483.565 150.556C477.35 145.584 470.995 143.962 458.375 143.962V147.962C470.607 147.962 475.881 149.532 481.066 153.68L483.565 150.556ZM458.375 143.962H428.165V147.962H458.375V143.962ZM426.18 145.718L416.832 221.756L420.802 222.244L430.15 146.206L426.18 145.718ZM418.817 224H446.405V220H418.817V224ZM448.392 222.231L449.874 209.463L445.901 209.001L444.419 221.769L448.392 222.231ZM449.873 209.47C450.225 206.536 450.457 202.694 450.457 199.2H446.457C446.457 202.546 446.233 206.228 445.902 208.994L449.873 209.47ZM450.457 199.2C450.457 197.134 450.457 196.074 450.341 193.523L446.345 193.705C446.457 196.17 446.457 197.162 446.457 199.2H450.457ZM448.626 195.594L449.424 195.48L448.858 191.52L448.06 191.634L448.626 195.594ZM447.18 193.892C447.777 196.878 449.067 201.085 450.222 204.319L453.989 202.973C452.864 199.823 451.645 195.822 451.102 193.108L447.18 193.892ZM450.231 204.344L457.071 222.698L460.819 221.302L453.979 202.948L450.231 204.344ZM458.945 224H488.813V220H458.945V224ZM490.562 221.029L474.032 191.275L470.535 193.217L487.065 222.971L490.562 221.029ZM472.561 194.227C475.461 193.821 477.615 193.367 479.521 192.608C481.456 191.837 483.027 190.795 484.819 189.362L482.32 186.238C480.691 187.541 479.469 188.323 478.041 188.892C476.584 189.472 474.806 189.873 472.006 190.265L472.561 194.227ZM455.411 168.368C458.294 168.368 459.983 168.845 460.916 169.5C461.697 170.049 462.189 170.896 462.189 172.524H466.189C466.189 169.934 465.314 167.702 463.216 166.228C461.27 164.86 458.571 164.368 455.411 164.368V168.368ZM462.189 172.524C462.189 174.148 461.511 175.436 460.217 176.381C458.863 177.369 456.726 178.048 453.815 178.048V182.048C457.289 182.048 460.338 181.245 462.576 179.611C464.873 177.934 466.189 175.46 466.189 172.524H462.189ZM453.815 178.048H451.535V182.048H453.815V178.048ZM453.52 180.296L455.23 166.616L451.261 166.12L449.551 179.8L453.52 180.296ZM453.245 168.368H455.411V164.368H453.245V168.368Z" fill="#006633" mask="url(#path-4-inside-2_224_7748)"/>
<mask id="path-6-inside-3_224_7748" fill="white">
<path d="M2.5099 136.962L-0.454102 161.358L11.9719 160.446L5.5879 213H33.6319L42.9799 136.962H2.5099Z"/>
<path d="M94.8312 135.138C73.1712 135.138 57.2112 153.15 57.2112 177.66C57.2112 199.548 71.6892 214.938 92.3232 214.938C114.211 214.938 130.855 196.47 130.855 172.302C130.855 150.984 115.465 135.138 94.8312 135.138ZM92.2092 192.138C87.4212 192.138 84.5712 187.122 84.5712 179.028C84.5712 168.084 89.8152 158.28 95.6292 158.28C100.303 158.28 103.495 163.068 103.495 170.25C103.495 182.448 98.4792 192.138 92.2092 192.138Z"/>
<path d="M180.607 135.138C158.947 135.138 142.987 153.15 142.987 177.66C142.987 199.548 157.465 214.938 178.099 214.938C199.987 214.938 216.631 196.47 216.631 172.302C216.631 150.984 201.241 135.138 180.607 135.138ZM177.985 192.138C173.197 192.138 170.347 187.122 170.347 179.028C170.347 168.084 175.591 158.28 181.405 158.28C186.079 158.28 189.271 163.068 189.271 170.25C189.271 182.448 184.255 192.138 177.985 192.138Z"/>
<path d="M263.648 136.962L254.3 213H305.144L307.652 192.594H284.396L285.422 183.93H305.942L308.222 165.12H287.702L288.728 156.798H311.186L313.58 136.962H263.648Z"/>
<path d="M371.701 136.962L366.457 180.054C365.317 188.376 362.809 191.682 357.565 191.682C353.233 191.682 350.725 189.174 350.725 184.614C350.725 183.702 350.953 181.764 351.295 179.028L356.425 136.962H328.495L323.023 180.738C322.795 182.79 322.681 184.728 322.681 186.78C322.681 195.9 325.189 201.828 331.231 206.73C337.843 212.088 347.077 214.938 358.135 214.938C368.965 214.938 377.173 212.088 383.899 206.046C390.625 199.89 392.449 195.216 394.501 179.028L399.631 136.962H371.701Z"/>
<path d="M472.569 178.8C477.357 174.924 480.207 168.654 480.207 162.042C480.207 154.86 476.901 147.792 471.315 143.118C465.615 138.558 459.801 136.962 447.375 136.962H417.165L407.817 213H435.405L436.887 200.232C437.229 197.382 437.457 193.62 437.457 190.2C437.457 188.148 437.457 187.122 437.343 184.614L438.141 184.5C438.711 187.35 439.965 191.454 441.105 194.646L447.945 213H477.813L461.283 183.246C466.983 182.448 469.149 181.536 472.569 178.8ZM444.411 157.368C450.453 157.368 453.189 159.306 453.189 163.524C453.189 168.084 449.199 171.048 442.815 171.048H440.535L442.245 157.368H444.411Z"/>
</mask>
<path d="M2.5099 136.962L-0.454102 161.358L11.9719 160.446L5.5879 213H33.6319L42.9799 136.962H2.5099Z" fill="#0A0B0D"/>
<path d="M94.8312 135.138C73.1712 135.138 57.2112 153.15 57.2112 177.66C57.2112 199.548 71.6892 214.938 92.3232 214.938C114.211 214.938 130.855 196.47 130.855 172.302C130.855 150.984 115.465 135.138 94.8312 135.138ZM92.2092 192.138C87.4212 192.138 84.5712 187.122 84.5712 179.028C84.5712 168.084 89.8152 158.28 95.6292 158.28C100.303 158.28 103.495 163.068 103.495 170.25C103.495 182.448 98.4792 192.138 92.2092 192.138Z" fill="#0A0B0D"/>
<path d="M180.607 135.138C158.947 135.138 142.987 153.15 142.987 177.66C142.987 199.548 157.465 214.938 178.099 214.938C199.987 214.938 216.631 196.47 216.631 172.302C216.631 150.984 201.241 135.138 180.607 135.138ZM177.985 192.138C173.197 192.138 170.347 187.122 170.347 179.028C170.347 168.084 175.591 158.28 181.405 158.28C186.079 158.28 189.271 163.068 189.271 170.25C189.271 182.448 184.255 192.138 177.985 192.138Z" fill="#0A0B0D"/>
<path d="M263.648 136.962L254.3 213H305.144L307.652 192.594H284.396L285.422 183.93H305.942L308.222 165.12H287.702L288.728 156.798H311.186L313.58 136.962H263.648Z" fill="#0A0B0D"/>
<path d="M371.701 136.962L366.457 180.054C365.317 188.376 362.809 191.682 357.565 191.682C353.233 191.682 350.725 189.174 350.725 184.614C350.725 183.702 350.953 181.764 351.295 179.028L356.425 136.962H328.495L323.023 180.738C322.795 182.79 322.681 184.728 322.681 186.78C322.681 195.9 325.189 201.828 331.231 206.73C337.843 212.088 347.077 214.938 358.135 214.938C368.965 214.938 377.173 212.088 383.899 206.046C390.625 199.89 392.449 195.216 394.501 179.028L399.631 136.962H371.701Z" fill="#0A0B0D"/>
<path d="M472.569 178.8C477.357 174.924 480.207 168.654 480.207 162.042C480.207 154.86 476.901 147.792 471.315 143.118C465.615 138.558 459.801 136.962 447.375 136.962H417.165L407.817 213H435.405L436.887 200.232C437.229 197.382 437.457 193.62 437.457 190.2C437.457 188.148 437.457 187.122 437.343 184.614L438.141 184.5C438.711 187.35 439.965 191.454 441.105 194.646L447.945 213H477.813L461.283 183.246C466.983 182.448 469.149 181.536 472.569 178.8ZM444.411 157.368C450.453 157.368 453.189 159.306 453.189 163.524C453.189 168.084 449.199 171.048 442.815 171.048H440.535L442.245 157.368H444.411Z" fill="#0A0B0D"/>
<path d="M2.5099 136.962V134.962H0.738181L0.524497 136.721L2.5099 136.962ZM-0.454102 161.358L-2.4395 161.117L-2.73277 163.531L-0.307706 163.353L-0.454102 161.358ZM11.9719 160.446L13.9573 160.687L14.2505 158.273L11.8255 158.451L11.9719 160.446ZM5.5879 213L3.60249 212.759L3.33025 215H5.5879V213ZM33.6319 213V215H35.4011L35.617 213.244L33.6319 213ZM42.9799 136.962L44.965 137.206L45.2408 134.962H42.9799V136.962ZM263.648 136.962V134.962H261.879L261.663 136.718L263.648 136.962ZM254.3 213L252.315 212.756L252.039 215H254.3V213ZM305.144 213V215H306.913L307.129 213.244L305.144 213ZM307.652 192.594L309.637 192.838L309.913 190.594H307.652V192.594ZM284.396 192.594L282.41 192.359L282.145 194.594H284.396V192.594ZM285.422 183.93V181.93H283.645L283.436 183.695L285.422 183.93ZM305.942 183.93V185.93H307.714L307.928 184.171L305.942 183.93ZM308.222 165.12L310.208 165.361L310.479 163.12H308.222V165.12ZM287.702 165.12L285.717 164.875L285.441 167.12H287.702V165.12ZM288.728 156.798V154.798H286.96L286.743 156.553L288.728 156.798ZM311.186 156.798V158.798H312.959L313.172 157.038L311.186 156.798ZM313.58 136.962L315.566 137.202L315.836 134.962H313.58V136.962ZM371.701 136.962V134.962H369.929L369.715 136.72L371.701 136.962ZM366.457 180.054L368.438 180.325L368.44 180.31L368.442 180.296L366.457 180.054ZM351.295 179.028L353.279 179.276L353.28 179.27L351.295 179.028ZM356.425 136.962L358.41 137.204L358.683 134.962H356.425V136.962ZM328.495 136.962V134.962H326.729L326.51 136.714L328.495 136.962ZM323.023 180.738L321.038 180.49L321.036 180.503L321.035 180.517L323.023 180.738ZM331.231 206.73L329.971 208.283L329.972 208.284L331.231 206.73ZM383.899 206.046L385.235 207.534L385.242 207.528L385.249 207.521L383.899 206.046ZM394.501 179.028L396.485 179.279L396.486 179.27L394.501 179.028ZM399.631 136.962L401.616 137.204L401.889 134.962H399.631V136.962ZM472.569 178.8L473.819 180.362L473.828 180.354L472.569 178.8ZM471.315 143.118L472.599 141.584L472.582 141.57L472.565 141.556L471.315 143.118ZM417.165 136.962V134.962H415.396L415.18 136.718L417.165 136.962ZM407.817 213L405.832 212.756L405.556 215H407.817V213ZM435.405 213V215H437.187L437.392 213.231L435.405 213ZM436.887 200.232L434.902 199.994L434.901 200.001L436.887 200.232ZM437.343 184.614L437.06 182.634L435.263 182.891L435.345 184.705L437.343 184.614ZM438.141 184.5L440.102 184.108L439.731 182.252L437.858 182.52L438.141 184.5ZM441.105 194.646L439.222 195.319L439.226 195.332L439.231 195.344L441.105 194.646ZM447.945 213L446.071 213.698L446.556 215H447.945V213ZM477.813 213V215H481.212L479.562 212.029L477.813 213ZM461.283 183.246L461.006 181.265L458.12 181.669L459.535 184.217L461.283 183.246ZM440.535 171.048L438.551 170.8L438.27 173.048H440.535V171.048ZM442.245 157.368V155.368H440.48L440.261 157.12L442.245 157.368ZM0.524497 136.721L-2.4395 161.117L1.5313 161.599L4.4953 137.203L0.524497 136.721ZM-0.307706 163.353L12.1183 162.441L11.8255 158.451L-0.600497 159.363L-0.307706 163.353ZM9.98649 160.205L3.60249 212.759L7.5733 213.241L13.9573 160.687L9.98649 160.205ZM5.5879 215H33.6319V211H5.5879V215ZM35.617 213.244L44.965 137.206L40.9948 136.718L31.6468 212.756L35.617 213.244ZM42.9799 134.962H2.5099V138.962H42.9799V134.962ZM94.8312 133.138C71.8442 133.138 55.2112 152.282 55.2112 177.66H59.2112C59.2112 154.018 74.4982 137.138 94.8312 137.138V133.138ZM55.2112 177.66C55.2112 189.049 58.9833 198.879 65.5733 205.878C72.1715 212.886 81.487 216.938 92.3232 216.938V212.938C82.5254 212.938 74.2849 209.295 68.4856 203.136C62.6781 196.968 59.2112 188.159 59.2112 177.66H55.2112ZM92.3232 216.938C115.503 216.938 132.855 197.378 132.855 172.302H128.855C128.855 195.562 112.92 212.938 92.3232 212.938V216.938ZM132.855 172.302C132.855 149.937 116.627 133.138 94.8312 133.138V137.138C114.303 137.138 128.855 152.03 128.855 172.302H132.855ZM92.2092 190.138C90.6543 190.138 89.3468 189.381 88.3258 187.617C87.2567 185.769 86.5712 182.883 86.5712 179.028H82.5712C82.5712 183.267 83.3107 186.936 84.8636 189.62C86.4646 192.387 88.9761 194.138 92.2092 194.138V190.138ZM86.5712 179.028C86.5712 173.849 87.817 168.991 89.6845 165.491C91.628 161.849 93.8764 160.28 95.6292 160.28V156.28C91.568 156.28 88.2874 159.613 86.1554 163.608C83.9474 167.747 82.5712 173.262 82.5712 179.028H86.5712ZM95.6292 160.28C97.1867 160.28 98.5702 161.043 99.6456 162.673C100.753 164.351 101.495 166.926 101.495 170.25H105.495C105.495 166.392 104.642 162.982 102.984 160.47C101.295 157.91 98.7457 156.28 95.6292 156.28V160.28ZM101.495 170.25C101.495 176.102 100.288 181.245 98.4263 184.851C96.5168 188.549 94.2213 190.138 92.2092 190.138V194.138C96.4671 194.138 99.8146 190.881 101.981 186.686C104.195 182.397 105.495 176.596 105.495 170.25H101.495ZM180.607 133.138C157.62 133.138 140.987 152.282 140.987 177.66H144.987C144.987 154.018 160.274 137.138 180.607 137.138V133.138ZM140.987 177.66C140.987 189.049 144.759 198.879 151.349 205.878C157.948 212.886 167.263 216.938 178.099 216.938V212.938C168.302 212.938 160.061 209.295 154.262 203.136C148.454 196.968 144.987 188.159 144.987 177.66H140.987ZM178.099 216.938C201.279 216.938 218.631 197.378 218.631 172.302H214.631C214.631 195.562 198.696 212.938 178.099 212.938V216.938ZM218.631 172.302C218.631 149.937 202.403 133.138 180.607 133.138V137.138C200.08 137.138 214.631 152.03 214.631 172.302H218.631ZM177.985 190.138C176.43 190.138 175.123 189.381 174.102 187.617C173.033 185.769 172.347 182.883 172.347 179.028H168.347C168.347 183.267 169.087 186.936 170.64 189.62C172.241 192.387 174.752 194.138 177.985 194.138V190.138ZM172.347 179.028C172.347 173.849 173.593 168.991 175.461 165.491C177.404 161.849 179.652 160.28 181.405 160.28V156.28C177.344 156.28 174.063 159.613 171.932 163.608C169.724 167.747 168.347 173.262 168.347 179.028H172.347ZM181.405 160.28C182.963 160.28 184.346 161.043 185.422 162.673C186.529 164.351 187.271 166.926 187.271 170.25H191.271C191.271 166.392 190.418 162.982 188.76 160.47C187.071 157.91 184.522 156.28 181.405 156.28V160.28ZM187.271 170.25C187.271 176.102 186.064 181.245 184.202 184.851C182.293 188.549 179.997 190.138 177.985 190.138V194.138C182.243 194.138 185.591 190.881 187.757 186.686C189.971 182.397 191.271 176.596 191.271 170.25H187.271ZM261.663 136.718L252.315 212.756L256.285 213.244L265.633 137.206L261.663 136.718ZM254.3 215H305.144V211H254.3V215ZM307.129 213.244L309.637 192.838L305.667 192.35L303.159 212.756L307.129 213.244ZM307.652 190.594H284.396V194.594H307.652V190.594ZM286.382 192.829L287.408 184.165L283.436 183.695L282.41 192.359L286.382 192.829ZM285.422 185.93H305.942V181.93H285.422V185.93ZM307.928 184.171L310.208 165.361L306.237 164.879L303.957 183.689L307.928 184.171ZM308.222 163.12H287.702V167.12H308.222V163.12ZM289.687 165.365L290.713 157.043L286.743 156.553L285.717 164.875L289.687 165.365ZM288.728 158.798H311.186V154.798H288.728V158.798ZM313.172 157.038L315.566 137.202L311.595 136.722L309.201 156.558L313.172 157.038ZM313.58 134.962H263.648V138.962H313.58V134.962ZM369.715 136.72L364.471 179.812L368.442 180.296L373.686 137.204L369.715 136.72ZM364.475 179.783C363.917 183.86 363.059 186.335 361.96 187.775C360.985 189.053 359.691 189.682 357.565 189.682V193.682C360.682 193.682 363.265 192.658 365.139 190.202C366.89 187.909 367.857 184.57 368.438 180.325L364.475 179.783ZM357.565 189.682C355.782 189.682 354.647 189.174 353.951 188.461C353.249 187.741 352.725 186.538 352.725 184.614H348.725C348.725 187.25 349.454 189.581 351.089 191.255C352.73 192.936 355.015 193.682 357.565 193.682V189.682ZM352.725 184.614C352.725 183.86 352.928 182.085 353.279 179.276L349.31 178.78C348.977 181.443 348.725 183.543 348.725 184.614H352.725ZM353.28 179.27L358.41 137.204L354.439 136.72L349.309 178.786L353.28 179.27ZM356.425 134.962H328.495V138.962H356.425V134.962ZM326.51 136.714L321.038 180.49L325.007 180.986L330.479 137.21L326.51 136.714ZM321.035 180.517C320.799 182.638 320.681 184.65 320.681 186.78H324.681C324.681 184.806 324.79 182.942 325.01 180.959L321.035 180.517ZM320.681 186.78C320.681 191.518 321.331 195.567 322.851 199.123C324.379 202.698 326.735 205.658 329.971 208.283L332.491 205.177C329.685 202.9 327.766 200.445 326.529 197.551C325.284 194.637 324.681 191.162 324.681 186.78H320.681ZM329.972 208.284C337.03 214.003 346.749 216.938 358.135 216.938V212.938C347.404 212.938 338.656 210.173 332.49 205.176L329.972 208.284ZM358.135 216.938C369.359 216.938 378.075 213.966 385.235 207.534L382.562 204.558C376.271 210.21 368.57 212.938 358.135 212.938V216.938ZM385.249 207.521C388.763 204.305 391.118 201.355 392.814 197.029C394.468 192.811 395.459 187.371 396.485 179.279L392.517 178.776C391.49 186.873 390.543 191.864 389.09 195.569C387.68 199.166 385.76 201.631 382.548 204.571L385.249 207.521ZM396.486 179.27L401.616 137.204L397.645 136.72L392.515 178.786L396.486 179.27ZM399.631 134.962H371.701V138.962H399.631V134.962ZM473.828 180.354C479.125 176.066 482.207 169.204 482.207 162.042H478.207C478.207 168.104 475.59 173.782 471.311 177.245L473.828 180.354ZM482.207 162.042C482.207 154.263 478.635 146.635 472.599 141.584L470.032 144.652C475.168 148.949 478.207 155.457 478.207 162.042H482.207ZM472.565 141.556C466.35 136.584 459.995 134.962 447.375 134.962V138.962C459.607 138.962 464.881 140.532 470.066 144.68L472.565 141.556ZM447.375 134.962H417.165V138.962H447.375V134.962ZM415.18 136.718L405.832 212.756L409.802 213.244L419.15 137.206L415.18 136.718ZM407.817 215H435.405V211H407.817V215ZM437.392 213.231L438.874 200.463L434.901 200.001L433.419 212.769L437.392 213.231ZM438.873 200.47C439.225 197.536 439.457 193.694 439.457 190.2H435.457C435.457 193.546 435.233 197.228 434.902 199.994L438.873 200.47ZM439.457 190.2C439.457 188.134 439.457 187.074 439.341 184.523L435.345 184.705C435.457 187.17 435.457 188.162 435.457 190.2H439.457ZM437.626 186.594L438.424 186.48L437.858 182.52L437.06 182.634L437.626 186.594ZM436.18 184.892C436.777 187.878 438.067 192.085 439.222 195.319L442.989 193.973C441.864 190.823 440.645 186.822 440.102 184.108L436.18 184.892ZM439.231 195.344L446.071 213.698L449.819 212.302L442.979 193.948L439.231 195.344ZM447.945 215H477.813V211H447.945V215ZM479.562 212.029L463.032 182.275L459.535 184.217L476.065 213.971L479.562 212.029ZM461.561 185.227C464.461 184.821 466.615 184.367 468.521 183.608C470.456 182.837 472.027 181.795 473.819 180.362L471.32 177.238C469.691 178.541 468.469 179.323 467.041 179.892C465.584 180.472 463.806 180.873 461.006 181.265L461.561 185.227ZM444.411 159.368C447.294 159.368 448.983 159.845 449.916 160.5C450.697 161.049 451.189 161.896 451.189 163.524H455.189C455.189 160.934 454.314 158.702 452.216 157.228C450.27 155.86 447.571 155.368 444.411 155.368V159.368ZM451.189 163.524C451.189 165.148 450.511 166.436 449.217 167.381C447.863 168.369 445.726 169.048 442.815 169.048V173.048C446.289 173.048 449.338 172.245 451.576 170.611C453.873 168.934 455.189 166.46 455.189 163.524H451.189ZM442.815 169.048H440.535V173.048H442.815V169.048ZM442.52 171.296L444.23 157.616L440.261 157.12L438.551 170.8L442.52 171.296ZM442.245 159.368H444.411V155.368H442.245V159.368Z" fill="#6AC687" mask="url(#path-6-inside-3_224_7748)"/>
</g>
<defs>
<clipPath id="clip0_224_7748">
<rect width="614" height="294" fill="white"/>
</clipPath>
</defs>
</svg>
